# Created by Open3D 
# object name: 52600d45710141ba8d3fa7600b38fddf_collider0
# number of vertices: 64
# number of triangles: 124
v -0.021257 -0.044047 -0.009106
v 0.009205 0.049078 0.001528
v 0.013707 0.047219 0.007617
v 0.039272 -0.010561 -0.028692
v 0.016753 -0.015235 0.044188
v -0.04558 0.016707 -0.010633
v -0.012142 0.010611 -0.047046
v -0.02732 0.007588 0.040975
v 0.044029 -0.019727 0.012137
v 0.036213 0.024132 0.024132
v 0.036213 0.024132 -0.024132
v 0.012106 -0.045389 -0.016637
v -0.024194 -0.036291 0.024194
v -0.007582 0.034871 0.034881
v -0.01674 -0.019781 -0.042603
v -0.047228 -0.015233 -0.001518
v 0.012106 -0.045389 0.016637
v -0.015159 0.042446 -0.021218
v -0.03181 0.036366 0.012122
v 0.016731 -0.010639 -0.045645
v 0.015129 0.028742 -0.037823
v 0.048947 0.00917 -0.001524
v -0.045536 0.003034 0.019734
v -0.039268 -0.010562 -0.028696
v 0.010616 0.012137 0.047027
v -0.009114 -0.021276 0.044085
v 0.037879 0.003028 0.031812
v 0.031816 -0.036362 -0.012121
v -0.031657 0.019602 -0.033168
v 0.033413 0.036458 -0.006072
v 0.007581 -0.034877 -0.034877
v -0.036285 -0.018142 0.028724
v 0.01658 0.034671 0.031667
v 0.031632 -0.028612 0.025602
v 0.015159 0.042446 -0.021218
v -0.013707 0.047219 0.007617
v 0.021258 0.009097 -0.044048
v -0.024194 -0.036291 -0.024194
v 0.007581 -0.034877 0.034877
v -0.006121 -0.04901 0.007657
v -0.03181 0.036366 -0.012122
v -0.037925 -0.03186 -0.003032
v -0.007582 0.034871 -0.034881
v -0.00917 0.001524 0.048946
v 0.045706 -0.018271 -0.007608
v -0.036203 0.024141 0.024141
v 0.030196 -0.025665 -0.030196
v 0.027328 -0.040987 0.007591
v 0.001524 -0.009161 -0.048948
v -0.022792 -0.001514 -0.04407
v -0.004549 -0.045563 -0.019746
v 0.040975 0.007588 -0.02732
v -0.045705 0.018271 0.007618
v 0.034881 0.034871 0.007582
v 0.025691 0.012093 0.040805
v -0.01674 0.019781 0.042603
v 0.048947 0.001524 0.00917
v -0.004549 0.045563 0.019746
v -0.007591 -0.040987 0.027328
v -0.048947 0.001524 -0.00917
v -0.024286 -0.01821 0.039462
v 0.001518 0.015234 -0.047228
v -0.042329 -0.02116 0.015117
v -0.040975 0.007588 -0.02732
f 60 6 64
f 2 3 30
f 22 11 30
f 8 23 32
f 14 25 33
f 27 5 34
f 9 27 34
f 18 2 35
f 11 21 35
f 2 30 35
f 30 11 35
f 2 18 36
f 4 20 37
f 21 11 37
f 24 15 38
f 15 31 38
f 5 26 39
f 34 5 39
f 17 34 39
f 13 1 40
f 12 17 40
f 29 6 41
f 18 29 41
f 36 18 41
f 19 36 41
f 1 13 42
f 16 24 42
f 38 1 42
f 24 38 42
f 29 18 43
f 7 29 43
f 18 35 43
f 35 21 43
f 5 25 44
f 26 5 44
f 9 28 45
f 14 19 46
f 23 8 46
f 20 4 47
f 28 12 47
f 12 31 47
f 31 20 47
f 4 45 47
f 45 28 47
f 17 12 48
f 28 9 48
f 12 28 48
f 34 17 48
f 9 34 48
f 31 15 49
f 20 31 49
f 37 20 49
f 15 24 50
f 29 7 50
f 7 49 50
f 49 15 50
f 31 12 51
f 1 38 51
f 38 31 51
f 40 1 51
f 12 40 51
f 11 22 52
f 4 37 52
f 37 11 52
f 45 4 52
f 22 45 52
f 41 6 53
f 19 41 53
f 46 19 53
f 23 46 53
f 10 22 54
f 30 3 54
f 22 30 54
f 3 33 54
f 33 10 54
f 25 5 55
f 5 27 55
f 27 10 55
f 10 33 55
f 33 25 55
f 25 14 56
f 8 44 56
f 44 25 56
f 46 8 56
f 14 46 56
f 22 10 57
f 27 9 57
f 10 27 57
f 45 22 57
f 9 45 57
f 3 2 58
f 19 14 58
f 33 3 58
f 14 33 58
f 2 36 58
f 36 19 58
f 26 13 59
f 17 39 59
f 39 26 59
f 13 40 59
f 40 17 59
f 16 23 60
f 24 16 60
f 53 6 60
f 23 53 60
f 13 26 61
f 32 13 61
f 8 32 61
f 44 8 61
f 26 44 61
f 21 37 62
f 7 43 62
f 43 21 62
f 49 7 62
f 37 49 62
f 23 16 63
f 13 32 63
f 32 23 63
f 42 13 63
f 16 42 63
f 6 29 64
f 50 24 64
f 29 50 64
f 24 60 64
