# Created by Open3D 
# object name: 4eb3ba34f50b4348b74a3f9a78793397_collider4
# number of vertices: 44
# number of triangles: 84
v -0.0728 0.019862 0.038949
v -0.072538 0.020132 0.043411
v -0.051941 0.071539 0.030888
v -0.054658 0.020111 0.018064
v -0.044249 0.020231 0.056745
v -0.022684 0.071539 0.021133
v -0.043824 0.071539 0.042258
v -0.032368 0.020219 0.024097
v -0.061694 0.024399 0.060146
v -0.029192 0.06666 0.040633
v -0.044286 0.064578 0.018331
v -0.031228 0.020691 0.046205
v -0.025938 0.068283 0.016248
v -0.061569 0.026836 0.021748
v -0.074711 0.026021 0.042258
v -0.039711 0.019999 0.017972
v -0.05682 0.065032 0.03414
v -0.036658 0.019878 0.054001
v -0.060947 0.019433 0.058885
v -0.054332 0.042605 0.05441
v -0.029273 0.020063 0.029983
v -0.027562 0.071539 0.037389
v -0.062308 0.019755 0.020803
v -0.057138 0.042608 0.022011
v -0.029257 0.020042 0.040438
v -0.071452 0.029278 0.04551
v -0.042977 0.068309 0.018891
v -0.040326 0.039836 0.051452
v -0.038945 0.071539 0.042258
v -0.055486 0.042681 0.053823
v -0.024802 0.069355 0.029987
v -0.061135 0.042645 0.027834
v -0.074711 0.02277 0.043886
v -0.053011 0.049752 0.020197
v -0.044504 0.027235 0.055681
v -0.024313 0.069911 0.017881
v -0.037348 0.028397 0.053095
v -0.067429 0.022379 0.028833
v -0.066801 0.04263 0.037505
v -0.054563 0.043988 0.019859
v -0.064948 0.02277 0.056893
v -0.041662 0.041204 0.051564
v -0.036977 0.020535 0.019883
v -0.06269 0.034222 0.026302
f 14 38 44
f 6 3 7
f 4 11 13
f 4 13 16
f 7 3 17
f 12 10 18
f 2 1 19
f 5 9 19
f 18 5 19
f 16 8 21
f 19 16 21
f 18 19 21
f 6 7 22
f 10 12 22
f 4 16 23
f 16 19 23
f 19 1 23
f 17 3 24
f 12 18 25
f 21 6 25
f 18 21 25
f 17 15 26
f 3 6 27
f 11 3 27
f 13 11 27
f 7 20 29
f 22 7 29
f 10 22 29
f 7 17 30
f 9 20 30
f 20 7 30
f 26 9 30
f 17 26 30
f 6 22 31
f 22 12 31
f 12 25 31
f 25 6 31
f 17 24 32
f 1 2 33
f 15 1 33
f 2 19 33
f 26 15 33
f 3 11 34
f 24 3 34
f 9 5 35
f 20 9 35
f 8 13 36
f 6 21 36
f 21 8 36
f 27 6 36
f 13 27 36
f 5 18 37
f 18 10 37
f 10 28 37
f 35 5 37
f 28 35 37
f 1 15 38
f 14 23 38
f 23 1 38
f 15 17 39
f 32 15 39
f 17 32 39
f 11 4 40
f 4 23 40
f 23 14 40
f 14 24 40
f 34 11 40
f 24 34 40
f 19 9 41
f 9 26 41
f 33 19 41
f 26 33 41
f 28 10 42
f 29 20 42
f 10 29 42
f 20 35 42
f 35 28 42
f 13 8 43
f 8 16 43
f 16 13 43
f 24 14 44
f 15 32 44
f 32 24 44
f 38 15 44
