# Created by Open3D 
# object name: 4eb3ba34f50b4348b74a3f9a78793397_collider1
# number of vertices: 64
# number of triangles: 124
v -0.032579 -0.042604 0.049677
v -0.021618 -0.075828 -0.011826
v -0.026085 -0.075819 -0.00730402
v 0.026094 -0.100813 -0.00325802
v 0.03423 -0.056914 -0.013018
v -0.052623 -0.039186 0.010341
v -0.031397 -0.074166 0.035513
v 0.048864 -0.076424 -0.013018
v -0.066206 -0.038482 0.035232
v -0.026215 -0.089418 0.00451698
v -0.022666 -0.040651 0.048763
v -0.00516802 -0.098423 -0.012011
v -0.015606 -0.040146 0.010661
v 0.00267398 -0.072533 0.026484
v -0.00223702 -0.095142 0.015109
v -0.00517802 -0.054864 -0.011938
v -0.048909 -0.068357 0.021056
v -0.051349 -0.038997 0.05351
v 0.039101 -0.095934 -0.013018
v 0.043983 -0.065046 -0.014647
v 0.032603 -0.076424 0.00324398
v -0.032342 -0.039629 0.00444498
v -0.040766 -0.060961 0.044758
v -0.021395 -0.083038 0.029846
v -0.021852 -0.069856 -0.012456
v -0.049138 -0.048614 0.00740898
v -0.06055 -0.051372 0.030336
v -0.011108 -0.041109 0.018161
v -0.019097 -0.064396 0.038511
v -0.04266 -0.07585 0.016576
v -0.017215 -0.060806 -0.012148
v 0.043983 -0.065046 -0.013018
v 0.00560898 -0.098922 -0.012561
v -0.043092 -0.039477 0.00587798
v -0.014264 -0.095874 -0.00492602
v 0.00235598 -0.096946 0.01204
v -0.047106 -0.050384 0.049517
v -0.042659 -0.065367 0.00756798
v -0.056716 -0.045587 0.018038
v 0.012134 -0.077966 0.01827
v -0.011116 -0.090037 0.022476
v 0.048864 -0.074798 -0.013018
v 0.00504498 -0.083158 0.019654
v -0.053642 -0.062286 0.025617
v 0.040728 -0.061793 -0.014647
v -0.036783 -0.063842 -0.00153002
v 0.033652 -0.097729 -0.012953
v -0.030618 -0.086322 0.00758898
v -0.00834802 -0.068445 0.032967
v -0.03309 -0.071297 0.038614
v -0.055743 -0.039154 0.013402
v 0.040728 -0.061793 -0.013018
v -0.017181 -0.083381 -0.012001
v -0.021277 -0.040788 0.00506798
v -0.051953 -0.05627 0.016549
v -0.034989 -0.07431 0.00317898
v -0.027985 -0.054311 0.04497
v -0.00439702 -0.079001 0.026246
v -0.00515602 -0.053281 -0.010585
v -0.0248 -0.072885 -0.010719
v -0.026042 -0.081759 -0.00276302
v -0.013713 -0.072467 0.033101
v -0.029722 -0.074112 0.036794
v -0.062269 -0.038937 0.025724
f 51 39 64
f 1 11 18
f 13 9 18
f 11 13 18
f 8 19 20
f 11 14 21
f 4 19 21
f 19 8 21
f 6 9 22
f 9 13 22
f 11 5 28
f 5 13 28
f 13 11 28
f 24 7 30
f 25 6 31
f 4 12 33
f 12 25 33
f 6 22 34
f 16 31 34
f 31 6 34
f 15 10 35
f 15 35 36
f 12 4 36
f 35 12 36
f 11 1 37
f 1 18 37
f 18 9 37
f 9 27 37
f 27 23 37
f 30 17 38
f 4 21 40
f 21 14 40
f 10 15 41
f 24 10 41
f 15 36 41
f 8 20 42
f 21 8 42
f 11 21 42
f 32 11 42
f 20 32 42
f 36 4 43
f 4 40 43
f 40 14 43
f 41 36 43
f 27 17 44
f 23 27 44
f 17 30 44
f 16 5 45
f 31 16 45
f 25 31 45
f 32 20 45
f 20 33 45
f 33 25 45
f 38 26 46
f 19 4 47
f 20 19 47
f 4 33 47
f 33 20 47
f 10 24 48
f 24 30 48
f 14 11 49
f 11 29 49
f 7 24 50
f 30 7 50
f 23 44 50
f 44 30 50
f 9 6 51
f 6 26 51
f 26 39 51
f 5 11 52
f 11 32 52
f 45 5 52
f 32 45 52
f 2 25 53
f 25 12 53
f 12 35 53
f 13 5 54
f 5 22 54
f 22 13 54
f 17 27 55
f 26 38 55
f 38 17 55
f 39 26 55
f 27 39 55
f 30 38 56
f 46 3 56
f 38 46 56
f 48 30 56
f 29 11 57
f 11 37 57
f 37 23 57
f 43 14 58
f 41 43 58
f 14 49 58
f 5 16 59
f 22 5 59
f 34 22 59
f 16 34 59
f 25 2 60
f 6 25 60
f 26 6 60
f 3 46 60
f 46 26 60
f 53 3 60
f 2 53 60
f 35 10 61
f 10 48 61
f 3 53 61
f 53 35 61
f 56 3 61
f 48 56 61
f 24 41 62
f 49 29 62
f 41 58 62
f 58 49 62
f 50 24 63
f 23 50 63
f 29 57 63
f 57 23 63
f 24 62 63
f 62 29 63
f 27 9 64
f 39 27 64
f 9 51 64
