# Created by Open3D 
# object name: 4eb3ba34f50b4348b74a3f9a78793397_collider3
# number of vertices: 60
# number of triangles: 116
v -0.00316602 -0.097558 -0.017901
v 0.066749 -0.04878 -0.047164
v 0.069996 -0.05041 -0.04554
v 9.09814e-05 -0.05366 -0.014647
v 0.048817 -0.074797 -0.016375
v 0.066749 -0.060169 -0.061801
v 0.053193 -0.08828 -0.029986
v -0.019419 -0.073177 -0.017901
v 0.039092 -0.091054 -0.043906
v 0.038263 -0.095898 -0.016367
v 0.063492 -0.05204 -0.060167
v 0.013098 -0.079671 -0.037416
v 0.076509 -0.063418 -0.048789
v 0.035236 -0.058277 -0.016443
v -0.016172 -0.061789 -0.014647
v 0.011474 -0.100813 -0.026029
v 0.060245 -0.078046 -0.053668
v -0.00153302 -0.100813 -0.016276
v 0.074876 -0.056914 -0.043906
v 0.074876 -0.060169 -0.058547
v 0.027728 -0.097558 -0.035787
v 0.068372 -0.076416 -0.04554
v 0.063492 -0.04878 -0.055293
v -0.016172 -0.061789 -0.016276
v -0.00316602 -0.081296 -0.027658
v -0.021052 -0.071547 -0.014647
v 0.043982 -0.071547 -0.052039
v 0.045605 -0.08943 -0.04554
v 0.065125 -0.05366 -0.061801
v 0.04413 -0.065848 -0.016592
v 0.073252 -0.063418 -0.060167
v 0.00985098 -0.076416 -0.035787
v -0.021052 -0.076416 -0.016276
v 0.071629 -0.05204 -0.043906
v 0.039774 -0.095877 -0.017897
v 9.09814e-05 -0.05366 -0.016276
v 0.068372 -0.05204 -0.060167
v 0.076509 -0.061789 -0.047164
v 0.063492 -0.05041 -0.058547
v 0.026105 -0.097558 -0.035787
v -0.00641302 -0.08943 -0.021155
v 0.045605 -0.087805 -0.047164
v 0.076509 -0.063418 -0.055293
v 0.065125 -0.079671 -0.042281
v 0.076509 -0.060169 -0.055293
v 0.00497098 -0.087805 -0.029283
v 0.071629 -0.056914 -0.061801
v 0.048607 -0.076283 -0.016593
v -0.014539 -0.078046 -0.021155
v -0.014539 -0.086175 -0.016276
v 0.066749 -0.04878 -0.055293
v -0.00153302 -0.076416 -0.029283
v 0.045818 -0.068771 -0.016363
v 0.032177 -0.097072 -0.016687
v 0.00948998 -0.099117 -0.016183
v 0.063492 -0.04878 -0.048789
v 0.069996 -0.05041 -0.048789
v 0.068372 -0.069923 -0.056922
v 0.042358 -0.091054 -0.043906
v 0.00171398 -0.100813 -0.019525
f 41 16 60
f 5 4 10
f 3 2 14
f 2 4 14
f 15 4 24
f 10 4 26
f 4 15 26
f 24 8 26
f 15 24 26
f 9 12 27
f 8 24 29
f 24 11 29
f 6 27 29
f 27 12 29
f 17 6 31
f 29 12 32
f 26 8 33
f 3 14 34
f 14 30 34
f 16 21 35
f 28 7 35
f 4 23 36
f 24 4 36
f 19 5 38
f 11 24 39
f 29 11 39
f 36 23 39
f 24 36 39
f 37 29 39
f 12 9 40
f 9 21 40
f 21 16 40
f 6 17 42
f 27 6 42
f 9 27 42
f 28 9 42
f 17 28 42
f 13 22 43
f 31 20 43
f 38 13 43
f 22 13 44
f 17 22 44
f 7 28 44
f 28 17 44
f 38 7 44
f 13 38 44
f 34 19 45
f 19 38 45
f 43 20 45
f 38 43 45
f 25 12 46
f 12 40 46
f 40 16 46
f 16 41 46
f 41 25 46
f 6 29 47
f 31 6 47
f 20 31 47
f 29 37 47
f 37 45 47
f 45 20 47
f 5 10 48
f 35 7 48
f 10 35 48
f 38 5 48
f 7 38 48
f 33 8 49
f 25 41 49
f 49 41 50
f 1 18 50
f 18 26 50
f 26 33 50
f 41 1 50
f 33 49 50
f 2 3 51
f 23 2 51
f 39 23 51
f 37 39 51
f 12 25 52
f 8 29 52
f 32 12 52
f 29 32 52
f 49 8 52
f 25 49 52
f 4 5 53
f 14 4 53
f 5 19 53
f 30 14 53
f 19 34 53
f 34 30 53
f 10 18 54
f 18 16 54
f 35 10 54
f 16 35 54
f 18 10 55
f 10 26 55
f 26 18 55
f 4 2 56
f 2 23 56
f 23 4 56
f 3 34 57
f 34 45 57
f 45 37 57
f 51 3 57
f 37 51 57
f 22 17 58
f 17 31 58
f 43 22 58
f 31 43 58
f 21 9 59
f 9 28 59
f 35 21 59
f 28 35 59
f 18 1 60
f 16 18 60
f 1 41 60
