# Created by Open3D 
# object name: 4eb3ba34f50b4348b74a3f9a78793397_collider0
# number of vertices: 64
# number of triangles: 124
v -0.052865 0.00230398 0.059719
v -0.043817 -0.035341 0.00697798
v -0.062077 0.016114 0.020383
v -0.011296 -0.035764 0.022759
v -0.066433 -0.035396 0.037089
v -0.029282 0.014948 0.029691
v -0.028863 -0.035173 0.05051
v -0.036253 0.015956 0.053741
v -0.073111 0.016458 0.043339
v -0.024316 -0.037393 0.00486598
v -0.057353 -0.024799 0.056648
v -0.039373 0.015461 0.017747
v -0.064614 -0.015693 0.020689
v -0.061071 0.016908 0.059205
v -0.074318 -0.00518602 0.041707
v -0.01618 -0.035764 0.039003
v -0.030523 0.015366 0.045884
v -0.01618 -0.035764 0.011372
v -0.054296 -0.035212 0.053537
v -0.056095 -0.035844 0.012602
v -0.03477 -0.018798 0.055188
v -0.054289 0.015684 0.017609
v -0.060497 -0.00673002 0.059861
v -0.069165 0.00813298 0.028109
v -0.071298 -0.023493 0.038656
v -0.011296 -0.037393 0.02438
v -0.025933 -0.034141 0.00486598
v -0.043817 0.00827598 0.058125
v -0.043817 -0.021782 0.056634
v -0.061992 0.00690398 0.059834
v -0.029037 0.015364 0.039964
v -0.032304 0.014707 0.023972
v -0.063167 -0.035057 0.025136
v -0.07476 0.011897 0.041828
v -0.06921 -0.00975902 0.0281
v -0.064626 0.00362298 0.020681
v -0.043817 -0.03529 0.0536
v -0.045321 -0.012762 0.058182
v -0.067957 0.015891 0.028048
v -0.019433 -0.035764 0.00811898
v -0.037812 0.000763976 0.056625
v -0.011296 -0.035764 0.02438
v -0.055959 -0.026448 0.056847
v -0.060697 0.014794 0.060181
v -0.037783 0.015924 0.055227
v -0.066173 -0.021678 0.025121
v -0.012926 -0.035764 0.017879
v -0.06374 0.016294 0.021827
v -0.072758 -0.015843 0.04017
v -0.073802 -0.000768024 0.03856
v -0.066284 -0.035228 0.032582
v -0.071002 0.00533998 0.047665
v -0.049874 0.016023 0.058346
v -0.01618 -0.037393 0.011372
v -0.037852 -0.032155 0.053482
v -0.072422 0.015841 0.037082
v -0.058671 -0.030545 0.014756
v -0.060322 -0.01275 0.058082
v -0.052915 0.00692398 0.059865
v -0.063215 0.014112 0.020637
v -0.024316 -0.035764 0.00486598
v -0.054434 -0.032513 0.055322
v -0.032048 -0.024461 0.05318
v -0.061781 0.000720976 0.059525
f 30 52 64
f 8 12 14
f 8 16 17
f 2 10 20
f 10 5 20
f 2 3 22
f 3 12 22
f 5 10 26
f 16 7 26
f 19 5 26
f 10 2 27
f 2 22 27
f 22 12 27
f 4 6 31
f 12 8 31
f 6 12 31
f 8 17 31
f 12 6 32
f 6 18 32
f 30 9 34
f 13 35 36
f 35 24 36
f 26 7 37
f 19 26 37
f 1 23 38
f 29 21 38
f 12 32 40
f 32 18 40
f 28 38 41
f 38 21 41
f 17 16 42
f 16 26 42
f 26 4 42
f 4 31 42
f 31 17 42
f 23 11 43
f 37 29 43
f 38 23 43
f 29 38 43
f 14 9 44
f 9 30 44
f 30 23 44
f 8 14 45
f 16 8 45
f 41 16 45
f 28 41 45
f 35 13 46
f 25 35 46
f 6 4 47
f 18 6 47
f 4 26 47
f 12 3 48
f 9 14 48
f 14 12 48
f 24 39 48
f 25 11 49
f 35 25 49
f 35 49 50
f 34 24 50
f 15 34 50
f 24 35 50
f 49 15 50
f 20 5 51
f 5 25 51
f 33 20 51
f 46 33 51
f 25 46 51
f 34 15 52
f 30 34 52
f 14 44 53
f 45 14 53
f 28 45 53
f 26 10 54
f 10 40 54
f 40 18 54
f 18 47 54
f 47 26 54
f 7 21 55
f 21 29 55
f 37 7 55
f 29 37 55
f 34 9 56
f 24 34 56
f 39 24 56
f 9 48 56
f 48 39 56
f 20 33 57
f 36 20 57
f 13 36 57
f 46 13 57
f 33 46 57
f 11 23 58
f 23 15 58
f 49 11 58
f 15 49 58
f 23 1 59
f 1 38 59
f 38 28 59
f 44 23 59
f 53 44 59
f 28 53 59
f 3 2 60
f 2 20 60
f 20 36 60
f 36 24 60
f 48 3 60
f 24 48 60
f 10 27 61
f 27 12 61
f 40 10 61
f 12 40 61
f 5 19 62
f 25 5 62
f 11 25 62
f 19 37 62
f 43 11 62
f 37 43 62
f 7 16 63
f 21 7 63
f 16 41 63
f 41 21 63
f 15 23 64
f 23 30 64
f 52 15 64
