# Created by Open3D 
# object name: 54a13e432b9a488ab35d1c6644d9bc0c_collider2
# number of vertices: 64
# number of triangles: 124
v -0.038441 0.011747 -0.036013
v 0.01076 -0.008528 -0.086085
v 0.005987 -0.008436 -0.084675
v -0.013703 -0.014145 -0.0371
v 0.038233 -0.002912 -0.075294
v -0.009086 0.015924 -0.037078
v -0.000997 0.008844 -0.077314
v -0.032324 -0.006079 -0.049779
v 0.011965 -0.0168 -0.077883
v 0.0024 -0.001384 -0.037587
v 0.035698 -0.014303 -0.074029
v -0.006671 0.015669 -0.061381
v -0.020452 0.005462 -0.065956
v 0.036965 -0.005443 -0.086688
v -0.032766 -0.01088 -0.03667
v -0.01139 -0.010671 -0.072932
v 0.013698 0.009925 -0.069286
v -0.027601 0.015921 -0.047505
v -0.009251 -0.01683 -0.055482
v 0.031896 -0.015567 -0.085424
v 0.014039 0.007819 -0.079885
v -0.024727 0.018689 -0.03645
v 0.000112 0.0098 -0.03797
v -0.002142 -0.008387 -0.037048
v -0.014764 -0.00371 -0.072856
v -0.03658 0.000881999 -0.04596
v -0.009109 -0.015363 -0.067177
v -0.015849 0.013454 -0.064807
v 0.007219 -0.001466 -0.084861
v 0.009416 -0.016474 -0.060225
v -0.039322 -0.005104 -0.036229
v -0.027436 0.008925 -0.056786
v 0.036965 -0.001649 -0.082895
v 0.006006 -0.011964 -0.083572
v -0.008975 0.003165 -0.076213
v -0.023418 -0.014466 -0.036583
v 0.0395 -0.010501 -0.081626
v -0.028587 -0.001417 -0.057934
v -0.025475 -0.013111 -0.047395
v 0.036965 -0.006711 -0.072765
v -0.006626 -0.01266 -0.03768
v 0.030637 -0.013036 -0.087958
v 0.013559 0.00984 -0.063618
v 0.009533 0.003222 -0.083608
v -0.006756 -0.006045 -0.078693
v 0.01909 -0.016844 -0.073191
v -0.018255 0.018154 -0.046412
v 0.002411 0.002017 -0.037504
v -0.000997 -0.015331 -0.07527
v -0.020396 -0.008251 -0.064802
v 0.007034 0.011206 -0.073998
v 0.034439 -0.007971 -0.087958
v 0.036965 -0.014303 -0.08416
v -0.033989 0.016197 -0.036636
v 0.040767 -0.005443 -0.080356
v -0.032619 0.010251 -0.0485
v -0.040604 0.004481 -0.036176
v 0.001274 -0.004802 -0.037497
v -0.008991 0.011168 -0.071667
v 0.010721 -0.014356 -0.082483
v 0.0395 -0.011769 -0.077827
v -0.007927 -0.010686 -0.07642
v -0.004457 -0.016471 -0.068315
v -0.02878 0.014776 -0.048647
f 32 56 64
f 12 6 17
f 5 6 23
f 22 1 24
f 6 22 24
f 2 3 29
f 4 19 30
f 8 15 31
f 26 8 31
f 28 13 32
f 14 21 33
f 21 17 33
f 3 2 34
f 25 13 35
f 7 29 35
f 19 4 36
f 4 24 36
f 24 1 36
f 31 15 36
f 1 31 36
f 13 25 38
f 8 26 38
f 26 32 38
f 32 13 38
f 15 8 39
f 27 19 39
f 19 36 39
f 36 15 39
f 24 4 41
f 11 24 41
f 4 30 41
f 30 11 41
f 34 2 42
f 6 5 43
f 17 6 43
f 5 33 43
f 33 17 43
f 7 21 44
f 21 14 44
f 29 7 44
f 29 3 45
f 3 34 45
f 25 35 45
f 35 29 45
f 19 9 46
f 9 20 46
f 20 11 46
f 11 30 46
f 30 19 46
f 6 12 47
f 22 6 47
f 18 22 47
f 12 28 47
f 28 18 47
f 5 23 48
f 23 6 48
f 6 24 48
f 24 10 48
f 10 40 48
f 40 5 48
f 25 16 50
f 16 27 50
f 8 38 50
f 38 25 50
f 39 8 50
f 27 39 50
f 12 17 51
f 21 7 51
f 17 21 51
f 2 29 52
f 42 2 52
f 44 14 52
f 29 44 52
f 11 20 53
f 14 37 53
f 20 42 53
f 52 14 53
f 42 52 53
f 1 22 54
f 22 18 54
f 33 5 55
f 14 33 55
f 37 14 55
f 32 26 56
f 31 1 57
f 26 31 57
f 1 56 57
f 56 26 57
f 10 24 58
f 24 11 58
f 40 10 58
f 11 40 58
f 28 12 59
f 13 28 59
f 35 13 59
f 7 35 59
f 12 51 59
f 51 7 59
f 20 9 60
f 34 42 60
f 42 20 60
f 9 49 60
f 49 34 60
f 40 11 61
f 5 40 61
f 11 53 61
f 53 37 61
f 55 5 61
f 37 55 61
f 16 25 62
f 27 16 62
f 25 45 62
f 45 34 62
f 49 27 62
f 34 49 62
f 9 19 63
f 19 27 63
f 49 9 63
f 27 49 63
f 18 28 64
f 28 32 64
f 1 54 64
f 54 18 64
f 56 1 64
