# Created by Open3D 
# object name: 54a13e432b9a488ab35d1c6644d9bc0c_collider0
# number of vertices: 64
# number of triangles: 124
v -0.047607 0.004483 0.001217
v 0.009128 -0.00418 0.071498
v 0.007857 -0.00418 0.071498
v -0.029348 -0.014352 0.002044
v -0.010897 0.009973 0.00306
v -0.031302 0.005412 0.050719
v -0.025747 -0.014114 0.046389
v -0.024559 0.016929 0.02914
v 0.009128 -0.013036 0.060102
v -0.01084 -0.005979 0.002855
v -0.04045 0.016538 0.00112
v -0.04196 -0.007211 0.023298
v -0.013178 0.011091 0.053024
v -0.024629 -0.0061 0.059288
v -0.042026 0.008999 0.026738
v -0.003934 0.0089 0.048613
v -0.01882 0.015965 0.002375
v 0.006592 -0.011769 0.070227
v -0.012952 -0.01671 0.044227
v -0.012941 0.004404 0.064207
v -0.018827 -0.012959 0.002574
v -0.03866 -0.001453 0.041849
v -0.03138 0.013423 0.039422
v -0.036448 -0.013237 0.001913
v 0.005702 0.000881999 0.05119
v -0.00872 0.003135 0.004468
v -0.047518 0.000881999 0.013297
v -0.03279 -0.014265 0.030199
v -0.045195 -0.006324 0.001217
v -0.01762 -0.002658 0.064357
v -0.034915 -0.009452 0.040599
v -0.032887 0.018496 0.001983
v -0.01882 -0.013042 0.055736
v -0.02572 0.011211 0.049783
v 0.009128 -0.001649 0.0677
v -0.02113 0.015826 0.038307
v -0.04469 0.010298 0.014846
v -0.037299 0.014737 0.024476
v 0.007184 -0.005021 0.051372
v -0.014062 -0.00859 0.06444
v -0.025851 -0.015561 0.014889
v 0.000386 0.005409 0.041654
v -0.012036 0.013376 0.033741
v -0.025775 0.018274 0.002405
v 0.009128 -0.013036 0.0677
v -0.023477 0.003214 0.059333
v -0.016503 0.014795 0.002403
v -0.03957 0.007795 0.034867
v -0.042095 -0.000280001 0.033699
v -0.0316 -0.003767 0.052281
v -0.009728 -0.002535 0.002971
v -0.029213 0.01821 0.016382
v 0.006592 -0.010501 0.071498
v -0.015539 -0.011348 0.003754
v -0.009412 0.005581 0.063032
v -0.014013 -0.000310001 0.065872
v -0.045272 0.011719 0.001111
v -0.036204 -0.013028 0.019795
v -0.026963 -0.015428 0.036012
v -0.014165 -0.015406 0.051136
v -0.027995 -0.011722 0.048611
v -0.01998 0.008878 0.056575
v -0.039708 0.01597 0.011645
v -0.044668 -0.006174 0.01369
f 29 58 64
f 10 4 11
f 3 2 20
f 4 10 21
f 9 19 21
f 5 25 26
f 11 4 29
f 4 24 29
f 27 1 29
f 28 7 31
f 12 28 31
f 17 11 32
f 23 6 34
f 2 9 35
f 16 13 35
f 13 16 36
f 8 23 36
f 34 13 36
f 23 34 36
f 1 27 37
f 27 15 37
f 37 15 38
f 26 25 39
f 35 9 39
f 25 35 39
f 30 14 40
f 14 33 40
f 33 18 40
f 4 21 41
f 21 19 41
f 24 4 41
f 28 24 41
f 25 5 42
f 16 35 42
f 35 25 42
f 36 16 43
f 36 43 44
f 17 32 44
f 8 36 44
f 43 17 44
f 9 2 45
f 19 9 45
f 14 30 46
f 34 6 46
f 10 11 47
f 11 17 47
f 42 5 47
f 16 42 47
f 43 16 47
f 17 43 47
f 22 6 48
f 6 23 48
f 23 38 48
f 38 15 48
f 15 27 49
f 27 12 49
f 12 31 49
f 31 22 49
f 22 48 49
f 48 15 49
f 6 22 50
f 22 31 50
f 46 6 50
f 14 46 50
f 9 10 51
f 5 26 51
f 39 9 51
f 26 39 51
f 47 5 51
f 10 47 51
f 23 8 52
f 38 23 52
f 8 44 52
f 44 32 52
f 2 3 53
f 30 40 53
f 40 18 53
f 45 2 53
f 18 45 53
f 10 9 54
f 21 10 54
f 9 21 54
f 20 2 55
f 2 35 55
f 35 13 55
f 3 20 56
f 46 30 56
f 20 46 56
f 53 3 56
f 30 53 56
f 29 1 57
f 11 29 57
f 1 37 57
f 28 12 58
f 24 28 58
f 29 24 58
f 19 7 59
f 7 28 59
f 41 19 59
f 28 41 59
f 7 19 60
f 33 7 60
f 18 33 60
f 45 18 60
f 19 45 60
f 31 7 61
f 7 33 61
f 33 14 61
f 14 50 61
f 50 31 61
f 13 34 62
f 46 20 62
f 34 46 62
f 20 55 62
f 55 13 62
f 32 11 63
f 37 38 63
f 52 32 63
f 38 52 63
f 11 57 63
f 57 37 63
f 12 27 64
f 27 29 64
f 58 12 64
