# Created by Open3D 
# object name: 54a13e432b9a488ab35d1c6644d9bc0c_collider1
# number of vertices: 61
# number of triangles: 118
v -0.029618 -0.014168 -0.008954
v -0.026078 0.01951 -0.022908
v 0.001534 -0.002914 -0.033536
v -0.040454 -0.004963 -0.033806
v -0.040628 0.016624 -0.001463
v -0.00994 0.006815 -0.002144
v -0.045358 -0.006214 -0.001528
v -0.035536 0.016304 -0.033598
v -0.015819 -0.01144 -0.002358
v -0.016778 -0.014145 -0.033476
v -0.002666 0.010403 -0.033555
v -0.047323 0.003365 -0.012421
v -0.016742 0.015097 -0.001878
v -0.033099 -0.01179 -0.033456
v -0.010954 0.016189 -0.033463
v -0.002271 -0.00924 -0.033536
v -0.011055 -0.005897 -0.002098
v -0.036773 -0.013174 -0.001761
v -0.041276 0.011529 -0.028802
v -0.029624 0.019744 -0.007774
v -0.046474 0.009347 -0.001586
v -0.042656 0.002194 -0.03247
v -0.044909 -0.00485 -0.017132
v -0.023775 -0.014065 -0.002034
v -0.040074 0.016169 -0.020627
v -0.00985 -0.012893 -0.033394
v -0.024947 -0.014241 -0.033565
v -0.027279 0.018551 -0.033491
v -0.026102 0.018514 -0.001982
v -0.036521 -0.011705 -0.022932
v -0.044901 0.011581 -0.012438
v -0.047804 -0.000221001 -0.001497
v -0.008809 0.001057 -0.003323
v -0.011231 0.010194 -0.002315
v 0.000261 -0.006711 -0.033536
v -0.028408 0.019587 -0.022932
v -0.046203 0.003367 -0.019487
v -0.040162 0.010388 -0.033524
v -0.019176 0.018324 -0.033264
v -0.037713 -0.011742 -0.015977
v -0.009875 -0.002435 -0.00207
v -0.029647 -0.014251 -0.001861
v -0.0461 0.001022 -0.019479
v -0.043824 0.011625 -0.019486
v -0.035424 -0.012945 -0.014811
v -0.037705 0.017291 -0.015978
v -0.019147 -0.012862 -0.002073
v -0.033183 0.018657 -0.001839
v -0.043726 -0.004847 -0.022999
v -0.046201 -0.003708 -0.011225
v -0.04539 0.011784 -0.001505
v -0.028412 0.019602 -0.007857
v -0.001772 0.007993 -0.033358
v -0.044667 -0.005926 -0.013659
v -0.047344 0.001017 -0.012417
v -0.019123 0.016173 -0.001992
v -0.047679 0.004569 -0.001581
v -0.045006 0.003366 -0.024206
v -0.041386 -0.002503 -0.03357
v -0.02843 -0.014108 -0.022957
v -0.008873 0.00335 -0.003385
f 6 33 61
f 3 4 11
f 4 8 11
f 11 8 15
f 13 11 15
f 8 19 25
f 16 9 26
f 10 16 26
f 24 10 26
f 14 4 27
f 4 16 27
f 16 10 27
f 15 8 28
f 5 13 29
f 4 14 30
f 12 21 31
f 7 5 32
f 6 11 34
f 13 6 34
f 11 13 34
f 4 3 35
f 16 4 35
f 9 16 35
f 17 9 35
f 20 2 36
f 8 25 36
f 28 8 36
f 8 4 38
f 19 8 38
f 15 28 39
f 36 2 39
f 28 36 39
f 18 7 40
f 5 7 41
f 13 5 41
f 6 13 41
f 3 33 41
f 33 6 41
f 35 3 41
f 17 35 41
f 18 1 42
f 7 18 42
f 10 24 42
f 27 10 42
f 41 7 42
f 17 41 42
f 25 19 44
f 12 31 44
f 31 25 44
f 37 12 44
f 14 27 45
f 30 14 45
f 18 40 45
f 40 30 45
f 5 20 46
f 25 5 46
f 20 36 46
f 36 25 46
f 9 17 47
f 26 9 47
f 24 26 47
f 42 24 47
f 17 42 47
f 20 5 48
f 5 29 48
f 29 20 48
f 4 30 49
f 23 43 49
f 7 32 50
f 5 25 51
f 31 21 51
f 25 31 51
f 32 5 51
f 2 20 52
f 29 15 52
f 20 29 52
f 39 2 52
f 15 39 52
f 6 3 53
f 3 11 53
f 11 6 53
f 40 7 54
f 30 40 54
f 49 30 54
f 23 49 54
f 7 50 54
f 50 23 54
f 32 12 55
f 12 37 55
f 43 23 55
f 37 43 55
f 23 50 55
f 50 32 55
f 13 15 56
f 29 13 56
f 15 29 56
f 21 12 57
f 12 32 57
f 51 21 57
f 32 51 57
f 19 38 58
f 38 22 58
f 22 43 58
f 43 37 58
f 44 19 58
f 37 44 58
f 38 4 59
f 22 38 59
f 43 22 59
f 4 49 59
f 49 43 59
f 1 18 60
f 42 1 60
f 27 42 60
f 45 27 60
f 18 45 60
f 3 6 61
f 33 3 61
