# Created by Open3D 
# object name: 54a13e432b9a488ab35d1c6644d9bc0c_collider3
# number of vertices: 46
# number of triangles: 88
v 0.039498 -0.010509 0.087955
v 0.007504 -0.006358 0.053733
v 0.007596 -0.003656 0.053809
v 0.048354 -0.015569 0.077829
v 0.009128 -0.013038 0.068979
v 0.035704 -0.020633 0.077829
v 0.043292 -0.004182 0.079095
v 0.009128 -0.002916 0.070244
v 0.035704 -0.014302 0.087955
v 0.010396 -0.013038 0.060119
v 0.047093 -0.0181 0.084157
v 0.047093 -0.006713 0.085423
v 0.045829 -0.015569 0.075298
v 0.010396 -0.001649 0.057587
v 0.048354 -0.010509 0.077829
v 0.009128 -0.011773 0.071504
v 0.036965 -0.020633 0.081626
v 0.040766 -0.005449 0.084157
v 0.009128 -0.001649 0.066447
v 0.010396 -0.005449 0.072766
v 0.030642 -0.006713 0.082892
v 0.035704 -0.005449 0.071504
v 0.038233 -0.020633 0.077829
v 0.011661 -0.010509 0.057587
v 0.049626 -0.009246 0.084157
v 0.042027 -0.013038 0.087955
v 0.043292 -0.004182 0.081626
v 0.010396 -0.004182 0.055053
v 0.029377 -0.015569 0.082892
v 0.009128 -0.013038 0.060119
v 0.045829 -0.0181 0.077829
v 0.048354 -0.006713 0.081626
v 0.045829 -0.013038 0.075298
v 0.033171 -0.009246 0.085423
v 0.049626 -0.013038 0.081626
v 0.040766 -0.020633 0.081626
v 0.011661 -0.001649 0.066447
v 0.010396 -0.010509 0.072766
v 0.048354 -0.010509 0.085423
v 0.039498 -0.0181 0.075298
v 0.010396 -0.006713 0.055053
v 0.009128 -0.004182 0.071504
v 0.035704 -0.013038 0.087955
v 0.012926 -0.014302 0.066447
v 0.047093 -0.0181 0.079095
v 0.035704 -0.020633 0.08036
f 44 6 46
f 4 13 15
f 2 5 16
f 16 5 17
f 1 12 18
f 3 8 19
f 14 3 19
f 1 18 21
f 18 8 21
f 14 7 22
f 7 15 22
f 6 10 23
f 17 6 23
f 23 10 24
f 1 9 26
f 9 11 26
f 12 1 26
f 8 18 27
f 18 12 27
f 19 8 27
f 2 3 28
f 3 14 28
f 14 22 28
f 22 15 28
f 9 16 29
f 17 9 29
f 16 17 29
f 5 2 30
f 10 6 30
f 2 24 30
f 24 10 30
f 15 7 32
f 12 25 32
f 25 15 32
f 7 27 32
f 27 12 32
f 15 13 33
f 13 28 33
f 28 15 33
f 1 21 34
f 4 15 35
f 25 11 35
f 15 25 35
f 11 9 36
f 9 17 36
f 17 23 36
f 7 14 37
f 14 19 37
f 27 7 37
f 19 27 37
f 16 9 38
f 9 20 38
f 20 16 38
f 11 25 39
f 25 12 39
f 26 11 39
f 12 26 39
f 24 13 40
f 23 24 40
f 13 31 40
f 31 23 40
f 24 2 41
f 13 24 41
f 2 28 41
f 28 13 41
f 3 2 42
f 8 3 42
f 2 16 42
f 16 20 42
f 21 8 42
f 20 34 42
f 34 21 42
f 9 1 43
f 20 9 43
f 1 34 43
f 34 20 43
f 5 30 44
f 30 6 44
f 13 4 45
f 31 13 45
f 23 31 45
f 4 35 45
f 35 11 45
f 11 36 45
f 36 23 45
f 17 5 46
f 6 17 46
f 5 44 46
