# Created by Open3D 
# object name: 682695ed62224411a58cd4ce76025a89_collider0
# number of vertices: 60
# number of triangles: 116
v -0.018874 0.0312502 -0.003963
v -0.018874 0.0312502 0.003608
v -0.015085 0.124048 -0.003963
v 0.00764 0.0312502 -0.019117
v 0.00764 0.0312502 0.018762
v -0.00751 0.122157 0.014972
v 0.013321 0.122157 -0.011539
v 0.013321 0.124048 0.011183
v -0.005615 0.124048 -0.015328
v 0.019005 0.0312502 -0.007753
v -0.011296 0.0331512 -0.017223
v -0.011296 0.0312502 0.016867
v 0.019005 0.0312502 0.007397
v 0.01711 0.108892 -0.005858
v -0.01319 0.124048 0.009292
v 0.003851 0.108892 0.016867
v 0.00764 0.124048 -0.015328
v 0.015215 0.125948 0.005503
v -0.01319 0.124048 -0.009648
v -0.00751 0.0407242 0.018762
v -0.01698 0.0445152 0.011183
v -0.001826 0.108892 -0.017223
v 0.011426 0.0331512 -0.017223
v -0.015085 0.0426152 -0.013433
v -0.00372 0.125948 0.014972
v -0.015085 0.122157 0.005503
v -0.005615 0.0312502 -0.019117
v -0.00751 0.125948 -0.013433
v 0.011426 0.0312502 0.016867
v 0.01711 0.108892 0.005503
v 0.00764 0.124048 0.014972
v -0.018874 0.0350412 -0.005858
v -0.011296 0.108892 -0.013433
v 0.01711 0.0312502 -0.011539
v 0.01711 0.0312502 0.011183
v 0.015215 0.125948 -0.003963
v -0.009405 0.106992 0.014972
v -0.00372 0.108892 0.016867
v -0.01319 0.125948 0.007397
v -0.018874 0.0331512 0.005503
v -0.015085 0.108892 -0.007753
v 0.009535 0.108892 0.014972
v 0.011426 0.125948 -0.011539
v -0.01319 0.0312502 -0.015328
v -0.01698 0.0331512 0.011183
v -0.01319 0.108892 0.011183
v -0.005615 0.0312502 0.018762
v 6.5e-05 0.108892 -0.017223
v -0.01319 0.125948 -0.007753
v 0.011426 0.125948 0.011183
v 0.015215 0.108892 -0.009648
v -0.015085 0.124048 0.003608
v -0.01319 0.0464152 -0.015328
v -0.015085 0.122157 -0.005858
v -0.009405 0.124048 -0.013433
v 0.011426 0.122157 0.013078
v 0.015215 0.108892 0.009292
v -0.01698 0.0312502 -0.009648
v -0.015085 0.110783 0.007397
v 0.015215 0.122157 -0.007753
f 51 7 60
f 2 1 4
f 2 4 5
f 5 4 10
f 2 5 12
f 5 10 13
f 13 10 14
f 5 16 20
f 11 9 22
f 9 17 22
f 4 17 23
f 17 7 23
f 15 6 25
f 4 1 27
f 22 4 27
f 11 22 27
f 17 9 28
f 25 18 28
f 5 13 29
f 13 14 30
f 18 8 30
f 14 18 30
f 25 16 31
f 1 2 32
f 9 11 33
f 24 19 33
f 10 4 34
f 4 23 34
f 23 7 34
f 29 13 35
f 8 29 35
f 18 14 36
f 28 18 36
f 12 20 37
f 20 6 37
f 21 12 37
f 6 20 38
f 20 16 38
f 25 6 38
f 16 25 38
f 15 25 39
f 26 15 39
f 25 28 39
f 21 26 40
f 32 2 40
f 19 24 41
f 24 32 41
f 16 5 42
f 5 29 42
f 31 16 42
f 7 17 43
f 17 28 43
f 28 36 43
f 24 11 44
f 27 1 44
f 11 27 44
f 2 12 45
f 12 21 45
f 40 2 45
f 21 40 45
f 6 15 46
f 37 6 46
f 21 37 46
f 12 5 47
f 5 20 47
f 20 12 47
f 17 4 48
f 4 22 48
f 22 17 48
f 28 19 49
f 3 39 49
f 39 28 49
f 8 18 50
f 18 25 50
f 31 8 50
f 25 31 50
f 14 10 51
f 10 34 51
f 34 7 51
f 3 32 52
f 39 3 52
f 26 39 52
f 40 26 52
f 32 40 52
f 11 24 53
f 33 11 53
f 24 33 53
f 32 3 54
f 19 41 54
f 41 32 54
f 3 49 54
f 49 19 54
f 28 9 55
f 19 28 55
f 9 33 55
f 33 19 55
f 29 8 56
f 8 31 56
f 42 29 56
f 31 42 56
f 30 8 57
f 13 30 57
f 35 13 57
f 8 35 57
f 1 32 58
f 32 24 58
f 24 44 58
f 44 1 58
f 15 26 59
f 26 21 59
f 46 15 59
f 21 46 59
f 36 14 60
f 7 43 60
f 43 36 60
f 14 51 60
