# Created by Open3D 
# object name: cefb12c1d165410483f3e16ecd17e6f1_collider1
# number of vertices: 64
# number of triangles: 124
v 0.038139 0.026791 0.002747
v -0.039337 -0.145874 -0.006088
v -0.039437 -0.146141 0.004987
v 0.038298 -0.146126 -0.01055
v -0.006062 0.019967 -0.039133
v -0.012499 0.019184 0.037531
v 0.011573 -0.145336 0.038026
v -0.037051 0.029011 -0.003864
v -0.006096 -0.145871 -0.039335
v 0.00985 0.072093 -0.013399
v 0.026436 0.016529 -0.02965
v 0.024387 0.021127 0.030888
v 0.036317 -0.14683 0.016196
v -0.027742 -0.141814 0.028847
v -0.027674 0.023425 -0.027674
v -0.032046 0.023475 0.022276
v 0.015876 -0.142436 -0.036681
v -0.001645 0.066045 0.015942
v -0.023489 -0.144425 -0.032231
v -0.014855 0.066116 -0.006044
v -0.010555 -0.146102 0.038297
v 0.002727 0.00850299 0.039867
v 0.007135 0.01981 -0.039028
v 0.03753 0.019194 -0.012502
v 0.033603 -0.145303 -0.021477
v -0.036261 0.010252 -0.016768
v 0.013647 0.065297 0.009276
v 0.035271 0.019045 0.01791
v -0.039028 0.019809 0.007142
v 0.02467 -0.144791 0.031248
v -0.035158 -0.146643 0.018402
v -0.032234 -0.144436 -0.023484
v 0.039867 -0.131248 0.002719
v 0.013771 0.026574 0.035818
v -0.014828 0.019767 -0.036793
v -0.021215 0.021391 0.033198
v -0.014753 0.065415 0.007105
v 0.039867 0.00850399 0.002719
v -0.012696 0.037726 -0.030353
v 0.004987 -0.146141 -0.039437
v -0.039134 0.019968 -0.006055
v 0.013574 0.012574 0.037467
v 0.015763 0.019141 -0.036406
v 0.022737 -0.146045 -0.032737
v 0.0332 0.021396 -0.021209
v -0.001635 -0.138014 0.039955
v 0.03324 -0.14195 0.022333
v -0.031759 0.00998599 0.024241
v -0.003888 0.031375 0.036012
v -0.018888 -0.138893 0.035113
v -0.019218 0.037335 0.026912
v 0.029109 0.032953 0.020319
v 0.020392 0.030997 -0.030313
v 0.002761 0.033635 -0.034932
v -0.01491 -0.145537 -0.036992
v -0.021047 0.00797099 -0.034003
v 0.033461 0.030666 -0.014809
v -0.010396 0.06553 -0.012571
v -0.028137 0.035492 -0.019309
v -0.036994 -0.145542 -0.014903
v -0.032546 0.033253 0.013784
v -0.036405 0.01915 0.015765
v 0.037466 0.012583 0.013577
v 0.032998 0.018863 0.022172
f 52 12 64
f 13 7 21
f 24 4 25
f 1 10 27
f 10 18 27
f 7 13 30
f 3 2 31
f 2 9 31
f 13 21 31
f 21 14 31
f 15 19 32
f 26 15 32
f 13 4 33
f 27 18 34
f 18 10 37
f 20 8 37
f 10 20 37
f 24 1 38
f 4 24 38
f 33 4 38
f 5 35 39
f 35 15 39
f 9 5 40
f 5 23 40
f 23 17 40
f 31 9 40
f 13 31 40
f 2 3 41
f 15 26 41
f 3 29 41
f 29 8 41
f 22 7 42
f 7 30 42
f 30 12 42
f 12 34 42
f 34 22 42
f 17 23 43
f 4 13 44
f 11 25 44
f 25 4 44
f 13 40 44
f 40 17 44
f 43 11 44
f 17 43 44
f 25 11 45
f 24 25 45
f 6 21 46
f 21 7 46
f 7 22 46
f 22 6 46
f 30 13 47
f 31 14 48
f 14 36 48
f 36 16 48
f 6 22 49
f 34 18 49
f 22 34 49
f 36 6 49
f 21 6 50
f 14 21 50
f 36 14 50
f 6 36 50
f 16 36 51
f 18 37 51
f 49 18 51
f 36 49 51
f 1 27 52
f 28 1 52
f 34 12 52
f 27 34 52
f 11 43 53
f 43 23 53
f 45 11 53
f 23 5 54
f 5 39 54
f 39 10 54
f 10 53 54
f 53 23 54
f 5 9 55
f 32 19 55
f 35 5 55
f 35 55 56
f 19 15 56
f 15 35 56
f 55 19 56
f 10 1 57
f 1 24 57
f 24 45 57
f 53 10 57
f 45 53 57
f 20 10 58
f 10 39 58
f 58 39 59
f 8 20 59
f 39 15 59
f 41 8 59
f 15 41 59
f 20 58 59
f 9 2 60
f 26 32 60
f 2 41 60
f 41 26 60
f 55 9 60
f 32 55 60
f 8 29 61
f 37 8 61
f 16 51 61
f 51 37 61
f 29 3 62
f 3 31 62
f 48 16 62
f 31 48 62
f 16 61 62
f 61 29 62
f 1 28 63
f 13 33 63
f 38 1 63
f 33 38 63
f 47 13 63
f 28 47 63
f 12 30 64
f 47 28 64
f 30 47 64
f 28 52 64
