# Created by Open3D 
# object name: 516ef7e9c68e47cc938440810fb5e4d8_collider2
# number of vertices: 64
# number of triangles: 124
v 0.035101 -0.098684 0.004587
v 0.141576 -0.022145 0.002502
v 0.14583 -0.02431 0.006781
v -0.007864 -0.035976 0.027319
v -0.007864 -0.042706 -0.031088
v 0.101908 -0.073021 -0.026381
v 0.09975 -0.072974 0.027008
v -0.002491 -0.087975 -0.018527
v -0.003408 -0.073423 0.030109
v -0.007864 -0.02474 -0.006372
v 0.134006 -0.033372 -0.018535
v 0.120937 -0.0794 -0.001712
v 0.127004 -0.044095 0.023165
v 0.050402 -0.089586 -0.024409
v 0.150041 -0.049989 -0.00177
v 0.068944 -0.09604 0.012839
v 0.081401 -0.093897 -0.012085
v 0.081448 -0.064854 -0.03098
v 0.06687 -0.066917 0.031602
v -0.00366 -0.09265 0.004628
v 0.022823 -0.090006 0.023408
v -8.3e-05 -0.069044 -0.031007
v -0.007864 -0.026989 0.016088
v -0.007864 -0.02923 -0.019852
v 0.139929 -0.056499 0.01498
v 0.139298 -0.022226 -0.00604
v -0.001105 -0.044954 0.031819
v 0.131095 -0.027544 0.014859
v 0.133723 -0.062764 -0.016352
v 0.106001 -0.085341 0.01269
v 0.024278 -0.096772 -0.012367
v 0.060746 -0.081304 0.029245
v 0.112322 -0.050371 -0.026466
v 0.150055 -0.035029 -0.010322
v 0.104058 -0.081305 -0.020258
v 0.148035 -0.037124 0.013208
v 0.071063 -0.089444 0.022966
v 0.068997 -0.081262 -0.028456
v 0.066778 -0.098636 0.000365002
v 0.134282 -0.052239 -0.020736
v 0.11059 -0.054439 0.027444
v 0.131482 -0.033572 0.019127
v 0.135542 -0.025304 -0.012116
v 0.106348 -0.087689 -0.001709
v -0.0056 -0.038216 -0.028838
v -0.002895 -0.075451 -0.029183
v -0.007864 -0.02474 0.007102
v 0.136162 -0.066977 0.004563
v 0.139079 -0.022355 0.006749
v -0.002596 -0.090108 0.015078
v 0.153499 -0.030249 0.000365002
v 0.120548 -0.06893 0.020985
v 0.024516 -0.0966 0.013036
v 0.020626 -0.090062 -0.022721
v 0.083394 -0.087425 -0.022261
v 0.064837 -0.095888 -0.014129
v 0.132091 -0.05436 0.021437
v -0.002709 -0.062772 0.03195
v 0.029332 -0.075271 -0.03091
v 0.120344 -0.038099 -0.022221
v 0.110405 -0.044098 0.02523
v 0.129625 -0.071135 -0.010094
v 0.087623 -0.093874 0.004514
v 0.10631 -0.085579 -0.012079
f 62 12 64
f 5 4 10
f 4 5 20
f 5 8 20
f 9 4 20
f 5 18 22
f 10 4 23
f 5 10 24
f 10 2 26
f 24 10 26
f 23 4 28
f 1 20 31
f 20 8 31
f 7 19 32
f 9 21 32
f 18 5 33
f 6 18 33
f 15 29 34
f 6 29 35
f 25 15 36
f 21 16 37
f 30 7 37
f 16 30 37
f 7 32 37
f 32 21 37
f 18 6 38
f 16 1 39
f 1 31 39
f 29 6 40
f 33 11 40
f 6 33 40
f 11 34 40
f 34 29 40
f 19 7 41
f 27 19 41
f 4 27 42
f 3 28 42
f 28 4 42
f 13 36 42
f 36 3 42
f 24 26 43
f 26 34 43
f 34 11 43
f 12 30 44
f 5 24 45
f 43 11 45
f 24 43 45
f 8 5 46
f 5 22 46
f 2 10 47
f 10 23 47
f 15 25 48
f 30 12 48
f 3 2 49
f 28 3 49
f 23 28 49
f 2 47 49
f 47 23 49
f 9 20 50
f 21 9 50
f 2 3 51
f 26 2 51
f 15 34 51
f 34 26 51
f 36 15 51
f 3 36 51
f 7 30 52
f 48 25 52
f 30 48 52
f 1 16 53
f 20 1 53
f 16 21 53
f 50 20 53
f 21 50 53
f 31 8 54
f 14 31 54
f 8 46 54
f 6 35 55
f 38 6 55
f 14 38 55
f 31 14 56
f 17 39 56
f 39 31 56
f 14 55 56
f 55 17 56
f 36 13 57
f 25 36 57
f 41 7 57
f 13 41 57
f 52 25 57
f 7 52 57
f 4 9 58
f 27 4 58
f 19 27 58
f 9 32 58
f 32 19 58
f 22 18 59
f 18 38 59
f 38 14 59
f 46 22 59
f 14 54 59
f 54 46 59
f 33 5 60
f 11 33 60
f 5 45 60
f 45 11 60
f 41 13 61
f 27 41 61
f 42 27 61
f 13 42 61
f 29 15 62
f 35 29 62
f 15 48 62
f 48 12 62
f 30 16 63
f 16 39 63
f 39 17 63
f 44 30 63
f 17 44 63
f 12 44 64
f 44 17 64
f 17 55 64
f 55 35 64
f 35 62 64
