# Created by Open3D 
# object name: cc8b7e344ea744a897360f79e222ac85_collider0
# number of vertices: 64
# number of triangles: 124
v 0.0914713 0.0426656 0.00917747
v -0.0979217 -0.0214194 -0.00606853
v -0.0978957 -0.0214134 0.00614547
v 0.0336313 -0.0947344 -0.00910253
v 0.00614933 0.0214286 -0.0979405
v -0.0242257 0.0606306 0.0788755
v 0.0122043 -0.0487374 0.0883645
v -0.0365267 0.0913996 -0.0243285
v -0.0515257 -0.0818844 -0.0333015
v 0.0573753 -0.0452784 -0.0724085
v 0.0851923 -0.0212854 0.0517485
v -0.0543287 -0.0603934 0.0634515
v -0.0608377 -0.00608243 -0.0821175
v 0.0545313 0.0787546 -0.0362915
v 0.0454283 0.0695966 0.0605615
v -0.0883737 0.0457106 0.0213665
v 0.0881463 -0.0151714 -0.0485495
v -0.00603367 -0.0608634 -0.0821135
v -0.0636057 0.0151356 0.0788575
v -0.0724327 0.0452746 -0.0573155
v 0.0306073 0.0152696 0.0948285
v 0.00918133 -0.0914764 0.0427115
v 0.0757763 -0.0666524 0.0182165
v -0.0182497 0.0945086 0.0305145
v -0.0151197 0.0637136 -0.0788325
v 0.0665013 0.0362556 -0.0694325
v -0.0547877 -0.0852694 0.0122035
v 0.0427293 0.0915146 0.00916647
v -0.0183677 -0.00917943 0.0981465
v 0.0543923 -0.0483434 0.0725645
v 0.0728623 0.0181936 0.0698395
v -0.0755337 -0.0392964 -0.0573715
v -0.0605407 0.0696416 0.0454585
v 0.0947293 -0.0335884 -0.00909953
v 0.0605913 -0.0696494 -0.0453725
v -0.0121567 -0.0945134 -0.0334735
v -0.0852757 -0.0274104 0.0487815
v 0.00919533 0.0946806 -0.0335335
v -0.0945077 0.0121706 -0.0334825
v 0.0426593 -0.0121554 -0.0913165
v -0.0821007 -0.0608404 0.00611047
v 0.0272873 0.0636256 -0.0756865
v -0.0758097 0.0667356 -0.0181415
v 0.0913623 0.0365296 -0.0242915
v -0.0182787 -0.0305024 -0.0945155
v -0.0365647 0.0244026 -0.0914475
v 0.0243123 -0.0789134 -0.0606485
v 0.0757333 0.0666156 0.0182065
v -0.0452367 -0.0573304 -0.0723895
v 0.0978683 0.0122016 0.0183795
v -0.0514927 -0.0333294 0.0818815
v -0.0181607 -0.0757624 0.0666975
v 0.0363483 -0.0787054 0.0545175
v -0.0183377 -0.0979314 0.0122615
v 0.0182103 0.0757216 0.0666615
v -0.0880857 0.0151746 0.0486575
v -0.00911867 0.0335876 0.0947255
v -0.0608027 0.0821006 0.00610947
v -0.0454277 0.0696866 -0.0605615
v 0.0547373 -0.0121334 0.0851575
v 0.0333743 0.0454666 0.0849405
v 0.0725723 0.0483426 0.0544315
v -0.0979287 0.0214216 0.00614747
v 0.0212773 -0.0394714 -0.0910295
f 47 18 64
f 7 21 29
f 23 11 30
f 19 6 33
f 6 24 33
f 11 23 34
f 34 23 35
f 10 17 35
f 23 4 35
f 17 34 35
f 8 24 38
f 28 14 38
f 24 28 38
f 20 13 39
f 32 2 39
f 13 32 39
f 17 10 40
f 5 26 40
f 26 17 40
f 3 2 41
f 9 27 41
f 27 12 41
f 2 32 41
f 32 9 41
f 37 3 41
f 12 37 41
f 5 25 42
f 26 5 42
f 14 26 42
f 38 14 42
f 25 38 42
f 20 39 43
f 26 14 44
f 17 26 44
f 34 17 44
f 13 20 46
f 25 5 46
f 5 45 46
f 45 13 46
f 10 35 47
f 35 4 47
f 36 18 47
f 4 36 47
f 14 28 48
f 28 15 48
f 1 44 48
f 44 14 48
f 9 32 49
f 32 13 49
f 18 36 49
f 36 9 49
f 13 45 49
f 45 18 49
f 31 11 50
f 11 34 50
f 44 1 50
f 34 44 50
f 7 29 51
f 29 19 51
f 37 12 51
f 19 37 51
f 12 27 52
f 7 51 52
f 51 12 52
f 22 4 53
f 4 23 53
f 30 7 53
f 23 30 53
f 7 52 53
f 52 22 53
f 4 22 54
f 27 9 54
f 9 36 54
f 36 4 54
f 22 52 54
f 52 27 54
f 24 6 55
f 15 28 55
f 28 24 55
f 33 16 56
f 19 33 56
f 3 37 56
f 37 19 56
f 6 19 57
f 19 29 57
f 29 21 57
f 24 8 58
f 16 33 58
f 33 24 58
f 8 43 58
f 43 16 58
f 8 38 59
f 38 25 59
f 43 8 59
f 20 43 59
f 46 20 59
f 25 46 59
f 21 7 60
f 7 30 60
f 30 11 60
f 11 31 60
f 31 21 60
f 21 31 61
f 55 6 61
f 15 55 61
f 6 57 61
f 57 21 61
f 48 15 62
f 1 48 62
f 50 1 62
f 31 50 62
f 15 61 62
f 61 31 62
f 2 3 63
f 39 2 63
f 16 43 63
f 43 39 63
f 3 56 63
f 56 16 63
f 40 10 64
f 5 40 64
f 45 5 64
f 18 45 64
f 10 47 64
