# Created by Open3D 
# object name: cefb12c1d165410483f3e16ecd17e6f1_collider0
# number of vertices: 46
# number of triangles: 88
v 0.016828 0.144174 -0.001771
v -0.01573 0.072101 -0.004098
v -0.01573 0.072101 0.005198
v -0.01573 0.151163 -0.004098
v -0.001771 0.144174 0.016828
v 0.012175 0.072101 0.012175
v 0.005198 0.072101 -0.01573
v -0.006424 0.148826 -0.01573
v 0.012175 0.148826 0.012175
v 0.009848 0.151163 -0.013404
v 0.014501 0.072101 -0.008748
v -0.008748 0.072101 0.014501
v -0.013404 0.151163 0.009848
v -0.008748 0.072101 -0.013404
v -0.013404 0.148826 -0.011077
v 0.002872 0.120919 0.016828
v 0.016828 0.120919 0.002872
v 0.007525 0.144174 -0.01573
v -0.01573 0.144174 0.007525
v 0.007525 0.151163 0.014501
v 0.014501 0.148826 -0.008748
v -0.008748 0.148826 0.014501
v 0.007525 0.072101 0.014501
v 0.014501 0.072101 0.007525
v -0.004098 0.072101 -0.01573
v 0.014501 0.146504 0.009848
v 0.009848 0.146504 0.014501
v 0.014501 0.151163 0.007525
v -0.011077 0.120919 -0.013404
v -0.013404 0.072101 -0.008748
v 0.009848 0.072101 -0.013404
v -0.013404 0.072101 0.009848
v -0.004098 0.151163 -0.01573
v -0.01573 0.120919 -0.006424
v -0.013404 0.120919 -0.011077
v 0.009848 0.120919 0.014501
v 0.014501 0.120919 0.009848
v 0.002872 0.141853 0.016828
v 0.016828 0.141853 0.002872
v -0.001771 0.120919 0.016828
v 0.016828 0.120919 -0.001771
v -0.006424 0.151163 0.014501
v 0.014501 0.151163 -0.006424
v -0.011077 0.148826 -0.013404
v -0.01573 0.148826 -0.006424
v -0.006424 0.120919 -0.01573
f 25 29 46
f 2 3 4
f 3 2 6
f 6 2 7
f 6 7 11
f 3 6 12
f 10 4 13
f 7 2 14
f 7 8 18
f 4 3 19
f 13 4 19
f 10 13 20
f 1 11 21
f 18 10 21
f 11 18 21
f 12 5 22
f 19 12 22
f 13 19 22
f 12 6 23
f 16 12 23
f 6 11 24
f 11 17 24
f 8 7 25
f 7 14 25
f 9 6 26
f 6 9 27
f 9 20 27
f 20 9 28
f 10 20 28
f 9 26 28
f 25 14 29
f 14 2 30
f 29 14 30
f 11 7 31
f 7 18 31
f 18 11 31
f 3 12 32
f 19 3 32
f 12 19 32
f 4 10 33
f 15 4 33
f 18 8 33
f 10 18 33
f 2 4 34
f 15 29 35
f 30 2 35
f 29 30 35
f 2 34 35
f 34 15 35
f 23 6 36
f 16 23 36
f 6 27 36
f 27 16 36
f 6 24 37
f 24 17 37
f 26 6 37
f 17 26 37
f 5 16 38
f 20 5 38
f 16 27 38
f 27 20 38
f 17 1 39
f 26 17 39
f 1 28 39
f 28 26 39
f 5 12 40
f 16 5 40
f 12 16 40
f 11 1 41
f 1 17 41
f 17 11 41
f 5 20 42
f 20 13 42
f 22 5 42
f 13 22 42
f 1 21 43
f 21 10 43
f 10 28 43
f 28 1 43
f 8 29 44
f 29 15 44
f 33 8 44
f 15 33 44
f 4 15 45
f 34 4 45
f 15 34 45
f 8 25 46
f 29 8 46
