# Created by Open3D 
# object name: 5e68fc39623b4773a53a6d084782a6df_collider1
# number of vertices: 64
# number of triangles: 124
v 0.002147 -0.024552 0.002746
v 0.045122 0.011641 0.002869
v 0.045122 0.011641 -0.002528
v 0.001932 6.59978e-05 0.000555001
v 0.002645 -0.015498 -0.010257
v 0.034064 -0.013212 -0.00441
v 0.030615 -0.008292 0.00978
v 0.001161 -0.00687 0.01058
v 0.001161 -0.003018 -0.008699
v 0.029185 -0.003317 -0.010145
v 0.035094 0.011638 0.005181
v 0.035094 0.011638 -0.004842
v 0.014954 -0.020402 0.007646
v 0.01567 -0.020394 -0.007303
v 0.03773 -0.009716 0.004083
v 0.022786 -0.020327 0.001231
v 0.03741 0.005466 0.008266
v 0.00247 -0.01775 0.00996
v 0.038588 -0.006158 -0.006654
v 0.03818 0.006238 -0.007927
v 0.001161 -0.001478 0.006724
v 0.002301 -0.02369 -0.005315
v 0.025591 -0.01318 -0.009296
v 0.040829 -0.003987 0.004861
v 0.001161 -0.006106 -0.010241
v 0.029087 -0.01457 0.007517
v 0.04176 -0.003224 -0.003115
v 0.024924 -0.006162 0.01053
v 0.01262 -0.023563 -0.000192999
v 0.032008 0.011638 -0.001757
v 0.001161 -0.000706002 -0.004842
v 0.021366 -0.020394 -0.004456
v 0.038421 -0.006166 0.006919
v 0.027778 -0.017575 0.004094
v 0.043581 0.004698 0.005183
v 0.020684 -0.014609 0.009665
v 0.032778 0.011638 0.00364
v 0.041266 0.005466 -0.007156
v 0.03741 0.011638 -0.005615
v 0.002412 -0.022145 0.007805
v 0.032764 -0.00687 -0.009452
v 0.028408 -0.0146 -0.00791
v 0.002424 -0.018501 -0.009643
v 0.030467 0.00855 0.006724
v 0.017062 -0.021891 0.004103
v 0.02421 -0.010441 -0.010184
v 0.040495 0.004694 0.007495
v 0.040495 0.010866 0.005954
v 0.029837 -0.016738 -0.000886999
v 0.038562 -0.00902 -0.003057
v 0.009852 -0.023394 -0.004498
v 0.009283 -0.021085 -0.008004
v 0.001161 -0.00379 0.009038
v 0.010671 -0.012571 0.010503
v 0.009195 -0.023323 0.004817
v 0.043581 0.005469 -0.004844
v 0.001161 -0.000706002 0.005181
v 0.045122 0.009325 -0.000985999
v 0.041779 -0.00322 0.002725
v 0.033371 -0.013925 0.004049
v 0.015702 -0.016792 -0.009397
v 0.042811 0.011638 -0.004842
v 0.031352 -0.001877 0.00981
v 0.002216 -0.024494 -0.003134
f 51 29 64
f 9 8 21
f 1 8 25
f 8 9 25
f 20 10 25
f 2 3 30
f 3 12 30
f 30 12 31
f 12 9 31
f 9 21 31
f 4 30 31
f 16 29 32
f 15 24 33
f 7 26 33
f 26 15 33
f 26 13 34
f 33 24 35
f 18 13 36
f 26 7 36
f 13 26 36
f 7 28 36
f 11 2 37
f 21 11 37
f 2 30 37
f 30 4 37
f 9 12 39
f 12 3 39
f 25 9 39
f 20 25 39
f 8 1 40
f 18 8 40
f 13 18 40
f 10 20 41
f 38 19 41
f 20 38 41
f 19 6 42
f 6 32 42
f 32 14 42
f 23 41 42
f 41 19 42
f 25 5 43
f 22 25 43
f 8 17 44
f 11 21 44
f 29 16 45
f 34 13 45
f 16 34 45
f 5 25 46
f 25 10 46
f 10 41 46
f 41 23 46
f 7 33 47
f 35 2 47
f 33 35 47
f 2 11 48
f 44 17 48
f 11 44 48
f 17 47 48
f 47 2 48
f 32 6 49
f 16 32 49
f 34 16 49
f 6 19 50
f 19 27 50
f 14 32 51
f 32 29 51
f 22 43 52
f 51 22 52
f 14 51 52
f 21 8 53
f 8 44 53
f 44 21 53
f 8 18 54
f 28 8 54
f 18 36 54
f 36 28 54
f 1 29 55
f 40 1 55
f 13 40 55
f 29 45 55
f 45 13 55
f 27 19 56
f 19 38 56
f 4 31 57
f 31 21 57
f 37 4 57
f 21 37 57
f 3 2 58
f 2 35 58
f 56 3 58
f 27 56 58
f 24 15 59
f 35 24 59
f 15 50 59
f 50 27 59
f 58 35 59
f 27 58 59
f 15 26 60
f 26 34 60
f 49 6 60
f 34 49 60
f 6 50 60
f 50 15 60
f 42 14 61
f 23 42 61
f 43 5 61
f 5 46 61
f 46 23 61
f 14 52 61
f 52 43 61
f 38 20 62
f 39 3 62
f 20 39 62
f 3 56 62
f 56 38 62
f 17 8 63
f 28 7 63
f 8 28 63
f 7 47 63
f 47 17 63
f 1 25 64
f 25 22 64
f 29 1 64
f 22 51 64
