# Created by Open3D 
# object name: 5e68fc39623b4773a53a6d084782a6df_collider0
# number of vertices: 40
# number of triangles: 76
v 0.045897 0.011641 -0.000985999
v 0.047441 0.025526 0.001326
v 0.04821 0.023982 0.002869
v 0.033556 0.012415 0.002097
v 0.036643 0.012415 -0.004845
v 0.040499 0.011641 0.005184
v 0.050523 0.022438 -0.002529
v 0.051298 0.020125 0.002097
v 0.044354 0.024753 -0.000985999
v 0.042043 0.011641 -0.004845
v 0.033556 0.011641 -0.002529
v 0.045124 0.024753 0.002097
v 0.045897 0.024753 -0.002529
v 0.051298 0.019354 -0.001757
v 0.038187 0.012415 0.005184
v 0.045124 0.011641 0.002869
v 0.033556 0.012415 -0.002529
v 0.035871 0.011641 0.004412
v 0.050523 0.017813 0.001326
v 0.050523 0.02321 0.001326
v 0.04821 0.024753 -0.002529
v 0.043583 0.011641 0.004412
v 0.049754 0.022438 0.002869
v 0.035871 0.012415 0.004412
v 0.043583 0.011641 -0.004073
v 0.045897 0.023982 0.002869
v 0.040499 0.013185 -0.004845
v 0.050523 0.019354 -0.002529
v 0.0351 0.012415 -0.004073
v 0.044354 0.024753 0.000554001
v 0.051298 0.021669 -0.001757
v 0.049754 0.023982 -0.001757
v 0.045897 0.025526 -0.000985999
v 0.045897 0.011641 0.001326
v 0.048983 0.015498 -0.000985999
v 0.036643 0.011641 -0.004845
v 0.045124 0.011641 -0.002529
v 0.033556 0.011641 0.002097
v 0.042043 0.012415 -0.004845
v 0.040499 0.012415 0.005184
f 6 23 40
f 1 6 10
f 10 6 11
f 6 1 16
f 4 9 17
f 11 4 17
f 9 13 17
f 11 6 18
f 6 15 18
f 14 8 19
f 8 16 19
f 2 3 20
f 6 16 22
f 16 8 22
f 20 3 23
f 8 20 23
f 6 22 23
f 22 8 23
f 12 4 24
f 4 18 24
f 18 15 24
f 1 10 25
f 3 2 26
f 2 12 26
f 15 3 26
f 12 24 26
f 24 15 26
f 10 5 27
f 5 13 27
f 13 21 27
f 10 7 28
f 7 14 28
f 25 10 28
f 14 25 28
f 13 5 29
f 11 17 29
f 17 13 29
f 9 4 30
f 4 12 30
f 8 14 31
f 14 7 31
f 20 8 31
f 20 31 32
f 2 20 32
f 7 21 32
f 21 2 32
f 31 7 32
f 12 2 33
f 13 9 33
f 2 21 33
f 21 13 33
f 9 30 33
f 30 12 33
f 16 1 34
f 19 16 34
f 19 34 35
f 14 19 35
f 34 1 35
f 5 10 36
f 10 11 36
f 29 5 36
f 11 29 36
f 1 25 37
f 25 14 37
f 14 35 37
f 35 1 37
f 4 11 38
f 18 4 38
f 11 18 38
f 7 10 39
f 21 7 39
f 10 27 39
f 27 21 39
f 3 15 40
f 15 6 40
f 23 3 40
