# Created by Open3D 
# object name: 5e68fc39623b4773a53a6d084782a6df_collider2
# number of vertices: 64
# number of triangles: 124
v -0.017053 -0.022783 -0.000194999
v -0.045896 0.01627 0.001325
v -0.045896 0.01627 -0.000985999
v 0.001156 -0.000705002 -0.004842
v 0.001156 -0.012273 0.01135
v -0.042035 0.001611 -0.011011
v -0.041497 -0.005981 0.007666
v -0.000216 -0.021367 -0.008235
v -0.040495 0.009326 0.009809
v 0.001156 -0.000705002 0.005181
v -0.032876 -0.01379 -0.007285
v 0.001156 -0.006099 -0.010241
v -0.000176 -0.022129 0.007854
v -0.051298 0.010096 0.002096
v -0.039719 0.009326 -0.00947
v -0.024363 -0.013765 0.009729
v -0.038722 -0.011744 -0.001626
v -0.041265 0.003152 0.01135
v -0.026511 -0.018983 0.004135
v -0.013615 -0.014583 -0.010212
v -0.050522 0.010096 -0.004071
v 0.001156 -0.006874 0.01058
v 7.8e-05 -0.024525 -0.003158
v -0.043153 -0.006 -0.00453
v -0.020104 -0.018769 -0.008001
v 0.001156 -0.009186 -0.011011
v -0.010422 -0.023602 0.004197
v -0.045896 0.005468 0.009809
v -0.025071 -0.017439 0.007681
v -0.026498 -0.018847 -0.004473
v -0.045896 0.015495 0.00364
v 0.001156 -0.002246 -0.007927
v -0.044351 0.014724 -0.004071
v -0.042035 0.005468 -0.011011
v -0.042296 -0.007423 0.004116
v -0.009782 -0.02349 -0.004562
v -0.033635 -0.015266 0.004095
v -0.050522 0.013183 0.00364
v 0.001156 -0.003787 0.009038
v -0.028612 -0.012361 -0.009404
v -0.010016 -0.017464 0.009847
v -0.042197 -0.004558 -0.008037
v -0.047437 0.014724 -0.004071
v -0.032106 -0.013007 0.008265
v -0.049752 0.005468 -0.000985999
v 0.00015 -0.024582 0.002763
v -0.012877 -0.021061 0.007701
v -0.038179 0.010096 0.008266
v -0.044725 -0.000921002 0.00781
v -0.000214 -0.018446 -0.009697
v -0.038949 0.003927 0.01135
v -0.044862 -0.000896002 -0.007525
v -0.044351 0.00701 -0.010241
v -0.008153 -0.024416 -0.000197999
v -0.032933 -0.016002 -0.002332
v -0.037795 -0.009504 -0.007962
v -0.009297 -0.021054 -0.008077
v -0.037409 0.00701 0.01058
v -0.039719 0.010863 -0.007927
v -0.048207 0.014724 0.00441
v -0.036389 -0.006679 0.009719
v -0.017856 -0.021887 -0.004522
v -0.017199 -0.016728 -0.009492
v -0.051298 0.012408 -0.000985999
f 43 21 64
f 3 2 4
f 4 2 10
f 5 4 10
f 4 5 12
f 16 5 18
f 5 10 22
f 12 5 26
f 20 6 26
f 23 8 26
f 19 1 27
f 18 9 28
f 7 18 28
f 1 19 30
f 11 25 30
f 10 2 31
f 4 12 32
f 12 15 32
f 3 4 33
f 4 32 33
f 15 12 34
f 12 26 34
f 26 6 34
f 24 17 35
f 8 23 36
f 19 29 37
f 7 35 37
f 35 17 37
f 2 3 38
f 14 28 38
f 22 10 39
f 6 20 40
f 25 11 40
f 13 5 41
f 5 16 41
f 33 15 43
f 3 33 43
f 29 16 44
f 7 37 44
f 37 29 44
f 14 21 45
f 24 35 45
f 5 13 46
f 26 5 46
f 23 26 46
f 13 27 46
f 27 13 47
f 19 27 47
f 16 29 47
f 29 19 47
f 13 41 47
f 41 16 47
f 10 31 48
f 31 9 48
f 9 39 48
f 39 10 48
f 28 14 49
f 7 28 49
f 35 7 49
f 14 45 49
f 45 35 49
f 20 26 50
f 26 8 50
f 18 5 51
f 9 18 51
f 5 22 51
f 6 42 52
f 42 24 52
f 45 21 52
f 24 45 52
f 15 34 53
f 34 6 53
f 43 15 53
f 21 43 53
f 6 52 53
f 52 21 53
f 27 1 54
f 36 23 54
f 1 36 54
f 23 46 54
f 46 27 54
f 17 11 55
f 11 30 55
f 30 19 55
f 19 37 55
f 37 17 55
f 11 17 56
f 17 24 56
f 6 40 56
f 40 11 56
f 42 6 56
f 24 42 56
f 8 36 57
f 50 8 57
f 39 9 58
f 22 39 58
f 9 51 58
f 51 22 58
f 32 15 59
f 15 33 59
f 33 32 59
f 28 9 60
f 31 2 60
f 9 31 60
f 2 38 60
f 38 28 60
f 18 7 61
f 16 18 61
f 7 44 61
f 44 16 61
f 1 30 62
f 30 25 62
f 36 1 62
f 25 57 62
f 57 36 62
f 40 20 63
f 25 40 63
f 20 50 63
f 57 25 63
f 50 57 63
f 21 14 64
f 38 3 64
f 14 38 64
f 3 43 64
