# Created by Open3D 
# object name: d91eae20c02a4741aeb889246b417ae4_collider1
# number of vertices: 21
# number of triangles: 38
v -0.000273 0.047931 -0.122756
v -0.018552 0.029655 -0.104474
v -0.015938 0.029655 -0.104474
v -0.008108 0.037489 -0.172365
v -0.015938 0.050544 -0.161911
v -0.018552 0.042708 -0.08881
v -0.000273 0.034878 -0.08881
v -0.000273 0.040099 -0.172365
v -0.018552 0.037489 -0.156685
v -0.000273 0.050544 -0.164521
v -0.000273 0.042708 -0.08881
v -0.018552 0.029655 -0.08881
v -0.002885 0.037489 -0.172365
v -0.008108 0.050544 -0.172365
v -0.015938 0.050544 -0.148848
v -0.018552 0.047931 -0.156685
v -0.013328 0.045319 -0.099247
v -0.013328 0.037489 -0.169739
v -0.013328 0.029655 -0.096638
v -0.000273 0.034878 -0.104474
v -0.018552 0.034878 -0.148848
f 9 18 21
f 3 2 4
f 1 7 8
f 2 6 9
f 1 8 10
f 7 1 11
f 6 7 11
f 2 3 12
f 6 2 12
f 7 6 12
f 3 4 13
f 4 8 13
f 8 4 14
f 5 10 14
f 10 8 14
f 1 10 15
f 10 5 15
f 9 6 16
f 15 5 16
f 6 15 16
f 11 1 17
f 6 11 17
f 15 6 17
f 1 15 17
f 14 4 18
f 5 14 18
f 16 5 18
f 9 16 18
f 12 3 19
f 7 12 19
f 3 13 19
f 19 13 20
f 8 7 20
f 13 8 20
f 7 19 20
f 4 2 21
f 2 9 21
f 18 4 21
