# Created by Open3D 
# object name: d91eae20c02a4741aeb889246b417ae4_collider9
# number of vertices: 21
# number of triangles: 38
v -0.0319 0.026505 -0.049928
v 0.044126 0.034864 -0.033953
v -0.079399 -0.05 -0.021354
v 0.044126 -0.040851 -0.047005
v 0.042294 -0.05 -0.021354
v -0.075228 -0.047046 -0.043645
v -0.081231 0.034864 -0.033953
v 0.044126 0.034864 -0.049615
v 0.044126 -0.025181 -0.020896
v -0.07339 0.037488 -0.047005
v -0.081231 -0.025181 -0.020896
v 0.033671 -0.001699 -0.052229
v -0.049891 -0.040851 -0.047005
v 0.038123 -0.047046 -0.043645
v 0.025805 0.032788 -0.05057
v -0.078197 0.035339 -0.044016
v -0.0314 -0.00263 -0.049427
v 0.041756 0.03581 -0.04661
v 0.0415 -0.022565 -0.049615
v -0.07339 0.02964 -0.047005
v -0.02969 0.030967 -0.049927
f 15 12 21
f 2 4 8
f 4 2 9
f 5 4 9
f 3 5 9
f 2 7 9
f 7 2 10
f 6 3 11
f 7 6 11
f 3 9 11
f 9 7 11
f 4 5 14
f 5 3 14
f 3 6 14
f 13 4 14
f 6 13 14
f 10 8 15
f 8 12 15
f 6 7 16
f 7 10 16
f 1 12 17
f 12 13 17
f 2 8 18
f 10 2 18
f 8 10 18
f 8 4 19
f 12 8 19
f 4 13 19
f 13 12 19
f 10 1 20
f 13 6 20
f 6 16 20
f 16 10 20
f 1 17 20
f 17 13 20
f 1 10 21
f 12 1 21
f 10 15 21
