# Created by Open3D 
# object name: d91eae20c02a4741aeb889246b417ae4_collider7
# number of vertices: 22
# number of triangles: 40
v 0.148589 0.029645 -0.018266
v 0.132981 -0.030147 -0.043652
v 0.13325 0.036056 -0.040469
v 0.140754 -0.030413 0.141008
v 0.148589 -0.030413 -0.041766
v 0.148589 -0.027801 0.138394
v 0.134484 -0.037235 0.08436
v 0.148589 0.029645 -0.041766
v 0.13292 0.037488 -0.036539
v 0.13161 -0.033038 0.010234
v 0.138145 -0.02257 0.125329
v 0.145976 0.027033 2.6e-05
v 0.148589 -0.030413 0.138394
v 0.140754 -0.019958 0.125329
v 0.143363 0.034876 -0.044379
v 0.145976 0.037488 -0.031313
v 0.140754 0.027033 2.6e-05
v 0.138145 -0.027801 0.135781
v 0.148589 -0.017353 0.114895
v 0.138145 0.037488 -0.044379
v 0.145976 -0.019958 0.125329
v 0.140754 -0.027801 0.141008
f 21 14 22
f 5 1 6
f 2 5 7
f 1 5 8
f 3 2 9
f 2 7 10
f 9 2 10
f 7 9 10
f 6 4 13
f 5 6 13
f 7 5 13
f 4 7 13
f 9 11 14
f 5 2 15
f 8 5 15
f 1 8 16
f 12 1 16
f 8 15 16
f 12 16 17
f 9 14 17
f 14 12 17
f 16 9 17
f 7 4 18
f 9 7 18
f 11 9 18
f 6 1 19
f 1 12 19
f 2 3 20
f 3 9 20
f 15 2 20
f 9 16 20
f 16 15 20
f 12 14 21
f 6 19 21
f 19 12 21
f 4 6 22
f 14 11 22
f 18 4 22
f 11 18 22
f 6 21 22
