# Created by Open3D 
# object name: d91eae20c02a4741aeb889246b417ae4_collider8
# number of vertices: 16
# number of triangles: 28
v 0.043333 -0.031026 -0.018051
v 0.132911 0.037488 -0.036557
v 0.132911 0.034876 -0.033947
v 0.130257 -0.028383 -0.043611
v 0.044134 0.037488 -0.047009
v 0.044134 -0.030413 -0.047009
v 0.134039 -0.031276 -0.015271
v 0.044134 0.034876 -0.033947
v 0.132911 0.037488 -0.044392
v 0.088528 -0.032112 -0.013514
v 0.072866 0.029645 -0.047009
v 0.134969 -0.029254 -0.014943
v 0.044134 0.037488 -0.036557
v 0.051973 -0.030413 -0.047009
v 0.044134 -0.027801 -0.018286
v 0.072866 0.037488 -0.047009
f 9 11 16
f 1 5 6
f 3 2 8
f 5 2 9
f 1 6 10
f 3 8 10
f 6 5 11
f 9 4 11
f 2 3 12
f 7 4 12
f 9 2 12
f 4 9 12
f 3 10 12
f 10 7 12
f 5 1 13
f 2 5 13
f 8 2 13
f 1 8 13
f 4 7 14
f 10 6 14
f 7 10 14
f 11 4 14
f 6 11 14
f 8 1 15
f 1 10 15
f 10 8 15
f 5 9 16
f 11 5 16
