# Created by Open3D 
# object name: d91eae20c02a4741aeb889246b417ae4_collider5
# number of vertices: 19
# number of triangles: 34
v 0.044805 -0.030545 -0.045625
v 0.148589 -0.051306 0.167125
v 0.044146 -0.051306 0.172365
v 0.145962 -0.051306 -0.044389
v 0.140737 -0.030413 0.143612
v 0.044146 -0.051306 -0.044389
v 0.147113 -0.030708 -0.038795
v 0.044146 -0.038248 0.112282
v 0.044146 -0.046081 0.172365
v 0.044146 -0.030413 -0.00258
v 0.14593 -0.030945 0.137025
v 0.140737 -0.040859 0.164527
v 0.148589 -0.048692 -0.044389
v 0.144972 -0.030622 -0.042253
v 0.145962 -0.051306 0.172365
v 0.044146 -0.035636 0.08355
v 0.148589 -0.051306 -0.041748
v 0.13813 -0.030413 0.141013
v 0.044146 -0.033025 0.041806
f 18 10 19
f 2 3 4
f 1 4 6
f 4 3 6
f 6 3 8
f 8 3 9
f 5 8 9
f 1 6 10
f 6 8 10
f 2 7 11
f 7 5 11
f 5 9 12
f 11 5 12
f 4 1 13
f 7 2 13
f 7 13 14
f 5 7 14
f 1 10 14
f 10 5 14
f 13 1 14
f 3 2 15
f 9 3 15
f 2 11 15
f 12 9 15
f 11 12 15
f 10 8 16
f 2 4 17
f 4 13 17
f 13 2 17
f 8 5 18
f 5 10 18
f 16 8 18
f 16 18 19
f 10 16 19
