# Created by Open3D 
# object name: fb1b6fc41f7e49adbf467e5e5988d190_collider2
# number of vertices: 64
# number of triangles: 124
v -0.000570999 -0.0900663 0.037896
v 0.000749001 -0.0913913 0.037896
v 0.015322 0.00264974 -0.001834
v -0.01779 0.00263874 -0.015084
v -0.01646 -0.0834423 0.008749
v 0.012672 -0.0874163 0.011395
v 0.015322 0.00264974 -0.028328
v -0.00719 -0.0212073 -0.033626
v -0.01249 0.00263874 0.000805002
v -0.013814 -0.0807923 0.032598
v 0.015322 -0.0688693 0.023315
v -0.004544 -0.0741683 -0.009785
v -0.004544 -0.100664 0.024638
v -0.015137 0.00263874 -0.02965
v 0.002076 -0.0728443 0.03392
v 0.013999 -0.0344453 -0.023021
v -0.01646 -0.0529723 -0.013754
v 0.000749001 -0.00530926 -0.037602
v 0.017972 0.00264974 -0.020376
v 0.013999 -0.0728443 -0.001834
v 0.011346 -0.0874163 0.03392
v 0.006049 0.00263874 0.00212
v -0.003217 -0.0384293 -0.02965
v -0.01779 -0.0781433 0.015378
v -0.008514 -0.0993393 0.03392
v 0.006049 -0.0980153 0.035243
v -0.003217 -0.0860923 0.000805002
v 0.011346 -0.0768183 0.032598
v 0.016645 -0.0635703 0.016701
v 0.008699 -0.0728443 -0.007132
v -0.00719 -0.0781433 0.035243
v -0.004544 0.00263874 -0.037602
v -0.01646 -0.0304803 -0.023021
v -0.01646 0.00263874 -0.007132
v 0.008699 -0.0940403 0.015378
v -0.01779 -0.0622453 -0.004479
v -0.008514 0.00263874 0.00212
v 0.013999 -0.0874163 0.021993
v 0.011346 -0.0344553 -0.025674
v 0.016645 -0.0172323 -0.023021
v 0.000749001 -0.0463783 -0.025674
v 0.012672 -0.00928426 -0.030973
v -0.00719 -0.0556213 -0.020383
v -0.015137 -0.0715193 0.027291
v -0.015137 -0.0688693 -0.00581
v -0.011167 -0.0927153 0.014048
v -0.01779 -0.0159083 -0.020383
v 0.012672 -0.0529723 -0.016407
v 0.000749001 -0.0145833 -0.036272
v 0.016645 0.00264974 -0.00581
v 0.006049 -0.0900663 0.007426
v -0.01249 -0.0940403 0.027291
v -0.015137 -0.0331303 -0.024344
v -0.015137 -0.00927426 -0.02965
v 0.003399 -0.100664 0.025968
v -0.004544 -0.0953653 0.037896
v -0.001894 -0.0754933 0.035243
v -0.003217 -0.0980153 0.018024
v 0.015322 -0.0821173 0.021993
v 0.013999 -0.0728443 0.028622
v 0.011346 0.00263874 -0.032303
v -0.011167 -0.0781433 0.03392
v 0.006049 -0.0847673 0.036566
v -0.005867 -0.0371043 -0.02965
f 43 53 64
f 4 3 7
f 4 7 14
f 7 3 19
f 5 12 27
f 3 22 28
f 22 15 28
f 20 6 30
f 27 12 30
f 14 7 32
f 18 8 32
f 3 4 34
f 9 3 34
f 4 24 34
f 24 4 36
f 5 24 36
f 33 17 36
f 3 9 37
f 22 3 37
f 9 31 37
f 21 26 38
f 35 6 38
f 26 35 38
f 7 19 40
f 20 16 40
f 19 29 40
f 29 20 40
f 30 12 41
f 16 39 42
f 7 40 42
f 40 16 42
f 41 12 43
f 23 41 43
f 10 9 44
f 24 10 44
f 9 34 44
f 34 24 44
f 12 5 45
f 5 36 45
f 36 17 45
f 43 12 45
f 17 43 45
f 13 25 46
f 5 27 46
f 4 14 47
f 36 4 47
f 33 36 47
f 16 20 48
f 20 30 48
f 39 16 48
f 30 41 48
f 41 39 48
f 8 18 49
f 23 8 49
f 41 23 49
f 39 41 49
f 18 42 49
f 42 39 49
f 3 11 50
f 19 3 50
f 11 29 50
f 29 19 50
f 30 6 51
f 27 30 51
f 6 35 51
f 10 24 52
f 24 5 52
f 25 10 52
f 5 46 52
f 46 25 52
f 17 33 53
f 43 17 53
f 14 32 54
f 32 8 54
f 47 14 54
f 33 47 54
f 8 53 54
f 53 33 54
f 25 13 55
f 26 25 55
f 35 26 55
f 2 1 56
f 10 25 56
f 26 2 56
f 25 26 56
f 1 31 56
f 15 22 57
f 31 1 57
f 22 37 57
f 37 31 57
f 13 46 58
f 46 27 58
f 27 51 58
f 51 35 58
f 55 13 58
f 35 55 58
f 6 20 59
f 29 11 59
f 20 29 59
f 38 6 59
f 21 38 59
f 11 3 60
f 3 28 60
f 28 21 60
f 59 11 60
f 21 59 60
f 32 7 61
f 18 32 61
f 7 42 61
f 42 18 61
f 9 10 62
f 31 9 62
f 10 56 62
f 56 31 62
f 1 2 63
f 26 21 63
f 2 26 63
f 28 15 63
f 21 28 63
f 57 1 63
f 15 57 63
f 8 23 64
f 23 43 64
f 53 8 64
