# Created by Open3D 
# object name: fb1b6fc41f7e49adbf467e5e5988d190_collider0
# number of vertices: 36
# number of triangles: 68
v -0.009841 0.0953637 0.020677
v -0.001898 0.0953637 0.036572
v -0.008517 0.0953637 0.036572
v -0.000572999 0.0768257 0.022003
v -0.000572999 0.0980117 0.024651
v -0.011166 0.0821247 0.022003
v -0.011166 0.0913927 0.036572
v 0.002076 0.0874207 0.020677
v -0.008517 0.100663 0.029949
v -0.007193 0.0768257 0.020677
v -0.012491 0.0966887 0.025978
v -0.001898 0.0913927 0.036572
v -0.004546 0.0980117 0.020677
v -0.012491 0.0953637 0.035246
v 0.002076 0.0794767 0.020677
v 0.000752001 0.0940407 0.029949
v -0.003221 0.100663 0.031273
v -0.007193 0.100663 0.024651
v -0.007193 0.0768257 0.022003
v -0.012491 0.0913927 0.035246
v -0.011166 0.0821247 0.020677
v 0.002076 0.0794767 0.022003
v -0.000572999 0.0953637 0.035246
v -0.005869 0.0993377 0.033922
v -0.000572999 0.0953637 0.020677
v -0.012491 0.0913927 0.024651
v -0.011166 0.0927157 0.020677
v -0.004546 0.100663 0.024651
v 0.000752001 0.0953637 0.024651
v -0.000572999 0.0980117 0.029949
v -0.009841 0.0794767 0.022003
v -0.000572999 0.0927157 0.035246
v 0.002076 0.0821247 0.023327
v -0.011166 0.0980117 0.032598
v -0.008517 0.0993377 0.023327
v -0.003221 0.0980117 0.035246
f 17 24 36
f 2 3 7
f 1 8 10
f 7 4 12
f 2 7 12
f 8 1 13
f 7 3 14
f 4 10 15
f 10 8 15
f 11 9 18
f 9 17 18
f 4 7 19
f 10 4 19
f 7 14 20
f 14 11 20
f 19 7 20
f 1 10 21
f 6 20 21
f 12 4 22
f 4 15 22
f 15 8 22
f 2 12 23
f 14 3 24
f 17 9 24
f 8 13 25
f 20 11 26
f 21 20 26
f 21 26 27
f 11 1 27
f 1 21 27
f 26 11 27
f 17 5 28
f 13 18 28
f 18 17 28
f 5 25 28
f 25 13 28
f 16 8 29
f 25 5 29
f 8 25 29
f 5 17 30
f 23 16 30
f 17 23 30
f 29 5 30
f 16 29 30
f 10 19 31
f 20 6 31
f 19 20 31
f 21 10 31
f 6 21 31
f 12 22 32
f 16 23 32
f 23 12 32
f 8 16 33
f 22 8 33
f 32 22 33
f 16 32 33
f 9 11 34
f 11 14 34
f 14 24 34
f 24 9 34
f 1 11 35
f 13 1 35
f 11 18 35
f 18 13 35
f 3 2 36
f 2 23 36
f 23 17 36
f 24 3 36
