# Created by Open3D 
# object name: fb1b6fc41f7e49adbf467e5e5988d190_collider1
# number of vertices: 64
# number of triangles: 124
v -0.00454 0.0966917 0.020677
v -0.00719 0.0966917 0.020677
v 0.006049 0.00264974 0.002131
v -0.01779 0.00264974 -0.01508
v -0.01381 0.0648957 -0.017727
v 0.010022 0.0688727 -0.01508
v 0.016645 0.00264974 -0.005815
v -0.012487 0.0635707 0.016701
v 0.008699 0.0688727 0.015378
v -0.00454 0.0265007 -0.036267
v 0.013995 0.0251837 -0.02965
v -0.012487 0.00264974 0.000802002
v -0.015137 0.00264974 -0.02965
v -0.00189 0.0688727 -0.021703
v -0.016464 0.0688727 -0.007139
v 0.015105 0.0502547 -0.008462
v 0.000753001 0.0728407 0.020677
v 0.015322 0.00264974 -0.028321
v -0.00454 0.0821097 -0.008462
v -0.015137 0.0371047 -0.026997
v 0.007376 0.0807937 -0.000515998
v -0.00189 0.0529747 -0.02965
v 0.000753001 0.00264974 -0.037602
v 0.011349 0.0701887 0.007431
v -0.011164 0.0913887 0.020677
v -0.00719 0.0662127 0.019342
v 0.010022 0.0476907 -0.026997
v 0.000753001 0.0927057 0.020677
v 0.000753001 0.0278257 -0.036267
v -0.012487 0.0768077 -0.008462
v 0.012672 0.00264974 -0.000515998
v 0.016517 0.0344667 -0.014547
v 0.007376 0.0635707 0.016701
v -0.016464 0.0529747 -0.019056
v 0.011349 0.0556167 0.011396
v -0.016464 0.00264974 -0.007139
v -0.015176 0.0661487 0.003743
v 0.012672 0.0476907 -0.024356
v -0.00454 0.0490257 -0.030979
v 0.012672 0.0159047 -0.032297
v -0.00454 0.00264974 -0.037602
v -0.015137 0.0225327 -0.02965
v 0.006049 0.0807937 -0.004498
v 0.015118 0.0454757 -0.003662
v -0.00454 0.0728407 -0.019056
v -0.016464 0.0238587 -0.025679
v 0.016774 0.00580074 -0.019581
v 0.000753001 0.0768077 -0.013756
v 0.015322 0.0185557 -0.028321
v -0.00719 0.0622357 -0.024356
v 0.010022 0.0728407 -0.00978
v 0.000753001 0.0185557 -0.037602
v 0.010022 0.0542917 -0.024356
v 0.011349 0.0304677 -0.030979
v 0.012672 0.00264974 -0.032297
v -0.000566999 0.0410637 -0.03362
v -0.01381 0.0423887 -0.026997
v -0.009837 0.0754917 0.020677
v -0.01381 0.0794587 -0.000515998
v -0.00189 0.0821097 -0.008462
v -0.00719 0.0966917 0.019342
v 0.003399 0.0821097 0.020677
v -0.01381 0.00264974 -0.000515998
v -0.012487 0.0172307 -0.032297
f 42 10 64
f 3 4 7
f 4 3 12
f 7 4 13
f 1 2 17
f 7 13 18
f 18 13 23
f 17 2 25
f 12 3 26
f 8 12 26
f 3 17 26
f 1 17 28
f 9 24 28
f 24 21 28
f 5 15 30
f 3 7 31
f 17 3 33
f 3 31 33
f 15 5 34
f 4 15 34
f 24 9 35
f 31 7 35
f 9 33 35
f 33 31 35
f 4 12 36
f 15 4 37
f 25 15 37
f 8 25 37
f 4 36 37
f 36 8 37
f 6 16 38
f 16 32 38
f 23 13 41
f 1 28 43
f 28 21 43
f 16 24 44
f 32 16 44
f 7 32 44
f 35 7 44
f 24 35 44
f 5 30 45
f 30 19 45
f 13 4 46
f 4 34 46
f 34 20 46
f 42 13 46
f 20 42 46
f 7 18 47
f 32 7 47
f 6 14 48
f 43 6 48
f 14 45 48
f 11 38 49
f 38 32 49
f 40 11 49
f 18 40 49
f 47 18 49
f 32 47 49
f 14 22 50
f 22 39 50
f 45 14 50
f 5 45 50
f 16 6 51
f 24 16 51
f 21 24 51
f 6 43 51
f 43 21 51
f 10 29 52
f 40 23 52
f 41 10 52
f 23 41 52
f 14 6 53
f 22 14 53
f 27 22 53
f 6 38 53
f 38 27 53
f 27 38 54
f 38 11 54
f 11 40 54
f 52 29 54
f 40 52 54
f 18 23 55
f 40 18 55
f 23 40 55
f 22 27 56
f 29 10 56
f 10 39 56
f 39 22 56
f 27 54 56
f 54 29 56
f 34 5 57
f 20 34 57
f 39 10 57
f 10 42 57
f 42 20 57
f 5 50 57
f 50 39 57
f 25 8 58
f 17 25 58
f 26 17 58
f 8 26 58
f 15 25 59
f 30 15 59
f 1 43 60
f 45 19 60
f 43 48 60
f 48 45 60
f 2 1 61
f 25 2 61
f 19 30 61
f 59 25 61
f 30 59 61
f 1 60 61
f 60 19 61
f 28 17 62
f 9 28 62
f 33 9 62
f 17 33 62
f 12 8 63
f 8 36 63
f 36 12 63
f 10 41 64
f 41 13 64
f 13 42 64
