# Created by Open3D 
# object name: e22b6eb74f994a44953daaece09dfa70_collider0
# number of vertices: 64
# number of triangles: 124
v -0.00183404 -0.0900238 -0.016633
v 0.00199896 0.0807782 0.017898
v 0.00332596 0.0993222 0.015248
v -0.01654 0.0807782 -0.007265
v -0.012566 -0.0993228 0.012594
v 0.017895 0.0807782 -0.001965
v 0.015245 -0.0993228 0.008625
v 0.00332596 0.100662 -0.015211
v 0.012595 -0.0993228 -0.012561
v -0.015216 -0.0993228 -0.008591
v -0.012566 0.100662 0.008625
v 0.00430796 -0.0871128 0.016584
v -0.00726704 0.0807782 -0.016538
v 0.013922 0.100662 0.007298
v -0.016582 -0.0872668 0.004315
v 0.00687896 0.0761622 -0.015591
v 0.016568 -0.0980028 -0.005941
v -0.014278 0.0758022 0.009336
v -0.011243 -0.0980028 -0.013888
v -0.00197004 0.0807782 0.017898
v 0.00931896 0.0756852 0.014287
v -0.01389 0.100662 -0.007265
v 0.00597196 -0.0993228 -0.016538
v 0.0143 0.0757632 -0.009298
v 0.00862196 -0.0993228 0.015248
v -0.00428204 -0.0871578 0.016592
v -0.016768 0.0758182 0.003122
v 0.013922 0.100662 -0.007265
v 0.017895 0.0807782 0.002001
v 0.014286 0.0756932 0.009323
v -0.00929804 0.0757482 0.014299
v 0.00312296 0.0758282 -0.016769
v 0.016568 -0.0980028 0.005975
v 0.013922 -0.0980028 0.011274
v -0.00462004 -0.100663 0.015248
v -0.00594404 -0.0993228 -0.016538
v -0.016588 -0.0873028 -0.004284
v -0.00859304 -0.0993228 0.015248
v -0.015216 -0.0993228 0.008625
v 0.012595 -0.100663 -0.009911
v 0.00933696 0.0758322 -0.014278
v -0.015216 -0.100663 -0.004615
v -0.00594404 0.100662 0.013921
v -0.00726704 0.100662 -0.013884
v -0.015216 0.100662 0.002001
v 0.00729496 0.100662 0.013921
v 0.013922 -0.0980028 -0.011241
v 0.015245 -0.100663 0.004648
v 0.000633963 -0.0904988 0.016754
v -0.015591 0.0761502 0.006881
v 0.015245 0.100662 -0.003291
v 0.00729496 0.100662 -0.013884
v -0.016735 -0.0905658 0.000636001
v -0.00462004 -0.100663 -0.015211
v 0.01677 -0.0905978 0.000637001
v 0.012634 0.0697072 -0.0114
v -0.012566 -0.0993228 -0.012561
v -0.00309504 0.0758382 -0.016771
v 0.00862196 -0.0993228 -0.015211
v -0.016772 0.0758342 -0.003089
v -0.011243 -0.0980028 0.013921
v -0.011401 0.0697022 0.012633
v 0.012595 -0.0993228 0.012598
v 0.011418 0.0696282 0.01262
f 63 34 64
f 8 11 14
f 4 13 19
f 2 3 20
f 11 8 22
f 13 4 22
f 6 17 24
f 2 12 25
f 21 2 25
f 8 14 28
f 6 24 28
f 29 14 30
f 11 18 31
f 13 8 32
f 8 16 32
f 23 1 32
f 16 23 32
f 29 30 33
f 33 30 34
f 7 33 34
f 19 13 36
f 1 23 36
f 4 10 37
f 26 20 38
f 20 31 38
f 5 35 38
f 5 18 39
f 35 5 39
f 9 17 40
f 28 24 41
f 35 39 42
f 40 35 42
f 14 11 43
f 20 3 43
f 11 31 43
f 31 20 43
f 8 13 44
f 22 8 44
f 13 22 44
f 22 4 45
f 11 22 45
f 4 27 45
f 3 2 46
f 2 21 46
f 30 14 46
f 21 30 46
f 43 3 46
f 14 43 46
f 17 9 47
f 24 17 47
f 33 7 48
f 17 33 48
f 25 35 48
f 40 17 48
f 35 40 48
f 12 2 49
f 2 20 49
f 25 12 49
f 20 26 49
f 35 25 49
f 26 38 49
f 38 35 49
f 18 11 50
f 27 15 50
f 39 18 50
f 15 39 50
f 11 45 50
f 45 27 50
f 6 28 51
f 28 14 51
f 29 6 51
f 14 29 51
f 16 8 52
f 8 28 52
f 41 16 52
f 28 41 52
f 15 27 53
f 37 10 53
f 39 15 53
f 10 42 53
f 42 39 53
f 36 23 54
f 23 40 54
f 40 42 54
f 17 6 55
f 6 29 55
f 33 17 55
f 29 33 55
f 9 41 56
f 41 24 56
f 47 9 56
f 24 47 56
f 10 4 57
f 4 19 57
f 19 36 57
f 42 10 57
f 36 54 57
f 54 42 57
f 13 32 58
f 32 1 58
f 1 36 58
f 36 13 58
f 23 16 59
f 9 40 59
f 40 23 59
f 16 41 59
f 41 9 59
f 27 4 60
f 4 37 60
f 53 27 60
f 37 53 60
f 5 38 61
f 38 31 61
f 18 5 62
f 31 18 62
f 5 61 62
f 61 31 62
f 21 25 63
f 7 34 63
f 48 7 63
f 25 48 63
f 30 21 64
f 34 30 64
f 21 63 64
