# Created by Open3D 
# object name: d2a33405d2fe447fb1ebb5d82a71acb9_collider2
# number of vertices: 64
# number of triangles: 124
v -0.0272768 -0.02207 -0.00254598
v -0.0467578 0.00195596 5.10168e-05
v -0.0435098 0.00130196 0.00264802
v 0.000649182 -0.011037 -0.00774098
v 0.000649182 -0.020127 0.00914202
v 0.000649182 -0.00583804 0.00654402
v -0.0376638 -0.01363 0.00784302
v -0.0422108 -0.010388 -0.00709098
v 0.000649182 -0.023371 -0.00838998
v -0.0129908 -0.024671 0.00654402
v -0.0350658 -0.00583804 0.00784302
v -0.0175428 -0.023374 -0.00838998
v -0.0467578 -0.00778804 0.00459502
v -0.0337668 -0.00973704 -0.00838998
v -0.0467578 0.00195596 -0.00189598
v 0.000649182 -0.00649004 5.10168e-05
v -0.0246778 -0.020775 0.00849302
v -0.00260282 -0.025323 5.10168e-05
v -0.0376638 -0.016228 0.00394702
v 0.000649182 -0.012332 0.00914202
v -0.0370148 -0.016228 -0.00644098
v -0.0487068 -0.00583804 -0.00319498
v -0.0285758 -0.01363 0.00914202
v -0.0142948 -0.025323 -0.00449298
v -0.0441598 -0.00194304 -0.00514198
v 0.000649182 -0.016228 -0.00903998
v -0.0279258 -0.018177 -0.00903998
v -0.0409118 -0.00129604 0.00589402
v 0.000649182 -0.024022 0.00654402
v -0.0246778 -0.022722 0.00524402
v -0.0500058 0.00130196 0.000699017
v 0.000649182 -0.00908804 -0.00579198
v 0.000649182 -0.00713904 0.00784302
v -0.0454588 -0.00454104 0.00589402
v -0.0435098 -0.011683 -0.00449298
v -0.0357158 -0.00324004 -0.00579198
v -0.0253278 -0.02207 -0.00709098
v -0.0103978 -0.021424 0.00914202
v -0.00260282 -0.022722 -0.00903998
v -0.00390182 -0.025323 -0.00579198
v -0.0474078 -0.00389204 -0.00514198
v 0.000649182 -0.00583804 0.00199802
v -0.0305188 -0.020127 0.00589402
v -0.0188418 -0.024671 -0.00124598
v -0.0337668 -0.018824 -0.00384498
v -0.0116918 -0.025323 0.00394702
v -0.0298748 -0.01363 -0.00903998
v -0.0441598 -0.011037 0.00394702
v -0.0493558 -0.00389204 0.00264802
v -0.0370148 -0.000645045 0.00524402
v -0.0318178 -0.00583804 -0.00709098
v 0.000649182 -0.024671 -0.00579198
v -0.00844882 -0.024022 0.00784302
v -0.0500058 0.000654955 -0.00189598
v -0.0389688 -0.00843704 0.00784302
v -0.0116918 -0.024671 -0.00774098
v -0.0402628 -0.00583804 -0.00709098
v -0.0383188 -0.01493 0.00654402
v -0.0194918 -0.024022 0.00589402
v -0.0324678 -0.00843704 0.00849302
v -0.0331178 -0.016877 -0.00838998
v -0.0266268 -0.017528 0.00914202
v -0.0448098 0.000654955 0.00394702
v -0.0207858 -0.024022 -0.00514198
f 56 24 64
f 2 3 6
f 5 4 6
f 4 5 9
f 2 6 15
f 6 4 16
f 5 6 20
f 5 20 23
f 4 9 26
f 14 4 26
f 9 5 29
f 2 15 31
f 16 4 32
f 15 16 32
f 20 6 33
f 28 11 33
f 13 7 34
f 8 21 35
f 22 8 35
f 25 15 36
f 32 4 36
f 15 32 36
f 27 12 37
f 5 23 38
f 26 9 39
f 27 26 39
f 12 27 39
f 18 24 40
f 8 22 41
f 15 6 42
f 6 16 42
f 16 15 42
f 30 17 43
f 1 30 43
f 30 1 44
f 19 35 45
f 35 21 45
f 37 1 45
f 21 37 45
f 1 43 45
f 43 19 45
f 24 18 46
f 29 10 46
f 18 29 46
f 44 24 46
f 8 14 47
f 14 26 47
f 26 27 47
f 13 22 48
f 35 19 48
f 22 35 48
f 22 13 49
f 13 34 49
f 34 31 49
f 6 3 50
f 33 6 50
f 28 33 50
f 4 14 51
f 36 4 51
f 9 29 52
f 29 18 52
f 40 9 52
f 18 40 52
f 17 10 53
f 29 5 53
f 10 29 53
f 38 17 53
f 5 38 53
f 15 25 54
f 31 15 54
f 41 22 54
f 25 41 54
f 22 49 54
f 49 31 54
f 7 23 55
f 11 28 55
f 34 7 55
f 28 34 55
f 39 9 56
f 12 39 56
f 9 40 56
f 40 24 56
f 14 8 57
f 25 36 57
f 8 41 57
f 41 25 57
f 51 14 57
f 36 51 57
f 7 13 58
f 17 7 58
f 43 17 58
f 19 43 58
f 13 48 58
f 48 19 58
f 10 17 59
f 17 30 59
f 30 44 59
f 46 10 59
f 44 46 59
f 23 20 60
f 20 33 60
f 33 11 60
f 55 23 60
f 11 55 60
f 21 8 61
f 37 21 61
f 27 37 61
f 8 47 61
f 47 27 61
f 7 17 62
f 23 7 62
f 17 38 62
f 38 23 62
f 3 2 63
f 2 31 63
f 34 28 63
f 31 34 63
f 50 3 63
f 28 50 63
f 1 37 64
f 37 12 64
f 24 44 64
f 44 1 64
f 12 56 64
