# Created by Open3D 
# object name: d2a33405d2fe447fb1ebb5d82a71acb9_collider1
# number of vertices: 64
# number of triangles: 124
v 0.00195318 -0.024666 5.10168e-05
v 0.0370212 0.011698 0.00329702
v 0.0370212 0.011698 -0.00384498
v 0.000649182 -0.00584104 0.00199802
v 0.0285722 -0.00908104 0.00849302
v 0.0188352 -0.015574 -0.00903998
v 0.000649182 -0.012979 -0.00838998
v 0.000649182 -0.012328 0.00914202
v 0.0350662 -0.00129504 -0.00774098
v 0.0266252 0.00909596 0.00654402
v 0.0123452 -0.020772 0.00654402
v 0.0272772 0.00844396 -0.00514198
v 0.0227302 -0.016226 -0.00384498
v 0.000649182 -0.024018 -0.00774098
v 0.0363692 -0.00129204 0.00589602
v 0.000649182 -0.022071 0.00849302
v 0.0324712 0.00325096 0.00849302
v 0.0285722 0.00260296 -0.00838998
v 0.0285722 0.011695 5.10168e-05
v 0.000649182 -0.00584104 0.00654402
v 0.0318192 -0.00843304 -0.00449298
v 0.000649182 -0.00973204 -0.00709098
v 0.0272772 -0.012328 0.00589402
v 0.0129932 -0.02142 -0.00449298
v 0.0194832 -0.013627 0.00914202
v 0.0370212 6.95517e-06 -0.00319498
v 0.000649182 -0.015574 -0.00903998
v 0.0305232 -0.00519404 -0.00903998
v 0.0259772 0.00649696 0.00784302
v 0.0292242 -0.000648045 0.00914202
v 0.0272772 0.011043 0.00394702
v 0.0246782 -0.013627 -0.00774098
v 0.0181872 -0.018824 0.00329702
v 0.0266252 0.00584896 -0.00709098
v 0.0344182 -0.00519404 0.00459502
v 0.000649182 -0.00843304 0.00849302
v 0.000649182 -0.00843304 -0.00514198
v 0.0123452 -0.020772 -0.00774098
v 0.00195318 -0.022071 -0.00903998
v 0.0331222 0.00260296 -0.00838998
v 0.0201312 -0.016226 0.00784302
v 0.0350662 -0.00129504 0.00784302
v 0.000649182 -0.024018 0.00589402
v 0.0298722 0.011695 -0.00254598
v 0.0103942 -0.022071 0.00459502
v 0.0344182 -0.00454204 -0.00644098
v 0.0272772 -0.00129504 -0.00903998
v 0.0344182 0.011695 0.00459502
v 0.000649182 -0.02012 0.00914202
v 0.00455218 -0.024018 -0.00579198
v 0.0259772 0.00389796 0.00849302
v 0.0344182 0.011695 -0.00449298
v 0.0129932 -0.018824 0.00849302
v 0.0357212 0.00390196 0.00719502
v 0.0370212 0.00130696 0.00524402
v 0.0285722 -0.01168 0.00264802
v 0.0233782 -0.015574 0.00459502
v 0.0350662 -0.00454204 -0.00189598
v 0.0318192 -0.00778204 0.00654402
v 0.0298722 -0.00389404 0.00914202
v 0.0363692 0.00325396 -0.00644098
v 0.0181872 -0.018824 -0.00514198
v 0.0298722 -0.00908104 -0.00774098
v 0.00519918 -0.022719 0.00719302
f 53 16 64
f 4 7 8
f 8 7 14
f 8 14 16
f 2 3 19
f 4 8 20
f 7 4 22
f 3 2 26
f 14 7 27
f 7 18 27
f 6 27 28
f 8 25 30
f 19 4 31
f 4 20 31
f 20 10 31
f 21 13 32
f 18 7 34
f 7 22 34
f 22 12 34
f 20 8 36
f 10 20 36
f 29 10 36
f 22 4 37
f 12 22 37
f 6 32 38
f 27 6 39
f 14 27 39
f 6 38 39
f 38 14 39
f 9 28 40
f 18 34 40
f 23 5 41
f 5 25 41
f 11 33 41
f 14 1 43
f 16 14 43
f 19 3 44
f 4 19 44
f 37 4 44
f 12 37 44
f 33 11 45
f 24 33 45
f 43 1 45
f 9 26 46
f 27 18 47
f 28 27 47
f 18 40 47
f 40 28 47
f 2 19 48
f 29 17 48
f 10 29 48
f 31 10 48
f 19 31 48
f 8 16 49
f 25 8 49
f 1 14 50
f 14 38 50
f 38 24 50
f 45 1 50
f 24 45 50
f 17 29 51
f 30 17 51
f 8 30 51
f 36 8 51
f 29 36 51
f 34 12 52
f 3 40 52
f 40 34 52
f 44 3 52
f 12 44 52
f 11 41 53
f 41 25 53
f 49 16 53
f 25 49 53
f 17 42 54
f 2 48 54
f 48 17 54
f 26 2 55
f 15 26 55
f 42 15 55
f 2 54 55
f 54 42 55
f 13 21 56
f 21 35 56
f 33 13 57
f 23 41 57
f 41 33 57
f 13 56 57
f 56 23 57
f 26 15 58
f 15 35 58
f 35 21 58
f 46 26 58
f 21 46 58
f 5 23 59
f 35 15 59
f 15 42 59
f 42 5 59
f 23 56 59
f 56 35 59
f 25 5 60
f 17 30 60
f 30 25 60
f 42 17 60
f 5 42 60
f 3 26 61
f 26 9 61
f 40 3 61
f 9 40 61
f 32 13 62
f 13 33 62
f 33 24 62
f 24 38 62
f 38 32 62
f 28 9 63
f 6 28 63
f 21 32 63
f 32 6 63
f 9 46 63
f 46 21 63
f 16 43 64
f 45 11 64
f 43 45 64
f 11 53 64
