# Created by Open3D 
# object name: 2d0dc184822a4f24be85986d0ea7fb8d_collider13
# number of vertices: 33
# number of triangles: 62
v -0.0159354 0.0439293 0.0368073
v 0.0049026 0.0781693 0.0159673
v 0.0049026 0.0781693 0.0144773
v 0.0382466 0.0435593 0.0279103
v 0.0063966 0.0662603 0.0353173
v -0.0174284 0.0736973 0.0144773
v 0.0393736 0.0602603 0.0137323
v -0.0159354 0.0677443 0.0338323
v 0.0316936 0.0588153 0.0323443
v -0.0084954 0.0439293 0.0308513
v 0.0272286 0.0692293 0.0234133
v 0.0331816 0.0439293 0.0323413
v -0.0174284 0.0603073 0.0383003
v 0.0361576 0.0662603 0.0159673
v -0.0174284 0.0439293 0.0338293
v 0.0376506 0.0573273 0.0278783
v -0.0084954 0.0781693 0.0159673
v -0.0129594 0.0528553 0.0383003
v -0.0070074 0.0722093 0.0293663
v 0.0138256 0.0439293 0.0278783
v -0.0174284 0.0722093 0.0263883
v 0.0227596 0.0736973 0.0159673
v 0.0346696 0.0528553 0.0323413
v 0.0257406 0.0692293 0.0249053
v 0.0257406 0.0632803 0.0323443
v -0.0174284 0.0483943 0.0383003
v -0.0144474 0.0617913 0.0383003
v 0.000438602 0.0439293 0.0293663
v -0.0159354 0.0439293 0.0323413
v 0.0361576 0.0617913 0.0249053
v 0.0376506 0.0513673 0.0308513
v -0.0174284 0.0751863 0.0174623
v -0.0084954 0.0781693 0.0144773
f 32 17 33
f 1 4 12
f 4 1 15
f 13 6 15
f 7 14 16
f 2 3 17
f 8 5 19
f 2 17 19
f 7 4 20
f 6 13 21
f 13 8 21
f 8 19 21
f 19 17 21
f 3 2 22
f 7 3 22
f 14 7 22
f 11 14 22
f 9 5 23
f 18 12 23
f 2 19 24
f 19 5 24
f 22 2 24
f 11 22 24
f 5 9 25
f 24 5 25
f 1 12 26
f 15 1 26
f 13 15 26
f 12 18 26
f 18 13 26
f 5 8 27
f 8 13 27
f 13 18 27
f 23 5 27
f 18 23 27
f 6 7 28
f 4 10 28
f 10 6 28
f 20 4 28
f 7 20 28
f 10 4 29
f 6 10 29
f 4 15 29
f 15 6 29
f 14 11 30
f 9 16 30
f 16 14 30
f 11 24 30
f 25 9 30
f 24 25 30
f 4 7 31
f 12 4 31
f 7 16 31
f 16 9 31
f 9 23 31
f 23 12 31
f 6 21 32
f 21 17 32
f 7 6 33
f 3 7 33
f 17 3 33
f 6 32 33
