# Created by Open3D 
# object name: 2d0dc184822a4f24be85986d0ea7fb8d_collider11
# number of vertices: 35
# number of triangles: 66
v -0.0010564 0.111522 -0.0181957
v -0.0070104 0.12581 0.0100083
v -0.0174344 0.0796583 -0.0123237
v 0.0153226 0.0796583 -0.00933971
v 0.0123436 0.12581 0.00256329
v -0.0129644 0.124319 -0.0138087
v -0.0174344 0.0796583 0.00703229
v 0.0078766 0.0796583 0.0129853
v 0.0078766 0.12581 -0.0138087
v 0.0063856 0.0796583 -0.0197687
v -0.0144554 0.12581 0.00256329
v -0.0084984 0.0796583 -0.0197687
v 0.0153226 0.0796583 0.00405229
v -0.0070104 0.0811533 0.0144773
v 0.0029316 0.120672 0.00997929
v 0.0123436 0.12581 -0.00636371
v 0.0138316 0.0811533 -0.0138087
v 0.0019196 0.12581 -0.0167847
v -0.0129644 0.124319 0.00703229
v 0.0108526 0.12581 0.00554029
v -0.0157714 0.115439 -0.00598571
v -0.0114764 0.0796583 0.0129853
v 0.0034106 0.0811533 0.0144773
v -0.0084984 0.12581 -0.0152997
v -0.0144554 0.12581 -0.00933971
v 0.0138316 0.0811533 0.00703229
v -0.0114764 0.0811533 -0.0182737
v 0.0093646 0.0811533 -0.0182737
v 0.000286602 0.114153 0.0114603
v 0.0136976 0.110108 -0.00197571
v -0.0158024 0.115466 -0.000635713
v 0.0153226 0.0826443 -0.00933971
v -0.0050824 0.10877 -0.0180827
v -0.0174344 0.0811533 0.00703229
v 0.0078766 0.0811533 0.0129853
f 26 20 35
f 3 4 7
f 7 4 8
f 2 5 9
f 4 3 10
f 2 9 11
f 1 10 12
f 10 3 12
f 8 4 13
f 9 5 16
f 9 16 17
f 4 10 17
f 10 1 18
f 11 9 18
f 2 11 19
f 5 2 20
f 2 15 20
f 7 8 22
f 14 2 22
f 8 14 22
f 2 19 22
f 14 8 23
f 12 6 24
f 11 18 24
f 6 3 25
f 3 21 25
f 24 6 25
f 11 24 25
f 13 5 26
f 8 13 26
f 5 20 26
f 3 6 27
f 6 12 27
f 12 3 27
f 9 17 28
f 17 10 28
f 10 18 28
f 18 9 28
f 2 14 29
f 15 2 29
f 14 23 29
f 23 15 29
f 5 13 30
f 16 5 30
f 21 3 31
f 25 21 31
f 11 25 31
f 13 4 32
f 17 16 32
f 4 17 32
f 30 13 32
f 16 30 32
f 1 12 33
f 18 1 33
f 12 24 33
f 24 18 33
f 3 7 34
f 19 11 34
f 7 22 34
f 22 19 34
f 31 3 34
f 11 31 34
f 20 15 35
f 23 8 35
f 15 23 35
f 8 26 35
