# Created by Open3D 
# object name: 2d0dc184822a4f24be85986d0ea7fb8d_collider14
# number of vertices: 34
# number of triangles: 64
v -0.0233944 0.0662573 0.0323373
v -0.0442324 0.0528573 -0.0242347
v -0.0442324 0.0558393 -0.0242347
v -0.0164464 0.0725423 -0.0265477
v -0.0172134 0.0526143 0.0372973
v -0.0169154 0.0851513 -0.00166871
v -0.0382784 0.0617943 0.0204253
v -0.0352984 0.0528633 0.0338253
v -0.0382784 0.0662603 -0.0212477
v -0.0382784 0.0677463 0.00256429
v -0.0412554 0.0528573 -0.0242347
v -0.0174344 0.0692303 0.0308503
v -0.0293434 0.0677433 0.0263883
v -0.0358814 0.0509223 0.00367029
v -0.0263684 0.0722123 -0.0242347
v -0.0248814 0.0573283 0.0383003
v -0.0308334 0.0707253 0.0174503
v -0.0427424 0.0617943 -0.00934171
v -0.0382754 0.0528633 0.0234133
v -0.0338104 0.0573283 0.0338253
v -0.0367884 0.0692273 -0.00784871
v -0.0204164 0.0707193 0.0278753
v -0.0189264 0.0647673 0.0353183
v -0.0382784 0.0647673 -0.0242347
v -0.0442324 0.0528573 -0.0197667
v -0.0382754 0.0573283 0.0249003
v -0.0189264 0.0751883 -0.0227417
v -0.0308334 0.0528603 0.0368063
v -0.0427424 0.0617943 -0.0167797
v -0.0382784 0.0662603 0.0100073
v -0.0263684 0.0707193 0.0234133
v -0.0338104 0.0647673 0.0249003
v -0.0412554 0.0632813 0.00107629
v -0.0353004 0.0707193 -0.000410713
f 21 10 34
f 2 3 4
f 5 4 6
f 2 4 11
f 4 5 11
f 5 6 12
f 2 11 14
f 11 5 14
f 9 6 15
f 14 8 19
f 1 13 20
f 16 1 20
f 6 9 21
f 1 12 22
f 12 6 22
f 13 1 22
f 12 1 23
f 5 12 23
f 1 16 23
f 16 5 23
f 4 3 24
f 3 9 24
f 15 4 24
f 9 15 24
f 3 2 25
f 2 14 25
f 18 3 25
f 14 19 25
f 25 19 26
f 19 8 26
f 20 7 26
f 8 20 26
f 18 25 26
f 6 4 27
f 4 15 27
f 15 6 27
f 14 5 28
f 8 14 28
f 5 16 28
f 20 8 28
f 16 20 28
f 9 3 29
f 3 18 29
f 18 10 29
f 21 9 29
f 10 21 29
f 17 10 30
f 6 17 31
f 17 13 31
f 22 6 31
f 13 22 31
f 13 17 32
f 7 20 32
f 20 13 32
f 30 7 32
f 17 30 32
f 10 18 33
f 26 7 33
f 18 26 33
f 7 30 33
f 30 10 33
f 10 17 34
f 17 6 34
f 6 21 34
