# Created by Open3D 
# object name: 2d0dc184822a4f24be85986d0ea7fb8d_collider6
# number of vertices: 25
# number of triangles: 46
v -0.0397664 -0.125814 -0.00785371
v -0.0427434 -0.12432 -0.0242307
v -0.0335174 -0.0603247 -0.0337417
v -0.0338154 -0.0603017 0.0382903
v -0.0412554 -0.0603017 -0.0242307
v -0.0353044 -0.107942 -0.0182767
v -0.0353044 -0.12432 0.0353173
v -0.0308354 -0.0603017 0.0397803
v -0.0308354 -0.109436 0.0159533
v -0.0412554 -0.122833 -0.00635671
v -0.0338154 -0.12432 0.00999929
v -0.0308354 -0.0617957 0.0129733
v -0.0397664 -0.12432 -0.0242307
v -0.0367904 -0.0582087 -0.0324737
v -0.0308354 -0.12432 0.0412773
v -0.0412554 -0.0603017 -0.0197607
v -0.0335144 -0.0570187 -0.0337717
v -0.0382774 -0.125814 0.0159533
v -0.0338154 -0.12432 0.0397803
v -0.0427434 -0.12432 -0.0197607
v -0.0338154 -0.125814 0.0189403
v -0.0323264 -0.121345 0.0412773
v -0.0427434 -0.1139 -0.0242307
v -0.0308354 -0.12432 0.0382903
v -0.0323264 -0.0603017 0.0397803
f 22 8 25
f 6 3 9
f 6 9 11
f 9 3 12
f 8 9 12
f 1 2 13
f 2 3 13
f 3 6 13
f 6 11 13
f 3 2 14
f 9 8 15
f 10 4 16
f 14 5 16
f 14 16 17
f 12 3 17
f 8 12 17
f 3 14 17
f 16 4 17
f 7 4 18
f 4 10 18
f 4 7 19
f 7 18 19
f 2 1 20
f 10 16 20
f 1 18 20
f 18 10 20
f 1 13 21
f 13 11 21
f 18 1 21
f 15 19 21
f 19 18 21
f 15 8 22
f 19 15 22
f 4 19 22
f 14 2 23
f 5 14 23
f 16 5 23
f 2 20 23
f 20 16 23
f 11 9 24
f 9 15 24
f 21 11 24
f 15 21 24
f 17 4 25
f 8 17 25
f 4 22 25
