# Created by Open3D 
# object name: 2d0dc184822a4f24be85986d0ea7fb8d_collider8
# number of vertices: 23
# number of triangles: 42
v -0.0219034 0.0528573 0.0397883
v -0.0308344 -0.124318 0.0397893
v -0.0308344 -0.124318 0.0427653
v -0.0174344 -0.124318 0.0442533
v -0.0174344 0.0453823 0.0338333
v -0.0308344 0.0513483 0.0338333
v -0.0174344 -0.109421 0.0383023
v -0.0308344 0.0453823 0.0397883
v -0.0263654 -0.124318 0.0457433
v -0.0308344 -0.122809 0.0383023
v -0.0174344 0.0528573 0.0382993
v -0.0189264 0.0215703 0.0338333
v -0.0248784 0.0275363 0.0412763
v -0.0189264 -0.0826427 0.0368123
v -0.0295574 0.0565303 0.0335863
v -0.0233904 -0.124318 0.0457433
v -0.0174344 -0.124318 0.0412773
v -0.0204154 0.0468743 0.0397883
v -0.0278534 0.0275363 0.0412763
v -0.0293414 -0.124318 0.0442533
v -0.0263654 0.0528573 0.0397883
v -0.0219034 0.0126393 0.0412763
v -0.0308344 0.0513483 0.0382993
f 8 21 23
f 3 2 4
f 2 3 6
f 5 4 7
f 6 3 8
f 3 4 9
f 2 6 10
f 4 5 11
f 5 7 14
f 7 10 14
f 12 5 14
f 10 12 14
f 10 6 15
f 1 11 15
f 11 5 15
f 5 12 15
f 12 10 15
f 9 4 16
f 13 9 16
f 4 2 17
f 7 4 17
f 2 10 17
f 10 7 17
f 11 1 18
f 4 11 18
f 1 13 18
f 8 9 19
f 13 1 19
f 9 13 19
f 8 3 20
f 3 9 20
f 9 8 20
f 1 15 21
f 19 1 21
f 8 19 21
f 16 4 22
f 13 16 22
f 4 18 22
f 18 13 22
f 6 8 23
f 15 6 23
f 21 15 23
