# Created by Open3D 
# object name: 2d0dc184822a4f24be85986d0ea7fb8d_collider1
# number of vertices: 34
# number of triangles: 64
v 0.0384096 0.0456063 0.0277333
v -0.0174284 -0.0781567 0.0368093
v -0.0159354 -0.0781567 0.0353213
v 0.0376506 -0.0781567 0.0338313
v -0.0214964 -0.00087474 0.0394113
v -0.0159354 0.0439233 0.0323453
v 0.0346696 0.0439233 0.0323453
v 0.0093666 -0.0707117 0.0308563
v 0.000438602 0.0260343 0.0293673
v 0.0391686 -0.0768057 0.0307333
v -0.0159584 0.0476783 0.0354583
v -0.0129594 -0.0781567 0.0382993
v 0.0212716 0.0171083 0.0278773
v 0.0361576 -0.0260427 0.0338313
v 0.0138316 0.0439233 0.0278773
v 0.0391326 0.0220853 0.0275973
v 0.0227596 -0.0439077 0.0293673
v 0.0376506 0.0141323 0.0323453
v 0.0153196 -0.0781567 0.0308563
v 0.0331816 -0.00225074 0.0338313
v -0.0174284 0.00221826 0.0338313
v -0.0025374 -0.0647487 0.0323453
v -0.0174284 -0.0781567 0.0382993
v -0.0084954 0.0334793 0.0308563
v -0.0174284 -0.0602797 0.0353213
v 0.000438602 0.0439233 0.0293673
v -0.0174284 0.0439233 0.0338313
v 0.0153196 0.0334793 0.0278773
v 0.0376506 0.0439233 0.0308563
v 0.0376506 -0.0573037 0.0338313
v -0.0159354 0.0349733 0.0323453
v 0.0063906 -0.0617727 0.0308563
v 0.0378556 -0.0786107 0.0323403
v 0.000438602 -0.0766627 0.0323453
f 22 32 34
f 7 1 11
f 5 7 11
f 4 5 12
f 11 1 15
f 15 1 16
f 16 10 17
f 8 13 17
f 13 16 17
f 7 14 18
f 10 16 18
f 17 10 19
f 8 17 19
f 7 5 20
f 5 14 20
f 14 7 20
f 5 2 23
f 12 5 23
f 22 3 24
f 9 22 24
f 3 2 25
f 2 5 25
f 5 21 25
f 6 11 26
f 15 9 26
f 11 15 26
f 24 6 26
f 9 24 26
f 5 11 27
f 11 6 27
f 21 5 27
f 6 21 27
f 13 8 28
f 9 15 28
f 16 13 28
f 15 16 28
f 1 7 29
f 16 1 29
f 7 18 29
f 18 16 29
f 5 4 30
f 4 10 30
f 14 5 30
f 10 18 30
f 18 14 30
f 21 6 31
f 24 3 31
f 6 24 31
f 3 25 31
f 25 21 31
f 22 9 32
f 28 8 32
f 9 28 32
f 2 3 33
f 10 4 33
f 4 12 33
f 3 19 33
f 19 10 33
f 23 2 33
f 12 23 33
f 19 3 34
f 8 19 34
f 3 22 34
f 32 8 34
