# Created by Open3D 
# object name: 2d0dc184822a4f24be85986d0ea7fb8d_collider7
# number of vertices: 30
# number of triangles: 56
v 0.0168076 -0.107943 0.0323443
v 0.0376506 -0.0781687 0.0338333
v 0.0331816 -0.0856147 0.0353243
v -0.0201644 -0.0791537 0.0400823
v -0.0025374 -0.124326 0.0427663
v 0.0376506 -0.122835 0.0368113
v -0.0174284 -0.122835 0.0397863
v -0.0070074 -0.0781687 0.0338333
v 0.0396056 -0.0845047 0.0304323
v 0.0376506 -0.122835 0.0338333
v -0.0159354 -0.107943 0.0368113
v 0.0153196 -0.0781687 0.0308553
v -0.0174284 -0.124326 0.0427663
v 0.0257406 -0.100511 0.0308553
v 0.0395496 -0.116364 0.0320363
v 0.0153196 -0.122835 0.0353243
v -0.0174284 -0.0781687 0.0368113
v -0.0070074 -0.107943 0.0353243
v -0.0025374 -0.122835 0.0427663
v 0.0242526 -0.124326 0.0353243
v -0.0174284 -0.112411 0.0427663
v 0.0034146 -0.0826417 0.0323443
v -0.0174284 -0.100511 0.0368113
v -0.0144474 -0.0871057 0.0353243
v 0.0378666 -0.0779877 0.0323093
v 0.0361576 -0.0915687 0.0353243
v -0.0099834 -0.103475 0.0353243
v -0.0176444 -0.0779877 0.0383093
v 0.0272286 -0.124326 0.0382973
v 0.0395156 -0.0813817 0.0304523
f 12 25 30
f 3 2 4
f 4 7 13
f 12 9 14
f 9 6 15
f 6 10 15
f 1 14 15
f 14 9 15
f 15 10 16
f 1 15 16
f 7 11 18
f 1 16 18
f 16 7 18
f 3 4 19
f 5 6 19
f 13 5 19
f 5 13 20
f 13 7 20
f 7 16 20
f 16 10 20
f 4 13 21
f 19 4 21
f 13 19 21
f 8 12 22
f 14 1 22
f 12 14 22
f 7 4 23
f 11 7 23
f 4 17 23
f 23 17 24
f 17 8 24
f 8 22 24
f 11 23 24
f 2 3 26
f 6 2 26
f 3 19 26
f 19 6 26
f 18 11 27
f 1 18 27
f 22 1 27
f 11 24 27
f 24 22 27
f 4 2 28
f 12 8 28
f 17 4 28
f 8 17 28
f 2 25 28
f 25 12 28
f 6 5 29
f 10 6 29
f 5 20 29
f 20 10 29
f 2 6 30
f 6 9 30
f 9 12 30
f 25 2 30
