# Created by Open3D 
# object name: 2d0dc184822a4f24be85986d0ea7fb8d_collider12
# number of vertices: 26
# number of triangles: 48
v 0.0153106 0.0796583 0.00553229
v 0.0311936 0.0561343 -0.0355127
v 0.0316976 0.0573253 -0.0361467
v -0.0205074 0.0693923 -0.0305887
v 0.0406706 0.0551753 0.0158813
v -0.0181964 0.0738573 0.0151413
v 0.0242456 0.0692343 -0.0316767
v -0.0136424 0.0786643 -0.0149227
v 0.0391436 0.0647713 -0.00488371
v 0.0272296 0.0722103 0.0144723
v -0.0073164 0.0789603 0.0129893
v -0.0047824 0.0782353 -0.0200107
v 0.0333326 0.0548663 -0.0317647
v -0.0160294 0.0790843 0.00616329
v 0.0406266 0.0617913 0.0144773
v -0.0182194 0.0692753 -0.0322447
v 0.0110176 0.0769823 -0.0166057
v 0.0346756 0.0573253 -0.0331687
v 0.0108486 0.0796583 0.0114943
v -0.0073274 0.0729663 -0.0291077
v 0.0376536 0.0632813 -0.0167807
v 0.0270806 0.0714603 -0.00959371
v -0.0154584 0.0788493 -0.0122157
v -0.0174284 0.0766753 0.0129853
v 0.0346756 0.0558353 -0.0331687
v 0.0062706 0.0772253 -0.0191277
f 17 7 26
f 4 5 6
f 6 5 10
f 9 1 10
f 6 10 11
f 8 1 12
f 4 2 13
f 5 4 13
f 5 9 15
f 10 5 15
f 9 10 15
f 3 2 16
f 2 4 16
f 7 3 16
f 4 8 16
f 8 12 16
f 1 7 17
f 3 7 18
f 10 1 19
f 11 10 19
f 14 11 19
f 12 7 20
f 7 16 20
f 16 12 20
f 9 5 21
f 7 9 21
f 18 7 21
f 7 1 22
f 1 9 22
f 9 7 22
f 1 8 23
f 8 4 23
f 4 14 23
f 19 1 23
f 14 19 23
f 4 6 24
f 6 11 24
f 14 4 24
f 11 14 24
f 2 3 25
f 13 2 25
f 5 13 25
f 3 18 25
f 21 5 25
f 18 21 25
f 7 12 26
f 12 1 26
f 1 17 26
