# Created by Open3D 
# object name: 2d0dc184822a4f24be85986d0ea7fb8d_collider3
# number of vertices: 22
# number of triangles: 40
v 0.0391466 -0.113895 0.0353203
v 0.0421226 -0.121332 0.0353203
v 0.0406336 -0.124326 0.0144803
v 0.0436116 0.0304993 0.0234103
v 0.0376566 0.0513413 0.0293653
v 0.0436116 -0.124326 0.0144803
v 0.0376576 -0.12282 0.0323403
v 0.0375346 0.0624393 0.0140543
v 0.0421226 0.0573103 0.0144783
v 0.0391456 -0.124326 0.0159703
v 0.0436116 -0.121332 0.0323403
v 0.0421226 0.0498723 0.0263823
v 0.0376576 -0.12282 0.0353203
v 0.0391466 0.0215553 0.0308503
v 0.0373436 0.0533823 0.0265383
v 0.0436116 0.00666326 0.0189483
v 0.0391466 0.0602843 0.0219253
v 0.0421226 -0.124326 0.0323403
v 0.0436116 0.00071326 0.0263853
v 0.0376566 -0.0215617 0.0323423
v 0.0376576 -0.115382 0.0308523
v 0.0421226 0.0558223 0.0219253
f 17 12 22
f 6 3 8
f 6 8 9
f 3 6 10
f 8 3 10
f 2 1 13
f 7 10 13
f 1 2 14
f 2 12 14
f 12 5 14
f 7 13 15
f 4 6 16
f 9 4 16
f 6 9 16
f 9 8 17
f 5 12 17
f 15 5 17
f 8 15 17
f 10 6 18
f 11 2 18
f 6 11 18
f 2 13 18
f 13 10 18
f 6 4 19
f 2 11 19
f 11 6 19
f 12 2 19
f 4 12 19
f 13 1 20
f 1 14 20
f 14 5 20
f 5 15 20
f 15 13 20
f 10 7 21
f 8 10 21
f 15 8 21
f 7 15 21
f 4 9 22
f 12 4 22
f 9 17 22
