# Created by Open3D 
# object name: be9888a7a5c34c3c8e6377969ec78741_collider0
# number of vertices: 45
# number of triangles: 86
v 0.028683 -0.008702 0.067316
v 0.006416 -0.006769 0.041165
v 0.006416 -0.001924 0.041165
v 0.037404 -0.01161 0.059568
v 0.006416 -0.009673 0.052789
v 0.026747 -0.015484 0.061503
v 0.008351 -0.000955999 0.052789
v 0.035463 -0.004831 0.061503
v 0.006416 -0.002894 0.054722
v 0.007384 1.30008e-05 0.043102
v 0.007384 -0.009673 0.045043
v 0.007384 -0.008702 0.055692
v 0.030621 -0.01161 0.067316
v 0.027715 -0.005798 0.065378
v 0.034495 -0.013547 0.059568
v 0.032557 -0.003861 0.061503
v 0.036431 -0.007736 0.059568
v 0.033527 -0.014515 0.064408
v 0.034495 -0.007736 0.065378
v 0.007384 -0.001924 0.041165
v 0.027715 -0.015484 0.063441
v 0.007384 -0.006769 0.041165
v 0.028683 -0.015484 0.060533
v 0.006416 -0.000955999 0.052789
v 0.008351 -0.010641 0.048913
v 0.007384 -0.008702 0.043102
v 0.029653 -0.01161 0.067316
v 0.026747 -0.003861 0.054722
v 0.037404 -0.009673 0.061503
v 0.031589 -0.006769 0.066344
v 0.024809 -0.007736 0.065378
v 0.007384 1.30008e-05 0.045043
v 0.025779 -0.012578 0.054722
v 0.006416 -0.009673 0.045043
v 0.037404 -0.009673 0.059568
v 0.023841 -0.010641 0.051821
v 0.034495 -0.004831 0.063441
v 0.024809 -0.004831 0.063441
v 0.033527 -0.009673 0.066344
v 0.007384 -0.004831 0.055692
v 0.032557 -0.014515 0.065378
v 0.008351 -0.010641 0.051821
v 0.006416 1.30008e-05 0.043102
v 0.030621 -0.007736 0.067316
v 0.030621 -0.015484 0.062473
f 41 21 45
f 3 2 5
f 3 5 9
f 9 5 12
f 8 10 16
f 15 4 18
f 2 3 20
f 3 10 20
f 12 5 21
f 2 20 22
f 20 4 22
f 21 6 23
f 3 9 24
f 16 7 24
f 2 22 26
f 23 11 26
f 13 1 27
f 12 21 27
f 10 8 28
f 8 17 28
f 20 10 28
f 17 20 28
f 18 4 29
f 1 14 31
f 14 9 31
f 27 1 31
f 12 27 31
f 7 16 32
f 16 10 32
f 24 7 32
f 15 23 33
f 23 26 33
f 5 2 34
f 23 6 34
f 11 23 34
f 25 5 34
f 6 25 34
f 2 26 34
f 26 11 34
f 17 8 35
f 4 20 35
f 20 17 35
f 29 4 35
f 8 29 35
f 4 15 36
f 22 4 36
f 26 22 36
f 15 33 36
f 33 26 36
f 8 16 37
f 16 14 37
f 29 8 37
f 19 29 37
f 14 30 37
f 30 19 37
f 9 14 38
f 14 16 38
f 24 9 38
f 16 24 38
f 18 29 39
f 29 19 39
f 9 12 40
f 31 9 40
f 12 31 40
f 13 27 41
f 27 21 41
f 39 13 41
f 18 39 41
f 21 5 42
f 6 21 42
f 5 25 42
f 25 6 42
f 10 3 43
f 3 24 43
f 32 10 43
f 24 32 43
f 1 13 44
f 14 1 44
f 30 14 44
f 19 30 44
f 13 39 44
f 39 19 44
f 15 18 45
f 23 15 45
f 21 23 45
f 18 41 45
