# Created by Open3D 
# object name: be9888a7a5c34c3c8e6377969ec78741_collider1
# number of vertices: 58
# number of triangles: 112
v -0.000374 0.00679 -0.024694
v -0.031465 -0.002592 -0.024803
v -0.016095 -0.010362 0.001126
v -0.028677 0.013695 0.001475
v -0.024988 0.013567 -0.024584
v -0.010718 -0.010525 -0.024547
v -0.031524 -0.00809 0.001611
v -0.007199 0.003722 0.001241
v -0.000374 -0.004825 -0.024694
v -0.035972 0.005575 -0.002106
v -0.014346 0.012475 0.001093
v -0.020543 -0.010699 -0.024727
v -0.016081 0.014345 -0.02446
v -0.031271 0.010902 -0.019232
v -0.008169 -0.004208 0.001137
v -0.036151 -0.002627 0.001654
v -0.029415 -0.007841 -0.018299
v -0.0251 -0.01077 0.001549
v -0.036098 -0.0017 -0.009343
v -0.022335 0.014554 0.001425
v -0.031412 0.006474 -0.02475
v -0.034193 0.010127 0.001552
v -0.007377 0.011553 -0.024285
v 0.000595 -0.001921 -0.023726
v -0.025914 0.014516 -0.014761
v -0.009027 0.008126 0.001168
v -0.034155 0.005575 -0.017514
v -0.010893 -0.007624 0.000997
v -0.006229 -0.00877 -0.024581
v -0.033079 0.010913 -0.010281
v -0.019612 0.014343 0.001207
v -0.007208 -0.001594 0.001231
v 0.000595 0.003884 -0.024694
v -0.034188 -0.001682 -0.018436
v -0.027615 -0.007821 -0.023615
v -0.031193 -0.007839 -0.008512
v -0.024053 -0.010472 -0.014725
v -0.020531 0.014532 -0.024655
v -0.001343 -0.005794 -0.023726
v -0.029407 0.010844 -0.024525
v -0.031158 0.011713 -0.01739
v -0.009985 0.012442 -0.020802
v -0.036081 0.005597 0.001601
v -0.035095 0.005582 -0.012076
v -0.032098 0.01175 -0.009399
v -0.011739 0.010686 0.001044
v -0.032265 0.002849 -0.023794
v -0.025906 0.014504 -0.0049
v -0.025799 -0.008654 -0.024441
v -0.029353 -0.008672 -0.009413
v -0.01256 0.013414 -0.024413
v -0.034931 0.007347 -0.008478
v -0.036097 0.001951 -0.007516
v 0.000595 -0.00289 -0.024694
v -0.028514 0.013511 -0.012066
v -0.033108 0.008237 -0.017459
v -0.03212 0.011765 0.001314
v -0.027573 -0.008661 -0.019139
f 37 50 58
f 2 9 12
f 6 3 18
f 12 6 18
f 3 15 18
f 16 7 18
f 18 8 20
f 16 18 20
f 1 2 21
f 20 4 22
f 11 1 23
f 8 1 26
f 20 8 26
f 11 20 26
f 15 3 28
f 3 6 29
f 6 12 29
f 12 9 29
f 28 3 29
f 20 11 31
f 13 20 31
f 8 18 32
f 18 15 32
f 24 8 32
f 2 1 33
f 1 8 33
f 8 24 33
f 2 17 34
f 17 19 34
f 19 27 34
f 17 2 35
f 7 16 36
f 16 19 36
f 19 17 36
f 12 18 37
f 20 13 38
f 1 21 38
f 21 5 38
f 5 25 38
f 25 20 38
f 9 15 39
f 15 28 39
f 29 9 39
f 28 29 39
f 5 21 40
f 21 14 40
f 25 5 41
f 14 30 41
f 5 40 41
f 40 14 41
f 11 23 42
f 31 11 42
f 16 20 43
f 22 10 43
f 20 22 43
f 27 19 44
f 30 22 45
f 41 30 45
f 1 11 46
f 26 1 46
f 11 26 46
f 21 2 47
f 27 21 47
f 2 34 47
f 34 27 47
f 4 20 48
f 25 4 48
f 20 25 48
f 2 12 49
f 35 2 49
f 17 35 49
f 18 7 50
f 7 36 50
f 36 17 50
f 37 18 50
f 23 1 51
f 13 31 51
f 1 38 51
f 38 13 51
f 42 23 51
f 31 42 51
f 10 22 52
f 22 30 52
f 44 10 52
f 19 16 53
f 43 10 53
f 16 43 53
f 10 44 53
f 44 19 53
f 9 2 54
f 15 9 54
f 32 15 54
f 24 32 54
f 2 33 54
f 33 24 54
f 4 25 55
f 25 41 55
f 45 4 55
f 41 45 55
f 14 21 56
f 21 27 56
f 30 14 56
f 27 44 56
f 52 30 56
f 44 52 56
f 22 4 57
f 4 45 57
f 45 22 57
f 12 37 58
f 49 12 58
f 17 49 58
f 50 17 58
