# Created by Open3D 
# object name: 4eb3ba34f50b4348b74a3f9a78793397_collider2
# number of vertices: 37
# number of triangles: 70
v -0.025937 0.071545 0.035754
v -0.019427 0.089431 0.00486898
v -0.019427 0.097558 0.00486898
v -0.050321 0.071545 0.027629
v -0.017804 0.099183 0.021127
v -0.00967002 0.084557 0.012998
v -0.024305 0.071545 0.016251
v -0.040564 0.074799 0.040635
v -0.022682 0.100813 0.016251
v -0.040564 0.071545 0.016251
v -0.014549 0.094307 0.024376
v -0.011298 0.091052 0.00649698
v -0.050321 0.073175 0.027629
v -0.011298 0.0878 0.022752
v -0.022682 0.099183 0.00812198
v -0.022682 0.071545 0.030877
v -0.012925 0.086179 0.00649698
v -0.042184 0.071545 0.040635
v -0.050321 0.073175 0.030877
v -0.019427 0.100813 0.00812198
v -0.037309 0.073175 0.040635
v -0.022682 0.100813 0.00974898
v -0.011298 0.091052 0.021127
v -0.014549 0.095934 0.00486898
v -0.021055 0.099183 0.021127
v -0.040564 0.073175 0.016251
v -0.00967002 0.084557 0.016251
v -0.016176 0.097558 0.022752
v -0.038937 0.078051 0.037382
v -0.025937 0.073175 0.035754
v -0.025937 0.073175 0.014626
v -0.024305 0.095934 0.00812198
v -0.021055 0.086179 0.00649698
v -0.00967002 0.0878 0.017875
v -0.012925 0.089431 0.00486898
v -0.011298 0.084557 0.00974898
v -0.038937 0.074799 0.040635
f 11 28 37
f 1 4 7
f 3 2 10
f 7 4 10
f 10 4 13
f 1 7 16
f 7 6 16
f 14 1 16
f 4 1 18
f 13 4 19
f 9 13 19
f 4 18 19
f 18 8 19
f 9 5 20
f 18 1 21
f 8 18 21
f 13 9 22
f 3 15 22
f 15 13 22
f 9 20 22
f 20 3 22
f 11 14 23
f 2 3 24
f 3 20 24
f 23 12 24
f 5 9 25
f 3 10 26
f 10 13 26
f 16 6 27
f 14 16 27
f 20 5 28
f 11 23 28
f 24 20 28
f 23 24 28
f 5 25 28
f 25 8 28
f 19 8 29
f 9 19 29
f 8 25 29
f 25 9 29
f 1 14 30
f 14 11 30
f 21 1 30
f 11 21 30
f 7 10 31
f 17 7 31
f 15 3 32
f 13 15 32
f 3 26 32
f 26 13 32
f 10 2 33
f 2 17 33
f 31 10 33
f 17 31 33
f 6 12 34
f 12 23 34
f 23 14 34
f 27 6 34
f 14 27 34
f 17 2 35
f 12 17 35
f 2 24 35
f 24 12 35
f 6 7 36
f 12 6 36
f 7 17 36
f 17 12 36
f 21 11 37
f 8 21 37
f 28 8 37
