# Created by Open3D 
# object name: d2a33405d2fe447fb1ebb5d82a71acb9_collider0
# number of vertices: 51
# number of triangles: 98
v 0.0311762 0.012998 -0.00319498
v 0.0474092 0.025336 0.00135002
v 0.0487112 0.024686 0.00264802
v 0.0298782 0.01235 0.00394802
v 0.0370212 0.024686 0.000700017
v 0.0487112 0.021439 -0.00319498
v 0.0376722 0.0117 0.00199902
v 0.0396192 0.024037 -0.00319498
v 0.0370212 0.0117 -0.00384598
v 0.0487112 0.022088 0.00329702
v 0.0428642 0.024686 0.00329702
v 0.0292272 0.0117 -0.000597983
v 0.0363742 0.0117 0.00394802
v 0.0344232 0.021439 -0.00124698
v 0.0383232 0.022088 -0.00384598
v 0.0461132 0.022738 -0.00384598
v 0.0500112 0.022088 -0.00189698
v 0.0461132 0.025336 -0.00124698
v 0.0500112 0.022088 0.00199902
v 0.0292272 0.012998 0.00264802
v 0.0500112 0.024037 -0.00124698
v 0.0383232 0.024686 0.00199902
v 0.0324762 0.0117 -0.00384598
v 0.0357252 0.021439 -0.00319498
v 0.0396192 0.025336 5.10168e-05
v 0.0376722 0.0117 -0.00254598
v 0.0370212 0.014947 0.00394802
v 0.0350742 0.022738 0.000700017
v 0.0363742 0.024037 -0.00124698
v 0.0467622 0.024037 -0.00319498
v 0.0292272 0.0117 0.00329702
v 0.0422172 0.025336 0.00264802
v 0.0292272 0.01235 -0.000597983
v 0.0474092 0.024686 0.00329702
v 0.0402682 0.024686 -0.00254598
v 0.0467622 0.021439 -0.00384598
v 0.0493582 0.021439 -0.00189698
v 0.0500112 0.023387 0.00264802
v 0.0344232 0.01949 -0.00319498
v 0.0292272 0.012998 0.000700017
v 0.0487112 0.022738 -0.00319498
v 0.0363742 0.02014 -0.00384598
v 0.0415662 0.024037 0.00329702
v 0.0376722 0.023387 -0.00319498
v 0.0305272 0.012998 -0.00254598
v 0.0493582 0.024686 5.10168e-05
v 0.0376722 0.024686 -0.00124698
v 0.0363742 0.022738 0.00199902
v 0.0467622 0.024686 -0.00254598
v 0.0415662 0.025336 -0.00124698
v 0.0370212 0.0117 0.00329702
f 19 13 51
f 9 7 12
f 12 7 13
f 15 8 16
f 9 15 16
f 10 13 19
f 19 17 21
f 12 1 23
f 9 12 23
f 15 9 23
f 2 18 25
f 9 6 26
f 7 9 26
f 11 4 27
f 13 10 27
f 4 13 27
f 20 4 28
f 24 14 29
f 28 5 29
f 14 28 29
f 16 8 30
f 13 4 31
f 12 13 31
f 4 20 31
f 20 12 31
f 5 22 32
f 22 11 32
f 25 5 32
f 2 25 32
f 12 20 33
f 3 2 34
f 11 27 34
f 27 10 34
f 2 32 34
f 32 11 34
f 30 8 35
f 6 9 36
f 9 16 36
f 6 17 37
f 19 7 37
f 17 19 37
f 26 6 37
f 7 26 37
f 10 19 38
f 19 21 38
f 3 34 38
f 34 10 38
f 14 24 39
f 28 14 40
f 20 28 40
f 14 33 40
f 33 20 40
f 17 6 41
f 21 17 41
f 16 30 41
f 30 21 41
f 6 36 41
f 36 16 41
f 23 1 42
f 15 23 42
f 1 39 42
f 39 24 42
f 4 11 43
f 22 4 43
f 11 22 43
f 8 15 44
f 24 29 44
f 15 42 44
f 42 24 44
f 1 12 45
f 12 33 45
f 33 14 45
f 39 1 45
f 14 39 45
f 2 3 46
f 18 2 46
f 21 18 46
f 3 38 46
f 38 21 46
f 5 25 47
f 29 5 47
f 35 8 47
f 8 44 47
f 44 29 47
f 4 22 48
f 22 5 48
f 5 28 48
f 28 4 48
f 18 21 49
f 21 30 49
f 35 18 49
f 30 35 49
f 25 18 50
f 18 35 50
f 47 25 50
f 35 47 50
f 13 7 51
f 7 19 51
