# Created by Open3D 
# object name: 1878341a4ac34cb49896188da4169c95_collider1
# number of vertices: 64
# number of triangles: 124
v 0.084078 -0.051334 0.00374401
v -0.08478 -0.045514 -0.00206499
v -0.084638 -0.045516 0.00374001
v -0.052979 -0.147947 0.030099
v 0.039731 -0.142792 -0.042101
v 0.008348 0.038336 -0.042555
v 0.014175 0.038614 0.041456
v 0.046461 -0.147856 0.038854
v -0.044079 -0.147657 -0.040003
v -0.06941 0.00918202 0.041138
v -0.072321 0.00919502 -0.039489
v 0.078187 0.00681202 -0.034053
v 0.074828 0.00649002 0.038403
v -0.023185 0.051638 -0.00774999
v 0.022543 0.051647 0.00937901
v -0.038085 -0.147226 0.041519
v 0.05234 -0.147925 -0.031327
v -0.069612 -0.103285 -0.028042
v -0.084621 0.00971402 0.000835006
v 0.069098 -0.103377 0.029741
v 0.057104 0.020515 -0.042262
v -0.0524 0.023943 -0.042591
v -0.078594 -0.057114 0.029812
v 0.074837 -0.083076 -0.028071
v 0.083909 0.00966802 0.00954001
v -0.011824 0.052324 0.020967
v 0.05467 0.023948 0.041359
v -0.069974 -0.115187 0.00373401
v 0.06358 -0.132646 0.000833006
v 0.037485 -0.147297 0.041549
v -0.055103 0.023698 0.041211
v -0.078063 -0.031156 -0.033726
v 0.065397 -0.082656 -0.039181
v 0.0224 0.051027 -0.010544
v -0.055844 -0.14784 -0.016686
v -0.04026 -0.142558 -0.042
v 0.080735 -0.033965 0.029769
v 0.063448 0.026939 -0.013652
v -0.081828 0.00687302 0.027037
v -0.065888 -0.091153 0.037874
v 0.062407 -0.082579 0.040728
v -0.064223 0.027111 0.00664001
v 0.08385 -0.031031 -0.01947
v -0.011669 0.050982 -0.021903
v -0.084635 0.00679702 -0.016596
v -0.06594 -0.079777 -0.039131
v -0.061158 0.026914 -0.022342
v 0.077996 -0.08612 0.00663001
v 0.05516 -0.147736 0.021287
v 0.063561 0.027071 0.012448
v -0.081408 -0.062875 -0.016536
v -0.075668 -0.091877 0.015319
v -0.014808 0.038555 0.041426
v 0.040195 0.032586 -0.039674
v 0.069286 -0.115127 -0.01366
v 0.083874 0.00672202 -0.019475
v 0.011064 0.05131 -0.021974
v 0.064877 0.00830902 -0.041724
v -0.062611 -0.037061 -0.041685
v -0.066816 -0.112034 0.029733
v 0.04624 -0.14738 -0.039894
v 0.074386 -0.048406 -0.036529
v 0.084161 0.00690502 0.018312
v -0.052074 -0.143316 -0.036563
f 18 46 64
f 4 8 16
f 8 4 17
f 2 3 19
f 5 6 21
f 6 5 22
f 7 15 26
f 15 7 27
f 7 16 30
f 16 8 30
f 27 7 30
f 10 16 31
f 17 4 35
f 9 17 35
f 4 28 35
f 28 18 35
f 5 9 36
f 22 5 36
f 12 21 38
f 34 15 38
f 19 3 39
f 3 23 39
f 23 10 39
f 10 31 39
f 4 16 40
f 16 10 40
f 10 23 40
f 8 20 41
f 13 27 41
f 30 8 41
f 27 30 41
f 20 37 41
f 37 13 41
f 26 14 42
f 31 26 42
f 19 39 42
f 39 31 42
f 1 24 43
f 6 22 44
f 22 14 44
f 2 19 45
f 11 32 45
f 32 11 46
f 18 32 46
f 36 9 46
f 22 11 47
f 14 22 47
f 19 42 47
f 42 14 47
f 45 19 47
f 11 45 47
f 24 1 48
f 20 29 48
f 1 37 48
f 37 20 48
f 8 17 49
f 20 8 49
f 17 29 49
f 29 20 49
f 15 27 50
f 25 38 50
f 38 15 50
f 18 28 51
f 32 18 51
f 2 45 51
f 45 32 51
f 3 2 52
f 23 3 52
f 2 51 52
f 51 28 52
f 16 7 53
f 7 26 53
f 31 16 53
f 26 31 53
f 21 6 54
f 38 21 54
f 34 38 54
f 17 24 55
f 29 17 55
f 24 48 55
f 48 29 55
f 12 38 56
f 38 25 56
f 1 43 56
f 43 12 56
f 26 15 57
f 14 26 57
f 15 34 57
f 6 44 57
f 44 14 57
f 54 6 57
f 34 54 57
f 5 21 58
f 21 12 58
f 33 5 58
f 11 22 59
f 22 36 59
f 46 11 59
f 36 46 59
f 28 4 60
f 4 40 60
f 40 23 60
f 23 52 60
f 52 28 60
f 9 5 61
f 17 9 61
f 24 17 61
f 5 33 61
f 33 24 61
f 24 33 62
f 43 24 62
f 12 43 62
f 58 12 62
f 33 58 62
f 27 13 63
f 37 1 63
f 13 37 63
f 50 27 63
f 25 50 63
f 1 56 63
f 56 25 63
f 9 35 64
f 35 18 64
f 46 9 64
