# Created by Open3D 
# object name: 710100865395435cacb3bcf6514cb495_collider0
# number of vertices: 59
# number of triangles: 114
v -0.012204 0.0731098 -0.019443
v 0.002914 0.123518 0.020885
v 0.007956 0.146205 0.018364
v 0.020563 0.0731098 -0.00431899
v 0.002914 0.14873 -0.019443
v -0.019765 0.0731098 0.00828101
v -0.017242 0.14873 0.00576001
v 0.007956 0.0731098 0.020885
v 0.015525 0.151246 -0.00431899
v 0.010479 0.0731098 -0.019443
v -0.014727 0.14873 -0.011881
v -0.009681 0.0756418 0.020885
v 0.015525 0.133607 0.013323
v -0.012204 0.146205 0.015843
v -0.019765 0.0781658 -0.00683899
v 0.013002 0.14873 -0.014402
v 0.015525 0.0731098 0.015843
v -0.007162 0.0756418 -0.021964
v -0.007162 0.136124 -0.019443
v -0.007162 0.151246 0.015843
v 0.01804 0.136124 0.00576001
v -0.009681 0.151246 -0.014402
v 0.01804 0.136124 -0.00683899
v 0.01804 0.0781658 -0.011881
v 0.013002 0.151246 0.010802
v 0.020563 0.0756418 0.00324001
v -0.007162 0.14873 0.018364
v 0.005437 0.0781658 -0.021964
v -0.017242 0.14873 -0.00683899
v -0.017242 0.0731098 -0.014402
v 0.007956 0.133607 -0.019443
v -0.017242 0.0781658 0.013323
v -0.014727 0.133607 -0.014402
v -0.017242 0.123518 0.010802
v 0.013002 0.0781658 0.018364
v 0.015525 0.14873 0.010802
v -0.014727 0.151246 0.00828101
v 0.005437 0.151246 -0.016922
v -0.009681 0.14873 -0.016922
v -0.009681 0.0731098 0.020885
v -0.002116 0.123518 0.020885
v 0.01804 0.0806818 0.010802
v 0.007956 0.151246 0.015843
v -0.017242 0.136124 -0.00935999
v 0.010479 0.123518 0.018364
v -0.012204 0.133607 -0.016922
v -0.002116 0.14873 -0.019443
v 0.01804 0.123518 0.00828101
v 0.010479 0.14873 -0.016922
v -0.019765 0.0806818 0.00576001
v 0.005437 0.0731098 -0.021964
v -0.009681 0.136124 0.018364
v 0.015525 0.138648 -0.011881
v 0.013002 0.0857228 -0.016922
v 0.013002 0.136124 0.015843
v 0.01804 0.138648 0.00324001
v -0.014727 0.151246 -0.00683899
v -0.019765 0.0731098 -0.00683899
v 0.01804 0.0731098 -0.011881
f 54 24 59
f 1 4 6
f 6 4 8
f 4 1 10
f 8 2 12
f 8 4 17
f 20 9 22
f 16 9 23
f 23 4 24
f 9 20 25
f 17 4 26
f 4 23 26
f 2 3 27
f 1 6 30
f 28 5 31
f 10 28 31
f 12 14 32
f 1 30 33
f 7 6 34
f 14 7 34
f 6 32 34
f 32 14 34
f 8 17 35
f 17 13 35
f 9 25 36
f 7 14 37
f 20 22 37
f 14 27 37
f 27 20 37
f 29 7 37
f 9 16 38
f 22 9 38
f 11 22 39
f 6 8 40
f 8 12 40
f 32 6 40
f 12 32 40
f 12 2 41
f 2 27 41
f 13 17 42
f 17 26 42
f 25 20 43
f 27 3 43
f 20 27 43
f 3 36 43
f 36 25 43
f 15 29 44
f 29 11 44
f 30 15 44
f 11 33 44
f 33 30 44
f 3 2 45
f 2 8 45
f 8 35 45
f 18 1 46
f 19 18 46
f 1 33 46
f 33 11 46
f 39 19 46
f 11 39 46
f 18 19 47
f 5 28 47
f 28 18 47
f 38 5 47
f 22 38 47
f 19 39 47
f 39 22 47
f 26 21 48
f 36 13 48
f 21 36 48
f 13 42 48
f 42 26 48
f 31 5 49
f 10 31 49
f 38 16 49
f 5 38 49
f 6 7 50
f 15 6 50
f 7 29 50
f 29 15 50
f 10 1 51
f 1 18 51
f 28 10 51
f 18 28 51
f 14 12 52
f 27 14 52
f 12 41 52
f 41 27 52
f 16 23 53
f 24 16 53
f 23 24 53
f 16 24 54
f 10 49 54
f 49 16 54
f 35 13 55
f 36 3 55
f 13 36 55
f 3 45 55
f 45 35 55
f 23 9 56
f 21 26 56
f 26 23 56
f 9 36 56
f 36 21 56
f 22 11 57
f 11 29 57
f 37 22 57
f 29 37 57
f 6 15 58
f 30 6 58
f 15 30 58
f 4 10 59
f 24 4 59
f 10 54 59
