# Created by Open3D 
# object name: efe0becd8419449aafc7505241d0bd59_collider1
# number of vertices: 64
# number of triangles: 124
v -0.0621511 0.0203292 -0.00410745
v -0.0621511 0.0203292 -0.00600545
v -0.0232501 0.00894123 0.00442855
v -0.0232501 -0.00529077 -0.0154965
v -0.0232501 -0.0157318 0.0129725
v -0.0602561 -0.00908877 -0.00410745
v -0.0545631 -0.00244277 0.00917455
v -0.0507681 -0.0109868 -0.0145465
v -0.0232501 -0.0176288 -0.0135965
v -0.0498171 -0.0157318 0.00442855
v -0.0668961 0.0193752 -0.00790345
v -0.0232501 0.00514323 -0.00980045
v -0.0261011 -0.000544767 0.0120225
v -0.0668961 0.0184242 -0.00220945
v -0.0498171 -0.000544767 -0.0154965
v -0.0460231 -0.0166788 -0.00885345
v -0.0602561 -0.00718777 0.00347855
v -0.0593081 -0.00434377 -0.0126485
v -0.0469701 -0.0100358 0.0110725
v -0.0317941 -0.0204768 0.00253055
v -0.0232501 0.00609323 0.00822455
v -0.0232501 0.00894123 -0.00220945
v -0.0640541 0.0203292 -0.00790345
v -0.0507681 0.00514323 0.00727655
v -0.0232501 -0.00149177 -0.0145465
v -0.0232501 -0.0195268 -0.00885345
v -0.0678521 0.0165272 -0.00600545
v -0.0365401 -0.0166788 0.0101245
v -0.0393911 -0.0109868 -0.0154965
v -0.0517121 -0.0157318 -0.00410745
v -0.0355881 -0.0195268 -0.00695545
v -0.0365401 -0.0166788 -0.0135965
v -0.0517121 -0.0109868 0.00917455
v -0.0460231 0.00324123 -0.0145465
v -0.0593081 -0.00434377 0.00632655
v -0.0355881 -0.00338877 0.0120225
v -0.0564571 -0.0119328 -0.00790345
v -0.0621511 -0.00529077 -0.00505745
v -0.0431801 -0.0185758 0.00158055
v -0.0564571 -0.0128838 0.000632548
v -0.0243771 -0.0194458 0.00323855
v -0.0621511 -0.00434377 0.00158055
v -0.0583611 -0.000544767 -0.0135965
v -0.0317941 -0.0138308 0.0129725
v -0.0232501 -0.00434377 0.0129725
v -0.0232501 0.00229523 -0.0126485
v -0.0308471 0.00134423 0.0110725
v -0.0517121 0.000397233 0.00917455
v -0.0317941 -0.0195268 0.00632655
v -0.0232501 -0.0109868 -0.0154965
v -0.0678521 0.0165272 -0.00315945
v -0.0612081 -0.00529077 -0.00885345
v -0.0232501 0.00799123 -0.00505745
v -0.0593081 0.00134423 0.00632655
v -0.0479221 -0.0147808 -0.0116985
v -0.0412861 -0.0185758 0.00442855
v -0.0469701 -0.0176288 -0.00315945
v -0.0441321 -0.0128838 0.0110725
v -0.0450801 -0.00338877 0.0110725
v -0.0640541 0.0174772 -0.00126245
v -0.0327411 -0.0157318 -0.0145465
v -0.0545631 -0.0128838 0.00442855
v -0.0232501 -0.0166788 0.0120225
v -0.0545631 0.00134423 -0.0145465
f 43 11 64
f 2 1 3
f 4 3 5
f 4 5 9
f 3 4 12
f 3 1 21
f 5 3 21
f 2 3 22
f 3 12 22
f 1 2 23
f 14 1 23
f 11 14 23
f 2 22 23
f 12 4 25
f 9 5 26
f 11 18 27
f 15 4 29
f 8 15 29
f 9 26 31
f 26 20 31
f 9 31 32
f 31 16 32
f 19 7 33
f 4 15 34
f 15 23 34
f 25 4 34
f 23 25 34
f 33 7 35
f 17 33 35
f 18 8 37
f 31 20 39
f 17 6 40
f 30 10 40
f 6 37 40
f 37 30 40
f 20 26 41
f 6 17 42
f 17 35 42
f 38 6 42
f 15 8 43
f 8 18 43
f 18 11 43
f 28 5 44
f 36 44 45
f 5 21 45
f 21 13 45
f 13 36 45
f 44 5 45
f 23 12 46
f 12 25 46
f 25 23 46
f 13 21 47
f 36 13 47
f 24 14 48
f 47 24 48
f 20 41 49
f 4 9 50
f 29 4 50
f 14 11 51
f 11 27 51
f 27 38 51
f 42 35 51
f 38 42 51
f 27 18 52
f 37 6 52
f 18 37 52
f 6 38 52
f 38 27 52
f 22 12 53
f 12 23 53
f 23 22 53
f 35 7 54
f 7 48 54
f 48 14 54
f 14 51 54
f 51 35 54
f 16 30 55
f 8 32 55
f 32 16 55
f 37 8 55
f 30 37 55
f 28 10 56
f 10 39 56
f 39 20 56
f 49 28 56
f 20 49 56
f 10 30 57
f 30 16 57
f 16 31 57
f 39 10 57
f 31 39 57
f 10 28 58
f 33 10 58
f 19 33 58
f 28 44 58
f 44 19 58
f 7 19 59
f 19 44 59
f 44 36 59
f 36 47 59
f 47 48 59
f 48 7 59
f 1 14 60
f 21 1 60
f 14 24 60
f 47 21 60
f 24 47 60
f 8 29 61
f 32 8 61
f 9 32 61
f 50 9 61
f 29 50 61
f 33 17 62
f 10 33 62
f 17 40 62
f 40 10 62
f 26 5 63
f 5 28 63
f 41 26 63
f 28 49 63
f 49 41 63
f 11 23 64
f 23 15 64
f 15 43 64
