# Created by Open3D 
# object name: efe0becd8419449aafc7505241d0bd59_collider0
# number of vertices: 64
# number of triangles: 124
v 0.0498139 0.0203292 -0.00220845
v 0.0498139 0.0203292 -0.00410545
v -0.0232441 0.00893723 -0.00125745
v -0.0232441 -0.0109828 -0.0154965
v -0.0232441 -0.0157278 0.0129715
v 0.0507679 -0.00149177 -0.0126465
v 0.0412799 0.00134823 0.0139195
v -0.0222901 0.00514323 0.00917355
v 0.0374819 0.0117852 -0.0135965
v -0.0222901 -0.0185758 -0.0116985
v 0.0678529 0.0117852 -0.00220845
v 0.0336829 -0.0100358 0.00632955
v 0.0431799 0.0146332 0.00822655
v -0.0232441 0.00229523 -0.0126495
v 0.0175609 -0.0138308 -0.0116985
v 0.0204049 -0.00718777 0.0158195
v 0.0649999 0.0155802 -0.00885145
v 0.0137619 0.00419223 0.0139195
v 0.0251399 0.0174772 0.00253055
v 0.0479239 -0.00529077 0.00158355
v 0.0678529 0.0136832 0.00158355
v -0.00236012 -0.0185758 0.00632955
v 0.0327379 -0.0119328 -0.00505645
v 0.0441249 0.000401233 -0.0145465
v -0.0232441 -0.00434377 0.0129715
v -0.0232441 -0.0204768 -0.00600645
v 0.00617288 -0.0185758 -0.00220545
v 0.0109169 -0.0128798 0.0139195
v 0.0555119 0.00514323 0.00917355
v 0.0336829 0.0193792 -0.00220845
v -0.0232441 0.00893723 0.00537855
v 0.0412799 0.00988423 -0.0145465
v -0.00900412 -0.0166788 -0.0135965
v -0.0232441 0.00514323 -0.00980145
v 0.0659539 0.00798723 -0.00695345
v 0.0260939 -0.0138308 0.00348155
v -0.0222901 -0.00529077 -0.0154965
v 0.0631009 0.0193792 -0.00315845
v 0.0393809 0.0165312 -0.00885145
v -0.0156471 -0.0204768 0.00158355
v 0.0649999 0.00798723 0.000633548
v 0.0536129 -0.00244277 -0.00505645
v 0.0374819 -0.00244277 0.0139195
v 0.0488689 0.00798723 0.0110715
v 0.0298839 -0.0100358 -0.0126495
v 0.0223049 0.0146332 0.00632955
v 0.0213499 0.00703623 0.0129715
v 0.0649999 0.00893723 -0.00980145
v 0.0460239 0.0165312 0.00632955
v -0.000470125 -0.0185758 -0.00695345
v 0.00996288 -0.0176258 0.00443155
v -0.0232441 0.00799123 -0.00505245
v -0.0156471 -0.0147768 0.0139195
v 0.0517129 0.00608923 -0.0135965
v 0.0479239 0.0136832 -0.0126465
v 0.0460239 -0.00338877 0.00727655
v -0.0232441 -0.00149177 -0.0145465
v -0.0137481 -0.0166788 0.0120215
v 0.0403259 0.0203292 -0.000310452
v 0.0384359 -0.00244277 -0.0145465
v 0.0412799 -0.00718777 -0.0107485
v 0.0555119 -0.000544767 0.000633548
v -0.0175461 -0.0195228 0.00632955
v 0.0194599 -0.0157278 -0.00410845
f 36 51 64
f 3 4 5
f 4 3 14
f 16 7 18
f 11 17 21
f 3 5 25
f 18 8 25
f 16 18 25
f 5 4 26
f 4 10 26
f 19 30 31
f 3 25 31
f 25 8 31
f 30 3 31
f 10 4 33
f 14 3 34
f 9 14 34
f 20 12 36
f 23 20 36
f 12 28 36
f 24 4 37
f 32 24 37
f 2 1 38
f 17 2 38
f 21 17 38
f 30 2 39
f 9 34 39
f 26 27 40
f 11 21 41
f 21 29 41
f 35 11 41
f 20 23 42
f 6 35 42
f 7 16 43
f 16 28 43
f 28 12 43
f 29 7 43
f 7 29 44
f 29 21 44
f 23 15 45
f 15 33 45
f 19 31 46
f 31 8 46
f 8 18 47
f 18 7 47
f 44 13 47
f 7 44 47
f 46 8 47
f 13 46 47
f 17 11 48
f 35 6 48
f 11 35 48
f 38 1 49
f 21 38 49
f 13 44 49
f 44 21 49
f 46 13 49
f 19 46 49
f 26 10 50
f 27 26 50
f 10 33 50
f 33 15 50
f 28 22 51
f 36 28 51
f 22 40 51
f 40 27 51
f 3 30 52
f 34 3 52
f 30 39 52
f 39 34 52
f 25 5 53
f 16 25 53
f 28 16 53
f 6 24 54
f 24 32 54
f 17 48 54
f 48 6 54
f 2 17 55
f 32 9 55
f 39 2 55
f 9 39 55
f 17 54 55
f 54 32 55
f 12 20 56
f 43 12 56
f 29 43 56
f 4 14 57
f 14 9 57
f 9 32 57
f 37 4 57
f 32 37 57
f 22 28 58
f 53 5 58
f 28 53 58
f 1 2 59
f 2 30 59
f 30 19 59
f 49 1 59
f 19 49 59
f 4 24 60
f 24 6 60
f 33 4 60
f 6 45 60
f 45 33 60
f 6 42 61
f 42 23 61
f 45 6 61
f 23 45 61
f 41 29 62
f 35 41 62
f 42 35 62
f 20 42 62
f 56 20 62
f 29 56 62
f 5 26 63
f 40 22 63
f 26 40 63
f 22 58 63
f 58 5 63
f 15 23 64
f 23 36 64
f 27 50 64
f 50 15 64
f 51 27 64
