# Created by Open3D 
# object name: cda9d8983e4e44bfa9aa176a079d676d_collider0
# number of vertices: 64
# number of triangles: 124
v 0.0049908 0.0153133 -0.0177182
v 0.0165028 -0.0069437 -0.0154122
v 0.0180398 -0.0069437 -0.0154122
v 0.0172718 0.0014993 0.00147081
v -0.000383204 -0.0046437 -0.00927819
v -0.000383204 0.0022663 -0.0284672
v 0.0180398 0.0107043 -0.0238572
v -0.000383204 0.0099373 -0.00543919
v 0.0180398 0.0122383 -0.00774219
v -0.000383204 0.0122383 -0.0269312
v 0.0180398 0.000729298 -0.0253932
v 0.0180398 -0.0061777 -0.00313919
v -0.000383204 -0.0031077 -0.0230922
v -0.000383204 0.000729298 -0.00390419
v -0.000383204 0.0153133 -0.0138792
v 0.0180398 0.0099373 -0.00313919
v 0.0080638 0.0068653 -0.0276992
v 0.0172718 0.0137743 -0.0161792
v 0.0172718 -0.0038737 -0.0215572
v 0.0011528 -0.0054107 -0.0161792
v 0.0172718 -0.0015737 0.00147081
v 0.0157328 -0.0069437 -0.00543919
v 0.0088278 0.0137743 -0.0223222
v -0.000383204 0.0130073 -0.00851319
v 0.0111288 0.000729298 -0.0269312
v -0.000383204 0.0153133 -0.0200182
v -0.000383204 0.0060983 -0.00390419
v 0.0180398 0.0084013 -0.00160319
v 0.0118958 0.0145413 -0.0138792
v 0.0057588 0.0114713 -0.0269312
v 0.0165028 0.0084013 -0.0253932
v -0.000383204 -0.0046437 -0.0200182
v 0.0011528 0.0068653 -0.0284672
v 0.0180398 -0.0054107 -0.0192532
v 0.0180398 0.0037993 0.000702807
v 0.0034558 0.0145413 -0.0115842
v 0.0118958 -0.0031077 -0.0230922
v 0.0180398 0.0130073 -0.0184832
v 0.0088278 0.0030333 -0.0276992
v 0.0157328 0.0053313 -0.0261612
v 0.0103628 0.0145413 -0.0192532
v 0.0172718 0.0130073 -0.00927819
v 0.0172718 -0.0061777 -0.00313919
v 0.0026878 0.0145413 -0.0223222
v 0.0088278 0.0122383 -0.0253932
v 0.0142008 -0.0069437 -0.0131172
v 0.0172718 0.0037993 0.000702807
v 0.0172718 0.0122383 -0.0215572
v 0.0157328 0.0091683 -0.00236819
v 0.0011528 -0.0054107 -0.0138792
v 0.0080638 0.0107043 -0.0269312
v 0.0180398 -0.0015737 0.00147081
v 0.0103628 -0.0054107 -0.0192532
v 0.0180398 -0.0069437 -0.00467119
v -0.000383204 0.0107043 -0.0276992
v 0.0072938 0.0130073 -0.00851319
v 0.0180398 0.0053313 -0.0253932
v 0.0172718 0.0137743 -0.0131172
v 0.0180398 -0.0031077 -0.0223222
v 0.0042218 0.0099373 -0.0276992
v 0.0157328 -0.0046437 -0.0207892
v 0.0088278 0.0145413 -0.0123522
v 0.0034558 0.0130073 -0.0253932
v 0.0126658 0.0145413 -0.0161792
f 29 58 64
f 6 5 8
f 3 7 9
f 6 8 10
f 7 3 11
f 3 9 12
f 5 6 13
f 8 5 14
f 10 8 15
f 12 9 16
f 4 14 21
f 14 5 21
f 2 3 22
f 15 8 24
f 13 6 25
f 15 1 26
f 10 15 26
f 14 4 27
f 8 14 27
f 12 16 28
f 1 15 29
f 5 13 32
f 2 20 32
f 20 5 32
f 3 2 34
f 11 3 34
f 12 28 35
f 15 24 36
f 13 25 37
f 9 7 38
f 25 6 39
f 11 25 39
f 6 33 39
f 33 17 39
f 17 31 40
f 11 39 40
f 39 17 40
f 26 1 41
f 18 38 41
f 12 21 43
f 21 5 43
f 5 22 43
f 10 26 44
f 26 41 44
f 41 23 44
f 20 2 46
f 2 22 46
f 27 4 47
f 8 27 47
f 4 35 47
f 35 28 47
f 38 7 48
f 23 41 48
f 41 38 48
f 7 45 48
f 45 23 48
f 24 8 49
f 16 24 49
f 28 16 49
f 8 47 49
f 47 28 49
f 5 20 50
f 22 5 50
f 20 46 50
f 46 22 50
f 7 31 51
f 31 17 51
f 45 7 51
f 30 45 51
f 4 21 52
f 21 12 52
f 35 4 52
f 12 35 52
f 2 32 53
f 32 13 53
f 34 2 53
f 3 12 54
f 22 3 54
f 12 43 54
f 43 22 54
f 6 10 55
f 10 30 55
f 33 6 55
f 16 9 56
f 24 16 56
f 36 24 56
f 9 42 56
f 42 36 56
f 7 11 57
f 31 7 57
f 11 40 57
f 40 31 57
f 9 38 58
f 38 18 58
f 42 9 58
f 29 42 58
f 25 11 59
f 11 34 59
f 34 19 59
f 37 25 59
f 19 37 59
f 17 33 60
f 51 17 60
f 30 51 60
f 55 30 60
f 33 55 60
f 19 34 61
f 13 37 61
f 37 19 61
f 53 13 61
f 34 53 61
f 29 15 62
f 15 36 62
f 42 29 62
f 36 42 62
f 30 10 63
f 10 44 63
f 44 23 63
f 23 45 63
f 45 30 63
f 1 29 64
f 41 1 64
f 18 41 64
f 58 18 64
