# Created by Open3D 
# object name: cda9d8983e4e44bfa9aa176a079d676d_collider1
# number of vertices: 42
# number of triangles: 80
v -0.0479742 -0.0061797 0.0122208
v -0.0356942 -0.0023437 0.0114528
v -0.0356942 -0.0038787 0.0114528
v -0.0472092 -0.0084837 0.0283358
v -0.0456732 -0.000807702 0.0122208
v -0.0403012 -0.0077147 0.0106838
v -0.0510462 -0.0100187 0.0252658
v -0.0510462 -0.0061797 0.0267998
v -0.0372312 -3.97017e-05 0.0114528
v -0.0449052 -0.0100187 0.0221948
v -0.0518152 -0.0069467 0.0206598
v -0.0479742 -0.0100187 0.0183598
v -0.0464402 -0.0015757 0.0106838
v -0.0464402 -0.0069467 0.0275668
v -0.0433732 -0.0084837 0.0237288
v -0.0464402 -0.0069467 0.0106838
v -0.0479742 -0.0038787 0.0221948
v -0.0502782 -0.0084837 0.0175928
v -0.0372312 -3.97017e-05 0.0106838
v -0.0518152 -0.0061797 0.0260328
v -0.0387672 -0.0069467 0.0122208
v -0.0433732 -3.97017e-05 0.0114528
v -0.0449052 -0.0038787 0.0221948
v -0.0510462 -0.0100187 0.0267998
v -0.0510462 -0.0054117 0.0191278
v -0.0472092 -0.0092517 0.0283358
v -0.0387672 -3.97017e-05 0.0122208
v -0.0449052 -0.0100187 0.0183598
v -0.0472092 -0.0031117 0.0106838
v -0.0356942 -0.0038787 0.0106838
v -0.0487432 -0.0031117 0.0183598
v -0.0518152 -0.0084837 0.0267998
v -0.0510462 -0.0092517 0.0206598
v -0.0433732 -0.0077147 0.0106838
v -0.0487432 -0.0077147 0.0283358
v -0.0479742 -0.0100187 0.0267998
v -0.0479742 -0.0031117 0.0198928
v -0.0364632 -0.000807702 0.0114528
v -0.0426042 -0.0084837 0.0214278
v -0.0433732 -3.97017e-05 0.0106838
v -0.0510462 -0.0092517 0.0275668
v -0.0410692 -3.97017e-05 0.0122208
f 22 37 42
f 10 7 12
f 3 2 15
f 2 14 15
f 13 6 16
f 11 1 18
f 1 16 18
f 16 12 18
f 6 13 19
f 10 6 21
f 9 19 22
f 8 14 23
f 14 9 23
f 17 8 23
f 7 10 24
f 11 20 25
f 14 4 26
f 10 15 26
f 15 14 26
f 9 22 27
f 23 9 27
f 17 23 27
f 6 10 28
f 12 6 28
f 10 12 28
f 1 11 29
f 16 1 29
f 13 16 29
f 11 25 29
f 25 13 29
f 2 3 30
f 19 2 30
f 6 19 30
f 3 21 30
f 21 6 30
f 5 13 31
f 13 25 31
f 25 20 31
f 8 20 32
f 20 11 32
f 7 24 32
f 12 7 33
f 11 18 33
f 18 12 33
f 7 32 33
f 32 11 33
f 6 12 34
f 12 16 34
f 16 6 34
f 4 14 35
f 14 8 35
f 26 4 35
f 24 10 36
f 10 26 36
f 26 24 36
f 8 17 37
f 20 8 37
f 22 5 37
f 5 31 37
f 31 20 37
f 14 2 38
f 9 14 38
f 2 19 38
f 19 9 38
f 3 15 39
f 15 10 39
f 21 3 39
f 10 21 39
f 13 5 40
f 19 13 40
f 5 22 40
f 22 19 40
f 24 26 41
f 8 32 41
f 32 24 41
f 35 8 41
f 26 35 41
f 17 27 42
f 27 22 42
f 37 17 42
