# Created by Open3D 
# object name: cda9d8983e4e44bfa9aa176a079d676d_collider3
# number of vertices: 64
# number of triangles: 124
v 0.0195768 0.0060983 -0.0246242
v 0.0518158 -0.0084837 0.0183548
v 0.0518158 -0.0107827 0.0183548
v 0.0180398 -4.07017e-05 0.00223581
v 0.0180398 -0.0069467 -0.0154122
v 0.0180398 0.0130103 -0.0100342
v 0.0449058 0.0014943 -0.00620019
v 0.0449058 -0.0092507 -0.00466119
v 0.0433718 -0.0153927 0.0206548
v 0.0387628 0.0022613 0.0129818
v 0.0426018 0.0053313 0.00376981
v 0.0272538 0.0107053 -0.0161792
v 0.0441388 -0.0084837 0.0237278
v 0.0433718 -0.0146227 0.00607481
v 0.0264838 -0.000810702 -0.0215522
v 0.0188098 -0.0077137 -0.00389419
v 0.0188098 0.0084003 -0.000827193
v 0.0510418 -0.0031097 0.00530781
v 0.0333938 0.0060983 -0.0169502
v 0.0502778 -0.0138547 0.0122148
v 0.0180398 0.0107053 -0.0230852
v 0.0341608 -0.0092507 -0.0100342
v 0.0395328 -0.0107827 0.0214268
v 0.0356948 -0.0138547 0.00607481
v 0.0479768 -0.000810702 0.0129818
v 0.0180398 -4.07017e-05 -0.0246242
v 0.0387628 -0.0054087 -0.0123402
v 0.0364618 0.0084003 -0.00696719
v 0.0495108 -0.0153927 0.0191258
v 0.0479768 -0.0077137 0.0229608
v 0.0356948 0.0076363 0.00223581
v 0.0472038 0.0022613 0.00223581
v 0.0487438 -0.0077137 -6.51933e-05
v 0.0326268 -0.0031097 0.0145198
v 0.0241828 -0.0046447 -0.0192462
v 0.0364618 0.000727298 0.0145198
v 0.0211108 0.0130103 -0.0138732
v 0.0495108 -0.0123207 0.0229608
v 0.0180398 -0.0054087 -0.00159419
v 0.0356948 -0.0130877 -6.51933e-05
v 0.0395328 0.0053313 -0.0108062
v 0.0464398 -0.0123207 0.00146881
v 0.0441388 0.0022613 0.0114478
v 0.0387628 -0.0015717 -0.0131062
v 0.0441388 -0.0146227 0.0229608
v 0.0180398 0.0099353 -0.00312819
v 0.0264838 0.0084003 -0.0207852
v 0.0518158 -0.0069467 0.00914281
v 0.0510418 -0.0023427 0.00914281
v 0.0379958 -0.0115527 -0.00466119
v 0.0449058 -0.0061757 -0.00620019
v 0.0418338 -0.0146227 0.0206548
v 0.0356948 -0.0138547 0.0114478
v 0.0180398 -0.0077137 -0.00926719
v 0.0180398 -0.0054087 -0.0192462
v 0.0341608 0.0091703 -0.00389419
v 0.0464398 -0.0054087 0.0214268
v 0.0502778 -0.0069467 0.0206548
v 0.0495108 -0.0115527 0.00454081
v 0.0449058 0.0037933 -0.00236119
v 0.0479768 -4.07017e-05 -0.00159419
v 0.0180398 -0.0023427 0.00146881
v 0.0295548 0.0022613 -0.0200232
v 0.0349278 -0.0061757 -0.0138732
f 35 15 64
f 5 4 6
f 5 6 21
f 14 9 24
f 1 15 26
f 21 1 26
f 5 21 26
f 9 14 29
f 20 3 29
f 14 20 29
f 11 25 32
f 17 4 34
f 23 13 34
f 4 23 34
f 26 15 35
f 34 13 36
f 17 34 36
f 21 6 37
f 12 21 37
f 28 12 37
f 3 2 38
f 29 3 38
f 30 13 38
f 4 5 39
f 24 5 40
f 14 24 40
f 7 19 41
f 19 12 41
f 12 28 41
f 20 14 42
f 25 11 43
f 31 10 43
f 11 31 43
f 19 7 44
f 27 15 44
f 13 23 45
f 9 29 45
f 38 13 45
f 29 38 45
f 6 4 46
f 4 17 46
f 10 31 46
f 31 6 46
f 36 10 46
f 17 36 46
f 12 19 47
f 1 21 47
f 21 12 47
f 2 3 48
f 3 20 48
f 33 18 48
f 18 32 49
f 32 25 49
f 2 48 49
f 48 18 49
f 22 8 50
f 40 5 50
f 14 40 50
f 42 14 50
f 8 42 50
f 8 27 51
f 33 8 51
f 44 7 51
f 27 44 51
f 39 16 52
f 9 45 52
f 45 23 52
f 24 9 53
f 9 52 53
f 52 16 53
f 5 24 54
f 39 5 54
f 16 39 54
f 24 53 54
f 53 16 54
f 5 26 55
f 35 22 55
f 26 35 55
f 50 5 55
f 22 50 55
f 11 28 56
f 31 11 56
f 6 31 56
f 37 6 56
f 28 37 56
f 13 30 57
f 10 36 57
f 36 13 57
f 43 10 57
f 43 57 58
f 38 2 58
f 30 38 58
f 25 43 58
f 2 49 58
f 49 25 58
f 57 30 58
f 8 33 59
f 20 42 59
f 42 8 59
f 48 20 59
f 33 48 59
f 28 11 60
f 11 32 60
f 7 41 60
f 41 28 60
f 32 18 61
f 18 33 61
f 51 7 61
f 33 51 61
f 7 60 61
f 60 32 61
f 23 4 62
f 4 39 62
f 39 52 62
f 52 23 62
f 15 1 63
f 19 44 63
f 44 15 63
f 1 47 63
f 47 19 63
f 8 22 64
f 27 8 64
f 15 27 64
f 22 35 64
