# Created by Open3D 
# object name: cda9d8983e4e44bfa9aa176a079d676d_collider2
# number of vertices: 64
# number of triangles: 124
v -0.0418292 0.0076353 0.000699807
v -0.0088322 0.0030343 -0.0284672
v -0.0088322 0.0060973 -0.0284672
v -0.000383204 0.000728298 -0.00390319
v -0.0456662 -0.0069477 0.00991181
v -0.000383204 0.0153133 -0.0138822
v -0.0341512 0.0099363 -0.0177182
v -0.000383204 -0.0046437 -0.0200172
v -0.0402962 -0.0023417 -0.0123452
v -0.0333892 0.0030343 0.00914581
v -0.000383204 0.0122403 -0.0269302
v -0.0234122 0.0145443 -0.0100382
v -0.0272492 -0.0054127 -0.0154142
v -0.0387642 -0.0069477 0.0106828
v -0.0019212 0.0114743 -0.00620619
v -0.000383204 -0.0046437 -0.00927219
v -0.0448992 0.0045623 -0.00620619
v -0.0272492 0.0014993 -0.0230902
v -0.0149732 0.0130093 -0.0246272
v -0.0364602 -0.0077157 -0.000833193
v -0.0464412 -0.0015707 0.0106828
v -0.0272492 0.0107053 -0.000833193
v -0.000383204 0.0022653 -0.0284672
v -0.0341512 0.0122403 -0.0108082
v -0.0149732 0.0153133 -0.0184842
v -0.0096032 -0.0023417 -0.0238572
v -0.0448992 -0.0038777 -0.00390319
v -0.000383204 0.0061023 -0.00390319
v -0.0349272 -0.0038777 0.0106828
v -0.0211182 0.0076353 -0.0253932
v -0.0372222 0.0068683 0.00530581
v -0.0372222 0.0037983 -0.0169472
v -0.0410672 -0.0061787 -0.00390319
v -0.0019212 0.0153133 -0.0207872
v -0.0410672 0.0084013 -0.0108082
v -0.0257072 0.0137733 -0.0169472
v -0.0356932 0.0107053 -0.00237019
v -0.0180432 0.0114743 -0.0253932
v -0.0448992 0.0060973 -0.00237019
v -0.0310862 0.0060973 0.00607581
v -0.0287822 -0.0023417 -0.0192542
v -0.0195762 0.0022653 -0.0261642
v -0.0349272 -0.0077157 0.00146981
v -0.0272492 0.0068683 -0.0230902
v -0.0426002 -3.87017e-05 -0.0108082
v -0.0049912 0.0145443 -0.0108082
v -0.0272492 -0.0061787 -0.0131112
v -0.0356932 0.000728298 0.0106828
v -0.0456662 -0.0015707 -0.00390319
v -0.0349272 -0.0054127 -0.0115752
v -0.0395302 0.0099363 -0.00390319
v -0.0448992 -3.87017e-05 0.0106828
v -0.0264832 0.0114743 -0.0215572
v -0.0356932 -3.87017e-05 -0.0177182
v -0.000383204 0.0099393 -0.00543919
v -0.0072952 0.0122403 -0.0269302
v -0.0218842 -0.0023417 -0.0215572
v -0.0272492 0.0137733 -0.00774619
v -0.0456662 0.0045623 0.000699807
v -0.0464412 -0.0061787 0.0106828
v -0.0402962 0.0068683 -0.0131112
v -0.000383204 0.0076353 -0.0284672
v -0.0065282 0.0145443 -0.0230902
v -0.000383204 -0.0031067 -0.0230902
f 26 23 64
f 6 4 8
f 6 8 11
f 8 4 16
f 4 14 16
f 2 3 23
f 11 8 23
f 12 6 25
f 8 13 26
f 2 23 26
f 4 6 28
f 14 4 29
f 21 14 29
f 4 28 29
f 20 5 33
f 27 9 33
f 5 27 33
f 6 11 34
f 25 6 34
f 24 7 35
f 24 12 36
f 7 24 36
f 12 25 36
f 25 19 36
f 1 31 37
f 31 22 37
f 3 30 38
f 35 17 39
f 10 15 40
f 15 22 40
f 31 10 40
f 22 31 40
f 3 2 42
f 2 26 42
f 30 3 42
f 14 5 43
f 8 16 43
f 16 14 43
f 5 20 43
f 20 8 43
f 32 7 44
f 18 32 44
f 38 30 44
f 30 42 44
f 42 18 44
f 9 27 45
f 6 12 46
f 15 6 46
f 22 15 46
f 13 8 47
f 8 20 47
f 28 10 48
f 21 29 48
f 29 28 48
f 45 27 49
f 17 45 49
f 33 9 50
f 20 33 50
f 9 41 50
f 41 13 50
f 13 47 50
f 47 20 50
f 24 35 51
f 1 37 51
f 39 1 51
f 35 39 51
f 31 1 52
f 10 31 52
f 48 10 52
f 21 48 52
f 7 36 53
f 36 19 53
f 19 38 53
f 44 7 53
f 38 44 53
f 32 18 54
f 41 9 54
f 18 41 54
f 9 45 54
f 45 32 54
f 6 15 55
f 15 10 55
f 28 6 55
f 10 28 55
f 3 38 56
f 38 19 56
f 26 13 57
f 13 41 57
f 41 18 57
f 42 26 57
f 18 42 57
f 12 24 58
f 37 22 58
f 46 12 58
f 22 46 58
f 24 51 58
f 51 37 58
f 1 39 59
f 39 17 59
f 49 21 59
f 17 49 59
f 52 1 59
f 21 52 59
f 5 14 60
f 14 21 60
f 27 5 60
f 21 49 60
f 49 27 60
f 7 32 61
f 17 35 61
f 35 7 61
f 45 17 61
f 32 45 61
f 23 3 62
f 11 23 62
f 3 56 62
f 56 11 62
f 19 25 63
f 34 11 63
f 25 34 63
f 11 56 63
f 56 19 63
f 23 8 64
f 8 26 64
