# Created by Open3D 
# object name: 516ef7e9c68e47cc938440810fb5e4d8_collider1
# number of vertices: 64
# number of triangles: 124
v -0.061814 -0.061367 -0.018901
v -0.156141 0.094344 -0.004128
v -0.156141 0.094344 0.004858
v -0.064291 0.013696 -0.003687
v -0.062884 -0.044934 0.029643
v -0.110761 -0.019286 0.004256
v -0.07997 -0.013195 -0.030625
v -0.126939 0.094344 0.009352
v -0.131431 0.098841 -0.008622
v -0.10289 -0.018098 -0.021511
v -0.063858 -0.010862 0.029008
v -0.108846 0.009694 0.024516
v -0.064222 -0.008634 -0.028041
v -0.080037 -0.052284 0.012724
v -0.106889 -0.013429 0.01979
v -0.116934 0.027827 -0.02185
v -0.064714 0.011715 0.012396
v -0.149408 0.098841 0.009352
v -0.094875 -0.038209 -0.011612
v -0.120251 0.002365 -0.011083
v -0.061512 -0.066186 0.011131
v -0.062123 -0.04596 -0.029408
v -0.142665 0.096601 -0.010858
v -0.090592 -0.000516001 0.028803
v -0.064493 0.003624 -0.021813
v -0.122319 0.006062 0.01001
v -0.079778 -0.055006 -0.001712
v -0.094768 -0.028586 0.022512
v -0.063828 0.001397 0.022883
v -0.122272 0.002257 -0.001557
v -0.116689 0.007863 -0.019282
v -0.061094 -0.05822 -0.023551
v -0.090557 -0.018888 -0.028131
v -0.151649 0.098841 -0.008622
v -0.061871 -0.056991 0.023884
v -0.120598 0.015715 0.018023
v -0.064174 0.011665 -0.011816
v -0.084357 -0.025151 0.028973
v -0.10481 0.03399 0.02271
v -0.086708 -0.038675 -0.021791
v -0.100852 -0.032338 0.008373
v -0.062954 -0.030221 0.031688
v -0.106843 0.038115 -0.022039
v -0.110773 -0.017494 -0.009394
v -0.135923 0.101097 0.007102
v -0.061395 -0.066393 -0.010428
v -0.100713 0.015715 -0.026176
v -0.124688 0.092088 0.009352
v -0.073975 -0.056148 -0.014005
v -0.096801 -0.038574 -0.001643
v -0.063613 -0.019261 -0.030498
v -0.121194 0.087599 -0.001686
v -0.133681 0.098841 0.009352
v -0.110908 0.034095 0.022839
v -0.153899 0.094344 0.007102
v -0.076279 -0.04745 0.022773
v -0.076241 -0.000585001 -0.028193
v -0.104922 -0.025373 0.012101
v -0.133681 0.094344 -0.010858
v -0.149408 0.101097 -0.006372
v -0.06447 0.013704 0.0044
v -0.098912 -0.010102 0.026199
v -0.102931 -0.004009 -0.025275
v -0.156141 0.098841 0.004858
f 45 60 64
f 13 9 25
f 21 14 27
f 3 2 30
f 2 20 30
f 26 3 30
f 6 26 30
f 20 2 31
f 10 20 31
f 7 22 33
f 23 16 34
f 31 2 34
f 16 31 34
f 14 21 35
f 21 32 35
f 32 29 35
f 3 26 36
f 26 15 36
f 25 9 37
f 4 29 37
f 29 32 37
f 24 11 39
f 19 10 40
f 22 32 40
f 33 22 40
f 10 33 40
f 11 24 42
f 29 11 42
f 5 35 42
f 35 29 42
f 38 5 42
f 24 38 42
f 10 19 44
f 20 10 44
f 30 20 44
f 6 30 44
f 8 9 45
f 21 27 46
f 1 32 46
f 32 21 46
f 16 23 47
f 7 33 47
f 23 43 47
f 9 8 48
f 8 11 48
f 11 29 48
f 29 17 48
f 27 19 49
f 32 1 49
f 19 40 49
f 40 32 49
f 1 46 49
f 46 27 49
f 27 14 50
f 19 27 50
f 41 6 50
f 14 41 50
f 6 44 50
f 44 19 50
f 22 7 51
f 13 25 51
f 32 22 51
f 25 37 51
f 37 32 51
f 4 37 52
f 37 9 52
f 48 4 52
f 9 48 52
f 11 8 53
f 39 11 53
f 8 45 53
f 45 18 53
f 18 12 54
f 12 24 54
f 24 39 54
f 39 53 54
f 53 18 54
f 12 18 55
f 3 36 55
f 36 12 55
f 28 14 56
f 35 5 56
f 14 35 56
f 5 38 56
f 38 28 56
f 7 47 57
f 47 43 57
f 51 7 57
f 13 51 57
f 15 26 58
f 26 6 58
f 14 28 58
f 28 15 58
f 6 41 58
f 41 14 58
f 9 13 59
f 23 9 59
f 43 23 59
f 13 57 59
f 57 43 59
f 9 23 60
f 23 34 60
f 45 9 60
f 29 4 61
f 17 29 61
f 4 48 61
f 48 17 61
f 24 12 62
f 15 28 62
f 12 36 62
f 36 15 62
f 38 24 62
f 28 38 62
f 31 16 63
f 10 31 63
f 33 10 63
f 16 47 63
f 47 33 63
f 2 3 64
f 34 2 64
f 18 45 64
f 3 55 64
f 55 18 64
f 60 34 64
