# Created by Open3D 
# object name: 516ef7e9c68e47cc938440810fb5e4d8_collider0
# number of vertices: 64
# number of triangles: 124
v -0.009639 -0.074014 -0.028928
v -0.055458 -0.030188 0.031448
v -0.057684 -0.030116 0.031644
v -0.057292 0.004471 -0.019852
v -0.010709 -0.030588 0.018356
v -0.055397 -0.071537 0.002428
v -0.009414 -0.082762 0.023593
v -0.057529 -0.050893 -0.028638
v -0.010063 -0.042593 -0.028411
v -0.057292 0.008968 0.013839
v -0.011966 -0.088162 -0.014125
v -0.010748 -0.026612 -0.011605
v -0.009748 -0.055112 0.031611
v -0.057378 -0.061129 0.023005
v -0.05775 -0.0259 -0.031
v -0.057292 -2.50015e-05 0.025075
v -0.057334 -0.063154 -0.020176
v -0.009194 -0.089528 0.013145
v -0.057715 -0.048881 0.029593
v -0.057292 0.011221 -0.004128
v -0.010858 -0.026684 0.012277
v -0.009588 -0.06569 -0.03109
v -0.009342 -0.07229 0.03002
v -0.030587 -0.082163 0.012846
v -0.030593 -0.084167 -0.00171
v -0.010251 -0.036496 0.024829
v -0.030617 -0.073533 -0.024365
v -0.047085 -0.073492 -0.014042
v -0.057773 -0.015418 -0.028934
v -0.009713 -0.050958 -0.030927
v -0.010585 -0.034552 -0.02375
v -0.009205 -0.091642 -0.001762
v -0.057557 -0.069579 -0.005854
v -0.057742 -0.040552 -0.03099
v -0.030627 -0.075478 0.022961
v -0.055422 -0.069506 0.01277
v -0.057292 0.002228 -0.022095
v -0.040961 -0.048833 0.031479
v -0.057292 0.008968 -0.013108
v -0.01058 -0.04257 0.028513
v -0.009494 -0.084727 -0.020678
v -0.057292 0.011221 0.004858
v -0.01268 -0.024564 -0.005639
v -0.034729 -0.079528 -0.01399
v -0.042901 -0.063047 0.02694
v -0.057681 0.005326 -0.012138
v -0.057248 -0.015989 0.029025
v -0.032662 -0.057202 -0.030881
v -0.009617 -0.061469 0.031782
v -0.028554 -0.067339 -0.028482
v -0.051125 -0.063101 -0.024225
v -0.030575 -0.084414 0.000365002
v -0.013917 -0.082195 -0.022543
v -0.047109 -0.075608 -0.005819
v -0.026521 -0.067242 0.029103
v -0.057292 0.002228 0.022825
v -0.020202 -0.08624 -0.012091
v -0.010815 -0.028651 -0.015556
v -0.047076 -0.067297 0.022991
v -0.038832 -0.073388 -0.020149
v -0.057478 -0.069486 0.006563
v -0.049208 -0.073624 0.010692
v -0.013751 -0.088838 0.010858
v -0.055493 -0.069597 -0.012081
f 28 54 64
f 2 3 13
f 10 5 21
f 7 18 23
f 18 7 24
f 9 12 26
f 21 5 26
f 12 21 26
f 19 3 29
f 22 15 30
f 23 18 30
f 13 23 30
f 9 26 30
f 26 13 30
f 29 9 30
f 15 29 30
f 12 9 31
f 22 30 32
f 30 18 32
f 8 17 33
f 15 22 34
f 29 15 34
f 19 29 34
f 8 33 34
f 33 19 34
f 24 7 35
f 9 29 37
f 4 31 37
f 31 9 37
f 3 19 38
f 19 23 38
f 20 12 39
f 16 13 40
f 13 26 40
f 26 16 40
f 1 22 41
f 32 11 41
f 22 32 41
f 10 21 42
f 12 20 43
f 21 12 43
f 20 42 43
f 42 21 43
f 19 14 45
f 29 3 46
f 4 37 46
f 37 29 46
f 20 39 46
f 39 4 46
f 42 20 46
f 10 42 46
f 3 2 47
f 2 13 47
f 16 3 47
f 13 16 47
f 22 1 48
f 8 34 48
f 34 22 48
f 13 3 49
f 23 13 49
f 3 38 49
f 38 23 49
f 1 27 50
f 48 1 50
f 8 48 50
f 17 8 51
f 50 27 51
f 8 50 51
f 25 32 52
f 27 1 53
f 1 41 53
f 41 11 53
f 11 44 53
f 6 33 54
f 44 25 54
f 28 44 54
f 52 6 54
f 25 52 54
f 7 23 55
f 23 19 55
f 35 7 55
f 19 45 55
f 45 35 55
f 5 10 56
f 3 16 56
f 26 5 56
f 16 26 56
f 46 3 56
f 10 46 56
f 11 32 57
f 32 25 57
f 44 11 57
f 25 44 57
f 31 4 58
f 12 31 58
f 39 12 58
f 4 39 58
f 24 35 59
f 36 24 59
f 14 36 59
f 45 14 59
f 35 45 59
f 28 17 60
f 44 28 60
f 17 51 60
f 51 27 60
f 27 53 60
f 53 44 60
f 14 19 61
f 33 6 61
f 19 33 61
f 6 36 61
f 36 14 61
f 24 36 62
f 36 6 62
f 6 52 62
f 52 24 62
f 18 24 63
f 32 18 63
f 24 52 63
f 52 32 63
f 17 28 64
f 33 17 64
f 54 33 64
