# Created by Open3D 
# object name: 55180008229841a9a6af3a35528ccdc6_collider1
# number of vertices: 64
# number of triangles: 124
v -0.031886 0.003399 -0.029489
v 0.001923 -0.006358 -0.029411
v -0.007605 0.010808 -0.029417
v -0.021649 -0.012515 -0.028695
v 0.026114 -0.015529 -0.061422
v -0.01848 0.00329 -0.054387
v -0.011497 -0.01122 -0.058132
v 0.025043 -0.005915 -0.062491
v -0.002013 0.004704 -0.055592
v -0.0225 0.012178 -0.028834
v -0.027351 -0.008468 -0.037731
v -0.007701 -0.013332 -0.028959
v -0.005742 -0.000625001 -0.063164
v 0.025043 -0.006985 -0.058219
v 0.014361 -0.013394 -0.067835
v -0.001839 -0.014369 -0.05245
v 0.019702 -0.004848 -0.066766
v 0.001756 0.000274999 -0.029942
v -0.019384 -0.004519 -0.054356
v -0.026479 0.006282 -0.041625
v -0.012297 0.00786 -0.049426
v -0.032263 -0.003649 -0.028226
v -0.027789 -0.002608 -0.041545
v -0.008744 -0.006556 -0.062388
v -0.008735 -0.014449 -0.037661
v 0.018636 -0.002711 -0.062491
v -0.017474 -0.012346 -0.044613
v -0.001948 0.00677 -0.029918
v -0.03075 0.008369 -0.028573
v -0.000926 -0.01021 -0.029337
v -0.012035 0.011246 -0.034728
v -0.019914 0.010735 -0.038065
v -0.018513 -0.010429 -0.051462
v 0.023977 -0.01019 -0.056082
v -0.004697 0.007489 -0.046639
v 0.003236 -0.002616 -0.065626
v -0.030993 -0.007656 -0.028402
v 0.025043 -0.00912 -0.064629
v 0.012224 -0.001644 -0.064629
v -0.009509 0.001267 -0.060879
v -0.005744 -0.013325 -0.056333
v -0.009601 -0.011275 -0.060123
v 0.000178 -0.007578 -0.065451
v 0.025043 -0.005915 -0.059288
v 0.025043 -0.015529 -0.062491
v -0.026595 0.001363 -0.043579
v -0.014533 -0.013316 -0.043638
v -0.004767 -0.012333 -0.028996
v -0.012583 -0.005502 -0.060229
v -0.017662 -0.01349 -0.028719
v 0.018843 -0.012945 -0.067093
v 0.002829 -0.001583 -0.030502
v 0.000156 -0.011498 -0.06436
v -0.004718 0.004905 -0.05587
v -0.024403 -0.007486 -0.044601
v -0.030648 0.000376999 -0.034619
v -0.029876 0.007411 -0.033505
v -0.026459 -0.01047 -0.028818
v -0.032195 0.003449 -0.028272
v 0.026114 -0.006985 -0.062491
v 0.025043 -0.014461 -0.059288
v -0.030745 -0.007596 -0.030577
v -0.01711 0.011726 -0.03423
v -0.011458 0.011823 -0.029333
f 31 63 64
f 2 3 10
f 5 12 25
f 3 8 26
f 8 17 26
f 3 2 28
f 2 18 28
f 18 14 28
f 6 20 32
f 21 6 32
f 27 11 33
f 7 27 33
f 5 14 34
f 9 21 35
f 3 26 35
f 26 9 35
f 31 3 35
f 21 31 35
f 17 15 36
f 9 26 39
f 26 17 39
f 36 13 39
f 17 36 39
f 6 21 40
f 39 13 40
f 27 7 41
f 7 33 42
f 33 19 42
f 41 7 42
f 15 41 42
f 24 13 43
f 13 36 43
f 36 15 43
f 8 3 44
f 3 28 44
f 28 14 44
f 5 25 45
f 25 16 45
f 38 5 45
f 41 15 45
f 16 41 45
f 6 19 46
f 20 6 46
f 19 23 46
f 16 25 47
f 4 27 47
f 41 16 47
f 27 41 47
f 2 10 48
f 12 5 48
f 30 2 48
f 5 30 48
f 19 6 49
f 13 24 49
f 6 40 49
f 40 13 49
f 24 42 49
f 42 19 49
f 25 12 50
f 37 4 50
f 22 37 50
f 4 47 50
f 47 25 50
f 12 48 50
f 48 22 50
f 15 17 51
f 17 38 51
f 38 45 51
f 45 15 51
f 18 2 52
f 14 18 52
f 2 34 52
f 34 14 52
f 15 42 53
f 42 24 53
f 24 43 53
f 43 15 53
f 21 9 54
f 9 39 54
f 40 21 54
f 39 40 54
f 23 19 55
f 11 23 55
f 19 33 55
f 33 11 55
f 23 22 56
f 46 23 56
f 46 56 57
f 29 10 57
f 32 20 57
f 10 32 57
f 20 46 57
f 56 1 57
f 27 4 58
f 11 27 58
f 4 37 58
f 10 29 59
f 48 10 59
f 22 48 59
f 1 56 59
f 56 22 59
f 57 1 59
f 29 57 59
f 14 5 60
f 17 8 60
f 5 38 60
f 38 17 60
f 8 44 60
f 44 14 60
f 2 30 61
f 30 5 61
f 34 2 61
f 5 34 61
f 23 11 62
f 22 23 62
f 37 22 62
f 11 58 62
f 58 37 62
f 31 21 63
f 21 32 63
f 32 10 63
f 10 3 64
f 3 31 64
f 63 10 64
