# Created by Open3D 
# object name: 55180008229841a9a6af3a35528ccdc6_collider2
# number of vertices: 64
# number of triangles: 124
v 0.019945 0.000465999 0.066558
v -0.034058 -0.005628 0.006362
v -0.034385 0.005594 0.006077
v 0.000474 -0.001645 0.005881
v 0.019456 -0.014529 0.053803
v 0.029579 0.007482 0.053883
v -0.014346 0.003413 0.048668
v -0.00914 0.014377 0.005881
v -0.007322 0.013111 0.043629
v 0.036798 -0.00378 0.05181
v -0.00914 -0.012329 0.004808
v -0.006439 -0.010408 0.050636
v -0.025615 0.011499 0.027796
v -0.027574 -0.004551 0.02982
v -0.021157 -0.012333 0.009292
v 0.012377 0.011368 0.056658
v 0.021542 -0.010575 0.06491
v 0.003462 0.001451 0.061747
v -0.003799 0.009036 0.004808
v -0.023581 0.014493 0.00675
v 0.030195 0.002517 0.064508
v 0.029038 -0.011369 0.052572
v -0.004442 0.008315 0.055493
v 0.008345 -0.01432 0.052563
v -0.006381 -0.005426 0.055406
v 0.014284 0.012287 0.052595
v -0.018181 -0.010352 0.032892
v 0.033898 -0.00865 0.058098
v 0.016826 0.009667 0.061369
v -0.001659 -0.005918 0.004808
v 0.011447 -0.010518 0.062758
v -0.028624 0.004472 0.027798
v -0.020486 -0.004535 0.041807
v -0.031245 0.011724 0.006137
v -0.008417 0.014283 0.02991
v -0.019146 0.010257 0.039752
v -0.032078 -0.004621 0.018526
v 0.012501 0.004468 0.064889
v 0.011473 -0.006543 0.06482
v 0.024207 -0.006749 0.066767
v -0.003438 -0.013243 0.044631
v 0.032567 -0.008565 0.051865
v -0.027456 -0.009519 0.013881
v 0.034897 0.002486 0.058086
v -0.018279 0.014271 0.024978
v -0.022472 0.004446 0.038813
v 0.025551 0.006476 0.06391
v 0.005411 -0.014363 0.043726
v -0.032977 0.004518 0.015549
v -0.000592 0.001558 0.004808
v 0.023111 -0.013329 0.049608
v 0.032331 0.005431 0.054735
v 0.017914 0.011099 0.047465
v -0.007006 0.012242 0.004808
v -0.030051 0.01166 0.015469
v 0.027832 -0.011693 0.06013
v 0.002442 0.012274 0.052577
v 0.033492 -0.003652 0.061604
v -0.026586 -0.010568 0.006747
v 0.021399 0.010416 0.056746
v -0.012193 0.010191 0.047528
v 0.017587 -0.014639 0.055943
v 0.004376 -0.011276 0.058296
v 0.005481 -0.005551 0.062857
f 63 31 64
f 2 3 11
f 23 7 25
f 18 23 25
f 26 16 29
f 4 10 30
f 11 19 30
f 12 25 33
f 25 7 33
f 14 27 33
f 27 12 33
f 8 20 35
f 26 8 35
f 9 26 35
f 9 13 36
f 14 32 37
f 23 18 38
f 29 23 38
f 31 17 39
f 1 38 39
f 21 1 40
f 1 39 40
f 39 17 40
f 12 27 41
f 27 15 41
f 22 11 42
f 10 28 42
f 28 22 42
f 30 10 42
f 11 30 42
f 27 14 43
f 15 27 43
f 37 2 43
f 14 37 43
f 13 9 45
f 35 20 45
f 9 35 45
f 13 32 46
f 32 14 46
f 14 33 46
f 33 7 46
f 36 13 46
f 7 36 46
f 1 21 47
f 38 1 47
f 29 38 47
f 21 44 47
f 11 5 48
f 15 11 48
f 41 15 48
f 24 41 48
f 3 2 49
f 2 37 49
f 37 32 49
f 10 4 50
f 19 10 50
f 4 30 50
f 30 19 50
f 5 11 51
f 22 5 51
f 11 22 51
f 10 19 52
f 44 10 52
f 6 47 52
f 47 44 52
f 6 8 53
f 8 26 53
f 8 6 54
f 11 3 54
f 19 11 54
f 20 8 54
f 3 34 54
f 34 20 54
f 6 52 54
f 52 19 54
f 32 13 55
f 34 3 55
f 20 34 55
f 13 45 55
f 45 20 55
f 3 49 55
f 49 32 55
f 5 22 56
f 22 28 56
f 40 17 56
f 28 40 56
f 26 9 57
f 16 26 57
f 29 16 57
f 23 29 57
f 28 10 58
f 21 40 58
f 40 28 58
f 10 44 58
f 44 21 58
f 2 11 59
f 11 15 59
f 43 2 59
f 15 43 59
f 26 29 60
f 47 6 60
f 29 47 60
f 6 53 60
f 53 26 60
f 7 23 61
f 9 36 61
f 36 7 61
f 57 9 61
f 23 57 61
f 17 31 62
f 48 5 62
f 24 48 62
f 5 56 62
f 56 17 62
f 25 12 63
f 41 24 63
f 12 41 63
f 62 31 63
f 24 62 63
f 18 25 64
f 38 18 64
f 31 39 64
f 39 38 64
f 25 63 64
