# Created by Open3D 
# object name: cb364832b9994b768dba6245e6b3f51b_collider0
# number of vertices: 64
# number of triangles: 124
v -0.003336 -0.021841 -0.003339
v 0.004172 0.021841 0.002117
v 0.005536 0.021157 0.004849
v -0.019713 0.002728 0.010309
v -0.008112 0.004776 -0.0204
v 0.020549 -0.004772 0.007577
v 0.015089 -0.003412 -0.016308
v 0.00144 -0.003412 0.021914
v 0.014409 0.013649 -0.010848
v -0.020397 0.00546 -0.007431
v -0.017665 -0.013649 0.002117
v -0.008796 -0.012965 -0.016308
v 0.00758 -0.019793 0.007577
v -0.010845 0.015008 0.013038
v -0.008112 0.019105 -0.008799
v 0.013041 0.011601 0.014406
v -0.008796 -0.014333 0.015086
v 0.011677 -0.016381 -0.010163
v 0.019869 0.010232 -0.001291
v 0.004172 -0.002728 -0.021768
v 0.005536 0.013649 -0.016988
v -0.005384 0.004776 0.02123
v 0.011677 -0.007504 0.017818
v 0.020549 -0.008184 -0.003335
v -0.013573 0.017745 0.002117
v -0.020397 -0.004776 -0.008115
v 0.002124 0.014333 0.017134
v 0.004172 -0.015013 -0.016308
v -0.013573 -0.007504 0.016454
v 0.016453 -0.014333 0.005533
v 0.002804 -0.014333 0.017134
v -0.006064 -0.020473 0.006897
v 0.011677 0.00546 0.018498
v 0.021233 0.002044 -0.006747
v -0.014253 -0.016381 -0.006067
v 0.008264 0.019793 -0.006751
v -0.004016 0.021157 0.006213
v -0.014937 0.004092 -0.016308
v -0.021765 -0.002728 0.004165
v -0.019713 0.010236 0.003485
v 0.019869 0.004092 0.009625
v 0.015089 0.016381 0.002801
v 0.013725 0.00546 -0.016988
v -0.014253 0.014333 -0.010163
v -0.007428 0.012965 -0.016988
v 0.008264 -0.020473 -0.004019
v -0.008796 -0.00614 -0.01972
v -0.013573 0.007504 0.016454
v 0.002804 0.006824 -0.021084
v -0.002652 -0.019793 -0.010163
v -0.016985 -0.007504 -0.012892
v -0.001968 0.020473 -0.008799
v -0.016985 -0.010236 0.010994
v -0.0047 -0.007504 0.020546
v 0.013725 -0.013649 0.011674
v -0.012209 -0.018425 0.004165
v 0.013041 -0.010921 -0.01494
v 0.004852 0.007504 0.020546
v 0.021917 0.002044 0.003481
v 0.00758 0.017745 0.011674
v 0.014409 -0.017061 -0.002655
v 0.015773 -0.002728 0.01577
v 0.003488 -0.010236 -0.01972
v -0.011529 -0.00136 0.019182
f 29 54 64
f 14 22 27
f 24 6 30
f 23 8 31
f 1 13 32
f 31 17 32
f 13 31 32
f 8 23 33
f 9 19 34
f 24 7 34
f 11 26 35
f 9 21 36
f 3 2 37
f 25 14 37
f 15 25 37
f 14 27 37
f 26 10 38
f 10 26 39
f 26 11 39
f 14 25 40
f 39 4 40
f 10 39 40
f 16 33 41
f 2 3 42
f 19 9 42
f 36 2 42
f 9 36 42
f 16 41 42
f 41 19 42
f 7 20 43
f 21 9 43
f 34 7 43
f 9 34 43
f 25 15 44
f 38 10 44
f 10 40 44
f 40 25 44
f 5 38 45
f 44 15 45
f 38 44 45
f 13 1 46
f 28 18 46
f 5 20 47
f 38 5 47
f 22 14 48
f 40 4 48
f 14 40 48
f 20 5 49
f 43 20 49
f 21 43 49
f 45 21 49
f 5 45 49
f 12 28 50
f 1 35 50
f 35 12 50
f 46 1 50
f 28 46 50
f 12 35 51
f 35 26 51
f 26 38 51
f 47 12 51
f 38 47 51
f 2 36 52
f 36 21 52
f 37 2 52
f 15 37 52
f 45 15 52
f 21 45 52
f 29 4 53
f 17 29 53
f 4 39 53
f 39 11 53
f 8 22 54
f 29 17 54
f 31 8 54
f 17 31 54
f 13 30 55
f 30 6 55
f 31 13 55
f 23 31 55
f 1 32 56
f 32 17 56
f 35 1 56
f 11 35 56
f 17 53 56
f 53 11 56
f 20 7 57
f 7 24 57
f 24 18 57
f 18 28 57
f 22 8 58
f 16 27 58
f 27 22 58
f 33 16 58
f 8 33 58
f 6 24 59
f 34 19 59
f 24 34 59
f 19 41 59
f 41 6 59
f 27 16 60
f 3 37 60
f 37 27 60
f 42 3 60
f 16 42 60
f 18 24 61
f 30 13 61
f 24 30 61
f 13 46 61
f 46 18 61
f 33 23 62
f 6 41 62
f 41 33 62
f 55 6 62
f 23 55 62
f 28 12 63
f 47 20 63
f 12 47 63
f 20 57 63
f 57 28 63
f 4 29 64
f 22 48 64
f 48 4 64
f 54 22 64
