# Created by Open3D 
# object name: 4f383fccf4a24b41a795deed8cc0d117_collider1
# number of vertices: 64
# number of triangles: 124
v 0.03155 0.032431 0.006819
v -0.034008 -0.115526 -0.004428
v -0.034258 -0.116092 0.003024
v 0.033402 -0.120367 -0.008262
v -0.008045 0.028345 -0.032654
v -0.007936 0.025653 0.032666
v 0.016328 -0.116061 0.031114
v -0.032615 0.030535 -0.000722
v -0.0024 -0.116019 -0.034418
v 0.01821 0.028174 -0.028822
v -0.022938 -0.119578 0.025427
v -0.023034 -0.119916 -0.025095
v -0.019536 0.048101 0.008761
v 0.018038 0.027541 0.028976
v 0.02936 -0.11586 0.01983
v -0.030497 0.028149 0.014258
v 0.018495 -0.123081 -0.027383
v -0.030735 0.028653 -0.013931
v -0.008166 -0.123171 0.031657
v 0.003245 0.047771 -0.021544
v 0.02914 0.027476 -0.017392
v 0.012649 0.047339 0.018104
v 0.005077 -0.115881 0.034786
v 0.033052 0.027885 0.008607
v 0.018112 -0.11567 -0.030532
v -0.029185 -0.123329 -0.014095
v -0.022627 0.027086 0.025091
v 0.031858 -0.123193 0.00879
v -0.022804 0.027582 -0.024847
v 0.020215 0.047524 -0.008268
v 0.008778 0.027718 -0.03234
v -0.011732 -0.115819 0.032885
v 0.029372 -0.117751 -0.019402
v 0.033226 0.028233 -0.008216
v 0.034453 -0.112838 0.008492
v -0.031983 -0.113284 0.014092
v -0.019345 0.047282 -0.010125
v -0.011793 -0.118078 -0.032613
v 0.00695 0.028036 0.032934
v -0.032074 -0.113499 -0.013697
v -0.008076 0.045568 0.0219
v 0.028988 0.027132 0.017734
v 0.034603 -0.113171 -0.008094
v 0.006918 -0.115561 -0.034216
v -0.029129 -0.123164 0.014502
v 0.018432 -0.122782 0.027722
v -0.010081 -0.123243 -0.031256
v -0.022723 -0.115118 -0.026609
v -0.008129 0.047991 -0.019703
v 0.027022 0.025008 -0.020889
v -0.01145 0.024601 -0.03169
v -0.022445 -0.112348 0.026721
v 0.018337 0.04753 0.012477
v 0.017939 -0.113052 0.03066
v 0.026765 0.024405 0.02112
v -0.013393 0.026981 0.030567
v -0.032292 0.027994 0.006753
v 0.005107 0.030295 -0.032684
v 0.018373 0.047701 -0.012067
v 0.0319 -0.123305 -0.008366
v 0.001335 -0.115951 0.034817
v -0.004283 0.028266 0.033049
v 0.005106 0.041567 0.025596
v -0.024484 -0.114843 -0.02467
f 48 12 64
f 2 3 8
f 13 8 16
f 2 8 18
f 3 2 26
f 13 16 27
f 10 25 31
f 11 19 32
f 17 25 33
f 1 24 34
f 30 1 34
f 15 28 35
f 28 4 35
f 34 24 35
f 27 16 36
f 8 13 37
f 18 8 37
f 29 18 37
f 5 9 38
f 2 18 40
f 26 2 40
f 12 26 40
f 22 13 41
f 13 27 41
f 24 1 42
f 15 35 42
f 35 24 42
f 4 33 43
f 33 21 43
f 21 34 43
f 35 4 43
f 34 35 43
f 25 17 44
f 31 25 44
f 19 11 45
f 3 26 45
f 26 19 45
f 36 3 45
f 11 36 45
f 7 23 46
f 23 19 46
f 28 15 46
f 19 28 46
f 26 12 47
f 38 9 47
f 12 38 47
f 9 44 47
f 44 17 47
f 38 12 48
f 20 5 49
f 5 29 49
f 37 13 49
f 29 37 49
f 10 21 50
f 25 10 50
f 21 33 50
f 33 25 50
f 29 5 51
f 5 38 51
f 48 29 51
f 38 48 51
f 11 32 52
f 36 11 52
f 27 36 52
f 13 22 53
f 22 14 53
f 1 30 53
f 14 42 53
f 42 1 53
f 23 7 54
f 14 39 54
f 39 23 54
f 7 46 54
f 46 15 54
f 42 14 55
f 15 42 55
f 14 54 55
f 54 15 55
f 32 6 56
f 41 27 56
f 52 32 56
f 27 52 56
f 8 3 57
f 16 8 57
f 3 36 57
f 36 16 57
f 9 5 58
f 5 20 58
f 20 10 58
f 10 31 58
f 44 9 58
f 31 44 58
f 10 20 59
f 21 10 59
f 30 34 59
f 34 21 59
f 20 49 59
f 49 13 59
f 13 53 59
f 53 30 59
f 19 26 60
f 4 28 60
f 28 19 60
f 33 4 60
f 17 33 60
f 26 47 60
f 47 17 60
f 19 23 61
f 32 19 61
f 6 32 61
f 23 39 62
f 56 6 62
f 41 56 62
f 61 23 62
f 6 61 62
f 14 22 63
f 39 14 63
f 22 41 63
f 62 39 63
f 41 62 63
f 18 29 64
f 40 18 64
f 12 40 64
f 29 48 64
