# Created by Open3D 
# object name: 1a7346e0575149abab9fac3184dc94c3_collider0
# number of vertices: 64
# number of triangles: 124
v 0.007119 0.033067 0.008626
v -0.002488 -0.034256 -0.006326
v -0.007796 -0.032994 -0.008423
v -0.017034 -0.004434 0.032313
v -0.024811 0.019991 -0.018793
v 0.03278 -0.003201 -0.010595
v 0.021845 -0.011109 0.027865
v 0.009627 0.006654 -0.03435
v -0.024811 -0.019998 -0.018793
v -0.027031 0.017771 0.01787
v 0.019625 0.016664 0.026759
v 0.019625 0.026667 -0.016572
v 0.020735 -0.025553 -0.017686
v -0.022591 -0.024439 0.016756
v 0.021845 -0.026667 0.013422
v -0.007037 -0.01333 -0.033236
v -0.033562 -0.004275 0.005448
v 0.027408 0.022212 0.011201
v -0.009945 0.033064 -0.00524
v -0.00481 0.021105 -0.029902
v -0.001408 -0.027638 0.02135
v -0.005646 0.024408 0.0245
v 0.004071 -0.004434 0.035648
v 0.031598 -0.002122 0.013936
v -0.013704 0.005548 -0.033236
v -0.023701 0.027766 0.006753
v -0.032376 0.006395 -0.010584
v 0.005181 -0.021105 -0.029902
v 0.020903 -0.005313 -0.027539
v -0.009257 0.006654 0.034534
v 0.022955 0.018885 -0.022127
v 0.027402 -0.024439 -0.003235
v -0.027031 -0.024439 -0.006569
v 0.006053 -0.034172 0.00436
v 0.031623 0.012787 -0.006298
v -0.022591 -0.012216 0.026759
v -0.02477 -0.004239 -0.024335
v -0.015924 -0.023332 -0.024347
v 0.00285 0.033068 -0.010574
v 0.024072 0.027766 -0.004349
v -0.009918 -0.032978 0.005411
v 0.001778 -0.021248 0.027717
v -0.028141 0.023332 -0.003235
v -0.019254 0.018885 0.025645
v -0.018144 0.026667 -0.017686
v 0.010738 0.022212 -0.027681
v -0.005689 0.033141 0.00971
v 0.009627 0.005548 0.034534
v -0.032375 -0.006395 -0.010584
v 0.027408 -0.019998 0.014536
v 0.03397 -0.003212 0.002229
v 0.022955 -0.018885 -0.022127
v 0.009627 -0.006654 -0.03435
v 0.021845 0.006654 0.028979
v 0.021845 0.025553 0.015642
v -0.032303 0.005319 0.010744
v -0.021474 0.007775 0.028979
v 0.001784 -0.031999 -0.013776
v 0.006007 0.024365 0.024457
v -0.027031 -0.023332 0.010088
v 0.018515 -0.017778 0.026759
v 0.028376 0.003186 -0.020115
v -0.00592 0.004434 -0.035464
v -0.022591 -0.028887 -0.003235
f 14 60 64
f 5 20 25
f 4 23 30
f 29 8 31
f 15 21 34
f 13 32 34
f 32 15 34
f 5 25 37
f 25 16 37
f 27 5 37
f 16 28 38
f 33 9 38
f 9 37 38
f 37 16 38
f 31 12 40
f 18 35 40
f 35 31 40
f 39 1 40
f 12 39 40
f 3 2 41
f 21 14 41
f 2 34 41
f 34 21 41
f 14 21 42
f 23 4 42
f 4 36 42
f 36 14 42
f 10 26 43
f 5 27 43
f 26 10 44
f 30 22 44
f 20 5 45
f 26 19 45
f 19 39 45
f 39 20 45
f 5 43 45
f 43 26 45
f 8 20 46
f 12 31 46
f 31 8 46
f 39 12 46
f 20 39 46
f 19 26 47
f 1 39 47
f 39 19 47
f 26 44 47
f 44 22 47
f 23 7 48
f 30 23 48
f 17 27 49
f 9 33 49
f 33 17 49
f 37 9 49
f 27 37 49
f 24 7 50
f 15 32 50
f 50 32 51
f 18 24 51
f 32 6 51
f 35 18 51
f 6 35 51
f 24 50 51
f 13 28 52
f 32 13 52
f 6 32 52
f 28 16 53
f 8 29 53
f 52 28 53
f 29 52 53
f 18 11 54
f 7 24 54
f 24 18 54
f 48 7 54
f 11 48 54
f 11 18 55
f 40 1 55
f 18 40 55
f 27 17 56
f 17 36 56
f 10 43 56
f 43 27 56
f 4 30 57
f 36 4 57
f 44 10 57
f 30 44 57
f 10 56 57
f 56 36 57
f 2 3 58
f 28 13 58
f 34 2 58
f 13 34 58
f 3 38 58
f 38 28 58
f 22 30 59
f 1 47 59
f 47 22 59
f 48 11 59
f 30 48 59
f 11 55 59
f 55 1 59
f 17 33 60
f 36 17 60
f 14 36 60
f 21 15 61
f 7 23 61
f 42 21 61
f 23 42 61
f 50 7 61
f 15 50 61
f 29 31 62
f 35 6 62
f 31 35 62
f 6 52 62
f 52 29 62
f 20 8 63
f 16 25 63
f 25 20 63
f 8 53 63
f 53 16 63
f 38 3 64
f 33 38 64
f 3 41 64
f 41 14 64
f 60 33 64
