# Created by Open3D 
# object name: 4f383fccf4a24b41a795deed8cc0d117_collider0
# number of vertices: 46
# number of triangles: 88
v -0.018004 0.055268 -0.005917
v -0.018275 0.054777 0.004662
v -0.018292 0.122045 0.003164
v 0.005328 0.118106 -0.018485
v 0.019106 0.051181 -0.010606
v 0.005328 0.051181 0.020883
v 0.015164 0.124007 0.011034
v -0.01435 0.051181 -0.016518
v -0.008451 0.122045 0.016946
v -0.01435 0.122045 -0.012577
v 0.017139 0.124007 -0.006669
v -0.010413 0.051181 0.018913
v 0.004868 0.054678 -0.018523
v 0.019001 0.054936 0.004641
v 0.003357 0.118106 0.018913
v 0.011227 0.051181 0.018913
v -0.018292 0.051181 0.011034
v 0.019106 0.116136 0.005135
v -0.006476 0.116136 -0.018485
v -0.01435 0.124007 0.011034
v 0.011227 0.116136 -0.016518
v 0.00729 0.124007 -0.016518
v -0.018292 0.116136 -0.004706
v 0.009265 0.122045 0.016946
v -0.01435 0.118106 0.013005
v 0.015164 0.116136 0.013005
v -0.002543 0.116136 0.018913
v 0.019106 0.116136 -0.004706
v 0.015164 0.118106 -0.012577
v -0.005829 0.054696 -0.018513
v -0.010413 0.124007 -0.014543
v 0.010176 0.054815 -0.016668
v -0.006476 0.124007 0.016946
v -0.016325 0.116136 -0.010606
v 0.015574 0.054679 0.011809
v -0.010413 0.116136 -0.016518
v -0.000576 0.122045 -0.018485
v -0.016325 0.122045 0.009072
v -0.01435 0.124007 -0.010606
v -0.012384 0.118106 0.014971
v 0.017139 0.122045 -0.008644
v -0.018292 0.122045 -0.002736
v -0.018292 0.116136 0.005135
v 0.011227 0.124007 -0.014543
v 0.019176 0.054619 -0.004254
v 0.017139 0.122045 0.007097
f 7 18 46
f 5 6 8
f 8 6 12
f 5 8 13
f 6 5 16
f 5 14 16
f 2 1 17
f 1 8 17
f 8 12 17
f 7 11 20
f 13 4 21
f 20 11 22
f 21 4 22
f 1 2 23
f 2 17 23
f 17 3 23
f 15 6 24
f 6 16 24
f 17 12 25
f 18 7 26
f 7 24 26
f 24 16 26
f 12 6 27
f 9 12 27
f 6 15 27
f 11 18 28
f 5 21 29
f 13 8 30
f 8 19 30
f 19 13 30
f 20 22 31
f 5 13 32
f 21 5 32
f 13 21 32
f 7 20 33
f 20 9 33
f 24 7 33
f 15 24 33
f 9 27 33
f 27 15 33
f 8 1 34
f 10 8 34
f 1 23 34
f 16 14 35
f 14 18 35
f 26 16 35
f 18 26 35
f 8 10 36
f 19 8 36
f 10 31 36
f 31 19 36
f 4 13 37
f 13 19 37
f 22 4 37
f 19 31 37
f 31 22 37
f 20 3 38
f 17 25 38
f 25 20 38
f 3 20 39
f 31 10 39
f 20 31 39
f 12 9 40
f 9 20 40
f 25 12 40
f 20 25 40
f 28 5 41
f 11 28 41
f 5 29 41
f 23 3 42
f 10 34 42
f 34 23 42
f 3 39 42
f 39 10 42
f 3 17 43
f 38 3 43
f 17 38 43
f 22 11 44
f 21 22 44
f 29 21 44
f 11 41 44
f 41 29 44
f 14 5 45
f 18 14 45
f 5 28 45
f 28 18 45
f 11 7 46
f 18 11 46
