# Created by Open3D 
# object name: 55180008229841a9a6af3a35528ccdc6_collider0
# number of vertices: 64
# number of triangles: 124
v 0.002603 -0.002712 -0.025103
v -0.032633 -0.004501 -0.026203
v -0.032564 0.004465 -0.026136
v -0.034806 0.005533 0.00392
v -0.013707 -0.012323 0.003568
v -0.010868 0.013071 0.003299
v -0.017643 0.013288 -0.024995
v -0.009783 -0.013277 -0.025968
v -0.027527 -0.010379 0.003607
v -0.002137 -0.003385 0.00332
v -0.031814 0.011616 0.003955
v -0.008763 0.011355 -0.026034
v 0.000468 -0.009122 -0.02617
v -0.01961 -0.013281 -0.025973
v -0.035793 -0.004543 -0.007188
v -0.005705 0.009451 0.003719
v -0.03233 0.009304 -0.021989
v -0.024552 0.014311 0.00359
v -0.028364 -0.010235 -0.021942
v -0.003232 0.007211 -0.025624
v -0.026469 0.013242 -0.017099
v -0.034594 -0.005491 0.003738
v -0.035668 0.002488 -0.013216
v -0.006908 -0.009268 0.003423
v -0.001668 -0.01126 -0.025103
v -0.022586 -0.01236 0.003611
v -0.033504 0.0104 -0.011218
v -0.02361 0.01242 -0.026129
v -0.017642 0.014244 -0.015144
v -0.002119 0.000490999 0.003337
v -0.029337 -0.010234 -0.008294
v -0.031582 -0.007471 -0.02615
v 0.002603 -0.005919 -0.02617
v -0.014698 0.014258 0.003533
v -0.031696 0.008515 -0.026267
v -0.016661 -0.013339 -0.015166
v -0.034678 0.00149 -0.021232
v -0.035735 0.003503 -0.000171
v -0.03434 -0.006387 -0.01416
v -0.003998 -0.006333 0.003404
v -0.026452 -0.011258 -0.023943
v -0.033579 -0.006481 -0.021173
v -0.033551 0.007447 -0.020163
v -0.009955 -0.011034 0.003189
v -0.012773 0.013155 -0.015111
v -0.03357 0.01044 -0.005246
v -0.018632 0.014318 -0.015165
v -0.004184 0.008177 -0.025633
v -0.03548 0.004449 -0.010228
v -0.0031 0.003398 0.003326
v -0.015688 0.013209 -0.02491
v -0.023487 -0.012185 0.001456
v -0.032476 0.011368 0.002626
v -0.033675 0.000490999 -0.025237
v -0.033268 -0.007323 -0.006334
v -0.034642 -0.002507 -0.019212
v -0.007954 0.011145 0.003312
v -0.025549 -0.011369 -0.026044
v -0.029327 -0.010225 -0.006348
v -0.035763 0.001494 -0.000155
v -0.035735 0.001493 -0.013223
v -0.019611 -0.013287 -0.019087
v -0.029405 0.012256 -0.013175
v -0.011801 0.013152 -0.008297
f 45 34 64
f 13 8 14
f 4 5 16
f 11 4 16
f 16 1 20
f 5 8 25
f 8 13 25
f 5 4 26
f 4 22 26
f 22 9 26
f 21 17 27
f 7 12 28
f 21 7 28
f 17 21 28
f 10 1 30
f 16 10 30
f 2 13 32
f 1 10 33
f 20 1 33
f 12 20 33
f 11 16 34
f 16 6 34
f 18 11 34
f 2 3 35
f 13 2 35
f 28 12 35
f 17 28 35
f 33 13 35
f 12 33 35
f 8 5 36
f 14 8 36
f 5 26 36
f 19 31 39
f 16 5 40
f 10 16 40
f 5 24 40
f 25 13 40
f 24 25 40
f 33 10 40
f 13 33 40
f 31 19 41
f 19 32 41
f 2 32 42
f 32 19 42
f 39 15 42
f 19 39 42
f 27 17 43
f 17 35 43
f 37 23 43
f 35 37 43
f 24 5 44
f 5 25 44
f 25 24 44
f 29 34 45
f 38 4 46
f 7 21 47
f 21 18 47
f 18 34 47
f 34 29 47
f 20 12 48
f 16 20 48
f 23 38 49
f 27 43 49
f 43 23 49
f 46 27 49
f 38 46 49
f 1 16 50
f 30 1 50
f 16 30 50
f 12 7 51
f 45 12 51
f 29 45 51
f 7 47 51
f 47 29 51
f 26 9 52
f 41 14 52
f 31 41 52
f 4 11 53
f 11 18 53
f 46 4 53
f 27 46 53
f 3 2 54
f 35 3 54
f 37 35 54
f 2 42 54
f 22 15 55
f 15 39 55
f 39 31 55
f 42 15 56
f 37 54 56
f 54 42 56
f 12 6 57
f 6 16 57
f 48 12 57
f 16 48 57
f 13 14 58
f 32 13 58
f 14 41 58
f 41 32 58
f 9 22 59
f 52 9 59
f 31 52 59
f 22 55 59
f 55 31 59
f 22 4 60
f 15 22 60
f 4 38 60
f 60 38 61
f 23 37 61
f 38 23 61
f 56 15 61
f 37 56 61
f 15 60 61
f 14 36 62
f 36 26 62
f 52 14 62
f 26 52 62
f 18 21 63
f 21 27 63
f 53 18 63
f 27 53 63
f 6 12 64
f 34 6 64
f 12 45 64
