# Created by Open3D 
# object name: d91eae20c02a4741aeb889246b417ae4_collider6
# number of vertices: 26
# number of triangles: 48
v -0.143906 0.011366 0.041818
v -0.149132 -0.051298 -0.020893
v -0.149132 0.024421 -0.020893
v -0.132995 -0.023349 -0.026654
v -0.146518 -0.051298 0.169735
v -0.133462 -0.046071 0.172365
v -0.138688 0.029639 -0.018244
v -0.133706 -0.05 -0.017892
v -0.149132 -0.027789 0.135779
v -0.131763 -0.041287 0.117033
v -0.149132 -0.051298 0.156682
v -0.141297 -0.019953 0.125356
v -0.133799 -0.049504 0.168217
v -0.146518 0.032265 -0.018244
v -0.141297 0.02703 1.1e-05
v -0.146518 -0.043462 0.167125
v -0.131721 -0.03824 0.088476
v -0.146518 -0.022571 0.130577
v -0.141297 0.032265 -0.020893
v -0.143906 -0.051298 0.172365
v -0.149132 -0.043462 0.161904
v -0.146518 0.013975 0.033986
v -0.149132 0.011366 0.023525
v -0.143906 -0.040844 0.164514
v -0.138688 -0.017344 0.112284
v -0.149132 -0.02518 0.130577
f 14 23 26
f 2 3 4
f 2 4 8
f 3 2 9
f 7 6 10
f 2 5 11
f 9 2 11
f 10 6 13
f 8 10 13
f 6 7 15
f 1 12 15
f 4 7 17
f 8 4 17
f 7 10 17
f 10 8 17
f 12 1 18
f 9 16 18
f 4 3 19
f 7 4 19
f 3 14 19
f 15 7 19
f 14 15 19
f 5 2 20
f 2 8 20
f 13 6 20
f 8 13 20
f 16 5 20
f 6 16 20
f 11 5 21
f 9 11 21
f 5 16 21
f 16 9 21
f 1 15 22
f 15 14 22
f 18 1 22
f 3 9 23
f 14 3 23
f 6 12 24
f 16 6 24
f 12 18 24
f 18 16 24
f 12 6 25
f 6 15 25
f 15 12 25
f 9 18 26
f 22 14 26
f 18 22 26
f 23 9 26
