# Created by Open3D 
# object name: d91eae20c02a4741aeb889246b417ae4_collider4
# number of vertices: 20
# number of triangles: 36
v 0.012787 0.042711 -0.07312
v -0.018544 0.029653 -0.088794
v -0.018544 0.027043 -0.086178
v -0.021157 0.040096 -0.054848
v 0.027094 0.015971 -0.051365
v -0.028014 0.015782 -0.0511
v 0.020619 0.027043 -0.086178
v 0.021867 0.037031 -0.0533
v -0.015932 0.042711 -0.088794
v 0.018007 0.042711 -0.088794
v -0.021157 0.040096 -0.078345
v 0.027399 0.024123 -0.051151
v 0.020619 0.040096 -0.054848
v -0.027882 0.021372 -0.051193
v 0.020619 0.040096 -0.086178
v 0.025845 0.016595 -0.054848
v 0.018007 0.029653 -0.088794
v -0.010712 0.042711 -0.07312
v -0.022204 0.036963 -0.053461
v -0.026387 0.016595 -0.054848
f 16 6 20
f 2 3 6
f 3 2 7
f 9 1 10
f 2 9 10
f 2 6 11
f 4 9 11
f 9 2 11
f 6 5 12
f 5 7 12
f 1 4 13
f 4 8 13
f 10 1 13
f 8 12 13
f 11 6 14
f 4 11 14
f 6 12 14
f 7 10 15
f 12 7 15
f 10 13 15
f 13 12 15
f 5 6 16
f 3 7 16
f 7 5 16
f 7 2 17
f 2 10 17
f 10 7 17
f 4 1 18
f 1 9 18
f 9 4 18
f 8 4 19
f 12 8 19
f 4 14 19
f 14 12 19
f 6 3 20
f 3 16 20
