# Created by Open3D 
# object name: d91eae20c02a4741aeb889246b417ae4_collider0
# number of vertices: 20
# number of triangles: 36
v -0.000271 0.047931 -0.122756
v 0.015397 0.029655 -0.104474
v 0.01801 0.029655 -0.104474
v 0.007565 0.037489 -0.172365
v 0.015397 0.050544 -0.164521
v 0.01801 0.042708 -0.08881
v -0.000271 0.034878 -0.08881
v -0.000271 0.040099 -0.172365
v 0.01801 0.037489 -0.159294
v -0.000271 0.050544 -0.164521
v -0.000271 0.042708 -0.08881
v 0.01801 0.029655 -0.08881
v 0.002341 0.037489 -0.172365
v 0.015397 0.050544 -0.148848
v 0.01801 0.047931 -0.159294
v 0.007565 0.050544 -0.172365
v 0.012786 0.045319 -0.099247
v 0.015397 0.037489 -0.16713
v -0.000271 0.034878 -0.104474
v 0.012786 0.029655 -0.094029
f 7 19 20
f 3 2 4
f 7 1 8
f 6 3 9
f 8 1 10
f 1 7 11
f 7 6 11
f 2 3 12
f 3 6 12
f 6 7 12
f 4 2 13
f 8 4 13
f 10 1 14
f 5 10 14
f 6 9 15
f 5 14 15
f 14 6 15
f 4 8 16
f 10 5 16
f 8 10 16
f 1 11 17
f 11 6 17
f 6 14 17
f 14 1 17
f 3 4 18
f 9 3 18
f 5 15 18
f 15 9 18
f 4 16 18
f 16 5 18
f 7 8 19
f 8 13 19
f 19 13 20
f 2 12 20
f 12 7 20
f 13 2 20
