# Created by Open3D 
# object name: d91eae20c02a4741aeb889246b417ae4_collider3
# number of vertices: 17
# number of triangles: 30
v -0.14129 0.034864 -0.023508
v -0.149132 -0.051297 -0.041781
v -0.146513 -0.051297 -0.044397
v -0.082229 -0.05 -0.021241
v -0.082896 0.035319 -0.043823
v -0.143901 0.034864 -0.044397
v -0.084039 -0.047633 -0.043427
v -0.147189 -0.048757 -0.02157
v -0.081237 0.034864 -0.033948
v -0.138678 0.032256 -0.020897
v -0.081237 -0.025181 -0.020897
v -0.146524 0.022012 -0.0218
v -0.143901 0.037488 -0.041781
v -0.146513 0.016587 -0.044397
v -0.14129 0.037488 -0.031342
v -0.136066 0.037488 -0.044397
v -0.146448 0.02435 -0.03625
f 14 2 17
f 2 3 4
f 4 3 7
f 3 5 7
f 2 4 8
f 7 5 9
f 9 1 10
f 9 10 11
f 4 7 11
f 8 4 11
f 7 9 11
f 10 8 11
f 2 8 12
f 8 10 12
f 10 1 12
f 12 1 13
f 3 2 14
f 6 3 14
f 13 6 14
f 1 9 15
f 9 5 15
f 13 1 15
f 13 15 16
f 5 3 16
f 3 6 16
f 6 13 16
f 15 5 16
f 2 12 17
f 12 13 17
f 13 14 17
