# Created by Open3D 
# object name: d91eae20c02a4741aeb889246b417ae4_collider2
# number of vertices: 14
# number of triangles: 24
v -0.135252 -0.027565 -0.017476
v 0.044126 -0.046081 0.172365
v 0.044126 -0.051306 0.172365
v 0.048476 -0.027226 -0.022849
v -0.133462 -0.051306 -0.020893
v -0.133462 -0.051306 0.172365
v 0.044126 -0.051306 -0.020893
v -0.137918 -0.038186 0.116859
v 0.044126 -0.038251 0.112284
v -0.133462 -0.046081 0.172365
v -0.089664 -0.026894 -0.022686
v -0.136745 -0.035493 0.089271
v 0.044126 -0.035638 0.083549
v -0.133518 -0.027794 -0.020954
f 11 5 14
f 2 3 4
f 5 3 6
f 3 2 6
f 4 3 7
f 5 4 7
f 3 5 7
f 1 5 8
f 5 6 8
f 2 4 9
f 8 2 9
f 6 2 10
f 2 8 10
f 8 6 10
f 4 5 11
f 1 8 12
f 8 9 12
f 11 1 12
f 4 11 12
f 9 4 13
f 4 12 13
f 12 9 13
f 5 1 14
f 1 11 14
