# Created by Open3D 
# object name: e69cc5f09157437596af827e25d6acd7_collider0
# number of vertices: 64
# number of triangles: 124
v 0.013861 -0.002125 0.031999
v -0.006418 -0.002133 -0.034258
v -0.006418 0.002133 -0.034258
v -0.033147 -0.003202 0.010692
v -0.004441 0.035556 0.005555
v 0.027773 -0.022219 -0.008882
v -0.011109 -0.034442 0.004441
v 0.026667 0.022212 -0.012216
v -0.017778 0.024432 -0.021105
v -0.017778 -0.024439 -0.021105
v -0.013867 0.002125 0.031997
v 0.025553 0.022212 0.014444
v 0.017771 -0.024439 0.021105
v -0.017778 0.024432 0.021105
v 0.012216 -0.022219 -0.026667
v -0.012223 -0.022219 0.026667
v 0.033149 -0.003202 0.010686
v -0.03076 0.007424 -0.014849
v 0.014437 0.022212 -0.025553
v 0.004441 0.023332 0.027773
v 0.027626 -0.002117 -0.021248
v 0.009996 -0.034442 -0.006661
v -0.027773 0.023332 0.004441
v -0.027773 -0.023332 0.004441
v 0.009996 0.034442 -0.006661
v 0.013861 0.002125 -0.031999
v -0.02984 -0.006383 -0.017054
v 0.034249 0.004278 -0.005344
v 0.008889 -0.033328 0.012216
v -0.008889 0.033328 -0.012216
v 0.016664 0.031108 0.009996
v -0.021248 0.002117 -0.027626
v -0.027623 -0.002117 0.021252
v 0.026667 -0.024439 0.005555
v -0.004441 0.023332 -0.027773
v -0.004441 -0.032221 -0.016664
v 0.00214 -0.006412 0.03426
v 0.023333 0.005297 0.02546
v -0.008889 -0.022219 -0.027773
v 0.008889 -0.022219 0.027773
v -0.025553 -0.022219 0.014444
v -0.034258 -0.002133 -0.006418
v -0.025553 -0.024439 -0.009996
v -0.003203 0.010693 0.033152
v -0.007775 -0.031108 0.017778
v 0.02434 -0.011636 0.022225
v -0.018892 0.031108 0.003327
v -0.027773 0.022212 -0.008889
v -0.031901 0.010634 0.009568
v -0.004441 0.032221 0.016664
v 0.012216 0.022212 0.026667
v 0.007775 0.031108 -0.017778
v 0.027773 0.023325 0.004434
v 0.033154 -0.010687 -0.003203
v 0.003209 -0.010693 -0.033152
v 0.004278 0.005344 -0.034247
v 0.027607 0.00743 -0.020169
v 0.021105 -0.024439 -0.017778
v -0.017778 -0.031108 -0.007775
v -0.020169 -0.00743 -0.027607
v -0.008889 0.022212 0.027773
v -0.022221 0.011638 0.024343
v 0.031888 0.009564 0.010623
v -0.03426 0.006412 -0.00214
f 4 49 64
f 21 15 26
f 7 22 29
f 5 25 30
f 25 5 31
f 3 2 32
f 18 9 32
f 27 18 32
f 16 11 33
f 22 6 34
f 13 29 34
f 29 22 34
f 9 30 35
f 3 32 35
f 32 9 35
f 22 7 36
f 15 22 36
f 11 16 37
f 36 10 39
f 15 36 39
f 29 13 40
f 1 37 40
f 37 16 40
f 24 7 41
f 4 24 41
f 16 33 41
f 33 4 41
f 24 4 42
f 18 27 42
f 42 27 43
f 27 10 43
f 24 42 43
f 37 1 44
f 11 37 44
f 7 29 45
f 29 40 45
f 40 16 45
f 41 7 45
f 16 41 45
f 34 17 46
f 13 34 46
f 38 1 46
f 17 38 46
f 1 40 46
f 40 13 46
f 23 14 47
f 5 30 47
f 47 30 48
f 9 18 48
f 30 9 48
f 23 47 48
f 14 23 49
f 4 33 49
f 31 5 50
f 5 47 50
f 47 14 50
f 12 31 51
f 1 38 51
f 38 12 51
f 44 1 51
f 20 44 51
f 50 20 51
f 31 50 51
f 8 19 52
f 25 8 52
f 30 25 52
f 19 35 52
f 35 30 52
f 8 25 53
f 28 8 53
f 31 12 53
f 25 31 53
f 6 21 54
f 28 17 54
f 21 28 54
f 34 6 54
f 17 34 54
f 26 15 55
f 39 2 55
f 15 39 55
f 2 3 56
f 19 26 56
f 35 19 56
f 3 35 56
f 55 2 56
f 26 55 56
f 19 8 57
f 26 19 57
f 21 26 57
f 8 28 57
f 28 21 57
f 15 21 58
f 21 6 58
f 6 22 58
f 22 15 58
f 7 24 59
f 36 7 59
f 10 36 59
f 24 43 59
f 43 10 59
f 10 27 60
f 32 2 60
f 27 32 60
f 2 39 60
f 39 10 60
f 11 44 61
f 44 20 61
f 50 14 61
f 20 50 61
f 33 11 62
f 14 49 62
f 49 33 62
f 11 61 62
f 61 14 62
f 17 28 63
f 12 38 63
f 38 17 63
f 53 12 63
f 28 53 63
f 42 4 64
f 18 42 64
f 48 18 64
f 23 48 64
f 49 23 64
