# Created by Open3D 
# object name: fb95c7cd06bd4ed3b056e2dde34d7295_collider0
# number of vertices: 64
# number of triangles: 124
v -0.020254 -0.00187505 -0.003796
v 0.020271 0.00191295 0.003796
v 0.019636 0.00508195 0.004431
v 0.005074 0.00444795 -0.019628
v 0.003809 -0.0202361 -0.001896
v -0.003787 0.0114129 0.017093
v -0.003787 0.0196429 -0.005696
v -0.001887 -0.0107401 0.017728
v -0.010122 -0.00441005 -0.017728
v 0.012036 -0.0101051 -0.013928
v -0.015819 -0.0126401 0.005066
v -0.017084 0.00634695 0.010131
v 0.013305 -0.00947505 0.013297
v 0.014571 0.0139429 -0.005696
v 0.010136 0.0120429 0.013928
v -0.013919 0.0114129 -0.010762
v -0.010122 -0.0158051 -0.009497
v 0.019002 -0.00630905 -0.005696
v -0.003787 0.0196429 0.005696
v 0.008236 0.00191295 0.018993
v -0.009488 -0.00251005 0.018362
v -0.002522 -0.0196051 0.006331
v 0.001909 -0.0126401 -0.016462
v 0.017106 0.00381295 -0.011397
v -0.001257 0.0126779 -0.016462
v -0.015184 0.0139429 0.003166
v 0.013305 -0.0158051 0.003166
v 0.009505 0.0183779 0.002531
v 0.008871 0.0152119 -0.011397
v -0.015184 -0.00884005 0.011397
v 0.005705 -0.0177051 0.009497
v 0.016471 0.00191295 0.012662
v -0.010122 0.00444795 -0.017728
v -0.017719 -0.00441005 -0.010131
v 0.018371 -0.00757505 0.006327
v 0.010136 -0.0164401 -0.008231
v 0.001274 -0.00377505 -0.020263
v -0.010122 0.0120429 0.013928
v -0.019619 0.00634695 -0.002531
v -0.019619 -0.00251005 0.006331
v 0.003174 -0.00251005 0.020263
v -0.004422 -0.0196051 -0.005066
v -0.008222 -0.0145401 0.012662
v 0.003809 0.0171079 0.011397
v 0.015836 0.0114129 0.007596
v -0.01835 -0.00947505 -0.003166
v -0.010753 -0.0177051 0.001896
v 0.010136 -0.00441005 -0.017728
v -0.016449 0.00191295 -0.012662
v 0.005074 0.0196429 -0.004431
v -0.002522 0.00634695 0.019628
v 0.011405 0.00887795 -0.015193
v -0.012653 0.0164779 -0.001896
v 0.019002 0.00761695 -0.003796
v -0.014553 0.00381295 0.014562
v 0.007605 -0.00947505 0.017093
v 0.00254 -0.0177051 -0.010762
v -0.007588 -0.0113751 -0.015828
v -0.008853 0.0152119 -0.011397
v -0.003787 0.00191295 -0.020263
v 0.017106 -0.0113751 -0.003796
v 0.00444 0.0101469 0.017728
v 0.001909 0.0177429 -0.010762
v -0.007588 0.0171079 0.009497
f 53 26 64
f 18 10 24
f 22 5 31
f 5 27 31
f 27 13 31
f 2 3 32
f 20 13 32
f 15 20 32
f 18 2 35
f 13 27 35
f 2 32 35
f 32 13 35
f 23 10 36
f 27 5 36
f 26 12 38
f 12 26 39
f 11 30 40
f 39 1 40
f 12 39 40
f 21 8 41
f 5 22 42
f 8 21 43
f 30 11 43
f 21 30 43
f 31 8 43
f 22 31 43
f 15 28 44
f 28 19 44
f 14 28 45
f 28 15 45
f 32 3 45
f 15 32 45
f 1 34 46
f 34 17 46
f 40 1 46
f 11 40 46
f 17 42 47
f 42 22 47
f 43 11 47
f 22 43 47
f 11 46 47
f 46 17 47
f 10 23 48
f 24 10 48
f 37 4 48
f 23 37 48
f 33 9 49
f 16 33 49
f 34 1 49
f 9 34 49
f 1 39 49
f 39 16 49
f 7 19 50
f 28 14 50
f 19 28 50
f 14 29 50
f 6 38 51
f 41 20 51
f 21 41 51
f 14 24 52
f 4 25 52
f 29 14 52
f 25 29 52
f 48 4 52
f 24 48 52
f 19 7 53
f 39 26 53
f 16 39 53
f 3 2 54
f 2 18 54
f 24 14 54
f 18 24 54
f 45 3 54
f 14 45 54
f 30 21 55
f 38 12 55
f 40 30 55
f 12 40 55
f 51 38 55
f 21 51 55
f 13 20 56
f 8 31 56
f 31 13 56
f 41 8 56
f 20 41 56
f 23 36 57
f 36 5 57
f 42 17 57
f 5 42 57
f 34 9 58
f 17 34 58
f 9 37 58
f 37 23 58
f 57 17 58
f 23 57 58
f 33 16 59
f 25 33 59
f 53 7 59
f 16 53 59
f 25 4 60
f 9 33 60
f 33 25 60
f 4 37 60
f 37 9 60
f 10 18 61
f 18 35 61
f 35 27 61
f 36 10 61
f 27 36 61
f 20 15 62
f 44 6 62
f 15 44 62
f 6 51 62
f 51 20 62
f 29 25 63
f 7 50 63
f 50 29 63
f 59 7 63
f 25 59 63
f 38 6 64
f 26 38 64
f 6 44 64
f 44 19 64
f 19 53 64
