# Created by Open3D 
# object name: 556bcb16c03841e58f331792637b14b8_collider1
# number of vertices: 64
# number of triangles: 124
v -0.021036 -0.133143 -0.040322
v 0.005511 0.0315 0.044447
v 0.017665 0.031401 0.041955
v -0.011629 0.037288 -0.041131
v 0.044574 -0.131734 -0.009088
v -0.033059 -0.133065 0.031933
v -0.045704 0.029302 -0.001781
v 0.031952 0.028271 -0.033076
v 0.01777 -0.134348 0.04222
v 0.041956 0.031409 0.017658
v 0.017813 -0.136993 -0.040994
v -0.041237 -0.139988 -0.009187
v -0.028781 0.039569 0.030117
v -0.032798 0.025212 -0.032794
v 0.04006 -0.139878 0.015438
v 0.02269 0.046679 -0.009115
v -0.011485 -0.128867 0.044341
v -0.006791 -0.148366 0.020598
v 0.003072 0.028896 -0.045479
v 0.0443 0.028801 -0.009037
v -0.043109 -0.129011 0.01766
v -0.033076 0.028284 0.03195
v -0.042615 -0.128094 -0.018571
v 0.033986 -0.12268 0.031606
v 0.010635 -0.14831 -0.019211
v -0.033925 0.042697 -0.016615
v 0.034412 -0.130813 -0.030704
v -0.018734 0.028782 0.04186
v 0.010419 0.046417 0.022619
v 0.000652 -0.134257 -0.045747
v -0.018535 0.023135 -0.042518
v 0.044107 -0.128462 0.012714
v 0.017714 -0.070706 -0.043191
v -0.042825 0.026057 0.017538
v 0.031604 0.017906 0.033988
v -0.016672 -0.145467 -0.029079
v 0.015559 0.043032 -0.034042
v 0.041183 0.017991 -0.020834
v -0.045744 -0.134264 0.000660004
v -0.042521 0.023136 -0.01853
v -0.032986 -0.128067 -0.032982
v 0.03046 -0.145547 -0.014207
v -0.023786 0.046623 -0.00422
v -0.016654 -0.142891 0.035354
v 0.018043 -0.145524 0.027974
v 0.035339 0.042856 0.013053
v -0.031598 -0.145604 0.010611
v 0.037736 0.040182 -0.016618
v 0.017556 0.026056 -0.042822
v -0.014155 0.042738 0.035295
v 0.010369 -0.131391 0.044387
v -0.02083 -0.12515 0.041186
v 0.044446 0.031503 0.00551
v -0.03643 0.042785 0.008096
v 0.017841 0.039529 0.037461
v -0.004227 0.046621 -0.02379
v 0.041791 -0.133507 -0.018709
v -0.018575 -0.128093 -0.042611
v -0.019238 -0.148425 -0.009279
v -0.00422 0.031798 0.044612
v 0.020613 -0.148398 0.005655
v -0.006597 0.023585 -0.045196
v 0.041623 -0.130771 0.019925
v 0.015504 -0.142712 -0.036407
f 57 42 64
f 21 6 22
f 4 14 26
f 13 22 28
f 14 4 31
f 15 5 32
f 8 27 33
f 27 11 33
f 30 19 33
f 11 30 33
f 22 13 34
f 21 22 34
f 3 9 35
f 10 3 35
f 9 24 35
f 12 1 36
f 1 30 36
f 19 4 37
f 20 5 38
f 27 8 38
f 23 12 39
f 7 23 39
f 34 7 39
f 21 34 39
f 23 7 40
f 7 26 40
f 26 14 40
f 1 12 41
f 12 23 41
f 14 31 41
f 40 14 41
f 23 40 41
f 29 16 43
f 17 6 44
f 15 9 45
f 9 44 45
f 44 18 45
f 16 29 46
f 6 21 47
f 39 12 47
f 21 39 47
f 44 6 47
f 18 44 47
f 8 37 48
f 37 16 48
f 20 38 48
f 38 8 48
f 16 46 48
f 8 33 49
f 33 19 49
f 19 37 49
f 37 8 49
f 13 28 50
f 29 43 50
f 3 2 51
f 9 3 51
f 44 9 51
f 17 44 51
f 6 17 52
f 22 6 52
f 17 28 52
f 28 22 52
f 5 20 53
f 32 5 53
f 10 32 53
f 46 10 53
f 20 48 53
f 48 46 53
f 26 7 54
f 7 34 54
f 34 13 54
f 43 26 54
f 13 50 54
f 50 43 54
f 2 3 55
f 3 10 55
f 10 46 55
f 46 29 55
f 29 50 55
f 4 26 56
f 37 4 56
f 16 37 56
f 26 43 56
f 43 16 56
f 5 15 57
f 38 5 57
f 27 38 57
f 15 42 57
f 30 1 58
f 1 41 58
f 41 31 58
f 12 36 59
f 36 25 59
f 47 12 59
f 18 47 59
f 28 17 60
f 50 28 60
f 51 2 60
f 17 51 60
f 2 55 60
f 55 50 60
f 42 15 61
f 25 42 61
f 15 45 61
f 45 18 61
f 18 59 61
f 59 25 61
f 4 19 62
f 19 30 62
f 31 4 62
f 30 58 62
f 58 31 62
f 9 15 63
f 24 9 63
f 15 32 63
f 32 10 63
f 10 35 63
f 35 24 63
f 11 27 64
f 30 11 64
f 25 36 64
f 36 30 64
f 42 25 64
f 27 57 64
