# Created by Open3D 
# object name: 710100865395435cacb3bcf6514cb495_collider1
# number of vertices: 64
# number of triangles: 124
v 0.002795 -0.136337 -0.044984
v 0.005211 0.0391698 0.046426
v -0.006805 0.0389698 0.046305
v -0.009234 0.0463888 -0.042688
v -0.040245 -0.13589 0.00782301
v 0.038531 -0.13557 0.014947
v 0.040434 0.0303788 -0.018197
v -0.042386 0.0333838 -0.011229
v -0.009281 -0.144333 0.041815
v -0.028061 -0.137475 -0.032557
v 0.034078 0.0439168 0.024721
v -0.030618 0.0408518 0.031677
v 0.034141 -0.143916 -0.021025
v -0.014129 0.0686548 -0.016269
v 0.01705 0.0334548 -0.044556
v 0.021832 -0.133123 0.038754
v 0.019708 0.0683438 -0.00656599
v -0.016359 0.0339198 -0.044838
v -0.002014 0.0686048 0.022444
v 0.000399 -0.15124 -0.039613
v -0.025477 -0.129632 0.035927
v 0.025602 -0.15124 0.028448
v 0.024034 -0.132438 -0.037182
v -0.03987 0.0331528 0.019595
v -0.033967 -0.148312 0.00804601
v 0.043441 0.0338178 0.00303901
v 0.031211 0.0331978 0.033836
v 0.040668 -0.127879 -0.00882299
v -0.030302 0.0329378 -0.034791
v -0.03751 -0.135005 -0.018306
v -0.001977 -0.114101 0.045926
v -0.033483 0.0540958 0.00792501
v -0.016228 -0.132896 -0.042114
v -0.018683 0.0336448 0.043592
v 0.035777 0.0328328 -0.027663
v 0.012377 0.0339448 0.04617
v 0.012471 0.0538458 -0.035543
v -0.009181 0.0339398 -0.047246
v -0.032917 -0.135438 0.02683
v 0.040735 0.0332578 0.017251
v 0.033525 -0.132537 0.026673
v 0.035701 -0.129674 -0.022897
v -0.033327 0.0488398 -0.021016
v 0.018042 -0.15124 -0.03457
v 0.022048 0.0535108 0.029526
v -0.042655 0.0338398 0.010217
v 0.012303 -0.133089 0.043502
v 0.034166 0.0513618 -0.013801
v -0.026576 -0.148199 -0.026289
v -0.030502 0.0357878 0.033935
v -0.01377 -0.127585 0.043139
v 0.007616 0.0342928 -0.047472
v -0.018828 0.0678838 0.01027
v -0.037134 0.0301108 -0.025168
v 0.009882 -0.130333 -0.044402
v -0.040331 -0.136095 -0.00652299
v 0.040728 -0.130387 0.00775601
v 0.019648 0.0680098 0.00787501
v 0.034748 -0.14826 -0.00421199
v -0.014112 0.0491458 0.039356
v 0.00765 0.0685168 -0.021086
v -0.021683 -0.148282 0.030139
v 0.02687 0.0487428 -0.030623
v 0.03655 0.0488728 0.012711
f 58 45 64
f 20 22 25
f 7 26 28
f 4 18 29
f 2 3 31
f 24 12 32
f 1 20 33
f 20 10 33
f 10 29 33
f 29 18 33
f 31 3 34
f 23 15 35
f 16 27 36
f 2 31 36
f 18 4 38
f 1 33 38
f 33 18 38
f 24 5 39
f 5 25 39
f 11 27 40
f 40 27 41
f 22 6 41
f 16 22 41
f 27 16 41
f 6 40 41
f 13 23 42
f 7 28 42
f 28 13 42
f 35 7 42
f 23 35 42
f 14 4 43
f 4 29 43
f 8 32 43
f 32 14 43
f 20 1 44
f 22 20 44
f 23 13 44
f 19 2 45
f 27 11 45
f 2 36 45
f 36 27 45
f 5 24 46
f 32 8 46
f 24 32 46
f 9 22 47
f 22 16 47
f 31 9 47
f 16 36 47
f 36 31 47
f 26 7 48
f 7 35 48
f 10 20 49
f 20 25 49
f 30 10 49
f 12 24 50
f 34 12 50
f 21 34 50
f 39 21 50
f 24 39 50
f 21 9 51
f 9 31 51
f 34 21 51
f 31 34 51
f 4 37 52
f 37 15 52
f 1 38 52
f 38 4 52
f 19 14 53
f 14 32 53
f 32 12 53
f 29 10 54
f 30 8 54
f 10 30 54
f 8 43 54
f 43 29 54
f 15 23 55
f 44 1 55
f 23 44 55
f 1 52 55
f 52 15 55
f 25 5 56
f 8 30 56
f 5 46 56
f 46 8 56
f 49 25 56
f 30 49 56
f 28 26 57
f 40 6 57
f 26 40 57
f 17 19 58
f 19 45 58
f 6 22 59
f 13 28 59
f 44 13 59
f 22 44 59
f 57 6 59
f 28 57 59
f 3 2 60
f 2 19 60
f 34 3 60
f 12 34 60
f 53 12 60
f 19 53 60
f 4 14 61
f 14 19 61
f 19 17 61
f 37 4 61
f 9 21 62
f 22 9 62
f 25 22 62
f 21 39 62
f 39 25 62
f 35 15 63
f 15 37 63
f 17 48 63
f 48 35 63
f 61 17 63
f 37 61 63
f 40 26 64
f 11 40 64
f 45 11 64
f 48 17 64
f 26 48 64
f 17 58 64
