# Created by Open3D 
# object name: 709637f8bf82422c9f8f591e1356ad82_collider0
# number of vertices: 64
# number of triangles: 124
v 0.015333 0.098018 0.0122693
v -0.009132 -0.097807 -0.0182787
v 0.009186 -0.097737 -0.0182657
v -0.006101 -0.018365 0.0980483
v -0.094233 0.01823 -0.0273287
v 0.075771 0.012113 -0.0635927
v 0.088186 -0.009104 0.0456053
v -0.015288 0.012239 -0.0979657
v -0.075905 0.009077 0.0638123
v -0.075772 -0.063674 -0.0120927
v -0.012092 -0.075752 0.0636653
v 0.015194 0.054628 0.0819583
v -0.05168 0.085165 -0.0030037
v 0.054694 -0.063789 -0.0546477
v -0.012101 0.075812 -0.0636627
v 0.075801 0.063645 -0.0120717
v -0.036226 -0.05438 -0.0754967
v 0.057322 -0.066355 0.0482953
v 0.097852 -0.018329 -0.0091287
v -0.039187 0.060314 0.0693913
v 0.0605 0.048392 0.0635383
v -0.075466 -0.03623 0.0543813
v -0.063505 0.03327 -0.0695667
v 0.039231 0.069405 -0.0603037
v 0.030543 -0.009122 -0.0945827
v 0.042596 -0.018239 0.0882463
v -0.094414 0.024373 0.0213453
v -0.072724 -0.015157 -0.0666417
v 0.075781 -0.063647 0.0121213
v -0.048422 -0.081731 0.0302793
v 0.003047 -0.060764 -0.0789747
v -0.097769 -0.018321 -0.0091247
v 0.094573 0.030499 0.0091603
v 0.021338 -0.09443 0.0243973
v 0.030294 0.036325 -0.0877787
v -0.030473 0.009114 0.0945463
v -0.069407 0.066403 -0.0271327
v -0.003008 0.085138 0.0517113
v 0.054364 0.075473 0.0362303
v -0.06954 0.063517 0.0332633
v -0.045702 -0.039631 0.0792883
v 0.018279 0.094305 -0.0273427
v 0.024202 -0.060444 0.0755813
v 0.075521 -0.036218 -0.0543387
v 0.024401 0.021326 0.0944733
v -0.048493 -0.072771 -0.0484877
v 0.063687 -0.075785 -0.0120917
v -0.027368 -0.018253 -0.0943267
v 0.087833 0.030277 -0.0363017
v -0.030333 0.091062 0.0273373
v -0.021311 0.094496 -0.0243617
v -0.091005 -0.030342 0.0273273
v -0.003009 -0.085156 -0.0516687
v -0.030489 -0.09459 0.0091643
v 0.069679 0.015143 0.0696863
v -0.072742 -0.048522 -0.0484957
v -0.027286 0.054632 -0.0788887
v 0.045622 0.088175 -0.0090787
v 0.048489 -0.0303 -0.0817797
v 0.069565 -0.033248 0.0635283
v -0.048466 0.072731 -0.0484607
v 0.066394 0.048283 -0.0572927
v 0.081748 0.048411 0.0302713
v -0.085124 0.05167 2.62955e-05
f 40 13 64
f 5 23 28
f 19 7 29
f 27 5 32
f 5 28 32
f 7 19 33
f 2 3 34
f 29 18 34
f 15 24 35
f 6 25 35
f 25 8 35
f 20 9 36
f 12 20 36
f 23 5 37
f 20 12 38
f 12 21 39
f 1 38 39
f 38 12 39
f 9 20 40
f 27 9 40
f 11 4 41
f 9 22 41
f 30 11 41
f 22 30 41
f 4 36 41
f 36 9 41
f 24 15 42
f 4 11 43
f 26 4 43
f 11 34 43
f 34 18 43
f 6 19 44
f 21 12 45
f 4 26 45
f 36 4 45
f 12 36 45
f 3 14 47
f 19 29 47
f 34 3 47
f 29 34 47
f 44 19 47
f 14 44 47
f 23 8 48
f 8 25 48
f 17 28 48
f 28 23 48
f 31 17 48
f 25 31 48
f 19 6 49
f 16 33 49
f 33 19 49
f 38 1 50
f 20 38 50
f 40 20 50
f 13 40 50
f 1 42 51
f 42 15 51
f 50 1 51
f 13 50 51
f 22 9 52
f 9 27 52
f 10 30 52
f 30 22 52
f 32 10 52
f 27 32 52
f 3 2 53
f 14 3 53
f 31 14 53
f 17 31 53
f 2 46 53
f 46 17 53
f 30 10 54
f 11 30 54
f 2 34 54
f 34 11 54
f 46 2 54
f 10 46 54
f 21 45 55
f 45 26 55
f 28 17 56
f 10 32 56
f 32 28 56
f 46 10 56
f 17 46 56
f 8 23 57
f 35 8 57
f 15 35 57
f 16 24 58
f 1 39 58
f 39 16 58
f 42 1 58
f 24 42 58
f 25 6 59
f 14 31 59
f 31 25 59
f 6 44 59
f 44 14 59
f 29 7 60
f 18 29 60
f 26 43 60
f 43 18 60
f 7 55 60
f 55 26 60
f 37 13 61
f 23 37 61
f 13 51 61
f 51 15 61
f 57 23 61
f 15 57 61
f 24 16 62
f 6 35 62
f 35 24 62
f 49 6 62
f 16 49 62
f 33 16 63
f 7 33 63
f 16 39 63
f 39 21 63
f 55 7 63
f 21 55 63
f 5 27 64
f 13 37 64
f 37 5 64
f 27 40 64
