# Created by Open3D 
# object name: e17f4ab5adcd43a8a2e88601fc21f4ee_collider0
# number of vertices: 64
# number of triangles: 124
v 0.001635 0.00840044 0.03673
v 0.005486 0.00457344 0.036711
v 0.013993 0.126005 -0.014234
v 0.032436 -0.0706776 -0.008082
v -0.031079 -0.0706776 0.012391
v -0.016733 0.126005 0.004197
v 0.016041 0.123945 0.012391
v -0.000283 0.0103734 -0.03645
v 0.018097 -0.0706776 0.028787
v 0.036088 0.00663144 0.01158
v -0.032508 0.00682144 -0.015065
v 0.02998 0.00877044 -0.022577
v 0.007848 -0.0706776 -0.032672
v -0.030591 0.00494744 0.019055
v -0.012636 0.123945 -0.014234
v -0.012636 -0.0706776 0.030837
v -0.004442 0.123945 0.018542
v 0.024333 0.00686744 0.028488
v -0.017357 0.00299244 -0.032181
v -0.026975 -0.0706776 -0.020385
v 0.035879 0.0143714 -0.009401
v -0.015413 0.0125294 0.032298
v 0.018714 0.00869344 -0.032167
v -0.034695 0.0123834 0.005829
v 0.020146 0.123945 -0.001931
v 0.030388 -0.0706776 0.014441
v -0.033127 -0.0706776 -0.003989
v 0.007848 0.123945 -0.018334
v 0.018097 -0.0706776 -0.028579
v 0.009896 0.126005 0.016492
v -0.006491 -0.0706776 -0.032672
v -0.014684 0.126005 0.010348
v -0.020829 -0.0706776 0.026729
v -0.004442 0.123945 -0.018334
v -0.02477 0.00694144 -0.026291
v -0.034737 0.0123654 -0.005628
v 0.005792 -0.0706776 0.03288
v 0.03007 0.00493444 0.022854
v 0.036577 -0.0208256 0.002038
v -0.024865 0.00307544 0.026599
v -0.016733 0.123945 -0.006032
v -0.004155 -0.00712956 0.036853
v 0.030263 -0.00667556 -0.022796
v 0.007412 0.00459844 -0.036464
v 0.018689 0.00683144 0.032331
v 0.018097 0.123945 -0.010133
v -0.034908 -0.00885556 0.009721
v -0.020829 -0.0706776 -0.026521
v 0.036316 -0.00698856 -0.011446
v 0.028339 -0.0706776 -0.018334
v -0.006067 -0.00702156 -0.036532
v -0.034953 -0.00890156 -0.009525
v 0.035952 0.0200594 0.003912
v 0.018097 0.126005 0.00829
v 0.005792 0.123945 0.018542
v -0.009743 0.0163094 -0.034016
v -0.015587 -0.0163416 0.032645
v 0.018847 -0.00864356 -0.032406
v -0.026975 -0.0706776 0.020593
v 0.013159 -0.0126466 0.034677
v -0.009779 0.0143764 0.03434
v 0.030185 -0.00468956 0.022943
v -0.010588 0.126005 0.014441
v 0.032436 -0.0706776 0.00829
f 39 10 64
f 5 4 9
f 4 5 13
f 6 3 15
f 5 9 16
f 13 5 20
f 3 12 23
f 9 4 26
f 20 5 27
f 3 23 28
f 4 13 29
f 3 6 30
f 18 7 30
f 13 20 31
f 6 24 32
f 24 14 32
f 30 6 32
f 5 16 33
f 15 3 34
f 3 28 34
f 28 8 34
f 11 15 35
f 15 19 35
f 20 11 35
f 24 6 36
f 16 9 37
f 7 18 38
f 32 14 40
f 6 15 41
f 15 11 41
f 36 6 41
f 11 36 41
f 2 1 42
f 37 2 42
f 16 37 42
f 23 12 43
f 8 28 44
f 28 23 44
f 9 18 45
f 18 30 45
f 12 3 46
f 21 12 46
f 3 25 46
f 25 21 46
f 14 24 47
f 27 5 47
f 24 36 47
f 31 20 48
f 35 19 48
f 20 35 48
f 12 21 49
f 39 4 49
f 43 12 49
f 43 49 50
f 4 29 50
f 29 43 50
f 49 4 50
f 13 31 51
f 44 13 51
f 8 44 51
f 48 19 51
f 31 48 51
f 11 20 52
f 20 27 52
f 36 11 52
f 27 47 52
f 47 36 52
f 21 25 53
f 10 39 53
f 49 21 53
f 39 49 53
f 25 3 54
f 3 30 54
f 30 7 54
f 7 38 54
f 38 10 54
f 10 53 54
f 53 25 54
f 1 2 55
f 17 1 55
f 30 17 55
f 2 45 55
f 45 30 55
f 19 15 56
f 15 34 56
f 34 8 56
f 8 51 56
f 51 19 56
f 33 16 57
f 22 40 57
f 40 33 57
f 42 22 57
f 16 42 57
f 29 13 58
f 23 43 58
f 43 29 58
f 13 44 58
f 44 23 58
f 5 33 59
f 40 14 59
f 33 40 59
f 47 5 59
f 14 47 59
f 2 37 60
f 37 9 60
f 45 2 60
f 9 45 60
f 1 17 61
f 17 22 61
f 42 1 61
f 22 42 61
f 18 9 62
f 9 26 62
f 26 10 62
f 10 38 62
f 38 18 62
f 22 17 63
f 17 30 63
f 30 32 63
f 32 40 63
f 40 22 63
f 26 4 64
f 10 26 64
f 4 39 64
