# Created by Open3D 
# object name: e17f4ab5adcd43a8a2e88601fc21f4ee_collider1
# number of vertices: 64
# number of triangles: 124
v 0.00579 -0.0706976 0.03288
v 0.036064 -0.105067 -0.007559
v -0.018784 -0.121926 0.030837
v -0.026971 -0.0706976 -0.020385
v 0.018092 -0.0706976 -0.028579
v 0.030387 -0.121926 0.018542
v -0.039281 -0.115779 0.008298
v 0.013991 -0.121926 -0.032672
v -0.026971 -0.0706976 0.020593
v 0.03243 -0.0706976 0.008298
v -0.029029 -0.121926 -0.022435
v -0.00854 -0.115779 0.039039
v -0.018784 -0.126026 0.012391
v 0.018092 -0.119873 0.03288
v 0.03243 -0.119873 -0.018334
v -0.006482 -0.0706976 -0.032672
v 0.020143 -0.126026 -0.006032
v -0.029029 -0.115779 0.028787
v -0.029029 -0.115779 -0.028579
v -0.033122 -0.0706976 -0.003989
v 0.028337 -0.0706976 0.018542
v -0.03723 -0.115779 -0.016284
v 0.030387 -0.0706976 -0.014234
v -0.014684 -0.0727496 0.030837
v -0.00854 -0.115779 -0.038831
v -0.012633 -0.126026 -0.018334
v 0.00579 -0.126026 0.020593
v 0.035963 -0.114604 0.007745
v 0.014909 -0.108853 -0.03423
v -0.03518 -0.121926 0.008298
v 0.007848 -0.0706976 -0.032672
v 0.026246 -0.108811 -0.026488
v -0.00854 -0.121926 -0.03473
v 0.013991 -0.0706976 0.030837
v -0.020835 -0.115779 -0.03473
v 0.030036 -0.101203 0.020997
v 0.00733 -0.106992 0.036578
v -0.031079 -0.0727496 0.014441
v -0.020835 -0.0706976 -0.026521
v 0.036538 -0.119873 -0.001939
v -0.03518 -0.115779 0.020593
v 0.00579 -0.121926 0.034938
v -0.020835 -0.115779 0.034938
v 0.022353 -0.0955306 0.028482
v -0.039281 -0.115779 -0.00809
v -0.006482 -0.0706976 0.03288
v -0.03518 -0.121926 -0.00809
v 0.036345 -0.0993206 -0.001821
v 0.026279 -0.119873 0.026729
v 0.024236 -0.121926 -0.026521
v 0.03243 -0.0706976 -0.00809
v -0.020835 -0.0706976 0.026729
v 0.034488 -0.121926 -0.006032
v -0.031079 -0.0727496 -0.014234
v 0.007312 -0.10314 -0.036284
v 0.013991 -0.119873 -0.03473
v 0.033993 -0.101215 0.013452
v 0.03243 -0.119873 0.018542
v 0.028337 -0.0706976 -0.018334
v -0.026971 -0.121926 0.024686
v -0.033122 -0.0706976 0.004197
v 0.031928 -0.0955206 -0.016979
v 0.018092 -0.126026 0.010348
v 0.018092 -0.121926 0.030837
f 27 63 64
f 4 1 5
f 1 4 9
f 5 1 10
f 4 5 16
f 9 4 20
f 10 1 21
f 4 19 22
f 19 11 22
f 5 10 23
f 8 17 26
f 17 13 26
f 3 13 27
f 13 17 27
f 16 5 31
f 25 16 31
f 5 29 31
f 29 5 32
f 8 26 33
f 26 11 33
f 21 1 34
f 11 19 35
f 16 25 35
f 33 11 35
f 25 33 35
f 1 12 37
f 12 14 37
f 34 1 37
f 14 34 37
f 4 16 39
f 19 4 39
f 16 35 39
f 35 19 39
f 15 2 40
f 18 9 41
f 7 30 41
f 38 7 41
f 9 38 41
f 12 3 42
f 14 12 42
f 3 27 42
f 3 12 43
f 18 3 43
f 12 24 43
f 34 14 44
f 21 34 44
f 36 21 44
f 7 20 45
f 30 7 45
f 1 9 46
f 12 1 46
f 24 12 46
f 22 11 47
f 11 26 47
f 26 13 47
f 13 30 47
f 45 22 47
f 30 45 47
f 40 2 48
f 28 40 48
f 44 14 49
f 36 44 49
f 17 8 50
f 32 15 50
f 23 10 51
f 2 23 51
f 10 48 51
f 48 2 51
f 9 18 52
f 18 43 52
f 43 24 52
f 46 9 52
f 24 46 52
f 15 40 53
f 40 6 53
f 17 50 53
f 50 15 53
f 20 4 54
f 4 22 54
f 45 20 54
f 22 45 54
f 25 31 55
f 31 29 55
f 29 32 56
f 8 33 56
f 33 25 56
f 50 8 56
f 32 50 56
f 25 55 56
f 55 29 56
f 10 21 57
f 21 36 57
f 48 10 57
f 28 48 57
f 6 40 58
f 40 28 58
f 49 6 58
f 36 49 58
f 28 57 58
f 57 36 58
f 5 23 59
f 32 5 59
f 13 3 60
f 3 18 60
f 30 13 60
f 18 41 60
f 41 30 60
f 9 20 61
f 20 7 61
f 7 38 61
f 38 9 61
f 2 15 62
f 23 2 62
f 15 32 62
f 59 23 62
f 32 59 62
f 27 17 63
f 53 6 63
f 17 53 63
f 14 42 64
f 42 27 64
f 6 49 64
f 49 14 64
f 63 6 64
