# Created by Open3D 
# object name: 682695ed62224411a58cd4ce76025a89_collider1
# number of vertices: 64
# number of triangles: 124
v 0.026892 0.0107702 0.015915
v -0.034026 -0.118347 -0.002067
v -0.034026 -0.118347 0.001704
v 0.034156 -0.118347 -0.009642
v -0.005314 0.0109372 -0.030673
v -0.01766 0.00848523 0.026413
v 0.00764 -0.116455 0.033913
v -0.005614 -0.118347 -0.034269
v 0.024632 0.00440323 -0.021232
v -0.026869 0.0145912 -0.012746
v -0.016974 -0.124025 0.026325
v 0.009529 0.0312502 0.01875
v 0.02847 -0.118347 0.020652
v 0.012389 0.00457423 0.029757
v 0.01332 -0.118347 -0.032374
v -0.024549 -0.114562 -0.024798
v 0.011424 0.0312502 -0.017223
v -0.028254 0.00663823 0.013979
v -0.018869 0.0312502 0.005495
v -0.018869 -0.114562 0.030116
v 0.030576 0.0109792 0.008793
v 0.009529 -0.125933 -0.026687
v 0.02279 -0.125933 0.016861
v -0.024549 -0.125933 -0.013433
v -0.005299 0.0125622 0.030226
v 0.00896 0.00693323 -0.030439
v -0.017538 0.00456923 -0.026586
v 0.030463 0.0107632 -0.009115
v -0.011294 0.0312502 -0.017223
v -0.030228 -0.118347 0.016861
v 0.034156 -0.118347 0.009286
v 0.02847 -0.118347 -0.021008
v -0.030301 0.0107032 -0.003748
v -0.030228 -0.118347 -0.017223
v 0.019006 0.0312502 0.007391
v -0.00751 -0.116455 0.033913
v -0.028177 0.00471323 -0.014302
v 0.024771 0.00647323 0.020995
v 0.019006 -0.12024 0.028227
v -0.011294 0.0312502 0.016861
v 0.026575 -0.125933 -0.009642
v -0.024549 -0.125933 0.01307
v -0.034026 -0.103192 0.005495
v 0.005745 -0.103192 -0.034269
v -0.018869 -0.12024 -0.028583
v 0.011424 -0.125933 0.026325
v -0.003505 -0.0214598 0.031985
v 0.032254 -0.114562 0.014966
v 0.014182 0.00822723 -0.028405
v 0.02279 -0.118347 -0.026687
v -0.030361 0.0108182 0.003393
v 0.019006 0.0312502 -0.007746
v 0.023433 0.0146482 -0.019948
v -0.025179 0.0166572 0.014243
v 0.010944 0.0170192 -0.02738
v 0.012595 0.0126112 0.028459
v -0.00751 -0.124025 -0.030478
v -0.017777 0.0124232 -0.025159
v -0.008786 0.00662723 0.029907
v 0.023501 0.0148292 0.019649
v -0.018869 0.0312502 -0.005857
v -0.034026 -0.116455 -0.003962
v 0.024686 -0.124025 -0.021008
v -0.005614 0.0312502 -0.019112
f 17 55 64
f 12 17 19
f 22 23 24
f 3 2 24
f 5 8 27
f 4 9 28
f 21 4 28
f 19 17 29
f 6 18 30
f 20 6 30
f 11 20 30
f 4 21 31
f 13 23 31
f 9 4 32
f 24 2 34
f 17 12 35
f 20 11 36
f 27 16 37
f 33 10 37
f 16 34 37
f 21 1 38
f 14 7 39
f 23 13 39
f 38 14 39
f 13 38 39
f 12 19 40
f 25 12 40
f 6 25 40
f 23 22 41
f 4 31 41
f 31 23 41
f 24 23 42
f 3 24 42
f 30 3 42
f 11 30 42
f 2 3 43
f 3 30 43
f 30 18 43
f 8 5 44
f 15 8 44
f 5 26 44
f 26 15 44
f 27 8 45
f 16 27 45
f 34 16 45
f 24 34 45
f 7 36 46
f 36 11 46
f 39 7 46
f 23 39 46
f 11 42 46
f 42 23 46
f 7 14 47
f 14 25 47
f 36 7 47
f 31 21 48
f 13 31 48
f 38 13 48
f 21 38 48
f 15 26 49
f 9 32 50
f 49 9 50
f 15 49 50
f 43 18 51
f 33 43 51
f 21 28 52
f 17 35 52
f 35 21 52
f 28 9 53
f 9 49 53
f 17 52 53
f 52 28 53
f 18 6 54
f 6 40 54
f 40 19 54
f 51 18 54
f 19 51 54
f 26 5 55
f 49 26 55
f 53 49 55
f 17 53 55
f 25 14 56
f 12 25 56
f 14 38 56
f 8 15 57
f 15 22 57
f 22 24 57
f 45 8 57
f 24 45 57
f 5 27 58
f 29 5 58
f 10 29 58
f 37 10 58
f 27 37 58
f 6 20 59
f 25 6 59
f 20 36 59
f 47 25 59
f 36 47 59
f 1 21 60
f 35 12 60
f 21 35 60
f 38 1 60
f 12 56 60
f 56 38 60
f 29 10 61
f 19 29 61
f 10 33 61
f 51 19 61
f 33 51 61
f 34 2 62
f 33 37 62
f 37 34 62
f 2 43 62
f 43 33 62
f 22 15 63
f 32 4 63
f 41 22 63
f 4 41 63
f 15 50 63
f 50 32 63
f 5 29 64
f 29 17 64
f 55 5 64
