# Created by Open3D 
# object name: ed1e811f65504b4fa1bf47fa188ad63d_collider0
# number of vertices: 64
# number of triangles: 124
v 0.003196 0.001063 0.034153
v -0.003196 -0.001063 -0.034153
v -0.003196 0.001063 -0.034153
v -0.034154 -0.001056 0.003196
v 0.003202 -0.034219 0.002137
v 0.023387 0.025518 -0.001059
v -0.01378 0.031797 0.002112
v 0.031855 -0.013799 -0.001058
v -0.023391 -0.025516 0.001053
v 0.022316 -0.012753 -0.023382
v -0.010582 -0.02328 -0.02328
v -0.024454 0.002118 -0.024447
v 0.008479 0.024375 -0.023312
v -0.023331 -0.00105 0.02545
v 0.003173 -0.024371 0.024371
v 0.022316 0.012753 0.023382
v -0.001059 0.025518 0.023387
v 0.022198 -0.014798 0.022204
v -0.01701 0.024443 -0.018069
v 0.029768 0.012756 -0.012756
v -0.027554 0.01695 0.011652
v 0.031823 0.001057 0.013791
v 0.01268 -0.031704 -0.006337
v 0.003202 0.034219 -0.002137
v -0.01701 -0.024443 0.018069
v 0.013786 0.001057 -0.031826
v -0.029768 -0.012756 -0.012756
v -0.029737 0.013807 -0.011678
v 0.008479 -0.024375 -0.023312
v 0.021315 -0.025582 0.009589
v -0.012758 0.012758 0.029767
v -0.012758 -0.012758 0.029767
v 0.009508 0.031701 0.010567
v -0.009509 -0.031704 -0.010561
v -0.029737 -0.013807 0.011678
v -0.011686 0.013809 -0.029734
v -0.01701 0.024443 0.018069
v 0.031823 -0.001057 -0.013791
v 0.031855 0.013799 0.001058
v -0.012758 -0.012758 -0.029767
v -0.009509 -0.031704 0.010561
v 0.001058 -0.013804 -0.031852
v 0.023312 -0.024375 -0.008479
v 0.012756 -0.012756 0.029768
v 0.011678 0.013807 0.029737
v 0.011678 0.013807 -0.029737
v 0.018995 0.02427 0.015828
v -0.006337 0.031704 -0.01268
v 0.023326 -0.001056 0.025452
v 0.018995 0.02427 -0.015828
v -0.023391 0.025516 -0.001053
v 0.024451 0.002118 -0.024451
v -0.006337 0.031704 0.01268
v -0.018998 -0.024269 -0.015824
v 0.009508 -0.031701 0.010567
v 0.010567 0.031701 -0.009508
v -0.031824 0.00105 0.013792
v -0.023382 0.012753 0.022316
v -0.031824 0.00105 -0.013792
v -0.031853 0.013804 0.001051
v 0.034153 0.001063 -0.003196
v 0.029768 -0.012756 0.012756
v -0.003173 0.024371 -0.024371
v -0.013792 0.00105 0.031824
f 31 58 64
f 3 2 12
f 2 3 26
f 19 12 28
f 18 15 30
f 25 15 32
f 23 5 34
f 11 29 34
f 29 23 34
f 9 25 35
f 4 27 35
f 27 9 35
f 32 14 35
f 25 32 35
f 3 12 36
f 12 19 36
f 31 17 37
f 8 10 38
f 20 6 39
f 16 22 39
f 12 2 40
f 27 12 40
f 25 9 41
f 15 25 41
f 34 5 41
f 9 34 41
f 2 26 42
f 26 10 42
f 29 11 42
f 10 29 42
f 40 2 42
f 11 40 42
f 10 8 43
f 29 10 43
f 23 29 43
f 8 30 43
f 30 23 43
f 15 18 44
f 1 32 44
f 32 15 44
f 31 1 45
f 17 31 45
f 26 3 46
f 3 36 46
f 6 33 47
f 33 17 47
f 39 6 47
f 16 39 47
f 17 45 47
f 45 16 47
f 19 7 48
f 7 24 48
f 22 16 49
f 1 44 49
f 44 18 49
f 45 1 49
f 16 45 49
f 6 20 50
f 46 13 50
f 20 46 50
f 7 19 51
f 19 28 51
f 37 7 51
f 21 37 51
f 10 26 52
f 38 10 52
f 20 38 52
f 46 20 52
f 26 46 52
f 24 7 53
f 17 33 53
f 33 24 53
f 7 37 53
f 37 17 53
f 9 27 54
f 34 9 54
f 11 34 54
f 40 11 54
f 27 40 54
f 5 23 55
f 30 15 55
f 23 30 55
f 41 5 55
f 15 41 55
f 33 6 56
f 24 33 56
f 13 48 56
f 48 24 56
f 6 50 56
f 50 13 56
f 4 35 57
f 35 14 57
f 37 21 58
f 31 37 58
f 21 57 58
f 57 14 58
f 27 4 59
f 12 27 59
f 28 12 59
f 28 59 60
f 51 28 60
f 21 51 60
f 4 57 60
f 57 21 60
f 59 4 60
f 22 8 61
f 8 38 61
f 38 20 61
f 20 39 61
f 39 22 61
f 8 22 62
f 30 8 62
f 18 30 62
f 22 49 62
f 49 18 62
f 36 19 63
f 13 46 63
f 46 36 63
f 19 48 63
f 48 13 63
f 1 31 64
f 32 1 64
f 14 32 64
f 58 14 64
