# Created by Open3D 
# object name: ed1e811f65504b4fa1bf47fa188ad63d_visual
# number of vertices: 672
# number of triangles: 224
mtllib ball_ed1e811f_visual.mtl
v -7.10454e-09 0.0323358 -0.0133939
vn 1.32274e-07 0.915159 -0.403093
v -0.00512563 0.0323358 -0.0123744
vn -0.154257 0.915159 -0.37241
v 2.90138e-15 0.035 -6.21234e-09
vn -4.62731e-10 1 1.39436e-07
v 0 -0.035 1.27688e-08
vn 1.65041e-08 -1 3.18359e-07
v -0.00512563 -0.0323358 -0.0123744
vn -0.154257 -0.915159 -0.372409
v 0 -0.0323358 -0.0133939
vn 1.39623e-07 -0.915159 -0.403093
v -0.00512563 0.0323358 -0.0123744
vn -0.154257 0.915159 -0.37241
v -0.00947093 0.0323358 -0.00947094
vn -0.28503 0.915159 -0.28503
v 2.90138e-15 0.035 -6.21234e-09
vn -4.62731e-10 1 1.39436e-07
v 0 -0.035 1.27688e-08
vn 1.65041e-08 -1 3.18359e-07
v -0.00947093 -0.0323358 -0.00947092
vn -0.28503 -0.915159 -0.285029
v -0.00512563 -0.0323358 -0.0123744
vn -0.154257 -0.915159 -0.372409
v -0.00947093 0.0323358 -0.00947094
vn -0.28503 0.915159 -0.28503
v -0.0123744 0.0323358 -0.00512564
vn -0.372409 0.915159 -0.154257
v 2.90138e-15 0.035 -6.21234e-09
vn -4.62731e-10 1 1.39436e-07
v 0 -0.035 1.27688e-08
vn 1.65041e-08 -1 3.18359e-07
v -0.0123744 -0.0323358 -0.00512562
vn -0.372409 -0.915159 -0.154256
v -0.00947093 -0.0323358 -0.00947092
vn -0.28503 -0.915159 -0.285029
v 0 -0.035 1.27688e-08
vn 1.65041e-08 -1 3.18359e-07
v -0.0133939 -0.0323358 1.45548e-08
vn -0.403093 -0.915159 1.99636e-07
v -0.0123744 -0.0323358 -0.00512562
vn -0.372409 -0.915159 -0.154256
v -0.0123744 0.0323358 -0.00512564
vn -0.372409 0.915159 -0.154257
v -0.0133939 0.0323358 -8.73337e-09
vn -0.403093 0.915159 9.7981e-08
v 2.90138e-15 0.035 -6.21234e-09
vn -4.62731e-10 1 1.39436e-07
v -0.0133939 0.0323358 -8.73337e-09
vn -0.403093 0.915159 9.7981e-08
v -0.0123744 0.0323358 0.00512562
vn -0.372409 0.915159 0.154257
v 2.90138e-15 0.035 -6.21234e-09
vn -4.62731e-10 1 1.39436e-07
v 0 -0.035 1.27688e-08
vn 1.65041e-08 -1 3.18359e-07
v -0.0123744 -0.0323358 0.00512565
vn -0.372409 -0.915159 0.154257
v -0.0133939 -0.0323358 1.45548e-08
vn -0.403093 -0.915159 1.99636e-07
v -0.0123744 0.0323358 0.00512562
vn -0.372409 0.915159 0.154257
v -0.00947093 0.0323358 0.00947092
vn -0.285029 0.915159 0.28503
v 2.90138e-15 0.035 -6.21234e-09
vn -4.62731e-10 1 1.39436e-07
v 0 -0.035 1.27688e-08
vn 1.65041e-08 -1 3.18359e-07
v -0.00947093 -0.0323358 0.00947095
vn -0.28503 -0.915159 0.28503
v -0.0123744 -0.0323358 0.00512565
vn -0.372409 -0.915159 0.154257
v -0.00947093 0.0323358 0.00947092
vn -0.285029 0.915159 0.28503
v -0.00512563 0.0323358 0.0123744
vn -0.154257 0.915159 0.372409
v 2.90138e-15 0.035 -6.21234e-09
vn -4.62731e-10 1 1.39436e-07
v 0 -0.035 1.27688e-08
vn 1.65041e-08 -1 3.18359e-07
v -0.00512563 -0.0323358 0.0123744
vn -0.154257 -0.915159 0.37241
v -0.00947093 -0.0323358 0.00947095
vn -0.28503 -0.915159 0.28503
v -0.00512563 0.0323358 0.0123744
vn -0.154257 0.915159 0.372409
v 3.7609e-09 0.0323358 0.0133939
vn 2.0821e-07 0.915159 0.403093
v 2.90138e-15 0.035 -6.21234e-09
vn -4.62731e-10 1 1.39436e-07
v 0 -0.035 1.27688e-08
vn 1.65041e-08 -1 3.18359e-07
v 4.63013e-09 -0.0323358 0.0133939
vn 1.57994e-07 -0.915159 0.403093
v -0.00512563 -0.0323358 0.0123744
vn -0.154257 -0.915159 0.37241
v 3.7609e-09 0.0323358 0.0133939
vn 2.0821e-07 0.915159 0.403093
v 0.00512564 0.0323358 0.0123744
vn 0.154257 0.915159 0.372409
v 2.90138e-15 0.035 -6.21234e-09
vn -4.62731e-10 1 1.39436e-07
v 0 -0.035 1.27688e-08
vn 1.65041e-08 -1 3.18359e-07
v 0.00512564 -0.0323358 0.0123744
vn 0.154257 -0.915159 0.372409
v 4.63013e-09 -0.0323358 0.0133939
vn 1.57994e-07 -0.915159 0.403093
v 0.00512564 0.0323358 0.0123744
vn 0.154257 0.915159 0.372409
v 0.00947094 0.0323358 0.00947092
vn 0.28503 0.915159 0.28503
v 2.90138e-15 0.035 -6.21234e-09
vn -4.62731e-10 1 1.39436e-07
v 0 -0.035 1.27688e-08
vn 1.65041e-08 -1 3.18359e-07
v 0.00947094 -0.0323358 0.00947094
vn 0.28503 -0.915159 0.28503
v 0.00512564 -0.0323358 0.0123744
vn 0.154257 -0.915159 0.372409
v 0 -0.035 1.27688e-08
vn 1.65041e-08 -1 3.18359e-07
v 0.0123744 -0.0323358 0.00512564
vn 0.372409 -0.915159 0.154257
v 0.00947094 -0.0323358 0.00947094
vn 0.28503 -0.915159 0.28503
v 0.00947094 0.0323358 0.00947092
vn 0.28503 0.915159 0.28503
v 0.0123744 0.0323358 0.00512562
vn 0.372409 0.915159 0.154257
v 2.90138e-15 0.035 -6.21234e-09
vn -4.62731e-10 1 1.39436e-07
v 0.0123744 0.0323358 0.00512562
vn 0.372409 0.915159 0.154257
v 0.0133939 0.0323358 -1.56873e-08
vn 0.403093 0.915159 -3.69878e-07
v 2.90138e-15 0.035 -6.21234e-09
vn -4.62731e-10 1 1.39436e-07
v 0 -0.035 1.27688e-08
vn 1.65041e-08 -1 3.18359e-07
v 0.0133939 -0.0323358 6.29703e-09
vn 0.403093 -0.915159 -1.64118e-07
v 0.0123744 -0.0323358 0.00512564
vn 0.372409 -0.915159 0.154257
v 0.0133939 0.0323358 -1.56873e-08
vn 0.403093 0.915159 -3.69878e-07
v 0.0123744 0.0323358 -0.00512565
vn 0.372409 0.915159 -0.154258
v 2.90138e-15 0.035 -6.21234e-09
vn -4.62731e-10 1 1.39436e-07
v 0 -0.035 1.27688e-08
vn 1.65041e-08 -1 3.18359e-07
v 0.0123744 -0.0323358 -0.00512563
vn 0.372409 -0.915159 -0.154257
v 0.0133939 -0.0323358 6.29703e-09
vn 0.403093 -0.915159 -1.64118e-07
v 0.0123744 0.0323358 -0.00512565
vn 0.372409 0.915159 -0.154258
v 0.00947093 0.0323358 -0.00947095
vn 0.28503 0.915159 -0.28503
v 2.90138e-15 0.035 -6.21234e-09
vn -4.62731e-10 1 1.39436e-07
v 0 -0.035 1.27688e-08
vn 1.65041e-08 -1 3.18359e-07
v 0.00947093 -0.0323358 -0.00947092
vn 0.28503 -0.915159 -0.285029
v 0.0123744 -0.0323358 -0.00512563
vn 0.372409 -0.915159 -0.154257
v 0 -0.035 1.27688e-08
vn 1.65041e-08 -1 3.18359e-07
v 0.00512562 -0.0323358 -0.0123744
vn 0.154257 -0.915159 -0.372409
v 0.00947093 -0.0323358 -0.00947092
vn 0.28503 -0.915159 -0.285029
v 0.00947093 0.0323358 -0.00947095
vn 0.28503 0.915159 -0.28503
v 0.00512562 0.0323358 -0.0123744
vn 0.154257 0.915159 -0.372409
v 2.90138e-15 0.035 -6.21234e-09
vn -4.62731e-10 1 1.39436e-07
v 0.00512562 0.0323358 -0.0123744
vn 0.154257 0.915159 -0.372409
v -7.10454e-09 0.0323358 -0.0133939
vn 1.32274e-07 0.915159 -0.403093
v 2.90138e-15 0.035 -6.21234e-09
vn -4.62731e-10 1 1.39436e-07
v 0 -0.035 1.27688e-08
vn 1.65041e-08 -1 3.18359e-07
v 0 -0.0323358 -0.0133939
vn 1.39623e-07 -0.915159 -0.403093
v 0.00512562 -0.0323358 -0.0123744
vn 0.154257 -0.915159 -0.372409
v -1.10161e-08 -0.0247487 -0.0247487
vn -1.44144e-07 -0.695157 -0.718858
v -0.0123744 -0.0133939 -0.0298744
vn -0.354855 -0.374367 -0.856695
v 0 -0.0133939 -0.0323358
vn -4.77641e-08 -0.374368 -0.92728
v -1.10161e-08 -0.0247487 -0.0247487
vn -1.44144e-07 -0.695157 -0.718858
v -0.00947093 -0.0247487 -0.0228648
vn -0.275095 -0.695157 -0.664138
v -0.0123744 -0.0133939 -0.0298744
vn -0.354855 -0.374367 -0.856695
v -1.797e-08 -1.11759e-08 -0.035
vn -3.83775e-07 -3.88824e-07 -1
v -0.0123744 0.0133939 -0.0298744
vn -0.354855 0.374367 -0.856696
v 0 0.0133939 -0.0323358
vn -3.77085e-08 0.374367 -0.927281
v -1.797e-08 -1.11759e-08 -0.035
vn -3.83775e-07 -3.88824e-07 -1
v -0.0133939 -1.11759e-08 -0.0323358
vn -0.382683 -2.55008e-07 -0.92388
v -0.0123744 0.0133939 -0.0298744
vn -0.354855 0.374367 -0.856696
v 0 0.0247487 -0.0247487
vn 1.24262e-07 0.695156 -0.718859
v -0.00512563 0.0323358 -0.0123744
vn -0.154257 0.915159 -0.37241
v -7.10454e-09 0.0323358 -0.0133939
vn 1.32274e-07 0.915159 -0.403093
v 0 0.0247487 -0.0247487
vn 1.24262e-07 0.695156 -0.718859
v -0.00947093 0.0247487 -0.0228649
vn -0.275095 0.695157 -0.664139
v -0.00512563 0.0323358 -0.0123744
vn -0.154257 0.915159 -0.37241
v 0 -0.0323358 -0.0133939
vn 1.39623e-07 -0.915159 -0.403093
v -0.00947093 -0.0247487 -0.0228648
vn -0.275095 -0.695157 -0.664138
v -1.10161e-08 -0.0247487 -0.0247487
vn -1.44144e-07 -0.695157 -0.718858
v 0 -0.0323358 -0.0133939
vn 1.39623e-07 -0.915159 -0.403093
v -0.00512563 -0.0323358 -0.0123744
vn -0.154257 -0.915159 -0.372409
v -0.00947093 -0.0247487 -0.0228648
vn -0.275095 -0.695157 -0.664138
v 0 -0.0133939 -0.0323358
vn -4.77641e-08 -0.374368 -0.92728
v -0.0133939 -1.11759e-08 -0.0323358
vn -0.382683 -2.55008e-07 -0.92388
v -1.797e-08 -1.11759e-08 -0.035
vn -3.83775e-07 -3.88824e-07 -1
v 0 -0.0133939 -0.0323358
vn -4.77641e-08 -0.374368 -0.92728
v -0.0123744 -0.0133939 -0.0298744
vn -0.354855 -0.374367 -0.856695
v -0.0133939 -1.11759e-08 -0.0323358
vn -0.382683 -2.55008e-07 -0.92388
v 0 0.0133939 -0.0323358
vn -3.77085e-08 0.374367 -0.927281
v -0.00947093 0.0247487 -0.0228649
vn -0.275095 0.695157 -0.664139
v 0 0.0247487 -0.0247487
vn 1.24262e-07 0.695156 -0.718859
v 0 0.0133939 -0.0323358
vn -3.77085e-08 0.374367 -0.927281
v -0.0123744 0.0133939 -0.0298744
vn -0.354855 0.374367 -0.856696
v -0.00947093 0.0247487 -0.0228649
vn -0.275095 0.695157 -0.664139
v -0.00512563 -0.0323358 -0.0123744
vn -0.154257 -0.915159 -0.372409
v -0.0175 -0.0247487 -0.0175
vn -0.50831 -0.695157 -0.508309
v -0.00947093 -0.0247487 -0.0228648
vn -0.275095 -0.695157 -0.664138
v -0.00512563 -0.0323358 -0.0123744
vn -0.154257 -0.915159 -0.372409
v -0.00947093 -0.0323358 -0.00947092
vn -0.28503 -0.915159 -0.285029
v -0.0175 -0.0247487 -0.0175
vn -0.50831 -0.695157 -0.508309
v -0.0123744 -0.0133939 -0.0298744
vn -0.354855 -0.374367 -0.856695
v -0.0247487 -7.45058e-09 -0.0247487
vn -0.707107 -1.86838e-07 -0.707107
v -0.0133939 -1.11759e-08 -0.0323358
vn -0.382683 -2.55008e-07 -0.92388
v -0.0123744 -0.0133939 -0.0298744
vn -0.354855 -0.374367 -0.856695
v -0.0228649 -0.0133939 -0.0228649
vn -0.655686 -0.374367 -0.655686
v -0.0247487 -7.45058e-09 -0.0247487
vn -0.707107 -1.86838e-07 -0.707107
v -0.0123744 0.0133939 -0.0298744
vn -0.354855 0.374367 -0.856696
v -0.0175 0.0247487 -0.0175
vn -0.508309 0.695157 -0.50831
v -0.00947093 0.0247487 -0.0228649
vn -0.275095 0.695157 -0.664139
v -0.0123744 0.0133939 -0.0298744
vn -0.354855 0.374367 -0.856696
v -0.0228649 0.0133939 -0.0228649
vn -0.655686 0.374367 -0.655686
v -0.0175 0.0247487 -0.0175
vn -0.508309 0.695157 -0.50831
v -0.00947093 -0.0247487 -0.0228648
vn -0.275095 -0.695157 -0.664138
v -0.0228649 -0.0133939 -0.0228649
vn -0.655686 -0.374367 -0.655686
v -0.0123744 -0.0133939 -0.0298744
vn -0.354855 -0.374367 -0.856695
v -0.00947093 -0.0247487 -0.0228648
vn -0.275095 -0.695157 -0.664138
v -0.0175 -0.0247487 -0.0175
vn -0.50831 -0.695157 -0.508309
v -0.0228649 -0.0133939 -0.0228649
vn -0.655686 -0.374367 -0.655686
v -0.0133939 -1.11759e-08 -0.0323358
vn -0.382683 -2.55008e-07 -0.92388
v -0.0228649 0.0133939 -0.0228649
vn -0.655686 0.374367 -0.655686
v -0.0123744 0.0133939 -0.0298744
vn -0.354855 0.374367 -0.856696
v -0.0133939 -1.11759e-08 -0.0323358
vn -0.382683 -2.55008e-07 -0.92388
v -0.0247487 -7.45058e-09 -0.0247487
vn -0.707107 -1.86838e-07 -0.707107
v -0.0228649 0.0133939 -0.0228649
vn -0.655686 0.374367 -0.655686
v -0.00947093 0.0247487 -0.0228649
vn -0.275095 0.695157 -0.664139
v -0.00947093 0.0323358 -0.00947094
vn -0.28503 0.915159 -0.28503
v -0.00512563 0.0323358 -0.0123744
vn -0.154257 0.915159 -0.37241
v -0.00947093 0.0247487 -0.0228649
vn -0.275095 0.695157 -0.664139
v -0.0175 0.0247487 -0.0175
vn -0.508309 0.695157 -0.50831
v -0.00947093 0.0323358 -0.00947094
vn -0.28503 0.915159 -0.28503
v -0.0228649 0.0133939 -0.0228649
vn -0.655686 0.374367 -0.655686
v -0.0228649 0.0247487 -0.00947094
vn -0.664138 0.695157 -0.275095
v -0.0175 0.0247487 -0.0175
vn -0.508309 0.695157 -0.50831
v -0.0228649 0.0133939 -0.0228649
vn -0.655686 0.374367 -0.655686
v -0.0298744 0.0133939 -0.0123744
vn -0.856696 0.374367 -0.354855
v -0.0228649 0.0247487 -0.00947094
vn -0.664138 0.695157 -0.275095
v -0.0175 -0.0247487 -0.0175
vn -0.50831 -0.695157 -0.508309
v -0.0298744 -0.0133939 -0.0123744
vn -0.856696 -0.374367 -0.354855
v -0.0228649 -0.0133939 -0.0228649
vn -0.655686 -0.374367 -0.655686
v -0.0175 -0.0247487 -0.0175
vn -0.50831 -0.695157 -0.508309
v -0.0228649 -0.0247487 -0.00947092
vn -0.664138 -0.695157 -0.275095
v -0.0298744 -0.0133939 -0.0123744
vn -0.856696 -0.374367 -0.354855
v -0.0247487 -7.45058e-09 -0.0247487
vn -0.707107 -1.86838e-07 -0.707107
v -0.0298744 0.0133939 -0.0123744
vn -0.856696 0.374367 -0.354855
v -0.0228649 0.0133939 -0.0228649
vn -0.655686 0.374367 -0.655686
v -0.0247487 -7.45058e-09 -0.0247487
vn -0.707107 -1.86838e-07 -0.707107
v -0.0323358 -3.72529e-09 -0.0133939
vn -0.92388 -2.01987e-08 -0.382683
v -0.0298744 0.0133939 -0.0123744
vn -0.856696 0.374367 -0.354855
v -0.0175 0.0247487 -0.0175
vn -0.508309 0.695157 -0.50831
v -0.0123744 0.0323358 -0.00512564
vn -0.372409 0.915159 -0.154257
v -0.00947093 0.0323358 -0.00947094
vn -0.28503 0.915159 -0.28503
v -0.0175 0.0247487 -0.0175
vn -0.508309 0.695157 -0.50831
v -0.0228649 0.0247487 -0.00947094
vn -0.664138 0.695157 -0.275095
v -0.0123744 0.0323358 -0.00512564
vn -0.372409 0.915159 -0.154257
v -0.00947093 -0.0323358 -0.00947092
vn -0.28503 -0.915159 -0.285029
v -0.0228649 -0.0247487 -0.00947092
vn -0.664138 -0.695157 -0.275095
v -0.0175 -0.0247487 -0.0175
vn -0.50831 -0.695157 -0.508309
v -0.00947093 -0.0323358 -0.00947092
vn -0.28503 -0.915159 -0.285029
v -0.0123744 -0.0323358 -0.00512562
vn -0.372409 -0.915159 -0.154256
v -0.0228649 -0.0247487 -0.00947092
vn -0.664138 -0.695157 -0.275095
v -0.0228649 -0.0133939 -0.0228649
vn -0.655686 -0.374367 -0.655686
v -0.0323358 -3.72529e-09 -0.0133939
vn -0.92388 -2.01987e-08 -0.382683
v -0.0247487 -7.45058e-09 -0.0247487
vn -0.707107 -1.86838e-07 -0.707107
v -0.0228649 -0.0133939 -0.0228649
vn -0.655686 -0.374367 -0.655686
v -0.0298744 -0.0133939 -0.0123744
vn -0.856696 -0.374367 -0.354855
v -0.0323358 -3.72529e-09 -0.0133939
vn -0.92388 -2.01987e-08 -0.382683
v -0.0228649 -0.0247487 -0.00947092
vn -0.664138 -0.695157 -0.275095
v -0.0323358 -0.0133939 1.01615e-08
vn -0.927281 -0.374367 3.9971e-07
v -0.0298744 -0.0133939 -0.0123744
vn -0.856696 -0.374367 -0.354855
v -0.0228649 -0.0247487 -0.00947092
vn -0.664138 -0.695157 -0.275095
v -0.0247487 -0.0247487 1.32285e-08
vn -0.718858 -0.695157 4.94563e-07
v -0.0323358 -0.0133939 1.01615e-08
vn -0.927281 -0.374367 3.9971e-07
v -0.0323358 -3.72529e-09 -0.0133939
vn -0.92388 -2.01987e-08 -0.382683
v -0.0323358 0.0133939 8.7529e-10
vn -0.927281 0.374367 6.03336e-08
v -0.0298744 0.0133939 -0.0123744
vn -0.856696 0.374367 -0.354855
v -0.0323358 -3.72529e-09 -0.0133939
vn -0.92388 -2.01987e-08 -0.382683
v -0.035 -2.77556e-16 5.5184e-09
vn -1 -5.80712e-08 2.75207e-07
v -0.0323358 0.0133939 8.7529e-10
vn -0.927281 0.374367 6.03336e-08
v -0.0228649 0.0247487 -0.00947094
vn -0.664138 0.695157 -0.275095
v -0.0133939 0.0323358 -8.73337e-09
vn -0.403093 0.915159 9.7981e-08
v -0.0123744 0.0323358 -0.00512564
vn -0.372409 0.915159 -0.154257
v -0.0228649 0.0247487 -0.00947094
vn -0.664138 0.695157 -0.275095
v -0.0247487 0.0247487 -3.93018e-09
vn -0.718858 0.695157 -6.46163e-08
v -0.0133939 0.0323358 -8.73337e-09
vn -0.403093 0.915159 9.7981e-08
v -0.0123744 -0.0323358 -0.00512562
vn -0.372409 -0.915159 -0.154256
v -0.0247487 -0.0247487 1.32285e-08
vn -0.718858 -0.695157 4.94563e-07
v -0.0228649 -0.0247487 -0.00947092
vn -0.664138 -0.695157 -0.275095
v -0.0123744 -0.0323358 -0.00512562
vn -0.372409 -0.915159 -0.154256
v -0.0133939 -0.0323358 1.45548e-08
vn -0.403093 -0.915159 1.99636e-07
v -0.0247487 -0.0247487 1.32285e-08
vn -0.718858 -0.695157 4.94563e-07
v -0.0298744 -0.0133939 -0.0123744
vn -0.856696 -0.374367 -0.354855
v -0.035 -2.77556e-16 5.5184e-09
vn -1 -5.80712e-08 2.75207e-07
v -0.0323358 -3.72529e-09 -0.0133939
vn -0.92388 -2.01987e-08 -0.382683
v -0.0298744 -0.0133939 -0.0123744
vn -0.856696 -0.374367 -0.354855
v -0.0323358 -0.0133939 1.01615e-08
vn -0.927281 -0.374367 3.9971e-07
v -0.035 -2.77556e-16 5.5184e-09
vn -1 -5.80712e-08 2.75207e-07
v -0.0298744 0.0133939 -0.0123744
vn -0.856696 0.374367 -0.354855
v -0.0247487 0.0247487 -3.93018e-09
vn -0.718858 0.695157 -6.46163e-08
v -0.0228649 0.0247487 -0.00947094
vn -0.664138 0.695157 -0.275095
v -0.0298744 0.0133939 -0.0123744
vn -0.856696 0.374367 -0.354855
v -0.0323358 0.0133939 8.7529e-10
vn -0.927281 0.374367 6.03336e-08
v -0.0247487 0.0247487 -3.93018e-09
vn -0.718858 0.695157 -6.46163e-08
v -0.0247487 0.0247487 -3.93018e-09
vn -0.718858 0.695157 -6.46163e-08
v -0.0123744 0.0323358 0.00512562
vn -0.372409 0.915159 0.154257
v -0.0133939 0.0323358 -8.73337e-09
vn -0.403093 0.915159 9.7981e-08
v -0.0247487 0.0247487 -3.93018e-09
vn -0.718858 0.695157 -6.46163e-08
v -0.0228648 0.0247487 0.00947093
vn -0.664138 0.695157 0.275095
v -0.0123744 0.0323358 0.00512562
vn -0.372409 0.915159 0.154257
v -0.0133939 -0.0323358 1.45548e-08
vn -0.403093 -0.915159 1.99636e-07
v -0.0228648 -0.0247487 0.00947095
vn -0.664138 -0.695157 0.275096
v -0.0247487 -0.0247487 1.32285e-08
vn -0.718858 -0.695157 4.94563e-07
v -0.0133939 -0.0323358 1.45548e-08
vn -0.403093 -0.915159 1.99636e-07
v -0.0123744 -0.0323358 0.00512565
vn -0.372409 -0.915159 0.154257
v -0.0228648 -0.0247487 0.00947095
vn -0.664138 -0.695157 0.275096
v -0.0323358 -0.0133939 1.01615e-08
vn -0.927281 -0.374367 3.9971e-07
v -0.0323358 3.72529e-09 0.0133939
vn -0.923879 1.08568e-07 0.382684
v -0.035 -2.77556e-16 5.5184e-09
vn -1 -5.80712e-08 2.75207e-07
v -0.0323358 -0.0133939 1.01615e-08
vn -0.927281 -0.374367 3.9971e-07
v -0.0298744 -0.0133939 0.0123744
vn -0.856695 -0.374367 0.354855
v -0.0323358 3.72529e-09 0.0133939
vn -0.923879 1.08568e-07 0.382684
v -0.0323358 0.0133939 8.7529e-10
vn -0.927281 0.374367 6.03336e-08
v -0.0228648 0.0247487 0.00947093
vn -0.664138 0.695157 0.275095
v -0.0247487 0.0247487 -3.93018e-09
vn -0.718858 0.695157 -6.46163e-08
v -0.0323358 0.0133939 8.7529e-10
vn -0.927281 0.374367 6.03336e-08
v -0.0298744 0.0133939 0.0123744
vn -0.856695 0.374367 0.354855
v -0.0228648 0.0247487 0.00947093
vn -0.664138 0.695157 0.275095
v -0.0247487 -0.0247487 1.32285e-08
vn -0.718858 -0.695157 4.94563e-07
v -0.0298744 -0.0133939 0.0123744
vn -0.856695 -0.374367 0.354855
v -0.0323358 -0.0133939 1.01615e-08
vn -0.927281 -0.374367 3.9971e-07
v -0.0247487 -0.0247487 1.32285e-08
vn -0.718858 -0.695157 4.94563e-07
v -0.0228648 -0.0247487 0.00947095
vn -0.664138 -0.695157 0.275096
v -0.0298744 -0.0133939 0.0123744
vn -0.856695 -0.374367 0.354855
v -0.035 -2.77556e-16 5.5184e-09
vn -1 -5.80712e-08 2.75207e-07
v -0.0298744 0.0133939 0.0123744
vn -0.856695 0.374367 0.354855
v -0.0323358 0.0133939 8.7529e-10
vn -0.927281 0.374367 6.03336e-08
v -0.035 -2.77556e-16 5.5184e-09
vn -1 -5.80712e-08 2.75207e-07
v -0.0323358 3.72529e-09 0.0133939
vn -0.923879 1.08568e-07 0.382684
v -0.0298744 0.0133939 0.0123744
vn -0.856695 0.374367 0.354855
v -0.0123744 -0.0323358 0.00512565
vn -0.372409 -0.915159 0.154257
v -0.0175 -0.0247487 0.0175
vn -0.508309 -0.695157 0.50831
v -0.0228648 -0.0247487 0.00947095
vn -0.664138 -0.695157 0.275096
v -0.0123744 -0.0323358 0.00512565
vn -0.372409 -0.915159 0.154257
v -0.00947093 -0.0323358 0.00947095
vn -0.28503 -0.915159 0.28503
v -0.0175 -0.0247487 0.0175
vn -0.508309 -0.695157 0.50831
v -0.0298744 -0.0133939 0.0123744
vn -0.856695 -0.374367 0.354855
v -0.0247487 7.45058e-09 0.0247487
vn -0.707107 3.28228e-07 0.707107
v -0.0323358 3.72529e-09 0.0133939
vn -0.923879 1.08568e-07 0.382684
v -0.0298744 -0.0133939 0.0123744
vn -0.856695 -0.374367 0.354855
v -0.0228648 -0.0133939 0.0228649
vn -0.655686 -0.374367 0.655687
v -0.0247487 7.45058e-09 0.0247487
vn -0.707107 3.28228e-07 0.707107
v -0.0298744 0.0133939 0.0123744
vn -0.856695 0.374367 0.354855
v -0.0175 0.0247487 0.0175
vn -0.508309 0.695157 0.508309
v -0.0228648 0.0247487 0.00947093
vn -0.664138 0.695157 0.275095
v -0.0298744 0.0133939 0.0123744
vn -0.856695 0.374367 0.354855
v -0.0228648 0.0133939 0.0228649
vn -0.655686 0.374367 0.655686
v -0.0175 0.0247487 0.0175
vn -0.508309 0.695157 0.508309
v -0.0228648 -0.0247487 0.00947095
vn -0.664138 -0.695157 0.275096
v -0.0228648 -0.0133939 0.0228649
vn -0.655686 -0.374367 0.655687
v -0.0298744 -0.0133939 0.0123744
vn -0.856695 -0.374367 0.354855
v -0.0228648 -0.0247487 0.00947095
vn -0.664138 -0.695157 0.275096
v -0.0175 -0.0247487 0.0175
vn -0.508309 -0.695157 0.50831
v -0.0228648 -0.0133939 0.0228649
vn -0.655686 -0.374367 0.655687
v -0.0323358 3.72529e-09 0.0133939
vn -0.923879 1.08568e-07 0.382684
v -0.0228648 0.0133939 0.0228649
vn -0.655686 0.374367 0.655686
v -0.0298744 0.0133939 0.0123744
vn -0.856695 0.374367 0.354855
v -0.0323358 3.72529e-09 0.0133939
vn -0.923879 1.08568e-07 0.382684
v -0.0247487 7.45058e-09 0.0247487
vn -0.707107 3.28228e-07 0.707107
v -0.0228648 0.0133939 0.0228649
vn -0.655686 0.374367 0.655686
v -0.0228648 0.0247487 0.00947093
vn -0.664138 0.695157 0.275095
v -0.00947093 0.0323358 0.00947092
vn -0.285029 0.915159 0.28503
v -0.0123744 0.0323358 0.00512562
vn -0.372409 0.915159 0.154257
v -0.0228648 0.0247487 0.00947093
vn -0.664138 0.695157 0.275095
v -0.0175 0.0247487 0.0175
vn -0.508309 0.695157 0.508309
v -0.00947093 0.0323358 0.00947092
vn -0.285029 0.915159 0.28503
v -0.0175 -0.0247487 0.0175
vn -0.508309 -0.695157 0.50831
v -0.0123744 -0.0133939 0.0298744
vn -0.354855 -0.374367 0.856696
v -0.0228648 -0.0133939 0.0228649
vn -0.655686 -0.374367 0.655687
v -0.0175 -0.0247487 0.0175
vn -0.508309 -0.695157 0.50831
v -0.00947092 -0.0247487 0.0228649
vn -0.275095 -0.695157 0.664139
v -0.0123744 -0.0133939 0.0298744
vn -0.354855 -0.374367 0.856696
v -0.0247487 7.45058e-09 0.0247487
vn -0.707107 3.28228e-07 0.707107
v -0.0123744 0.0133939 0.0298744
vn -0.354855 0.374367 0.856696
v -0.0228648 0.0133939 0.0228649
vn -0.655686 0.374367 0.655686
v -0.0247487 7.45058e-09 0.0247487
vn -0.707107 3.28228e-07 0.707107
v -0.0133939 7.45058e-09 0.0323358
vn -0.382683 2.72682e-07 0.92388
v -0.0123744 0.0133939 0.0298744
vn -0.354855 0.374367 0.856696
v -0.0175 0.0247487 0.0175
vn -0.508309 0.695157 0.508309
v -0.00512563 0.0323358 0.0123744
vn -0.154257 0.915159 0.372409
v -0.00947093 0.0323358 0.00947092
vn -0.285029 0.915159 0.28503
v -0.0175 0.0247487 0.0175
vn -0.508309 0.695157 0.508309
v -0.00947092 0.0247487 0.0228648
vn -0.275095 0.695157 0.664138
v -0.00512563 0.0323358 0.0123744
vn -0.154257 0.915159 0.372409
v -0.00947093 -0.0323358 0.00947095
vn -0.28503 -0.915159 0.28503
v -0.00947092 -0.0247487 0.0228649
vn -0.275095 -0.695157 0.664139
v -0.0175 -0.0247487 0.0175
vn -0.508309 -0.695157 0.50831
v -0.00947093 -0.0323358 0.00947095
vn -0.28503 -0.915159 0.28503
v -0.00512563 -0.0323358 0.0123744
vn -0.154257 -0.915159 0.37241
v -0.00947092 -0.0247487 0.0228649
vn -0.275095 -0.695157 0.664139
v -0.0228648 -0.0133939 0.0228649
vn -0.655686 -0.374367 0.655687
v -0.0133939 7.45058e-09 0.0323358
vn -0.382683 2.72682e-07 0.92388
v -0.0247487 7.45058e-09 0.0247487
vn -0.707107 3.28228e-07 0.707107
v -0.0228648 -0.0133939 0.0228649
vn -0.655686 -0.374367 0.655687
v -0.0123744 -0.0133939 0.0298744
vn -0.354855 -0.374367 0.856696
v -0.0133939 7.45058e-09 0.0323358
vn -0.382683 2.72682e-07 0.92388
v -0.0228648 0.0133939 0.0228649
vn -0.655686 0.374367 0.655686
v -0.00947092 0.0247487 0.0228648
vn -0.275095 0.695157 0.664138
v -0.0175 0.0247487 0.0175
vn -0.508309 0.695157 0.508309
v -0.0228648 0.0133939 0.0228649
vn -0.655686 0.374367 0.655686
v -0.0123744 0.0133939 0.0298744
vn -0.354855 0.374367 0.856696
v -0.00947092 0.0247487 0.0228648
vn -0.275095 0.695157 0.664138
v -0.00947092 -0.0247487 0.0228649
vn -0.275095 -0.695157 0.664139
v 1.07148e-08 -0.0133939 0.0323358
vn 2.16195e-07 -0.374367 0.927281
v -0.0123744 -0.0133939 0.0298744
vn -0.354855 -0.374367 0.856696
v -0.00947092 -0.0247487 0.0228649
vn -0.275095 -0.695157 0.664139
v 7.23783e-09 -0.0247487 0.0247487
vn 2.06275e-07 -0.695157 0.718858
v 1.07148e-08 -0.0133939 0.0323358
vn 2.16195e-07 -0.374367 0.927281
v -0.0133939 7.45058e-09 0.0323358
vn -0.382683 2.72682e-07 0.92388
v 1.07148e-08 0.0133939 0.0323358
vn 2.31279e-07 0.374367 0.92728
v -0.0123744 0.0133939 0.0298744
vn -0.354855 0.374367 0.856696
v -0.0133939 7.45058e-09 0.0323358
vn -0.382683 2.72682e-07 0.92388
v 9.84554e-09 7.45058e-09 0.035
vn 1.81788e-07 3.53477e-07 1
v 1.07148e-08 0.0133939 0.0323358
vn 2.31279e-07 0.374367 0.92728
v -0.00947092 0.0247487 0.0228648
vn -0.275095 0.695157 0.664138
v 3.7609e-09 0.0323358 0.0133939
vn 2.0821e-07 0.915159 0.403093
v -0.00512563 0.0323358 0.0123744
vn -0.154257 0.915159 0.372409
v -0.00947092 0.0247487 0.0228648
vn -0.275095 0.695157 0.664138
v 7.23783e-09 0.0247487 0.0247487
vn 1.06865e-07 0.695157 0.718858
v 3.7609e-09 0.0323358 0.0133939
vn 2.0821e-07 0.915159 0.403093
v -0.00512563 -0.0323358 0.0123744
vn -0.154257 -0.915159 0.37241
v 7.23783e-09 -0.0247487 0.0247487
vn 2.06275e-07 -0.695157 0.718858
v -0.00947092 -0.0247487 0.0228649
vn -0.275095 -0.695157 0.664139
v -0.00512563 -0.0323358 0.0123744
vn -0.154257 -0.915159 0.37241
v 4.63013e-09 -0.0323358 0.0133939
vn 1.57994e-07 -0.915159 0.403093
v 7.23783e-09 -0.0247487 0.0247487
vn 2.06275e-07 -0.695157 0.718858
v -0.0123744 -0.0133939 0.0298744
vn -0.354855 -0.374367 0.856696
v 9.84554e-09 7.45058e-09 0.035
vn 1.81788e-07 3.53477e-07 1
v -0.0133939 7.45058e-09 0.0323358
vn -0.382683 2.72682e-07 0.92388
v -0.0123744 -0.0133939 0.0298744
vn -0.354855 -0.374367 0.856696
v 1.07148e-08 -0.0133939 0.0323358
vn 2.16195e-07 -0.374367 0.927281
v 9.84554e-09 7.45058e-09 0.035
vn 1.81788e-07 3.53477e-07 1
v -0.0123744 0.0133939 0.0298744
vn -0.354855 0.374367 0.856696
v 7.23783e-09 0.0247487 0.0247487
vn 1.06865e-07 0.695157 0.718858
v -0.00947092 0.0247487 0.0228648
vn -0.275095 0.695157 0.664138
v -0.0123744 0.0133939 0.0298744
vn -0.354855 0.374367 0.856696
v 1.07148e-08 0.0133939 0.0323358
vn 2.31279e-07 0.374367 0.92728
v 7.23783e-09 0.0247487 0.0247487
vn 1.06865e-07 0.695157 0.718858
v 4.63013e-09 -0.0323358 0.0133939
vn 1.57994e-07 -0.915159 0.403093
v 0.00947094 -0.0247487 0.0228649
vn 0.275095 -0.695157 0.664138
v 7.23783e-09 -0.0247487 0.0247487
vn 2.06275e-07 -0.695157 0.718858
v 4.63013e-09 -0.0323358 0.0133939
vn 1.57994e-07 -0.915159 0.403093
v 0.00512564 -0.0323358 0.0123744
vn 0.154257 -0.915159 0.372409
v 0.00947094 -0.0247487 0.0228649
vn 0.275095 -0.695157 0.664138
v 1.07148e-08 -0.0133939 0.0323358
vn 2.16195e-07 -0.374367 0.927281
v 0.0133939 7.45058e-09 0.0323358
vn 0.382684 1.41391e-07 0.923879
v 9.84554e-09 7.45058e-09 0.035
vn 1.81788e-07 3.53477e-07 1
v 1.07148e-08 -0.0133939 0.0323358
vn 2.16195e-07 -0.374367 0.927281
v 0.0123744 -0.0133939 0.0298744
vn 0.354855 -0.374367 0.856696
v 0.0133939 7.45058e-09 0.0323358
vn 0.382684 1.41391e-07 0.923879
v 1.07148e-08 0.0133939 0.0323358
vn 2.31279e-07 0.374367 0.92728
v 0.00947094 0.0247487 0.0228648
vn 0.275095 0.695157 0.664138
v 7.23783e-09 0.0247487 0.0247487
vn 1.06865e-07 0.695157 0.718858
v 1.07148e-08 0.0133939 0.0323358
vn 2.31279e-07 0.374367 0.92728
v 0.0123744 0.0133939 0.0298744
vn 0.354855 0.374367 0.856695
v 0.00947094 0.0247487 0.0228648
vn 0.275095 0.695157 0.664138
v 7.23783e-09 -0.0247487 0.0247487
vn 2.06275e-07 -0.695157 0.718858
v 0.0123744 -0.0133939 0.0298744
vn 0.354855 -0.374367 0.856696
v 1.07148e-08 -0.0133939 0.0323358
vn 2.16195e-07 -0.374367 0.927281
v 7.23783e-09 -0.0247487 0.0247487
vn 2.06275e-07 -0.695157 0.718858
v 0.00947094 -0.0247487 0.0228649
vn 0.275095 -0.695157 0.664138
v 0.0123744 -0.0133939 0.0298744
vn 0.354855 -0.374367 0.856696
v 9.84554e-09 7.45058e-09 0.035
vn 1.81788e-07 3.53477e-07 1
v 0.0123744 0.0133939 0.0298744
vn 0.354855 0.374367 0.856695
v 1.07148e-08 0.0133939 0.0323358
vn 2.31279e-07 0.374367 0.92728
v 9.84554e-09 7.45058e-09 0.035
vn 1.81788e-07 3.53477e-07 1
v 0.0133939 7.45058e-09 0.0323358
vn 0.382684 1.41391e-07 0.923879
v 0.0123744 0.0133939 0.0298744
vn 0.354855 0.374367 0.856695
v 7.23783e-09 0.0247487 0.0247487
vn 1.06865e-07 0.695157 0.718858
v 0.00512564 0.0323358 0.0123744
vn 0.154257 0.915159 0.372409
v 3.7609e-09 0.0323358 0.0133939
vn 2.0821e-07 0.915159 0.403093
v 7.23783e-09 0.0247487 0.0247487
vn 1.06865e-07 0.695157 0.718858
v 0.00947094 0.0247487 0.0228648
vn 0.275095 0.695157 0.664138
v 0.00512564 0.0323358 0.0123744
vn 0.154257 0.915159 0.372409
v 0.0123744 -0.0133939 0.0298744
vn 0.354855 -0.374367 0.856696
v 0.0247487 7.45058e-09 0.0247487
vn 0.707107 7.06953e-08 0.707106
v 0.0133939 7.45058e-09 0.0323358
vn 0.382684 1.41391e-07 0.923879
v 0.0123744 -0.0133939 0.0298744
vn 0.354855 -0.374367 0.856696
v 0.0228649 -0.0133939 0.0228648
vn 0.655687 -0.374367 0.655686
v 0.0247487 7.45058e-09 0.0247487
vn 0.707107 7.06953e-08 0.707106
v 0.0123744 0.0133939 0.0298744
vn 0.354855 0.374367 0.856695
v 0.0175 0.0247487 0.0175
vn 0.50831 0.695157 0.508309
v 0.00947094 0.0247487 0.0228648
vn 0.275095 0.695157 0.664138
v 0.0123744 0.0133939 0.0298744
vn 0.354855 0.374367 0.856695
v 0.0228649 0.0133939 0.0228648
vn 0.655687 0.374367 0.655686
v 0.0175 0.0247487 0.0175
vn 0.50831 0.695157 0.508309
v 0.00947094 -0.0247487 0.0228649
vn 0.275095 -0.695157 0.664138
v 0.0228649 -0.0133939 0.0228648
vn 0.655687 -0.374367 0.655686
v 0.0123744 -0.0133939 0.0298744
vn 0.354855 -0.374367 0.856696
v 0.00947094 -0.0247487 0.0228649
vn 0.275095 -0.695157 0.664138
v 0.0175 -0.0247487 0.0175
vn 0.50831 -0.695157 0.50831
v 0.0228649 -0.0133939 0.0228648
vn 0.655687 -0.374367 0.655686
v 0.0133939 7.45058e-09 0.0323358
vn 0.382684 1.41391e-07 0.923879
v 0.0228649 0.0133939 0.0228648
vn 0.655687 0.374367 0.655686
v 0.0123744 0.0133939 0.0298744
vn 0.354855 0.374367 0.856695
v 0.0133939 7.45058e-09 0.0323358
vn 0.382684 1.41391e-07 0.923879
v 0.0247487 7.45058e-09 0.0247487
vn 0.707107 7.06953e-08 0.707106
v 0.0228649 0.0133939 0.0228648
vn 0.655687 0.374367 0.655686
v 0.00947094 0.0247487 0.0228648
vn 0.275095 0.695157 0.664138
v 0.00947094 0.0323358 0.00947092
vn 0.28503 0.915159 0.28503
v 0.00512564 0.0323358 0.0123744
vn 0.154257 0.915159 0.372409
v 0.00947094 0.0247487 0.0228648
vn 0.275095 0.695157 0.664138
v 0.0175 0.0247487 0.0175
vn 0.50831 0.695157 0.508309
v 0.00947094 0.0323358 0.00947092
vn 0.28503 0.915159 0.28503
v 0.00512564 -0.0323358 0.0123744
vn 0.154257 -0.915159 0.372409
v 0.0175 -0.0247487 0.0175
vn 0.50831 -0.695157 0.50831
v 0.00947094 -0.0247487 0.0228649
vn 0.275095 -0.695157 0.664138
v 0.00512564 -0.0323358 0.0123744
vn 0.154257 -0.915159 0.372409
v 0.00947094 -0.0323358 0.00947094
vn 0.28503 -0.915159 0.28503
v 0.0175 -0.0247487 0.0175
vn 0.50831 -0.695157 0.50831
v 0.0175 -0.0247487 0.0175
vn 0.50831 -0.695157 0.50831
v 0.0298744 -0.0133939 0.0123744
vn 0.856696 -0.374367 0.354855
v 0.0228649 -0.0133939 0.0228648
vn 0.655687 -0.374367 0.655686
v 0.0175 -0.0247487 0.0175
vn 0.50831 -0.695157 0.50831
v 0.0228649 -0.0247487 0.00947093
vn 0.664138 -0.695157 0.275095
v 0.0298744 -0.0133939 0.0123744
vn 0.856696 -0.374367 0.354855
v 0.0247487 7.45058e-09 0.0247487
vn 0.707107 7.06953e-08 0.707106
v 0.0298744 0.0133939 0.0123744
vn 0.856696 0.374367 0.354854
v 0.0228649 0.0133939 0.0228648
vn 0.655687 0.374367 0.655686
v 0.0247487 7.45058e-09 0.0247487
vn 0.707107 7.06953e-08 0.707106
v 0.0323358 3.72529e-09 0.0133939
vn 0.92388 2.57533e-07 0.382683
v 0.0298744 0.0133939 0.0123744
vn 0.856696 0.374367 0.354854
v 0.0175 0.0247487 0.0175
vn 0.50831 0.695157 0.508309
v 0.0123744 0.0323358 0.00512562
vn 0.372409 0.915159 0.154257
v 0.00947094 0.0323358 0.00947092
vn 0.28503 0.915159 0.28503
v 0.0175 0.0247487 0.0175
vn 0.50831 0.695157 0.508309
v 0.0228649 0.0247487 0.00947092
vn 0.664138 0.695157 0.275095
v 0.0123744 0.0323358 0.00512562
vn 0.372409 0.915159 0.154257
v 0.00947094 -0.0323358 0.00947094
vn 0.28503 -0.915159 0.28503
v 0.0228649 -0.0247487 0.00947093
vn 0.664138 -0.695157 0.275095
v 0.0175 -0.0247487 0.0175
vn 0.50831 -0.695157 0.50831
v 0.00947094 -0.0323358 0.00947094
vn 0.28503 -0.915159 0.28503
v 0.0123744 -0.0323358 0.00512564
vn 0.372409 -0.915159 0.154257
v 0.0228649 -0.0247487 0.00947093
vn 0.664138 -0.695157 0.275095
v 0.0228649 -0.0133939 0.0228648
vn 0.655687 -0.374367 0.655686
v 0.0323358 3.72529e-09 0.0133939
vn 0.92388 2.57533e-07 0.382683
v 0.0247487 7.45058e-09 0.0247487
vn 0.707107 7.06953e-08 0.707106
v 0.0228649 -0.0133939 0.0228648
vn 0.655687 -0.374367 0.655686
v 0.0298744 -0.0133939 0.0123744
vn 0.856696 -0.374367 0.354855
v 0.0323358 3.72529e-09 0.0133939
vn 0.92388 2.57533e-07 0.382683
v 0.0228649 0.0133939 0.0228648
vn 0.655687 0.374367 0.655686
v 0.0228649 0.0247487 0.00947092
vn 0.664138 0.695157 0.275095
v 0.0175 0.0247487 0.0175
vn 0.50831 0.695157 0.508309
v 0.0228649 0.0133939 0.0228648
vn 0.655687 0.374367 0.655686
v 0.0298744 0.0133939 0.0123744
vn 0.856696 0.374367 0.354854
v 0.0228649 0.0247487 0.00947092
vn 0.664138 0.695157 0.275095
v 0.0323358 3.72529e-09 0.0133939
vn 0.92388 2.57533e-07 0.382683
v 0.0323358 0.0133939 -1.73786e-08
vn 0.927281 0.374367 -3.51946e-07
v 0.0298744 0.0133939 0.0123744
vn 0.856696 0.374367 0.354854
v 0.0323358 3.72529e-09 0.0133939
vn 0.92388 2.57533e-07 0.382683
v 0.035 -2.77556e-16 -1.36048e-08
vn 1 -4.29222e-08 -2.72682e-07
v 0.0323358 0.0133939 -1.73786e-08
vn 0.927281 0.374367 -3.51946e-07
v 0.0228649 0.0247487 0.00947092
vn 0.664138 0.695157 0.275095
v 0.0133939 0.0323358 -1.56873e-08
vn 0.403093 0.915159 -3.69878e-07
v 0.0123744 0.0323358 0.00512562
vn 0.372409 0.915159 0.154257
v 0.0228649 0.0247487 0.00947092
vn 0.664138 0.695157 0.275095
v 0.0247487 0.0247487 -1.78379e-08
vn 0.718858 0.695157 -5.24386e-07
v 0.0133939 0.0323358 -1.56873e-08
vn 0.403093 0.915159 -3.69878e-07
v 0.0123744 -0.0323358 0.00512564
vn 0.372409 -0.915159 0.154257
v 0.0247487 -0.0247487 -6.79255e-10
vn 0.718858 -0.695157 -1.59055e-07
v 0.0228649 -0.0247487 0.00947093
vn 0.664138 -0.695157 0.275095
v 0.0123744 -0.0323358 0.00512564
vn 0.372409 -0.915159 0.154257
v 0.0133939 -0.0323358 6.29703e-09
vn 0.403093 -0.915159 -1.64118e-07
v 0.0247487 -0.0247487 -6.79255e-10
vn 0.718858 -0.695157 -1.59055e-07
v 0.0298744 -0.0133939 0.0123744
vn 0.856696 -0.374367 0.354855
v 0.035 -2.77556e-16 -1.36048e-08
vn 1 -4.29222e-08 -2.72682e-07
v 0.0323358 3.72529e-09 0.0133939
vn 0.92388 2.57533e-07 0.382683
v 0.0298744 -0.0133939 0.0123744
vn 0.856696 -0.374367 0.354855
v 0.0323358 -0.0133939 -8.09243e-09
vn 0.927281 -0.374367 -2.63959e-07
v 0.035 -2.77556e-16 -1.36048e-08
vn 1 -4.29222e-08 -2.72682e-07
v 0.0298744 0.0133939 0.0123744
vn 0.856696 0.374367 0.354854
v 0.0247487 0.0247487 -1.78379e-08
vn 0.718858 0.695157 -5.24386e-07
v 0.0228649 0.0247487 0.00947092
vn 0.664138 0.695157 0.275095
v 0.0298744 0.0133939 0.0123744
vn 0.856696 0.374367 0.354854
v 0.0323358 0.0133939 -1.73786e-08
vn 0.927281 0.374367 -3.51946e-07
v 0.0247487 0.0247487 -1.78379e-08
vn 0.718858 0.695157 -5.24386e-07
v 0.0228649 -0.0247487 0.00947093
vn 0.664138 -0.695157 0.275095
v 0.0323358 -0.0133939 -8.09243e-09
vn 0.927281 -0.374367 -2.63959e-07
v 0.0298744 -0.0133939 0.0123744
vn 0.856696 -0.374367 0.354855
v 0.0228649 -0.0247487 0.00947093
vn 0.664138 -0.695157 0.275095
v 0.0247487 -0.0247487 -6.79255e-10
vn 0.718858 -0.695157 -1.59055e-07
v 0.0323358 -0.0133939 -8.09243e-09
vn 0.927281 -0.374367 -2.63959e-07
v 0.0133939 -0.0323358 6.29703e-09
vn 0.403093 -0.915159 -1.64118e-07
v 0.0228648 -0.0247487 -0.00947093
vn 0.664138 -0.695157 -0.275095
v 0.0247487 -0.0247487 -6.79255e-10
vn 0.718858 -0.695157 -1.59055e-07
v 0.0133939 -0.0323358 6.29703e-09
vn 0.403093 -0.915159 -1.64118e-07
v 0.0123744 -0.0323358 -0.00512563
vn 0.372409 -0.915159 -0.154257
v 0.0228648 -0.0247487 -0.00947093
vn 0.664138 -0.695157 -0.275095
v 0.0323358 -0.0133939 -8.09243e-09
vn 0.927281 -0.374367 -2.63959e-07
v 0.0323358 -3.72529e-09 -0.0133939
vn 0.923879 -1.31291e-07 -0.382684
v 0.035 -2.77556e-16 -1.36048e-08
vn 1 -4.29222e-08 -2.72682e-07
v 0.0323358 -0.0133939 -8.09243e-09
vn 0.927281 -0.374367 -2.63959e-07
v 0.0298744 -0.0133939 -0.0123744
vn 0.856696 -0.374367 -0.354855
v 0.0323358 -3.72529e-09 -0.0133939
vn 0.923879 -1.31291e-07 -0.382684
v 0.0323358 0.0133939 -1.73786e-08
vn 0.927281 0.374367 -3.51946e-07
v 0.0228648 0.0247487 -0.00947095
vn 0.664138 0.695157 -0.275095
v 0.0247487 0.0247487 -1.78379e-08
vn 0.718858 0.695157 -5.24386e-07
v 0.0323358 0.0133939 -1.73786e-08
vn 0.927281 0.374367 -3.51946e-07
v 0.0298744 0.0133939 -0.0123744
vn 0.856695 0.374367 -0.354855
v 0.0228648 0.0247487 -0.00947095
vn 0.664138 0.695157 -0.275095
v 0.0247487 -0.0247487 -6.79255e-10
vn 0.718858 -0.695157 -1.59055e-07
v 0.0298744 -0.0133939 -0.0123744
vn 0.856696 -0.374367 -0.354855
v 0.0323358 -0.0133939 -8.09243e-09
vn 0.927281 -0.374367 -2.63959e-07
v 0.0247487 -0.0247487 -6.79255e-10
vn 0.718858 -0.695157 -1.59055e-07
v 0.0228648 -0.0247487 -0.00947093
vn 0.664138 -0.695157 -0.275095
v 0.0298744 -0.0133939 -0.0123744
vn 0.856696 -0.374367 -0.354855
v 0.035 -2.77556e-16 -1.36048e-08
vn 1 -4.29222e-08 -2.72682e-07
v 0.0298744 0.0133939 -0.0123744
vn 0.856695 0.374367 -0.354855
v 0.0323358 0.0133939 -1.73786e-08
vn 0.927281 0.374367 -3.51946e-07
v 0.035 -2.77556e-16 -1.36048e-08
vn 1 -4.29222e-08 -2.72682e-07
v 0.0323358 -3.72529e-09 -0.0133939
vn 0.923879 -1.31291e-07 -0.382684
v 0.0298744 0.0133939 -0.0123744
vn 0.856695 0.374367 -0.354855
v 0.0247487 0.0247487 -1.78379e-08
vn 0.718858 0.695157 -5.24386e-07
v 0.0123744 0.0323358 -0.00512565
vn 0.372409 0.915159 -0.154258
v 0.0133939 0.0323358 -1.56873e-08
vn 0.403093 0.915159 -3.69878e-07
v 0.0247487 0.0247487 -1.78379e-08
vn 0.718858 0.695157 -5.24386e-07
v 0.0228648 0.0247487 -0.00947095
vn 0.664138 0.695157 -0.275095
v 0.0123744 0.0323358 -0.00512565
vn 0.372409 0.915159 -0.154258
v 0.0298744 0.0133939 -0.0123744
vn 0.856695 0.374367 -0.354855
v 0.0175 0.0247487 -0.0175
vn 0.508309 0.695157 -0.50831
v 0.0228648 0.0247487 -0.00947095
vn 0.664138 0.695157 -0.275095
v 0.0298744 0.0133939 -0.0123744
vn 0.856695 0.374367 -0.354855
v 0.0228648 0.0133939 -0.0228649
vn 0.655686 0.374367 -0.655687
v 0.0175 0.0247487 -0.0175
vn 0.508309 0.695157 -0.50831
v 0.0228648 -0.0247487 -0.00947093
vn 0.664138 -0.695157 -0.275095
v 0.0228648 -0.0133939 -0.0228649
vn 0.655686 -0.374367 -0.655687
v 0.0298744 -0.0133939 -0.0123744
vn 0.856696 -0.374367 -0.354855
v 0.0228648 -0.0247487 -0.00947093
vn 0.664138 -0.695157 -0.275095
v 0.0175 -0.0247487 -0.0175
vn 0.508309 -0.695157 -0.508309
v 0.0228648 -0.0133939 -0.0228649
vn 0.655686 -0.374367 -0.655687
v 0.0323358 -3.72529e-09 -0.0133939
vn 0.923879 -1.31291e-07 -0.382684
v 0.0228648 0.0133939 -0.0228649
vn 0.655686 0.374367 -0.655687
v 0.0298744 0.0133939 -0.0123744
vn 0.856695 0.374367 -0.354855
v 0.0323358 -3.72529e-09 -0.0133939
vn 0.923879 -1.31291e-07 -0.382684
v 0.0247487 -7.45058e-09 -0.0247488
vn 0.707106 -9.59437e-08 -0.707107
v 0.0228648 0.0133939 -0.0228649
vn 0.655686 0.374367 -0.655687
v 0.0228648 0.0247487 -0.00947095
vn 0.664138 0.695157 -0.275095
v 0.00947093 0.0323358 -0.00947095
vn 0.28503 0.915159 -0.28503
v 0.0123744 0.0323358 -0.00512565
vn 0.372409 0.915159 -0.154258
v 0.0228648 0.0247487 -0.00947095
vn 0.664138 0.695157 -0.275095
v 0.0175 0.0247487 -0.0175
vn 0.508309 0.695157 -0.50831
v 0.00947093 0.0323358 -0.00947095
vn 0.28503 0.915159 -0.28503
v 0.0123744 -0.0323358 -0.00512563
vn 0.372409 -0.915159 -0.154257
v 0.0175 -0.0247487 -0.0175
vn 0.508309 -0.695157 -0.508309
v 0.0228648 -0.0247487 -0.00947093
vn 0.664138 -0.695157 -0.275095
v 0.0123744 -0.0323358 -0.00512563
vn 0.372409 -0.915159 -0.154257
v 0.00947093 -0.0323358 -0.00947092
vn 0.28503 -0.915159 -0.285029
v 0.0175 -0.0247487 -0.0175
vn 0.508309 -0.695157 -0.508309
v 0.0298744 -0.0133939 -0.0123744
vn 0.856696 -0.374367 -0.354855
v 0.0247487 -7.45058e-09 -0.0247488
vn 0.707106 -9.59437e-08 -0.707107
v 0.0323358 -3.72529e-09 -0.0133939
vn 0.923879 -1.31291e-07 -0.382684
v 0.0298744 -0.0133939 -0.0123744
vn 0.856696 -0.374367 -0.354855
v 0.0228648 -0.0133939 -0.0228649
vn 0.655686 -0.374367 -0.655687
v 0.0247487 -7.45058e-09 -0.0247488
vn 0.707106 -9.59437e-08 -0.707107
v 0.0175 -0.0247487 -0.0175
vn 0.508309 -0.695157 -0.508309
v 0.0123744 -0.0133939 -0.0298744
vn 0.354855 -0.374367 -0.856696
v 0.0228648 -0.0133939 -0.0228649
vn 0.655686 -0.374367 -0.655687
v 0.0175 -0.0247487 -0.0175
vn 0.508309 -0.695157 -0.508309
v 0.00947092 -0.0247487 -0.0228648
vn 0.275095 -0.695157 -0.664138
v 0.0123744 -0.0133939 -0.0298744
vn 0.354855 -0.374367 -0.856696
v 0.0247487 -7.45058e-09 -0.0247488
vn 0.707106 -9.59437e-08 -0.707107
v 0.0123744 0.0133939 -0.0298744
vn 0.354855 0.374367 -0.856696
v 0.0228648 0.0133939 -0.0228649
vn 0.655686 0.374367 -0.655687
v 0.0247487 -7.45058e-09 -0.0247488
vn 0.707106 -9.59437e-08 -0.707107
v 0.0133939 -1.11759e-08 -0.0323358
vn 0.382683 -3.30753e-07 -0.92388
v 0.0123744 0.0133939 -0.0298744
vn 0.354855 0.374367 -0.856696
v 0.0175 0.0247487 -0.0175
vn 0.508309 0.695157 -0.50831
v 0.00512562 0.0323358 -0.0123744
vn 0.154257 0.915159 -0.372409
v 0.00947093 0.0323358 -0.00947095
vn 0.28503 0.915159 -0.28503
v 0.0175 0.0247487 -0.0175
vn 0.508309 0.695157 -0.50831
v 0.00947092 0.0247487 -0.0228649
vn 0.275095 0.695157 -0.664139
v 0.00512562 0.0323358 -0.0123744
vn 0.154257 0.915159 -0.372409
v 0.00947093 -0.0323358 -0.00947092
vn 0.28503 -0.915159 -0.285029
v 0.00947092 -0.0247487 -0.0228648
vn 0.275095 -0.695157 -0.664138
v 0.0175 -0.0247487 -0.0175
vn 0.508309 -0.695157 -0.508309
v 0.00947093 -0.0323358 -0.00947092
vn 0.28503 -0.915159 -0.285029
v 0.00512562 -0.0323358 -0.0123744
vn 0.154257 -0.915159 -0.372409
v 0.00947092 -0.0247487 -0.0228648
vn 0.275095 -0.695157 -0.664138
v 0.0228648 -0.0133939 -0.0228649
vn 0.655686 -0.374367 -0.655687
v 0.0133939 -1.11759e-08 -0.0323358
vn 0.382683 -3.30753e-07 -0.92388
v 0.0247487 -7.45058e-09 -0.0247488
vn 0.707106 -9.59437e-08 -0.707107
v 0.0228648 -0.0133939 -0.0228649
vn 0.655686 -0.374367 -0.655687
v 0.0123744 -0.0133939 -0.0298744
vn 0.354855 -0.374367 -0.856696
v 0.0133939 -1.11759e-08 -0.0323358
vn 0.382683 -3.30753e-07 -0.92388
v 0.0228648 0.0133939 -0.0228649
vn 0.655686 0.374367 -0.655687
v 0.00947092 0.0247487 -0.0228649
vn 0.275095 0.695157 -0.664139
v 0.0175 0.0247487 -0.0175
vn 0.508309 0.695157 -0.50831
v 0.0228648 0.0133939 -0.0228649
vn 0.655686 0.374367 -0.655687
v 0.0123744 0.0133939 -0.0298744
vn 0.354855 0.374367 -0.856696
v 0.00947092 0.0247487 -0.0228649
vn 0.275095 0.695157 -0.664139
v 0.00947092 0.0247487 -0.0228649
vn 0.275095 0.695157 -0.664139
v -7.10454e-09 0.0323358 -0.0133939
vn 1.32274e-07 0.915159 -0.403093
v 0.00512562 0.0323358 -0.0123744
vn 0.154257 0.915159 -0.372409
v 0.00947092 0.0247487 -0.0228649
vn 0.275095 0.695157 -0.664139
v 0 0.0247487 -0.0247487
vn 1.24262e-07 0.695156 -0.718859
v -7.10454e-09 0.0323358 -0.0133939
vn 1.32274e-07 0.915159 -0.403093
v 0.00512562 -0.0323358 -0.0123744
vn 0.154257 -0.915159 -0.372409
v -1.10161e-08 -0.0247487 -0.0247487
vn -1.44144e-07 -0.695157 -0.718858
v 0.00947092 -0.0247487 -0.0228648
vn 0.275095 -0.695157 -0.664138
v 0.00512562 -0.0323358 -0.0123744
vn 0.154257 -0.915159 -0.372409
v 0 -0.0323358 -0.0133939
vn 1.39623e-07 -0.915159 -0.403093
v -1.10161e-08 -0.0247487 -0.0247487
vn -1.44144e-07 -0.695157 -0.718858
v 0.0123744 -0.0133939 -0.0298744
vn 0.354855 -0.374367 -0.856696
v -1.797e-08 -1.11759e-08 -0.035
vn -3.83775e-07 -3.88824e-07 -1
v 0.0133939 -1.11759e-08 -0.0323358
vn 0.382683 -3.30753e-07 -0.92388
v 0.0123744 -0.0133939 -0.0298744
vn 0.354855 -0.374367 -0.856696
v 0 -0.0133939 -0.0323358
vn -4.77641e-08 -0.374368 -0.92728
v -1.797e-08 -1.11759e-08 -0.035
vn -3.83775e-07 -3.88824e-07 -1
v 0.0123744 0.0133939 -0.0298744
vn 0.354855 0.374367 -0.856696
v 0 0.0247487 -0.0247487
vn 1.24262e-07 0.695156 -0.718859
v 0.00947092 0.0247487 -0.0228649
vn 0.275095 0.695157 -0.664139
v 0.0123744 0.0133939 -0.0298744
vn 0.354855 0.374367 -0.856696
v 0 0.0133939 -0.0323358
vn -3.77085e-08 0.374367 -0.927281
v 0 0.0247487 -0.0247487
vn 1.24262e-07 0.695156 -0.718859
v 0.00947092 -0.0247487 -0.0228648
vn 0.275095 -0.695157 -0.664138
v 0 -0.0133939 -0.0323358
vn -4.77641e-08 -0.374368 -0.92728
v 0.0123744 -0.0133939 -0.0298744
vn 0.354855 -0.374367 -0.856696
v 0.00947092 -0.0247487 -0.0228648
vn 0.275095 -0.695157 -0.664138
v -1.10161e-08 -0.0247487 -0.0247487
vn -1.44144e-07 -0.695157 -0.718858
v 0 -0.0133939 -0.0323358
vn -4.77641e-08 -0.374368 -0.92728
v 0.0133939 -1.11759e-08 -0.0323358
vn 0.382683 -3.30753e-07 -0.92388
v 0 0.0133939 -0.0323358
vn -3.77085e-08 0.374367 -0.927281
v 0.0123744 0.0133939 -0.0298744
vn 0.354855 0.374367 -0.856696
v 0.0133939 -1.11759e-08 -0.0323358
vn 0.382683 -3.30753e-07 -0.92388
v -1.797e-08 -1.11759e-08 -0.035
vn -3.83775e-07 -3.88824e-07 -1
v 0 0.0133939 -0.0323358
vn -3.77085e-08 0.374367 -0.927281
vt 0.45827 0.701172
vt 0.45827 0.669902
vt 0.537703 0.687859
vt 0.205912 0.606541
vt 0.285344 0.593228
vt 0.285344 0.624498
vt 0.45827 0.669902
vt 0.470363 0.641012
vt 0.537703 0.687859
vt 0.205912 0.606541
vt 0.273251 0.564338
vt 0.285344 0.593228
vt 0.470363 0.641012
vt 0.492708 0.6189
vt 0.537703 0.687859
vt 0.205912 0.606541
vt 0.250906 0.542226
vt 0.273251 0.564338
vt 0.205912 0.606541
vt 0.221712 0.53026
vt 0.250906 0.542226
vt 0.492708 0.6189
vt 0.521902 0.606934
vt 0.537703 0.687859
vt 0.521902 0.606934
vt 0.553503 0.606934
vt 0.537703 0.687859
vt 0.205912 0.606541
vt 0.190111 0.53026
vt 0.221712 0.53026
vt 0.553503 0.606934
vt 0.582697 0.6189
vt 0.537703 0.687859
vt 0.205912 0.606541
vt 0.160916 0.542226
vt 0.190111 0.53026
vt 0.582697 0.6189
vt 0.605042 0.641012
vt 0.537703 0.687859
vt 0.205912 0.606541
vt 0.138572 0.564338
vt 0.160916 0.542226
vt 0.605042 0.641012
vt 0.617135 0.669902
vt 0.537703 0.687859
vt 0.205912 0.606541
vt 0.126479 0.593228
vt 0.138572 0.564338
vt 0.617135 0.669902
vt 0.617135 0.701172
vt 0.537703 0.687859
vt 0.205912 0.606541
vt 0.126479 0.624498
vt 0.126479 0.593228
vt 0.617135 0.701172
vt 0.605042 0.730062
vt 0.537703 0.687859
vt 0.205912 0.606541
vt 0.138572 0.653388
vt 0.126479 0.624498
vt 0.205912 0.606541
vt 0.160917 0.675499
vt 0.138572 0.653388
vt 0.605042 0.730062
vt 0.582697 0.752173
vt 0.537703 0.687859
vt 0.582697 0.752173
vt 0.553503 0.76414
vt 0.537703 0.687859
vt 0.205912 0.606541
vt 0.190112 0.687466
vt 0.160917 0.675499
vt 0.553503 0.76414
vt 0.521902 0.76414
vt 0.537703 0.687859
vt 0.205912 0.606541
vt 0.221712 0.687466
vt 0.190112 0.687466
vt 0.521902 0.76414
vt 0.492708 0.752173
vt 0.537703 0.687859
vt 0.205912 0.606541
vt 0.250907 0.675499
vt 0.221712 0.687466
vt 0.205912 0.606541
vt 0.273251 0.653388
vt 0.250907 0.675499
vt 0.492708 0.752173
vt 0.470363 0.730062
vt 0.537703 0.687859
vt 0.470363 0.730062
vt 0.45827 0.701172
vt 0.537703 0.687859
vt 0.205912 0.606541
vt 0.285344 0.624498
vt 0.273251 0.653388
vt 0.591061 0.163358
vt 0.525918 0.247202
vt 0.509027 0.172805
vt 0.591061 0.163358
vt 0.603989 0.220299
vt 0.525918 0.247202
vt 0.79042 0.653964
vt 0.777831 0.76414
vt 0.73093 0.711231
vt 0.79042 0.653964
vt 0.841186 0.711231
vt 0.777831 0.76414
vt 0.886643 0.858369
vt 0.968771 0.901929
vt 0.942876 0.918807
vt 0.886643 0.858369
vt 0.934493 0.827183
vt 0.968771 0.901929
vt 0.667439 0.159753
vt 0.603989 0.220299
vt 0.591061 0.163358
vt 0.667439 0.159753
vt 0.674436 0.190569
vt 0.603989 0.220299
vt 0.846605 0.158217
vt 0.917249 0.243696
vt 0.840785 0.240553
vt 0.846605 0.158217
vt 0.917249 0.16112
vt 0.917249 0.243696
vt 0.832747 0.805357
vt 0.934493 0.827183
vt 0.886643 0.858369
vt 0.832747 0.805357
vt 0.895265 0.76461
vt 0.934493 0.827183
vt 0.674906 0.398654
vt 0.739093 0.465904
vt 0.683848 0.480398
vt 0.674906 0.398654
vt 0.704804 0.39081
vt 0.739093 0.465904
vt 0.917249 0.16112
vt 0.999765 0.240553
vt 0.917249 0.243696
vt 0.917249 0.16112
vt 0.993484 0.158217
vt 0.999765 0.240553
vt 0.000235115 0.869291
vt 0.0863626 0.926379
vt 0.0340629 0.944401
vt 0.000235115 0.869291
vt 0.068568 0.845743
vt 0.0863626 0.926379
vt 0.603989 0.220299
vt 0.557129 0.312392
vt 0.525918 0.247202
vt 0.603989 0.220299
vt 0.627876 0.270193
vt 0.557129 0.312392
vt 0.917249 0.243696
vt 0.999535 0.317082
vt 0.9233 0.319985
vt 0.917249 0.243696
vt 0.999765 0.240553
vt 0.999535 0.317082
vt 0.934493 0.827183
vt 0.997284 0.895737
vt 0.968771 0.901929
vt 0.934493 0.827183
vt 0.987178 0.815741
vt 0.997284 0.895737
vt 0.068568 0.845743
vt 0.144408 0.92005
vt 0.0863626 0.926379
vt 0.068568 0.845743
vt 0.144408 0.837475
vt 0.144408 0.92005
vt 0.739093 0.465904
vt 0.836846 0.490686
vt 0.773509 0.533214
vt 0.739093 0.465904
vt 0.787569 0.433354
vt 0.836846 0.490686
vt 0.057163 0.770135
vt 0.144408 0.837475
vt 0.068568 0.845743
vt 0.057163 0.770135
vt 0.139252 0.761185
vt 0.144408 0.837475
vt 0.0863626 0.926379
vt 0.139252 0.99634
vt 0.107838 0.999765
vt 0.0863626 0.926379
vt 0.144408 0.92005
vt 0.139252 0.99634
vt 0.704804 0.39081
vt 0.787569 0.433354
vt 0.739093 0.465904
vt 0.704804 0.39081
vt 0.731039 0.373194
vt 0.787569 0.433354
vt 0.454563 0.915281
vt 0.56418 0.932054
vt 0.505021 0.980603
vt 0.454563 0.915281
vt 0.509218 0.870427
vt 0.56418 0.932054
vt 0.462955 0.809464
vt 0.56418 0.817518
vt 0.509218 0.870427
vt 0.462955 0.809464
vt 0.505022 0.768969
vt 0.56418 0.817518
vt 0.56418 0.932054
vt 0.674436 0.932054
vt 0.619474 0.984962
vt 0.56418 0.932054
vt 0.62367 0.874786
vt 0.674436 0.932054
vt 0.454563 0.555796
vt 0.521902 0.606934
vt 0.492708 0.6189
vt 0.454563 0.555796
vt 0.508508 0.533685
vt 0.521902 0.606934
vt 0.731039 0.373194
vt 0.821895 0.387705
vt 0.787569 0.433354
vt 0.731039 0.373194
vt 0.749616 0.348489
vt 0.821895 0.387705
vt 0.509218 0.870427
vt 0.62367 0.874786
vt 0.56418 0.932054
vt 0.509218 0.870427
vt 0.56418 0.817518
vt 0.62367 0.874786
vt 0.840785 0.0163784
vt 0.920217 0.082465
vt 0.866272 0.0947127
vt 0.840785 0.0163784
vt 0.911267 0.000376046
vt 0.920217 0.082465
vt 0.920217 0.082465
vt 0.965212 0.157746
vt 0.933612 0.157746
vt 0.920217 0.082465
vt 0.978607 0.0824651
vt 0.965212 0.157746
vt 0.749616 0.348489
vt 0.836846 0.335906
vt 0.821895 0.387705
vt 0.749616 0.348489
vt 0.757708 0.320456
vt 0.836846 0.335906
vt 0.56418 0.817518
vt 0.674436 0.817518
vt 0.62367 0.874786
vt 0.56418 0.817518
vt 0.611081 0.76461
vt 0.674436 0.817518
vt 0.911267 0.000376046
vt 0.978607 0.0824651
vt 0.920217 0.082465
vt 0.911267 0.000376046
vt 0.987557 0.000376105
vt 0.978607 0.0824651
vt 0.391059 0.336748
vt 0.296722 0.381743
vt 0.312725 0.31126
vt 0.391059 0.336748
vt 0.378811 0.390693
vt 0.296722 0.381743
vt 0.371577 0.76461
vt 0.295112 0.844043
vt 0.289522 0.77356
vt 0.371577 0.76461
vt 0.377628 0.8409
vt 0.295112 0.844043
vt 0.454092 0.404087
vt 0.378811 0.449082
vt 0.378811 0.390693
vt 0.454092 0.404087
vt 0.454092 0.435688
vt 0.378811 0.449082
vt 0.454092 0.844043
vt 0.377628 0.923475
vt 0.377628 0.8409
vt 0.454092 0.844043
vt 0.454092 0.920332
vt 0.377628 0.923475
vt 0.0455419 0.657385
vt 0.0455419 0.760715
vt 0.00162503 0.727079
vt 0.0517673 0.0690932
vt 0.124044 0.0690932
vt 0.116532 0.151126
vt 0.378811 0.390693
vt 0.296722 0.458032
vt 0.296722 0.381743
vt 0.378811 0.390693
vt 0.378811 0.449082
vt 0.296722 0.458032
vt 0.377628 0.8409
vt 0.295112 0.920332
vt 0.295112 0.844043
vt 0.377628 0.8409
vt 0.377628 0.923475
vt 0.295112 0.920332
vt 0.566897 0.533685
vt 0.582697 0.6189
vt 0.553503 0.606934
vt 0.566897 0.533685
vt 0.620842 0.555796
vt 0.582697 0.6189
vt 0.378811 0.449082
vt 0.312724 0.528515
vt 0.296722 0.458032
vt 0.378811 0.449082
vt 0.391059 0.503027
vt 0.312724 0.528515
vt 0.377628 0.923475
vt 0.289522 0.990815
vt 0.295112 0.920332
vt 0.377628 0.923475
vt 0.371577 0.999765
vt 0.289522 0.990815
vt 0.0567038 0.233686
vt 0.101699 0.308967
vt 0.0700985 0.308967
vt 0.0567038 0.233686
vt 0.115093 0.233686
vt 0.101699 0.308967
vt 0.377682 0.102294
vt 0.31489 0.170849
vt 0.296722 0.1167
vt 0.377682 0.102294
vt 0.387515 0.131599
vt 0.31489 0.170849
vt 0.517917 0.312862
vt 0.505328 0.423038
vt 0.454563 0.365771
vt 0.517917 0.312862
vt 0.564819 0.365771
vt 0.505328 0.423038
vt 0.0477538 0.151597
vt 0.115093 0.233686
vt 0.0567038 0.233686
vt 0.0477538 0.151597
vt 0.124044 0.151597
vt 0.115093 0.233686
vt 0.623977 0.317221
vt 0.619781 0.418679
vt 0.564819 0.365771
vt 0.623977 0.317221
vt 0.666043 0.357716
vt 0.619781 0.418679
vt 0.505328 0.423038
vt 0.509525 0.533214
vt 0.454563 0.480306
vt 0.505328 0.423038
vt 0.564819 0.480306
vt 0.509525 0.533214
vt 0.756939 0.312474
vt 0.833318 0.260762
vt 0.833318 0.290699
vt 0.756939 0.312474
vt 0.756939 0.257156
vt 0.833318 0.260762
vt 0.387515 0.131599
vt 0.350619 0.217031
vt 0.31489 0.170849
vt 0.387515 0.131599
vt 0.406851 0.156593
vt 0.350619 0.217031
vt 0.564819 0.365771
vt 0.564819 0.480306
vt 0.505328 0.423038
vt 0.564819 0.365771
vt 0.619781 0.418679
vt 0.564819 0.480306
vt 0.674906 0.319985
vt 0.756939 0.257156
vt 0.756939 0.312474
vt 0.674906 0.319985
vt 0.674906 0.247709
vt 0.756939 0.257156
vt 0.406851 0.156593
vt 0.398468 0.248217
vt 0.350619 0.217031
vt 0.406851 0.156593
vt 0.432747 0.17347
vt 0.398468 0.248217
vt 0.619781 0.418679
vt 0.623977 0.528855
vt 0.564819 0.480306
vt 0.619781 0.418679
vt 0.674436 0.463533
vt 0.623977 0.528855
vt 0.674906 0.247709
vt 0.769867 0.200216
vt 0.756939 0.257156
vt 0.674906 0.247709
vt 0.691797 0.173313
vt 0.769867 0.200216
vt 0.350619 0.217031
vt 0.35924 0.31079
vt 0.296722 0.270043
vt 0.350619 0.217031
vt 0.398468 0.248217
vt 0.35924 0.31079
vt 0.837316 0.399888
vt 0.91378 0.479321
vt 0.843136 0.482224
vt 0.837316 0.399888
vt 0.91378 0.396745
vt 0.91378 0.479321
vt 0.756939 0.257156
vt 0.840314 0.229946
vt 0.833318 0.260762
vt 0.756939 0.257156
vt 0.769867 0.200216
vt 0.840314 0.229946
vt 0.919831 0.320455
vt 0.996296 0.399888
vt 0.91378 0.396745
vt 0.919831 0.320455
vt 0.996066 0.323359
vt 0.996296 0.399888
vt 0.691797 0.173313
vt 0.793755 0.150321
vt 0.769867 0.200216
vt 0.691797 0.173313
vt 0.723008 0.108123
vt 0.793755 0.150321
vt 0.178706 0.816549
vt 0.213211 0.915206
vt 0.144878 0.891659
vt 0.178706 0.816549
vt 0.231006 0.834571
vt 0.213211 0.915206
vt 0.91378 0.396745
vt 0.990015 0.482224
vt 0.91378 0.479321
vt 0.91378 0.396745
vt 0.996296 0.399888
vt 0.990015 0.482224
vt 0.13462 0.151602
vt 0.153027 0.237791
vt 0.124514 0.231598
vt 0.13462 0.151602
vt 0.187306 0.163044
vt 0.153027 0.237791
vt 0.432747 0.17347
vt 0.451153 0.259659
vt 0.398468 0.248217
vt 0.432747 0.17347
vt 0.46126 0.179663
vt 0.451153 0.259659
vt 0.231006 0.834571
vt 0.289052 0.923475
vt 0.213211 0.915206
vt 0.231006 0.834571
vt 0.289052 0.8409
vt 0.289052 0.923475
vt 0.119637 0.313796
vt 0.123834 0.423973
vt 0.0691785 0.379119
vt 0.119637 0.313796
vt 0.178796 0.362346
vt 0.123834 0.423973
vt 0.187306 0.163044
vt 0.178923 0.254668
vt 0.153027 0.237791
vt 0.187306 0.163044
vt 0.235155 0.19423
vt 0.178923 0.254668
vt 0.252481 0.761185
vt 0.289052 0.8409
vt 0.231006 0.834571
vt 0.252481 0.761185
vt 0.283895 0.76461
vt 0.289052 0.8409
vt 0.213211 0.915206
vt 0.283895 0.999765
vt 0.201806 0.990815
vt 0.213211 0.915206
vt 0.289052 0.923475
vt 0.283895 0.999765
vt 0.226534 0.100471
vt 0.235155 0.19423
vt 0.187306 0.163044
vt 0.226534 0.100471
vt 0.289052 0.141218
vt 0.235155 0.19423
vt 0.178796 0.362346
vt 0.178796 0.476881
vt 0.123834 0.423973
vt 0.178796 0.362346
vt 0.238286 0.419613
vt 0.178796 0.476881
vt 0.235155 0.19423
vt 0.198259 0.279662
vt 0.178923 0.254668
vt 0.235155 0.19423
vt 0.270883 0.240412
vt 0.198259 0.279662
vt 0.160917 0.675499
vt 0.176717 0.760715
vt 0.122772 0.738604
vt 0.160917 0.675499
vt 0.190112 0.687466
vt 0.176717 0.760715
vt 0.23409 0.309437
vt 0.238286 0.419613
vt 0.178796 0.362346
vt 0.23409 0.309437
vt 0.289052 0.362346
vt 0.238286 0.419613
vt 0.123834 0.423973
vt 0.119637 0.52543
vt 0.0775712 0.484936
vt 0.123834 0.423973
vt 0.178796 0.476881
vt 0.119637 0.52543
vt 0.867143 0.669803
vt 0.912138 0.76414
vt 0.841656 0.748137
vt 0.867143 0.669803
vt 0.921088 0.682051
vt 0.912138 0.76414
vt 0.934483 0.60677
vt 0.979478 0.682051
vt 0.921088 0.682051
vt 0.934483 0.60677
vt 0.966083 0.60677
vt 0.979478 0.682051
vt 0.289522 0.75519
vt 0.377628 0.68785
vt 0.371577 0.76414
vt 0.289522 0.75519
vt 0.295112 0.684707
vt 0.377628 0.68785
vt 0.690908 0.981865
vt 0.756995 0.902432
vt 0.769243 0.956377
vt 0.690908 0.981865
vt 0.674906 0.911382
vt 0.756995 0.902432
vt 0.921088 0.682051
vt 0.988428 0.76414
vt 0.912138 0.76414
vt 0.921088 0.682051
vt 0.979478 0.682051
vt 0.988428 0.76414
vt 0.238286 0.419613
vt 0.225697 0.529789
vt 0.178796 0.476881
vt 0.238286 0.419613
vt 0.289052 0.476881
vt 0.225697 0.529789
vt 0.270883 0.240412
vt 0.208091 0.308967
vt 0.198259 0.279662
vt 0.270883 0.240412
vt 0.289052 0.294561
vt 0.208091 0.308967
vt 0.674906 0.911382
vt 0.756995 0.844043
vt 0.756995 0.902432
vt 0.674906 0.911382
vt 0.674906 0.835093
vt 0.756995 0.844043
vt 0.841656 0.523923
vt 0.913631 0.599709
vt 0.841656 0.606299
vt 0.00162509 0.553586
vt 0.0455419 0.587222
vt 0.00162508 0.656915
vt 0.377628 0.68785
vt 0.454092 0.608417
vt 0.454092 0.684707
vt 0.377628 0.68785
vt 0.377628 0.605275
vt 0.454092 0.608417
vt 0.756995 0.902432
vt 0.832276 0.857437
vt 0.832276 0.889037
vt 0.756995 0.902432
vt 0.756995 0.844043
vt 0.832276 0.857437
vt 0.221712 0.687466
vt 0.289052 0.738603
vt 0.235107 0.760715
vt 0.221712 0.687466
vt 0.250907 0.675499
vt 0.289052 0.738603
vt 0.295112 0.684707
vt 0.377628 0.605275
vt 0.377628 0.68785
vt 0.295112 0.684707
vt 0.295112 0.608418
vt 0.377628 0.605275
vt 0.0549622 0.678626
vt 0.122302 0.760715
vt 0.0460121 0.760715
vt 0.0549622 0.678626
vt 0.113352 0.678626
vt 0.122302 0.760715
vt 0.671771 0.548147
vt 0.675968 0.658323
vt 0.621312 0.613469
vt 0.671771 0.548147
vt 0.73093 0.596696
vt 0.675968 0.658323
vt 0.832747 0.958699
vt 0.92354 0.943801
vt 0.913707 0.973106
vt 0.832747 0.958699
vt 0.850915 0.904551
vt 0.92354 0.943801
vt 0.0683569 0.603345
vt 0.113352 0.678626
vt 0.0549622 0.678626
vt 0.0683569 0.603345
vt 0.0999571 0.603345
vt 0.113352 0.678626
vt 0.295112 0.608418
vt 0.371577 0.528985
vt 0.377628 0.605275
vt 0.295112 0.608418
vt 0.289522 0.537935
vt 0.371577 0.528985
vt 0.674906 0.835093
vt 0.769243 0.790098
vt 0.756995 0.844043
vt 0.674906 0.835093
vt 0.690908 0.76461
vt 0.769243 0.790098
vt 0.850915 0.904551
vt 0.942876 0.918807
vt 0.92354 0.943801
vt 0.850915 0.904551
vt 0.886643 0.858369
vt 0.942876 0.918807
vt 0.667439 0.129815
vt 0.591061 0.163358
vt 0.591061 0.108041
vt 0.0207516 0.460877
vt 0.0455419 0.477662
vt 0.0207516 0.553116
vt 0.786224 0.543788
vt 0.79042 0.653964
vt 0.73093 0.596696
vt 0.786224 0.543788
vt 0.841186 0.596696
vt 0.79042 0.653964
vt 0.675968 0.658323
vt 0.671771 0.759781
vt 0.629705 0.719286
vt 0.675968 0.658323
vt 0.73093 0.711231
vt 0.671771 0.759781
vt 0.591061 0.108041
vt 0.509027 0.172805
vt 0.509027 0.100529
vt 0.591061 0.108041
vt 0.591061 0.163358
vt 0.509027 0.172805
vt 0.73093 0.596696
vt 0.73093 0.711231
vt 0.675968 0.658323
vt 0.73093 0.596696
vt 0.79042 0.653964
vt 0.73093 0.711231
usemtl ed1e811f65504b4fa1bf47fa188ad63d_visual_0
f 1/1/1 2/2/2 3/3/3
f 4/4/4 5/5/5 6/6/6
f 7/7/7 8/8/8 9/9/9
f 10/10/10 11/11/11 12/12/12
f 13/13/13 14/14/14 15/15/15
f 16/16/16 17/17/17 18/18/18
f 19/19/19 20/20/20 21/21/21
f 22/22/22 23/23/23 24/24/24
f 25/25/25 26/26/26 27/27/27
f 28/28/28 29/29/29 30/30/30
f 31/31/31 32/32/32 33/33/33
f 34/34/34 35/35/35 36/36/36
f 37/37/37 38/38/38 39/39/39
f 40/40/40 41/41/41 42/42/42
f 43/43/43 44/44/44 45/45/45
f 46/46/46 47/47/47 48/48/48
f 49/49/49 50/50/50 51/51/51
f 52/52/52 53/53/53 54/54/54
f 55/55/55 56/56/56 57/57/57
f 58/58/58 59/59/59 60/60/60
f 61/61/61 62/62/62 63/63/63
f 64/64/64 65/65/65 66/66/66
f 67/67/67 68/68/68 69/69/69
f 70/70/70 71/71/71 72/72/72
f 73/73/73 74/74/74 75/75/75
f 76/76/76 77/77/77 78/78/78
f 79/79/79 80/80/80 81/81/81
f 82/82/82 83/83/83 84/84/84
f 85/85/85 86/86/86 87/87/87
f 88/88/88 89/89/89 90/90/90
f 91/91/91 92/92/92 93/93/93
f 94/94/94 95/95/95 96/96/96
f 97/97/97 98/98/98 99/99/99
f 100/100/100 101/101/101 102/102/102
f 103/103/103 104/104/104 105/105/105
f 106/106/106 107/107/107 108/108/108
f 109/109/109 110/110/110 111/111/111
f 112/112/112 113/113/113 114/114/114
f 115/115/115 116/116/116 117/117/117
f 118/118/118 119/119/119 120/120/120
f 121/121/121 122/122/122 123/123/123
f 124/124/124 125/125/125 126/126/126
f 127/127/127 128/128/128 129/129/129
f 130/130/130 131/131/131 132/132/132
f 133/133/133 134/134/134 135/135/135
f 136/136/136 137/137/137 138/138/138
f 139/139/139 140/140/140 141/141/141
f 142/142/142 143/143/143 144/144/144
f 145/145/145 146/146/146 147/147/147
f 148/148/148 149/149/149 150/150/150
f 151/151/151 152/152/152 153/153/153
f 154/154/154 155/155/155 156/156/156
f 157/157/157 158/158/158 159/159/159
f 160/160/160 161/161/161 162/162/162
f 163/163/163 164/164/164 165/165/165
f 166/166/166 167/167/167 168/168/168
f 169/169/169 170/170/170 171/171/171
f 172/172/172 173/173/173 174/174/174
f 175/175/175 176/176/176 177/177/177
f 178/178/178 179/179/179 180/180/180
f 181/181/181 182/182/182 183/183/183
f 184/184/184 185/185/185 186/186/186
f 187/187/187 188/188/188 189/189/189
f 190/190/190 191/191/191 192/192/192
f 193/193/193 194/194/194 195/195/195
f 196/196/196 197/197/197 198/198/198
f 199/199/199 200/200/200 201/201/201
f 202/202/202 203/203/203 204/204/204
f 205/205/205 206/206/206 207/207/207
f 208/208/208 209/209/209 210/210/210
f 211/211/211 212/212/212 213/213/213
f 214/214/214 215/215/215 216/216/216
f 217/217/217 218/218/218 219/219/219
f 220/220/220 221/221/221 222/222/222
f 223/223/223 224/224/224 225/225/225
f 226/226/226 227/227/227 228/228/228
f 229/229/229 230/230/230 231/231/231
f 232/232/232 233/233/233 234/234/234
f 235/235/235 236/236/236 237/237/237
f 238/238/238 239/239/239 240/240/240
f 241/241/241 242/242/242 243/243/243
f 244/244/244 245/245/245 246/246/246
f 247/247/247 248/248/248 249/249/249
f 250/250/250 251/251/251 252/252/252
f 253/253/253 254/254/254 255/255/255
f 256/256/256 257/257/257 258/258/258
f 259/259/259 260/260/260 261/261/261
f 262/262/262 263/263/263 264/264/264
f 265/265/265 266/266/266 267/267/267
f 268/268/268 269/269/269 270/270/270
f 271/271/271 272/272/272 273/273/273
f 274/274/274 275/275/275 276/276/276
f 277/277/277 278/278/278 279/279/279
f 280/280/280 281/281/281 282/282/282
f 283/283/283 284/284/284 285/285/285
f 286/286/286 287/287/287 288/288/288
f 289/289/289 290/290/290 291/291/291
f 292/292/292 293/293/293 294/294/294
f 295/295/295 296/296/296 297/297/297
f 298/298/298 299/299/299 300/300/300
f 301/301/301 302/302/302 303/303/303
f 304/304/304 305/305/305 306/306/306
f 307/307/307 308/308/308 309/309/309
f 310/310/310 311/311/311 312/312/312
f 313/313/313 314/314/314 315/315/315
f 316/316/316 317/317/317 318/318/318
f 319/319/319 320/320/320 321/321/321
f 322/322/322 323/323/323 324/324/324
f 325/325/325 326/326/326 327/327/327
f 328/328/328 329/329/329 330/330/330
f 331/331/331 332/332/332 333/333/333
f 334/334/334 335/335/335 336/336/336
f 337/337/337 338/338/338 339/339/339
f 340/340/340 341/341/341 342/342/342
f 343/343/343 344/344/344 345/345/345
f 346/346/346 347/347/347 348/348/348
f 349/349/349 350/350/350 351/351/351
f 352/352/352 353/353/353 354/354/354
f 355/355/355 356/356/356 357/357/357
f 358/358/358 359/359/359 360/360/360
f 361/361/361 362/362/362 363/363/363
f 364/364/364 365/365/365 366/366/366
f 367/367/367 368/368/368 369/369/369
f 370/370/370 371/371/371 372/372/372
f 373/373/373 374/374/374 375/375/375
f 376/376/376 377/377/377 378/378/378
f 379/379/379 380/380/380 381/381/381
f 382/382/382 383/383/383 384/384/384
f 385/385/385 386/386/386 387/387/387
f 388/388/388 389/389/389 390/390/390
f 391/391/391 392/392/392 393/393/393
f 394/394/394 395/395/395 396/396/396
f 397/397/397 398/398/398 399/399/399
f 400/400/400 401/401/401 402/402/402
f 403/403/403 404/404/404 405/405/405
f 406/406/406 407/407/407 408/408/408
f 409/409/409 410/410/410 411/411/411
f 412/412/412 413/413/413 414/414/414
f 415/415/415 416/416/416 417/417/417
f 418/418/418 419/419/419 420/420/420
f 421/421/421 422/422/422 423/423/423
f 424/424/424 425/425/425 426/426/426
f 427/427/427 428/428/428 429/429/429
f 430/430/430 431/431/431 432/432/432
f 433/433/433 434/434/434 435/435/435
f 436/436/436 437/437/437 438/438/438
f 439/439/439 440/440/440 441/441/441
f 442/442/442 443/443/443 444/444/444
f 445/445/445 446/446/446 447/447/447
f 448/448/448 449/449/449 450/450/450
f 451/451/451 452/452/452 453/453/453
f 454/454/454 455/455/455 456/456/456
f 457/457/457 458/458/458 459/459/459
f 460/460/460 461/461/461 462/462/462
f 463/463/463 464/464/464 465/465/465
f 466/466/466 467/467/467 468/468/468
f 469/469/469 470/470/470 471/471/471
f 472/472/472 473/473/473 474/474/474
f 475/475/475 476/476/476 477/477/477
f 478/478/478 479/479/479 480/480/480
f 481/481/481 482/482/482 483/483/483
f 484/484/484 485/485/485 486/486/486
f 487/487/487 488/488/488 489/489/489
f 490/490/490 491/491/491 492/492/492
f 493/493/493 494/494/494 495/495/495
f 496/496/496 497/497/497 498/498/498
f 499/499/499 500/500/500 501/501/501
f 502/502/502 503/503/503 504/504/504
f 505/505/505 506/506/506 507/507/507
f 508/508/508 509/509/509 510/510/510
f 511/511/511 512/512/512 513/513/513
f 514/514/514 515/515/515 516/516/516
f 517/517/517 518/518/518 519/519/519
f 520/520/520 521/521/521 522/522/522
f 523/523/523 524/524/524 525/525/525
f 526/526/526 527/527/527 528/528/528
f 529/529/529 530/530/530 531/531/531
f 532/532/532 533/533/533 534/534/534
f 535/535/535 536/536/536 537/537/537
f 538/538/538 539/539/539 540/540/540
f 541/541/541 542/542/542 543/543/543
f 544/544/544 545/545/545 546/546/546
f 547/547/547 548/548/548 549/549/549
f 550/550/550 551/551/551 552/552/552
f 553/553/553 554/554/554 555/555/555
f 556/556/556 557/557/557 558/558/558
f 559/559/559 560/560/560 561/561/561
f 562/562/562 563/563/563 564/564/564
f 565/565/565 566/566/566 567/567/567
f 568/568/568 569/569/569 570/570/570
f 571/571/571 572/572/572 573/573/573
f 574/574/574 575/575/575 576/576/576
f 577/577/577 578/578/578 579/579/579
f 580/580/580 581/581/581 582/582/582
f 583/583/583 584/584/584 585/585/585
f 586/586/586 587/587/587 588/588/588
f 589/589/589 590/590/590 591/591/591
f 592/592/592 593/593/593 594/594/594
f 595/595/595 596/596/596 597/597/597
f 598/598/598 599/599/599 600/600/600
f 601/601/601 602/602/602 603/603/603
f 604/604/604 605/605/605 606/606/606
f 607/607/607 608/608/608 609/609/609
f 610/610/610 611/611/611 612/612/612
f 613/613/613 614/614/614 615/615/615
f 616/616/616 617/617/617 618/618/618
f 619/619/619 620/620/620 621/621/621
f 622/622/622 623/623/623 624/624/624
f 625/625/625 626/626/626 627/627/627
f 628/628/628 629/629/629 630/630/630
f 631/631/631 632/632/632 633/633/633
f 634/634/634 635/635/635 636/636/636
f 637/637/637 638/638/638 639/639/639
f 640/640/640 641/641/641 642/642/642
f 643/643/643 644/644/644 645/645/645
f 646/646/646 647/647/647 648/648/648
f 649/649/649 650/650/650 651/651/651
f 652/652/652 653/653/653 654/654/654
f 655/655/655 656/656/656 657/657/657
f 658/658/658 659/659/659 660/660/660
f 661/661/661 662/662/662 663/663/663
f 664/664/664 665/665/665 666/666/666
f 667/667/667 668/668/668 669/669/669
f 670/670/670 671/671/671 672/672/672
