# Created by Open3D 
# object name: 556bcb16c03841e58f331792637b14b8_collider0
# number of vertices: 52
# number of triangles: 100
v 0.021229 0.151282 0.010974
v -0.027479 0.130765 -0.004403
v -0.024913 0.130765 -0.012097
v 0.02379 0.051282 0.008408
v 0.013535 0.130765 -0.024913
v -0.012097 0.051282 -0.022352
v -0.017224 0.051282 0.018663
v -0.00953 0.130765 0.026357
v -0.012097 0.151282 -0.019785
v 0.018663 0.051282 -0.017224
v 0.008408 0.051282 0.02379
v -0.017224 0.151282 0.016102
v 0.026357 0.130765 -0.00953
v -0.024913 0.051282 -0.001842
v 0.010974 0.130765 0.026357
v -0.024913 0.130765 0.013535
v 0.016102 0.151282 -0.017224
v -0.004403 0.130765 -0.027479
v 0.00328 0.051282 -0.024913
v 0.026357 0.130765 0.010974
v -0.017224 0.130765 -0.022352
v 0.008408 0.151282 0.021229
v -0.022352 0.051282 -0.012097
v -0.022352 0.151282 -0.006969
v 0.018663 0.130765 0.021229
v -0.006969 0.051282 0.02379
v 0.02379 0.051282 -0.006969
v -0.019785 0.135894 0.021229
v 0.021229 0.135894 -0.019785
v 0.021229 0.051282 0.013535
v -0.024913 0.051282 0.00328
v 0.005847 0.151282 -0.022352
v -0.027479 0.130765 0.005847
v 0.005847 0.130765 -0.027479
v 0.021229 0.151282 -0.00953
v -0.00953 0.151282 0.021229
v 0.013535 0.051282 0.021229
v 0.016102 0.051282 -0.019785
v -0.019785 0.051282 0.016102
v -0.022352 0.151282 0.005847
v -0.022352 0.130765 -0.017224
v -0.001842 0.051282 -0.024913
v -0.006969 0.151282 -0.022352
v 0.021229 0.130765 0.018663
v -0.012097 0.130765 -0.024913
v 0.013535 0.151282 0.018663
v -0.022352 0.051282 0.010974
v 0.010974 0.051282 -0.022352
v 0.021229 0.130765 -0.019785
v -0.019785 0.130765 0.021229
v -0.019785 0.151282 -0.012097
v 0.013535 0.151282 -0.019785
f 5 32 52
f 6 4 7
f 4 6 10
f 7 4 11
f 1 9 12
f 6 7 14
f 8 11 15
f 9 1 17
f 10 6 19
f 13 1 20
f 4 13 20
f 1 12 22
f 8 15 22
f 2 3 23
f 14 2 23
f 6 14 23
f 21 6 23
f 3 2 24
f 12 9 24
f 7 11 26
f 11 8 26
f 4 10 27
f 13 4 27
f 11 4 30
f 4 20 30
f 2 14 31
f 14 7 31
f 9 17 32
f 24 2 33
f 2 31 33
f 19 18 34
f 32 5 34
f 18 32 34
f 1 13 35
f 17 1 35
f 13 29 35
f 29 17 35
f 22 12 36
f 8 22 36
f 28 8 36
f 12 28 36
f 15 11 37
f 25 15 37
f 11 30 37
f 30 25 37
f 10 19 38
f 31 7 39
f 12 24 40
f 28 12 40
f 16 28 40
f 33 16 40
f 24 33 40
f 9 21 41
f 23 3 41
f 21 23 41
f 3 24 41
f 6 18 42
f 19 6 42
f 18 19 42
f 21 9 43
f 9 32 43
f 32 18 43
f 20 1 44
f 1 25 44
f 30 20 44
f 25 30 44
f 18 6 45
f 6 21 45
f 21 43 45
f 43 18 45
f 1 22 46
f 22 15 46
f 15 25 46
f 25 1 46
f 16 33 47
f 33 31 47
f 39 16 47
f 31 39 47
f 34 5 48
f 19 34 48
f 5 38 48
f 38 19 48
f 27 10 49
f 13 27 49
f 5 29 49
f 29 13 49
f 38 5 49
f 10 38 49
f 7 26 50
f 26 8 50
f 8 28 50
f 28 16 50
f 39 7 50
f 16 39 50
f 24 9 51
f 9 41 51
f 41 24 51
f 29 5 52
f 17 29 52
f 32 17 52
