# Created by Open3D 
# object name: 2d0dc184822a4f24be85986d0ea7fb8d_collider9
# number of vertices: 34
# number of triangles: 64
v -0.0427834 0.0532843 -0.0244767
v -0.0397664 -0.0603017 -0.0242347
v -0.0353034 0.0483713 -0.00934471
v -0.0367914 0.0498773 0.0338293
v -0.0427434 -0.0513627 -0.0227437
v -0.0308354 -0.0603017 0.0144703
v -0.0338144 -0.0603017 0.0382973
v -0.0308354 0.0528573 0.0338293
v -0.0442344 0.0528573 -0.0212517
v -0.0353034 -0.0528467 -0.0152987
v -0.0367914 0.0394543 -0.0197667
v -0.0308354 -0.0603017 0.0397883
v -0.0338144 0.0483713 0.0382973
v -0.0323254 0.0200923 0.00851029
v -0.0414654 0.0560503 -0.0244657
v -0.0367914 0.0528573 0.0323373
v -0.0353034 0.0305153 -0.0123217
v -0.0367914 -0.0603017 -0.0197667
v -0.0353034 -0.00667974 0.0368053
v -0.0412554 -0.0603017 -0.0242347
v -0.0308354 0.0528573 0.0368053
v -0.0442344 0.0424343 -0.0242347
v -0.0442344 0.0453913 -0.0212517
v -0.0308354 0.0126383 0.0234003
v -0.0338144 0.0513513 0.00406029
v -0.0338144 -0.0468987 -0.00636771
v -0.0367914 0.0468983 0.0338293
v -0.0323254 0.0468983 0.0144703
v -0.0412554 -0.0603017 -0.0197667
v -0.0308354 -0.0528467 0.0144703
v -0.0323254 -0.0603017 0.0397883
v -0.0338144 -0.0603017 -0.00636771
v -0.0427434 -0.0513627 -0.0242347
v -0.0338144 0.0409273 -0.000407713
f 25 28 34
f 2 6 7
f 7 6 12
f 6 8 12
f 2 1 15
f 1 9 15
f 11 2 15
f 3 11 15
f 9 4 16
f 4 13 16
f 15 9 16
f 11 3 17
f 10 11 17
f 6 2 18
f 2 11 18
f 11 10 18
f 5 7 19
f 13 4 19
f 7 13 19
f 1 2 20
f 2 7 20
f 12 8 21
f 13 12 21
f 8 15 21
f 16 13 21
f 15 16 21
f 9 1 22
f 4 9 23
f 9 22 23
f 22 5 23
f 8 6 24
f 3 15 25
f 15 8 25
f 10 17 26
f 19 4 27
f 5 19 27
f 4 23 27
f 23 5 27
f 8 24 28
f 24 14 28
f 25 8 28
f 7 5 29
f 5 20 29
f 20 7 29
f 17 14 30
f 24 6 30
f 14 24 30
f 6 26 30
f 26 17 30
f 7 12 31
f 13 7 31
f 12 13 31
f 6 18 32
f 18 10 32
f 26 6 32
f 10 26 32
f 1 20 33
f 20 5 33
f 22 1 33
f 5 22 33
f 17 3 34
f 14 17 34
f 3 25 34
f 28 14 34
