# Created by Open3D 
# object name: 2d0dc184822a4f24be85986d0ea7fb8d_collider0
# number of vertices: 16
# number of triangles: 28
v -0.0383264 0.0598483 -0.0257727
v -0.0442344 0.0319993 -0.0301897
v -0.0442344 0.0498703 -0.0301897
v -0.0381694 0.0538723 -0.0318627
v -0.0397684 -0.124326 -0.0242357
v -0.0367904 -0.124326 -0.0301907
v -0.0442344 0.0364803 -0.0242357
v -0.0427444 -0.124326 -0.0272127
v -0.0381874 0.0609413 -0.0240827
v -0.0412554 -0.124326 -0.0301907
v -0.0427444 -0.124326 -0.0242357
v -0.0427444 0.0290293 -0.0316787
v -0.0442344 0.0543333 -0.0257257
v -0.0412564 0.0543333 -0.0316787
v -0.0367904 -0.0989847 -0.0301907
v -0.0412564 0.0602903 -0.0257257
f 14 3 16
f 3 2 7
f 6 5 8
f 4 1 9
f 5 6 9
f 8 2 10
f 6 8 10
f 7 2 11
f 8 5 11
f 2 8 11
f 5 9 11
f 9 7 11
f 2 3 12
f 4 6 12
f 10 2 12
f 6 10 12
f 3 7 13
f 7 9 13
f 12 3 14
f 4 12 14
f 6 4 15
f 4 9 15
f 9 6 15
f 1 4 16
f 9 1 16
f 3 13 16
f 13 9 16
f 4 14 16
