# Created by Open3D 
# object name: 2d0dc184822a4f24be85986d0ea7fb8d_collider10
# number of vertices: 27
# number of triangles: 50
v -0.0084984 -0.00225574 -0.0316807
v -0.0174344 -0.124326 -0.0376357
v -0.0174344 -0.124326 -0.0346597
v 0.0317006 -0.122811 -0.0376357
v 0.0182916 0.0230643 -0.0435917
v 0.0317006 0.0230643 -0.0376357
v -0.0174344 0.0230643 -0.0346597
v 0.0287186 -0.122811 -0.0421017
v -0.0025434 -0.0781577 -0.0316807
v -0.0174344 -0.109422 -0.0316807
v 0.0325216 -0.0391057 -0.0360987
v 0.0123376 -0.124326 -0.0421017
v 0.0302096 0.0230643 -0.0421017
v -0.0174344 0.0141193 -0.0316807
v 0.0272326 -0.0245887 -0.0435917
v 0.0317006 -0.122811 -0.0406127
v 0.0317006 -0.0781577 -0.0361487
v -0.0040294 0.0215643 -0.0331707
v 0.0317006 0.0230643 -0.0406127
v -0.0040294 -0.0245887 -0.0316807
v 0.0227596 -0.0364917 -0.0435917
v 0.0272326 0.0230643 -0.0435917
v -0.0144524 -0.107922 -0.0316807
v 0.0182916 0.0111473 -0.0435917
v 0.0212686 -0.124326 -0.0391237
v -0.0070074 0.0230643 -0.0331707
v -0.0084984 -0.122811 -0.0346597
f 4 10 27
f 6 5 7
f 2 3 7
f 5 2 7
f 7 3 10
f 9 1 10
f 6 1 11
f 3 2 12
f 5 6 13
f 10 1 14
f 7 10 14
f 15 13 16
f 11 4 16
f 8 15 16
f 9 4 17
f 4 11 17
f 11 9 17
f 1 6 18
f 14 1 18
f 6 11 19
f 13 6 19
f 16 13 19
f 11 16 19
f 1 9 20
f 11 1 20
f 9 11 20
f 8 12 21
f 5 15 21
f 15 8 21
f 5 13 22
f 15 5 22
f 13 15 22
f 4 9 23
f 10 4 23
f 9 10 23
f 2 5 24
f 12 2 24
f 5 21 24
f 21 12 24
f 4 3 25
f 3 12 25
f 12 8 25
f 16 4 25
f 8 16 25
f 6 7 26
f 7 14 26
f 18 6 26
f 14 18 26
f 3 4 27
f 10 3 27
