# Created by Open3D 
# object name: 2d0dc184822a4f24be85986d0ea7fb8d_collider4
# number of vertices: 36
# number of triangles: 68
v -0.0278574 0.0573183 -0.0391247
v -0.0171324 0.0730863 -0.0244887
v -0.0166324 0.0720873 -0.0276897
v 0.0317006 0.0230833 -0.0376347
v -0.0404574 0.0277793 -0.0314877
v 0.0242446 0.0543363 -0.0450777
v 0.0227526 0.0260613 -0.0450777
v 0.0300826 0.0611883 -0.0318137
v -0.0394694 0.0596893 -0.0233627
v 0.0052706 0.0684733 -0.0373357
v -0.0382764 0.0290393 -0.0361437
v -0.0070054 0.0230833 -0.0331707
v -0.0248794 0.0632783 -0.0391247
v -0.0382764 0.0528493 -0.0361437
v 0.0317006 0.0573133 -0.0316817
v 0.0138256 0.0588053 -0.0450777
v 0.0209086 0.0678293 -0.0318807
v -0.0187774 0.0730763 -0.0231357
v 0.0182896 0.0230833 -0.0435887
v -0.0367844 0.0424403 -0.0376327
v 0.0317006 0.0230833 -0.0406117
v -0.0174314 0.0230833 -0.0346587
v -0.0026884 0.0721113 -0.0318677
v -0.0323134 0.0603013 -0.0376307
v -0.0292324 0.0679523 -0.0248757
v -0.0106834 0.0667813 -0.0385987
v 0.0257306 0.0513583 -0.0450777
v 0.0182896 0.0588053 -0.0450777
v 0.0138256 0.0543363 -0.0450777
v 0.0257306 0.0275523 -0.0450777
v 0.0258336 0.0633513 -0.0346587
v 0.0167906 0.0692653 -0.0318747
v 0.0288696 0.0552503 -0.0387757
v 0.0173656 0.0658343 -0.0373417
v -0.0338064 0.0349993 -0.0376327
v -0.0107734 0.0697283 -0.0346587
f 10 26 36
f 9 5 12
f 5 9 14
f 11 5 14
f 12 4 15
f 6 7 16
f 1 13 16
f 2 3 18
f 9 12 18
f 15 8 18
f 12 15 18
f 8 17 18
f 11 7 19
f 4 12 19
f 11 14 20
f 15 4 21
f 4 19 21
f 19 7 21
f 5 11 22
f 12 5 22
f 11 19 22
f 19 12 22
f 3 2 23
f 13 1 24
f 14 9 24
f 1 20 24
f 20 14 24
f 3 13 25
f 18 3 25
f 9 18 25
f 13 24 25
f 24 9 25
f 10 16 26
f 16 13 26
f 7 6 27
f 6 16 28
f 16 10 28
f 1 16 29
f 16 7 29
f 7 20 29
f 20 1 29
f 21 7 30
f 7 27 30
f 27 21 30
f 8 6 31
f 17 8 31
f 6 28 31
f 2 18 32
f 18 17 32
f 23 2 32
f 10 23 32
f 6 8 33
f 8 15 33
f 15 21 33
f 27 6 33
f 21 27 33
f 28 10 34
f 17 31 34
f 31 28 34
f 32 17 34
f 10 32 34
f 7 11 35
f 20 7 35
f 11 20 35
f 13 3 36
f 3 23 36
f 23 10 36
f 26 13 36
