# Created by Open3D 
# object name: 2d0dc184822a4f24be85986d0ea7fb8d_collider5
# number of vertices: 18
# number of triangles: 32
v -0.0338094 -0.0632467 -0.0301907
v -0.0427434 0.0126303 -0.0316807
v -0.0427434 0.0290213 -0.0316807
v -0.0174344 -0.124324 -0.0376337
v -0.0174344 0.0170883 -0.0316807
v -0.0382764 0.0290213 -0.0361457
v -0.0367874 -0.124324 -0.0346557
v -0.0174344 -0.109433 -0.0316807
v -0.0382764 -0.124324 -0.0301927
v -0.0278594 0.0290213 -0.0361457
v -0.0397654 0.0290213 -0.0301907
v -0.0174344 0.0290213 -0.0331687
v -0.0219034 -0.124324 -0.0376337
v -0.0397684 -0.119851 -0.0316807
v -0.0204144 -0.124324 -0.0331697
v -0.0397654 -0.100472 -0.0301907
v -0.0382764 0.0185893 -0.0361457
v -0.0352984 -0.124324 -0.0301927
f 16 9 18
f 2 3 6
f 5 1 8
f 4 5 8
f 7 4 9
f 6 3 10
f 4 6 10
f 3 2 11
f 1 5 11
f 10 3 11
f 10 11 12
f 5 4 12
f 4 10 12
f 11 5 12
f 6 4 13
f 4 7 13
f 2 7 14
f 7 9 14
f 4 8 15
f 9 4 15
f 11 2 16
f 1 11 16
f 2 14 16
f 14 9 16
f 2 6 17
f 7 2 17
f 6 13 17
f 13 7 17
f 8 1 18
f 15 8 18
f 9 15 18
f 1 16 18
