# Created by Open3D 
# object name: 2d0dc184822a4f24be85986d0ea7fb8d_collider2
# number of vertices: 24
# number of triangles: 44
v 0.0331896 -0.124326 -0.0391147
v 0.0406316 0.0558353 0.0144773
v 0.0392086 0.0597373 0.0156703
v 0.0406326 -0.124326 0.0144713
v 0.0421226 -0.122827 -0.000420713
v 0.0346796 0.0558353 -0.0331617
v 0.0317016 -0.0766747 -0.0316737
v 0.0314936 0.0589783 -0.0323227
v 0.0361706 -0.122827 -0.0391147
v 0.0421206 0.0364543 0.0114953
v 0.0391416 -0.121345 0.0144713
v 0.0436116 -0.122827 0.0144713
v 0.0317016 0.0528193 -0.0391197
v 0.0317006 -0.122827 -0.0406077
v 0.0376546 0.0453953 -0.0182687
v 0.0376546 0.0642403 0.00727229
v 0.0421206 0.0498573 0.0144773
v 0.0317006 -0.122827 -0.0361377
v 0.0406316 0.0558353 0.00404829
v 0.0436116 -0.122827 0.0114893
v 0.0331896 -0.121345 -0.0406077
v 0.0391416 -0.124326 0.0129783
v 0.0376546 0.0558353 -0.0167807
v 0.0391436 0.0334733 -0.00935071
f 15 10 24
f 4 1 5
f 5 1 9
f 4 3 11
f 3 4 12
f 8 6 13
f 6 9 13
f 9 1 14
f 8 13 14
f 5 9 15
f 9 6 15
f 3 2 16
f 8 7 16
f 6 8 16
f 11 3 16
f 7 11 16
f 2 3 17
f 3 12 17
f 7 8 18
f 11 7 18
f 14 1 18
f 8 14 18
f 16 2 19
f 2 17 19
f 17 10 19
f 4 5 20
f 5 10 20
f 12 4 20
f 17 12 20
f 10 17 20
f 13 9 21
f 9 14 21
f 14 13 21
f 1 4 22
f 4 11 22
f 18 1 22
f 11 18 22
f 15 6 23
f 10 15 23
f 6 16 23
f 19 10 23
f 16 19 23
f 10 5 24
f 5 15 24
