# Created by Open3D 
# object name: 1878341a4ac34cb49896188da4169c95_collider0
# number of vertices: 46
# number of triangles: 88
v 0.023924 0.136354 0.00392101
v -0.024561 0.100008 -0.00515599
v -0.021523 0.100008 -0.014251
v 0.020887 0.057594 0.013015
v -0.01244 0.136354 0.02211
v 0.00877 0.136354 -0.023345
v 0.014826 0.057594 -0.020311
v -0.021523 0.057594 0.013015
v -0.0185 0.057594 -0.017276
v -0.024561 0.136354 -0.00212599
v 0.011803 0.057594 0.02211
v 0.011803 0.136354 0.02211
v -0.005936 0.148084 0.00640201
v -0.009407 0.136354 -0.023345
v 0.023924 0.100008 -0.00818599
v -0.006379 0.057594 -0.023345
v -0.009407 0.057594 0.02211
v 0.017863 0.139379 -0.017276
v 0.023924 0.057594 -0.00515599
v -0.021523 0.136354 0.013015
v 0.008033 0.147708 -0.00478799
v 0.023924 0.103042 0.00998501
v -0.0185 0.136354 -0.017276
v -0.005872 0.147588 -0.00755299
v 0.017863 0.100008 0.019075
v -0.024561 0.100008 0.00695501
v -0.021523 0.057594 -0.011221
v 0.020887 0.136354 0.013015
v 0.020887 0.057594 -0.014251
v 0.005174 0.147111 0.00899101
v 0.005742 0.057594 -0.023345
v -0.0185 0.142413 0.013015
v 0.020887 0.136354 -0.014251
v 0.014826 0.142413 -0.017276
v -0.015463 0.057594 0.019075
v -0.015463 0.100008 -0.020311
v 0.023924 0.057594 0.00392101
v 0.023924 0.136354 -0.00515599
v -0.003033 0.143922 0.014315
v -0.008616 0.147431 -0.00476099
v 0.014826 0.136354 -0.020311
v 0.007947 0.147264 0.00626901
v -0.024561 0.136354 0.000895006
v -0.01244 0.100008 0.02211
v -0.009407 0.100008 -0.023345
v 0.00877 0.100008 -0.023345
f 7 31 46
f 7 4 8
f 7 8 9
f 3 2 10
f 8 4 11
f 5 11 12
f 7 9 16
f 14 6 16
f 11 5 17
f 8 11 17
f 4 7 19
f 15 1 19
f 8 5 20
f 19 1 22
f 9 3 23
f 3 10 23
f 13 21 24
f 14 23 24
f 11 4 25
f 12 11 25
f 4 22 25
f 2 8 26
f 10 2 26
f 8 20 26
f 2 3 27
f 8 2 27
f 9 8 27
f 3 9 27
f 22 1 28
f 12 25 28
f 25 22 28
f 7 18 29
f 19 7 29
f 15 19 29
f 16 6 31
f 7 16 31
f 20 5 32
f 29 18 33
f 15 29 33
f 6 14 34
f 18 6 34
f 14 24 34
f 24 21 34
f 8 17 35
f 9 23 36
f 23 14 36
f 4 19 37
f 22 4 37
f 19 22 37
f 1 15 38
f 21 1 38
f 15 33 38
f 33 18 38
f 18 34 38
f 34 21 38
f 5 12 39
f 12 30 39
f 30 13 39
f 32 5 39
f 13 32 39
f 23 10 40
f 13 24 40
f 24 23 40
f 10 32 40
f 32 13 40
f 7 6 41
f 6 18 41
f 18 7 41
f 1 21 42
f 21 13 42
f 28 1 42
f 12 28 42
f 30 12 42
f 13 30 42
f 10 26 43
f 26 20 43
f 20 32 43
f 32 10 43
f 5 8 44
f 17 5 44
f 8 35 44
f 35 17 44
f 16 9 45
f 14 16 45
f 9 36 45
f 36 14 45
f 6 7 46
f 31 6 46
