# Created by Open3D 
# object name: be9888a7a5c34c3c8e6377969ec78741_collider3
# number of vertices: 64
# number of triangles: 124
v -0.034077 0.010101 0.003942
v 0.00641 -0.002892 0.054725
v 0.00641 -0.007733 0.054725
v -0.006972 -0.001673 0.004648
v -0.027364 -0.009673 0.021472
v -0.023656 0.005333 0.039025
v -0.016691 0.013202 0.005003
v -0.015822 -0.010565 0.004587
v -0.013206 0.010583 0.035557
v -0.036042 -0.002691 0.003782
v -0.014061 -0.01049 0.041809
v 0.002786 0.001867 0.035663
v 0.000698 -0.011885 0.043269
v -0.029937 0.000101001 0.030336
v -0.019348 -0.002545 0.045318
v -0.023031 -0.011625 0.009671
v -0.025514 0.012439 0.019767
v -0.008855 0.007947 0.005062
v -0.008717 0.003647 0.049022
v 0.004764 -0.006181 0.039317
v -0.00797 0.009702 0.032931
v -0.031758 0.007177 0.021493
v -0.029021 -0.005177 0.029448
v -0.010571 -0.007778 0.004919
v -0.016706 -0.012268 0.032985
v -0.022105 0.014431 0.004364
v -0.011345 -0.004403 0.050122
v -0.031353 -0.008145 0.003928
v 0.00641 -0.000952999 0.052779
v -0.034473 -0.003455 0.015255
v -0.034554 0.004546 0.015199
v -0.021085 -0.009548 0.036468
v -0.01928 0.008778 0.038105
v -0.016709 0.012484 0.027694
v -0.006988 0.003633 0.004695
v -0.003631 0.007077 0.030313
v -0.009549 -0.012489 0.030367
v 0.00641 -0.00967 0.052779
v 0.00641 1.50008e-05 0.047941
v -0.028824 0.00792 0.027711
v -0.007933 0.007117 0.043473
v 0.004812 -0.002608 0.038446
v -0.015818 0.003623 0.046187
v -0.017579 -0.006941 0.044422
v -0.028472 0.013625 0.004187
v -0.032567 0.009794 0.013592
v -0.024945 -0.010858 0.003977
v -0.009512 -0.007149 0.049355
v -0.025537 -0.000782999 0.038291
v -0.014087 0.01223 0.005206
v 0.004133 -0.008558 0.04158
v -0.011345 -0.000810999 0.05012
v -0.020291 -0.01242 0.022325
v -0.023689 -0.006014 0.038193
v -0.035993 0.004643 0.006591
v -0.012233 -0.012529 0.036676
v -0.0079 -0.0043 0.004793
v -0.022666 0.01041 0.031139
v -0.02983 0.002733 0.030323
v -0.03273 -0.003464 0.02235
v 0.004469 -0.007733 0.054725
v -0.025455 -0.009534 0.028573
v -0.014946 0.006252 0.044392
v -0.004464 0.007096 0.039926
f 41 29 64
f 13 8 24
f 16 5 28
f 2 3 29
f 19 2 29
f 10 28 30
f 28 5 30
f 25 11 32
f 9 21 34
f 21 7 34
f 26 17 34
f 7 26 34
f 33 9 34
f 18 12 35
f 1 26 35
f 26 18 35
f 12 18 36
f 8 13 37
f 16 8 37
f 29 3 38
f 29 38 39
f 12 36 39
f 36 21 39
f 38 20 39
f 19 29 41
f 20 4 42
f 4 35 42
f 35 12 42
f 12 39 42
f 39 20 42
f 6 15 43
f 27 15 44
f 32 11 44
f 26 1 45
f 17 26 45
f 31 22 46
f 40 17 46
f 22 40 46
f 45 1 46
f 17 45 46
f 4 8 47
f 10 1 47
f 8 16 47
f 28 10 47
f 16 28 47
f 1 35 47
f 35 4 47
f 11 38 48
f 27 44 48
f 44 11 48
f 15 6 49
f 14 23 49
f 7 21 50
f 18 26 50
f 26 7 50
f 36 18 50
f 21 36 50
f 13 24 51
f 38 13 51
f 20 38 51
f 2 19 52
f 15 27 52
f 43 15 52
f 19 43 52
f 5 16 53
f 16 37 53
f 44 15 54
f 32 44 54
f 15 49 54
f 49 23 54
f 1 10 55
f 10 30 55
f 30 31 55
f 46 1 55
f 31 46 55
f 11 25 56
f 37 13 56
f 38 11 56
f 13 38 56
f 25 53 56
f 53 37 56
f 8 4 57
f 4 20 57
f 24 8 57
f 51 24 57
f 20 51 57
f 6 33 58
f 34 17 58
f 33 34 58
f 40 6 58
f 17 40 58
f 22 31 59
f 6 40 59
f 40 22 59
f 49 6 59
f 14 49 59
f 23 14 60
f 30 5 60
f 31 30 60
f 59 31 60
f 14 59 60
f 3 2 61
f 38 3 61
f 27 48 61
f 48 38 61
f 2 52 61
f 52 27 61
f 25 32 62
f 5 53 62
f 53 25 62
f 54 23 62
f 32 54 62
f 60 5 62
f 23 60 62
f 33 6 63
f 9 33 63
f 41 9 63
f 19 41 63
f 6 43 63
f 43 19 63
f 21 9 64
f 29 39 64
f 39 21 64
f 9 41 64
