# Created by Open3D 
# object name: be9888a7a5c34c3c8e6377969ec78741_collider2
# number of vertices: 64
# number of triangles: 124
v -0.026978 -0.007294 -0.026783
v 0.010563 -0.006354 -0.066136
v 0.010547 -0.004519 -0.066108
v 0.001323 -0.001686 -0.027677
v -0.023971 0.013643 -0.026998
v 0.030624 -0.007735 -0.058596
v 0.009979 0.007863 -0.047787
v -0.009082 0.006991 -0.054719
v 0.002277 -0.013397 -0.04605
v -0.018909 -0.003465 -0.046926
v -0.0013 0.008127 -0.027184
v 0.027716 -0.000954999 -0.064405
v -0.008231 -0.010357 -0.027821
v -0.002175 -0.010544 -0.058412
v 0.006533 0.007892 -0.058237
v -0.0303 0.006386 -0.02792
v 0.022374 -0.01089 -0.064255
v -0.013763 0.014302 -0.032693
v 0.030624 -0.002889 -0.058596
v 0.025774 -0.011609 -0.056659
v -0.006578 -0.004348 -0.059265
v -0.019446 -0.010841 -0.026988
v -0.0217 0.009809 -0.039841
v 0.00049 -0.013499 -0.053261
v -0.013573 -0.009592 -0.047803
v 0.005825 0.003615 -0.062988
v -0.010925 0.011446 -0.046923
v -0.029389 -0.001763 -0.031543
v -0.018871 0.004451 -0.046925
v 0.025774 -0.005798 -0.067316
v -0.000427 -0.00518 -0.027713
v -0.005616 0.011323 -0.02787
v 0.005676 0.009651 -0.052159
v 0.01041 -0.009868 -0.064967
v -0.028963 0.010172 -0.026675
v 0.003163 -0.000842999 -0.063927
v 0.011357 -0.013536 -0.054186
v -0.024343 0.003596 -0.039846
v -0.019966 -0.008836 -0.038937
v -0.003891 -0.008612 -0.027838
v -0.009396 -0.01254 -0.041549
v 0.002286 -0.005346 -0.06402
v 0.027722 -0.010277 -0.062888
v -0.030771 -0.002721 -0.026701
v 0.025774 -0.008702 -0.053753
v 0.006712 -0.012428 -0.059415
v 0.022872 -0.001919 -0.066342
v -0.011842 6.00008e-05 -0.054844
v -0.000433 0.008674 -0.056388
v -0.024614 -0.002638 -0.039769
v -0.014499 0.014142 -0.027565
v 0.01249 0.005231 -0.044346
v -0.005624 0.001795 -0.059068
v -0.008336 0.013268 -0.039006
v 0.025774 -0.007735 -0.067316
v 0.029651 -0.003858 -0.063439
v -0.012629 -0.0043 -0.053906
v 0.013658 0.004453 -0.061883
v 0.001311 0.000931001 -0.027773
v -0.017041 0.012309 -0.039931
v 0.009348 -0.013265 -0.049594
v 0.009984 0.007867 -0.055597
v -0.00214 0.006086 -0.058956
v 0.029651 -0.001919 -0.058596
f 12 62 64
f 4 6 19
f 11 1 22
f 9 13 22
f 14 24 25
f 8 23 27
f 23 8 29
f 2 3 30
f 4 11 31
f 11 22 31
f 1 11 35
f 11 5 35
f 5 23 35
f 23 16 35
f 26 3 36
f 17 20 37
f 9 24 37
f 16 23 38
f 28 16 38
f 23 29 38
f 22 1 39
f 1 28 39
f 13 20 40
f 22 13 40
f 31 22 40
f 9 22 41
f 24 9 41
f 25 24 41
f 22 39 41
f 39 25 41
f 3 2 42
f 14 21 42
f 2 34 42
f 34 14 42
f 36 3 42
f 6 20 43
f 20 17 43
f 28 1 44
f 16 28 44
f 1 35 44
f 35 16 44
f 6 4 45
f 20 6 45
f 4 31 45
f 40 20 45
f 31 40 45
f 24 14 46
f 14 34 46
f 34 17 46
f 17 37 46
f 37 24 46
f 3 26 47
f 30 3 47
f 12 30 47
f 29 8 48
f 10 29 48
f 15 26 49
f 8 27 49
f 33 15 49
f 27 33 49
f 10 25 50
f 29 10 50
f 28 38 50
f 38 29 50
f 25 39 50
f 39 28 50
f 5 11 51
f 18 5 51
f 11 32 51
f 32 11 52
f 7 32 52
f 42 21 53
f 36 42 53
f 48 8 53
f 21 48 53
f 27 18 54
f 32 7 54
f 7 33 54
f 33 27 54
f 18 51 54
f 51 32 54
f 2 30 55
f 34 2 55
f 17 34 55
f 43 17 55
f 43 55 56
f 19 6 56
f 12 19 56
f 30 12 56
f 6 43 56
f 55 30 56
f 21 14 57
f 25 10 57
f 14 25 57
f 48 21 57
f 10 48 57
f 26 15 58
f 12 47 58
f 47 26 58
f 11 4 59
f 4 19 59
f 19 11 59
f 5 18 60
f 23 5 60
f 18 27 60
f 27 23 60
f 13 9 61
f 20 13 61
f 9 37 61
f 37 20 61
f 33 7 62
f 15 33 62
f 12 58 62
f 58 15 62
f 26 36 63
f 8 49 63
f 49 26 63
f 53 8 63
f 36 53 63
f 11 19 64
f 19 12 64
f 52 11 64
f 7 52 64
f 62 7 64
