# Created by Open3D 
# object name: 9c502a524886459e8885534347c4abe8_collider0
# number of vertices: 64
# number of triangles: 124
v 0.0549673 -0.0295724 0.00251904
v -0.0542677 -0.0341194 -0.00429296
v -0.0517327 -0.0407464 -0.011069
v 0.00510525 0.0762036 -0.021175
v -0.00641875 -0.0135274 0.054441
v 0.00945125 -0.0295794 -0.05438
v 0.00951225 -0.0733114 0.023163
v -0.0115547 0.0762036 0.019295
v 0.0425573 -0.0111134 0.033575
v -0.0395017 -0.00662341 -0.035178
v 0.0117503 -0.0707384 -0.027139
v -0.0400687 -0.0269354 0.038423
v 0.0170103 0.0762036 0.014529
v 0.0449543 -0.0133784 -0.030969
v -0.0210767 0.0762036 -0.00688696
v -0.0293117 -0.0707064 0.00480804
v -0.0266577 -0.0472494 -0.042502
v 0.0207523 -0.0476044 0.045595
v -0.0538627 -0.0112844 0.00701204
v -0.0199427 -0.0518544 0.043094
v 0.0410373 -0.0542364 -0.020087
v -0.0175507 -0.0111754 -0.051191
v 0.0193933 0.0762036 -0.00926996
v 0.0409593 -0.0541324 0.020551
v 0.0160233 -0.0111904 0.051775
v 0.0516663 -0.00446541 0.00694004
v 0.0159543 -0.00890641 -0.051046
v -0.0469357 -0.0450204 0.020503
v -0.0179347 -0.0731094 -0.018022
v -0.0371547 -0.00659841 0.037746
v -0.0115547 0.0762036 -0.018792
v 0.0231383 -0.0729194 -0.011142
v -0.0513647 -0.0157254 -0.019969
v 0.0318083 -0.0449324 -0.040194
v -0.0210767 0.0762036 0.00737904
v -0.00643675 -0.0475274 -0.049549
v 0.0334653 -0.00883041 -0.041692
v 0.0517543 -0.00669841 -0.010922
v 0.0407103 -0.0336174 0.036113
v -0.0401067 -0.0292144 -0.037955
v -0.0380037 -0.0563824 -0.022296
v -0.00645175 -0.0408294 0.05244
v -0.00873875 -0.0681674 0.032068
v -0.0242577 -0.0156464 0.049456
v 0.00987125 0.0762036 0.019295
v -0.0487477 -0.0133724 0.02479
v 0.0500203 -0.0316034 -0.022324
v 0.0270803 -0.0111314 0.047043
v -0.00640775 -0.0112604 -0.05385
v 0.0322203 -0.0682844 0.00707704
v -0.0290427 -0.0632814 0.025108
v 0.0502513 -0.0453634 -0.00881796
v -0.0110157 -0.0659174 -0.033836
v -0.0200057 -0.0271304 -0.051769
v 0.0139313 -0.0520844 -0.045047
v 0.0122433 0.0762036 -0.018792
v 0.0492813 -0.0111254 0.022491
v 0.0184473 -0.0271394 0.052301
v -0.0450947 -0.0545144 0.00705304
v -0.0310937 -0.0404214 0.042926
v 0.0295733 -0.0247124 -0.046964
v 0.0501543 -0.0384814 0.018357
v 0.0206673 -0.0654674 0.029597
v -0.0508597 -0.00221041 -0.00642296
f 19 35 64
f 4 8 13
f 8 4 15
f 4 13 23
f 23 13 26
f 19 2 28
f 7 16 29
f 15 4 31
f 10 15 31
f 22 10 31
f 11 21 32
f 7 29 32
f 29 11 32
f 3 2 33
f 15 10 33
f 2 19 33
f 21 11 34
f 8 15 35
f 30 8 35
f 14 23 38
f 26 1 38
f 23 26 38
f 18 24 39
f 3 33 40
f 33 10 40
f 29 16 41
f 3 40 41
f 40 17 41
f 16 7 43
f 42 20 43
f 18 42 43
f 5 8 44
f 8 30 44
f 30 12 44
f 42 5 44
f 8 5 45
f 13 8 45
f 5 25 45
f 19 28 46
f 28 12 46
f 12 30 46
f 35 19 46
f 30 35 46
f 21 34 47
f 38 1 47
f 14 38 47
f 9 13 48
f 39 9 48
f 13 45 48
f 45 25 48
f 4 27 49
f 27 6 49
f 31 4 49
f 22 31 49
f 32 21 50
f 7 32 50
f 16 43 51
f 43 20 51
f 47 1 52
f 21 47 52
f 24 50 52
f 50 21 52
f 11 29 53
f 17 36 53
f 29 41 53
f 41 17 53
f 10 22 54
f 6 36 54
f 36 17 54
f 17 40 54
f 40 10 54
f 49 6 54
f 22 49 54
f 6 34 55
f 34 11 55
f 36 6 55
f 11 53 55
f 53 36 55
f 4 23 56
f 23 14 56
f 27 4 56
f 14 37 56
f 37 27 56
f 13 9 57
f 1 26 57
f 26 13 57
f 9 39 57
f 25 5 58
f 18 39 58
f 5 42 58
f 42 18 58
f 48 25 58
f 39 48 58
f 2 3 59
f 28 2 59
f 3 41 59
f 41 16 59
f 16 51 59
f 51 28 59
f 12 28 60
f 20 42 60
f 44 12 60
f 42 44 60
f 28 51 60
f 51 20 60
f 6 27 61
f 34 6 61
f 37 14 61
f 27 37 61
f 47 34 61
f 14 47 61
f 39 24 62
f 52 1 62
f 24 52 62
f 1 57 62
f 57 39 62
f 24 18 63
f 43 7 63
f 18 43 63
f 7 50 63
f 50 24 63
f 15 33 64
f 33 19 64
f 35 15 64
